<?xml version="1.0" encoding="utf-8"?>
<!-- Generator: Adobe Illustrator 18.1.1, SVG Export Plug-In . SVG Version: 6.00 Build 0)  -->
<svg version="1.1" id="Layer_1" xmlns="http://www.w3.org/2000/svg" xmlns:xlink="http://www.w3.org/1999/xlink" x="0px" y="0px"
	 width="48px" height="66px" viewBox="0 0 48 66" enable-background="new 0 0 48 66" xml:space="preserve">
<g>
	<path fill="#22A2A4" d="M39.903,66h-32c-4.4,0-8-3.6-8-8V31.724c0-4.4,3.6-8,8-8h32c4.4,0,8,3.6,8,8V58
		C47.903,62.4,44.303,66,39.903,66z"/>
	<polygon fill="#FFFFFF" points="21.811,44.767 25.811,44.767 27.874,54.927 19.874,54.927 	"/>
	<ellipse fill="#FFFFFF" cx="23.874" cy="40.43" rx="5.469" ry="5.503"/>
	<path fill="none" stroke="#22A2A4" stroke-width="5.0157" stroke-miterlimit="10" d="M10.782,24.445V13.66
		c0,0,0.13-11.112,13.121-11.112s12.926,10.948,12.926,10.948v10.948"/>
</g>
</svg>
