<?xml version="1.0" encoding="utf-8"?>
<!-- Generator: Adobe Illustrator 18.1.1, SVG Export Plug-In . SVG Version: 6.00 Build 0)  -->
<svg version="1.1" id="Layer_1" xmlns="http://www.w3.org/2000/svg" xmlns:xlink="http://www.w3.org/1999/xlink" x="0px" y="0px"
	 width="20px" height="20px" viewBox="0 0 20 20" enable-background="new 0 0 20 20" xml:space="preserve">
<rect x="0" y="0" fill="#006468" width="20" height="20"/>
<rect x="7.987" y="18" fill="#22A2A4" width="0.992" height="0.992"/>
<rect x="8.979" y="17.008" fill="#22A2A4" width="0.992" height="0.992"/>
<rect x="10" y="16.016" fill="#22A2A4" width="0.992" height="0.992"/>
<rect x="10.992" y="15.024" fill="#22A2A4" width="0.992" height="0.992"/>
<rect x="11.984" y="14.032" fill="#22A2A4" width="0.992" height="0.992"/>
<rect x="12.976" y="12.985" fill="#22A2A4" width="0.992" height="0.992"/>
<rect x="13.968" y="11.993" fill="#22A2A4" width="0.992" height="0.992"/>
<rect x="15.038" y="11.001" fill="#22A2A4" width="0.992" height="0.992"/>
<rect x="10.992" y="17.991" fill="#22A2A4" width="0.992" height="0.992"/>
<rect x="11.984" y="16.999" fill="#22A2A4" width="0.992" height="0.992"/>
<rect x="13.005" y="16.007" fill="#22A2A4" width="0.992" height="0.992"/>
<rect x="13.997" y="15.015" fill="#22A2A4" width="0.992" height="0.992"/>
<rect x="14.989" y="14.023" fill="#22A2A4" width="0.992" height="0.992"/>
<rect x="14.032" y="18" fill="#22A2A4" width="0.992" height="0.992"/>
<rect x="15.024" y="17.008" fill="#22A2A4" width="0.992" height="0.992"/>
<rect x="16.973" y="18" fill="#22A2A4" width="0.992" height="0.992"/>
<rect x="17.965" y="17.008" fill="#22A2A4" width="0.992" height="0.992"/>
<rect x="16.045" y="16.016" fill="#22A2A4" width="0.992" height="0.992"/>
<rect x="17.037" y="15.024" fill="#22A2A4" width="0.992" height="0.992"/>
<rect x="18.029" y="14.032" fill="#22A2A4" width="0.992" height="0.992"/>
<rect x="15.981" y="12.976" fill="#22A2A4" width="0.992" height="0.992"/>
<rect x="16.973" y="11.984" fill="#22A2A4" width="0.992" height="0.992"/>
<rect x="18.043" y="10.992" fill="#22A2A4" width="0.992" height="0.992"/>
<rect x="16.03" y="10" fill="#22A2A4" width="0.992" height="0.992"/>
<rect x="17.022" y="9.008" fill="#22A2A4" width="0.992" height="0.992"/>
<rect x="18.014" y="8.016" fill="#22A2A4" width="0.992" height="0.992"/>
</svg>
