<?xml version="1.0" standalone="no"?>
<!DOCTYPE svg PUBLIC "-//W3C//DTD SVG 1.1//EN" "http://www.w3.org/Graphics/SVG/1.1/DTD/svg11.dtd" >
<svg xmlns="http://www.w3.org/2000/svg">
<metadata></metadata>
<defs>
<font id="typoninesansbold" horiz-adv-x="271" >
<font-face units-per-em="1000" ascent="780" descent="-220" />
<missing-glyph horiz-adv-x="214" />
<glyph unicode="ff" horiz-adv-x="691" d="M554 506v-29h129v-116h-129v-361h-159v361h-145v-361h-159v358h-71v110l71 9v21q0 94 74 140.5t175 46.5q63 0 128 -23q49 33 129 33q67 0 128 -26l-27 -131q-45 34 -88 34q-56 0 -56 -66zM250 489v-12h145v39q0 12 4 36q-32 17 -72 17q-77 0 -77 -80z" />
<glyph unicode="fi" horiz-adv-x="605" d="M553 477v-477h-159v361h-144v-361h-159v358h-71v110l71 9v31q0 51 21.5 89t58.5 58.5t79 30t90 9.5q91 0 181 -26l-27 -135q-69 39 -138 39q-57 0 -81.5 -15t-24.5 -59v-22h303z" />
<glyph unicode="fl" horiz-adv-x="609" d="M553 685v-685h-159v578q-34 8 -60 8q-84 0 -84 -75v-34h97v-116h-97v-361h-159v358h-71v110l71 9v31q0 51 21.5 89t58.5 58.5t79 30t90 9.5q47 0 102 -10h111z" />
<glyph unicode="ffi" horiz-adv-x="909" d="M857 477v-477h-159v361h-144v-361h-159v361h-145v-361h-159v358h-71v110l71 9v21q0 94 74 140.5t175 46.5q66 0 139 -27q64 37 165 37q91 0 181 -26l-27 -135q-69 39 -138 39q-57 0 -81.5 -15t-24.5 -59v-22h303zM250 489v-12h145v31q0 21 5 44q-32 17 -73 17 q-77 0 -77 -80z" />
<glyph unicode="ffl" horiz-adv-x="912" d="M856 685v-685h-159v578q-34 8 -60 8q-84 0 -84 -75v-34h97v-116h-97v-361h-159v361h-144v-361h-159v358h-71v110l71 9v21q0 94 74 140.5t175 46.5q64 0 139 -27q65 37 164 37q47 0 102 -10h111zM250 489v-12h144v31q0 21 5 44q-36 17 -72 17q-77 0 -77 -80z" />
<glyph unicode="fh" horiz-adv-x="928" d="M553 301v-301h-159v578q-34 8 -60 8q-84 0 -84 -75v-34h97v-116h-97v-361h-159v358h-71v110l71 9v31q0 51 21.5 89t58.5 58.5t79 30t90 9.5q47 0 102 -10h111v-264q67 75 163 75q70 0 115.5 -42t45.5 -129v-325h-159v274q0 45 -17 61.5t-48 16.5q-56 0 -100 -51z" />
<glyph unicode="fb" horiz-adv-x="919" d="M553 685v-257q27 29 66 48.5t78 19.5q95 0 146 -64t51 -179q0 -123 -73.5 -193t-194.5 -70q-130 0 -232 53v535q-34 8 -60 8q-84 0 -84 -75v-34h97v-116h-97v-361h-159v358h-71v110l71 9v31q0 51 21.5 89t58.5 58.5t79 30t90 9.5q47 0 102 -10h111zM553 304v-170 q27 -18 69 -18q48 0 76.5 30.5t28.5 89.5q0 64 -21 92t-62 28q-52 0 -91 -52z" />
<glyph unicode="fj" horiz-adv-x="605" d="M250 499v-22h303v-463q0 -238 -290 -238l-22 132q153 -8 153 112v341h-144v-361h-159v358h-71v110l71 9v31q0 51 21.5 89t58.5 58.5t79 30t90 9.5q91 0 181 -26l-27 -135q-69 39 -138 39q-57 0 -81.5 -15t-24.5 -59z" />
<glyph unicode="fk" horiz-adv-x="884" d="M716 255l173 -255h-193l-112 183l-31 -8v-175h-159v578q-34 8 -60 8q-84 0 -84 -75v-34h97v-116h-97v-361h-159v358h-71v110l71 9v31q0 51 21.5 89t58.5 58.5t79 30t90 9.5q47 0 102 -10h111v-388l29 10l104 174h173z" />
<glyph unicode="f&#xec;" horiz-adv-x="605" d="M250 506v-29h303v-477h-159v358h-144v-358h-159v358h-71v110l71 9v39q5 90 60 134.5t132 44.5q47 0 108 -16l-27 -125q-28 19 -56 19q-26 0 -42 -17t-16 -50zM559 538l-155 100l71 89l132 -132z" />
<glyph unicode="f&#xef;" horiz-adv-x="605" d="M250 506v-29h303v-477h-159v358h-144v-358h-159v358h-71v110l71 9v23q5 96 51 145.5t127 49.5q55 0 92 -16l-27 -125q-25 16 -49 16q-35 0 -35 -64zM516 614q0 29 19.5 48.5t47.5 19.5t47.5 -19.5t19.5 -48.5t-19.5 -48t-47.5 -19t-47.5 19t-19.5 48zM368 614 q0 29 19.5 48.5t47.5 19.5t47.5 -19.5t19.5 -48.5t-19.5 -48t-47.5 -19t-47.5 19t-19.5 48z" />
<glyph unicode="ft" horiz-adv-x="749" d="M250 506v-29h159l30 124h128v-124h144v-119h-144v-176q2 -36 16 -51t44 -15q43 0 89 38l23 -125q-76 -39 -159 -39q-79 0 -125.5 38t-46.5 121v209h-158v-358h-159v358h-71v110l71 9v39q5 92 59 135.5t143 43.5q67 0 128 -26l-27 -131q-45 34 -88 34q-56 0 -56 -66z" />
<glyph unicode="tt" horiz-adv-x="772" d="M590 358v-176q2 -36 16 -51t44 -15q43 0 89 38l23 -125q-76 -39 -159 -39q-79 0 -125.5 38t-46.5 121v209h-187v-176q2 -36 16 -51t44 -15q43 0 89 38l23 -125q-76 -39 -159 -39q-79 0 -125.5 38t-46.5 121v209h-71v109l73 10l19 124h138v-124h190l18 124h138v-124h144 v-119h-144z" />
<glyph unicode="ffb" horiz-adv-x="1221" d="M553 511v-34h97v-116h-97v-361h-159v361h-144v-361h-159v358h-71v110l71 9v21q0 94 74 140.5t175 46.5q64 0 139 -27q65 37 164 37q47 0 102 -10h111v-257q27 29 66 48.5t78 19.5q95 0 146 -64t51 -179q0 -123 -73.5 -193t-194.5 -70q-130 0 -232 53v535q-34 8 -60 8 q-84 0 -84 -75zM856 304v-170q27 -18 69 -18q48 0 76.5 30.5t28.5 89.5q0 64 -21 92t-62 28q-52 0 -91 -52zM250 489v-12h144v31q0 21 5 44q-36 17 -72 17q-77 0 -77 -80z" />
<glyph unicode="ffh" horiz-adv-x="1231" d="M856 301v-301h-159v578q-34 8 -60 8q-84 0 -84 -75v-34h97v-116h-97v-361h-159v361h-144v-361h-159v358h-71v110l71 9v21q0 94 74 140.5t175 46.5q64 0 139 -27q65 37 164 37q47 0 102 -10h111v-264q67 75 163 75q70 0 115.5 -42t45.5 -129v-325h-159v274q0 45 -17 61.5 t-48 16.5q-56 0 -100 -51zM250 489v-12h144v31q0 21 5 44q-36 17 -72 17q-77 0 -77 -80z" />
<glyph unicode="ffk" horiz-adv-x="1187" d="M1019 255l173 -255h-193l-112 183l-31 -8v-175h-159v578q-34 8 -60 8q-84 0 -84 -75v-34h97v-116h-97v-361h-159v361h-144v-361h-159v358h-71v110l71 9v21q0 94 74 140.5t175 46.5q64 0 139 -27q65 37 164 37q47 0 102 -10h111v-388l29 10l104 174h173zM250 489v-12h144 v31q0 21 5 44q-36 17 -72 17q-77 0 -77 -80z" />
<glyph unicode="ffj" horiz-adv-x="909" d="M554 499v-22h303v-463q0 -238 -290 -238l-22 132q153 -8 153 112v341h-144v-361h-159v361h-145v-361h-159v358h-71v110l71 9v21q0 94 74 140.5t175 46.5q66 0 139 -27q64 37 165 37q91 0 181 -26l-27 -135q-69 39 -138 39q-57 0 -81.5 -15t-24.5 -59zM250 489v-12h145v31 q0 21 5 44q-32 17 -73 17q-77 0 -77 -80z" />
<glyph unicode="&#x105;j" horiz-adv-x="801" d="M589 20v461h159v-467q0 -79 -40.5 -135.5t-99 -80.5t-126.5 -24q-74 0 -130.5 33t-56.5 93q0 67 64 107q-32 22 -40 66q-45 -83 -140 -83q-71 0 -114 37t-43 109q0 156 254 156q6 0 17.5 -0.5t16.5 -0.5l1 19q0 38 -13 53t-47 15q-30 0 -48.5 -13t-11.5 -39l-134 -20 q-8 21 -8 45q0 63 60.5 104t155.5 41q100 0 152.5 -42t51.5 -139l-1 -162q0 -53 43 -39l7 -110q-61 -16 -103 -13q-18 -20 -18 -42q0 -26 24 -44t65 -18q61 0 82 33.5t21 99.5zM582 637q0 37 25.5 63t62.5 26t63 -26t26 -63t-26 -62.5t-63 -25.5t-62.5 25.5t-25.5 62.5z M310 156v45q-12 1 -35 1q-91 0 -91 -57q0 -19 13.5 -28.5t30.5 -9.5q49 0 82 49z" />
<glyph unicode=" "  horiz-adv-x="214" />
<glyph unicode="&#x09;" horiz-adv-x="214" />
<glyph unicode="&#xa0;" horiz-adv-x="214" />
<glyph unicode="!" horiz-adv-x="295" d="M75 650h145v-217l-14 -183h-117l-14 184v216zM55 75q0 40 24.5 63t67.5 23q42 0 67.5 -22t25.5 -64q0 -86 -93 -86q-92 0 -92 86z" />
<glyph unicode="&#x22;" horiz-adv-x="423" d="M190 650l-27 -293h-108l-27 293h162zM395 650l-27 -293h-108l-26 293h161z" />
<glyph unicode="#" horiz-adv-x="620" d="M307 0l26 133h-105l-26 -133h-127l26 133h-80l20 92h78l19 98h-86l20 92h84l26 132h127l-26 -132h105l26 132h127l-26 -132h86l-20 -92h-84l-19 -98h92l-20 -92h-90l-26 -133h-127zM265 323l-19 -98h105l19 98h-105z" />
<glyph unicode="$" horiz-adv-x="496" d="M217 679h68v-51q83 -5 162 -46l-38 -118q-63 46 -124 54v-128q33 -13 53 -23t49 -28t45.5 -37t28.5 -47.5t12 -62.5q0 -70 -51.5 -114.5t-136.5 -56.5v-47h-68v44q-111 2 -193 55l43 113q82 -52 150 -59v155q-43 19 -66 31t-54.5 34t-46 49t-14.5 61q0 68 49.5 114.5 t131.5 55.5v52zM339 181q0 36 -54 68v-117q54 13 54 49zM172 470q0 -27 45 -50v95q-45 -11 -45 -45z" />
<glyph unicode="%" horiz-adv-x="776" d="M197 659q81 0 126.5 -43.5t45.5 -131.5q0 -75 -49.5 -124.5t-126.5 -49.5q-79 0 -126 45.5t-47 128.5q0 79 48.5 127t128.5 48zM615 555l-377 -501l-76 50l380 505zM195 409q30 0 42.5 18t12.5 57q0 76 -55 76q-31 0 -43.5 -18t-12.5 -58q0 -38 13 -56.5t43 -18.5z M579 339q81 0 126.5 -43.5t45.5 -131.5q0 -75 -49.5 -124.5t-126.5 -49.5q-79 0 -126 45.5t-47 128.5q0 79 48.5 127t128.5 48zM577 89q30 0 42.5 18t12.5 57q0 76 -55 76q-31 0 -43.5 -18t-12.5 -58q0 -38 13 -56.5t43 -18.5z" />
<glyph unicode="&#x26;" horiz-adv-x="751" d="M23 163q0 66 45 115t122 71q-25 72 -25 135q0 78 50.5 126.5t142.5 48.5q32 0 61.5 -7.5t57.5 -23.5t44.5 -46.5t16.5 -71.5q0 -69 -52 -124.5t-125 -81.5q39 -84 68 -104q24 56 29 127h234v-112h-140q-19 -47 -49 -82q33 -22 75 -22q25 0 56.5 16t52.5 42l49 -108 q-70 -71 -172 -71q-40 0 -91.5 14.5t-83.5 35.5q-72 -50 -172 -50q-81 0 -137.5 46.5t-56.5 126.5zM220 265q-49 -28 -49 -82q0 -29 18.5 -49t52.5 -20q36 0 64 13q-54 63 -86 138zM397 491q0 26 -11 42.5t-31 16.5q-19 0 -31.5 -13.5t-12.5 -40.5q0 -41 17 -102 q37 12 53 34t16 63z" />
<glyph unicode="'" horiz-adv-x="218" d="M190 650l-27 -293h-108l-27 293h162z" />
<glyph unicode="(" horiz-adv-x="362" d="M18 270q0 135 64.5 258.5t177.5 209.5l94 -88q-82 -67 -134 -165t-52 -206q0 -218 187 -381l-82 -83q-123 84 -189 205.5t-66 249.5z" />
<glyph unicode=")" horiz-adv-x="363" d="M344 270q0 -128 -66 -249.5t-189 -205.5l-82 83q187 163 187 381q0 108 -52 206t-134 165l94 88q113 -86 177.5 -209.5t64.5 -258.5z" />
<glyph unicode="*" horiz-adv-x="390" d="M257 336h-127l34 116q9 -6 24 -6q14 0 25 6zM257 650l-46 -118q-11 6 -23 6q-8 0 -18 -4l-41 116h128zM142 493q0 -21 14 -35l-73 -102l-69 104zM14 526l68 104l84 -98q-21 -9 -24 -34zM307 357l-87 101q16 12 16 33l139 -32zM375 527l-140 -29q-3 19 -21 32l93 98z" />
<glyph unicode="+" horiz-adv-x="473" d="M178 75v152h-154v101h154v151h117v-151h154v-101h-154v-152h-117z" />
<glyph unicode="," horiz-adv-x="229" d="M49 135h142q0 -68 -31.5 -142t-76.5 -131l-97 31q63 103 63 242z" />
<glyph unicode="-" horiz-adv-x="392" d="M339 187h-286v129h286v-129z" />
<glyph unicode="." horiz-adv-x="245" d="M30 75q0 40 24.5 63t67.5 23q42 0 67.5 -22t25.5 -64q0 -86 -93 -86q-92 0 -92 86z" />
<glyph unicode="/" horiz-adv-x="453" d="M327 686h118l-316 -705h-122z" />
<glyph unicode="0" horiz-adv-x="604" d="M308 659q129 0 189 -82t60 -240q0 -62 -6.5 -111.5t-24.5 -95t-46.5 -75.5t-74.5 -47.5t-108 -17.5q-128 0 -189.5 75.5t-61.5 245.5q0 171 61 259.5t201 88.5zM303 117q56 0 74.5 47.5t18.5 163.5q0 42 -1.5 68.5t-7 55.5t-15.5 44.5t-28.5 26t-44.5 10.5 q-52 0 -72.5 -51t-20.5 -152q0 -118 18 -165.5t79 -47.5z" />
<glyph unicode="1" horiz-adv-x="375" d="M20 517v129l280 13v-659h-157v523z" />
<glyph unicode="2" horiz-adv-x="534" d="M35 96q92 54 181.5 163.5t89.5 194.5q0 79 -73 79q-65 0 -120 -69l-73 105q3 4 9.5 10t28 21.5t46 27.5t63.5 21.5t80 9.5q94 0 148.5 -51t54.5 -136q0 -91 -70 -182t-170 -158h266v-132h-461v96z" />
<glyph unicode="3" horiz-adv-x="526" d="M462 494q0 -49 -34 -86t-91 -55q69 -17 109.5 -62t40.5 -113q0 -74 -60.5 -131t-182.5 -57q-134 0 -221 72l75 124q25 -21 42.5 -33.5t46.5 -23t62 -10.5q35 0 56.5 15.5t21.5 47.5q0 49 -54 74.5t-141 26.5v96q71 4 120 31.5t49 63.5q0 30 -20 44t-51 14q-64 0 -118 -58 l-68 102l9 9t27 20t45 25t63 20t80 9q86 0 140 -47t54 -118z" />
<glyph unicode="4" horiz-adv-x="559" d="M446 123v-123h-156v123h-271v88l271 439h156v-403h84v-124h-84zM168 247h122v209z" />
<glyph unicode="5" horiz-adv-x="526" d="M227 518v-104q126 0 191 -60.5t65 -153.5q0 -86 -66.5 -148t-185.5 -62q-118 0 -208 73l71 124q66 -70 138 -70q35 0 63 20t28 53q0 56 -51.5 83t-190.5 27v350h387v-132h-241z" />
<glyph unicode="6" horiz-adv-x="548" d="M349 210q0 44 -18.5 63t-55.5 19q-20 0 -38.5 -4.5t-26.5 -9.5l-9 -4q0 -85 17 -121t68 -36q63 0 63 93zM507 222q0 -108 -59 -170t-170 -62q-127 0 -182 79t-55 232q0 173 89 266t240 93q52 0 111 -12v-135q-63 17 -112 17q-142 0 -163 -136q55 25 96 25q97 0 151 -51.5 t54 -145.5z" />
<glyph unicode="7" horiz-adv-x="492" d="M479 650v-84l-251 -566h-155l231 518h-282v132h457z" />
<glyph unicode="8" horiz-adv-x="553" d="M495 494q0 -74 -120 -147q63 -30 101.5 -74.5t38.5 -95.5q0 -82 -67 -134.5t-174 -52.5t-171 45t-64 129q0 50 40 94.5t95 72.5q-57 35 -86 70.5t-29 87.5q0 71 66.5 120.5t155.5 49.5q94 0 154 -46.5t60 -118.5zM357 171q0 40 -90 99q-69 -52 -69 -97q0 -35 22.5 -54.5 t62.5 -19.5q34 0 54 19.5t20 52.5zM217 496q0 -23 15.5 -42t47.5 -44q57 50 57 80q0 25 -15 40t-44 15q-32 0 -46.5 -14.5t-14.5 -34.5z" />
<glyph unicode="9" horiz-adv-x="548" d="M199 439q0 -44 18.5 -63t55.5 -19q20 0 38.5 4.5t26.5 8.5l9 5q0 85 -17 121t-68 36q-63 0 -63 -93zM41 427q0 108 59 170t170 62q127 0 182 -79t55 -232q0 -173 -89 -266t-240 -93q-52 0 -111 12v135q63 -17 112 -17q142 0 163 136q-55 -25 -96 -25q-97 0 -151 51.5 t-54 145.5z" />
<glyph unicode=":" horiz-adv-x="299" d="M57 75q0 40 24.5 63t67.5 23q42 0 67.5 -22t25.5 -64q0 -86 -93 -86q-92 0 -92 86zM57 378q0 40 24.5 63t67.5 23q42 0 67.5 -22t25.5 -64q0 -86 -93 -86q-92 0 -92 86z" />
<glyph unicode=";" horiz-adv-x="262" d="M39 378q0 40 24.5 63t67.5 23q42 0 67.5 -22t25.5 -64q0 -86 -93 -86q-92 0 -92 86zM65 135h142q0 -68 -31.5 -142t-76.5 -131l-97 31q63 103 63 242z" />
<glyph unicode="&#x3c;" horiz-adv-x="458" d="M354 2l-328 236v97l331 224l76 -106l-252 -167l248 -181z" />
<glyph unicode="=" horiz-adv-x="539" d="M482 311h-425v106h425v-106zM482 141h-425v106h425v-106z" />
<glyph unicode="&#x3e;" horiz-adv-x="458" d="M432 238l-328 -236l-75 103l248 181l-252 167l76 106l331 -224v-97z" />
<glyph unicode="?" horiz-adv-x="432" d="M421 509q0 -39 -26.5 -71.5t-59 -51t-59 -42.5t-26.5 -49q0 -23 23 -49l-151 -37q-20 47 -20 87q0 26 15 51.5t37 45.5t44 38t37 36t15 34q0 41 -57 41q-71 0 -126 -51l-60 100q86 68 210 68q86 0 144.5 -38t59.5 -112zM115 75q0 40 24.5 63t67.5 23q42 0 67.5 -22 t25.5 -64q0 -86 -93 -86q-92 0 -92 86z" />
<glyph unicode="@" horiz-adv-x="824" d="M423 527q-147 0 -235 -87t-88 -240q0 -149 88.5 -228t218.5 -79q126 0 234 83l36 -58q-135 -97 -266 -97q-75 0 -143 22.5t-125.5 66.5t-92 119.5t-34.5 173.5q0 177 116.5 286.5t292.5 109.5q166 0 267 -99.5t101 -243.5q0 -58 -22 -114t-70.5 -96.5t-114.5 -40.5 q-47 0 -84 20.5t-42 52.5q-41 -74 -125 -74q-63 0 -102 33t-39 97q0 136 229 136h28l1 17q0 34 -11.5 47t-41.5 13q-55 0 -55 -35q0 -3 2 -11l-119 -18q-8 22 -8 40q0 55 54 91.5t138 36.5q89 0 136 -37t47 -123l-2 -183q0 -35 24 -35q30 0 52 28.5t32 67t10 77.5 q0 124 -76 202.5t-211 78.5zM451 151v40q-11 1 -31 1q-80 0 -80 -50q0 -17 11.5 -25.5t26.5 -8.5q42 0 73 43z" />
<glyph unicode="A" horiz-adv-x="611" d="M155 0h-165l224 650h181l227 -650h-171l-42 133h-216zM369 258l-7 23l-64 215l-63 -221l-5 -17h139z" />
<glyph unicode="B" horiz-adv-x="604" d="M579 203q0 -98 -58 -150.5t-156 -52.5h-298v650h251q114 0 163 -44t49 -110q0 -109 -105 -145v-2q83 -9 118.5 -51t35.5 -95zM312 277h-84v-144h101q44 0 63.5 17t19.5 54q0 40 -24 56.5t-76 16.5zM364 465q0 54 -77 54h-59v-121h51q47 0 66 15t19 52z" />
<glyph unicode="C" horiz-adv-x="592" d="M532 183l41 -135q-108 -58 -234 -58q-153 0 -232.5 85.5t-79.5 247.5q0 156 93.5 246t240.5 90q120 0 208 -54l-53 -142q-84 65 -164 65q-68 0 -111 -51.5t-43 -150.5q0 -101 41 -153.5t117 -52.5q84 0 176 63z" />
<glyph unicode="D" horiz-adv-x="687" d="M67 0v650h246q344 0 344 -311q0 -61 -9 -109.5t-32.5 -92.5t-61.5 -73.5t-98.5 -46.5t-141.5 -17h-247zM308 519h-80v-386h94q94 0 128.5 45.5t34.5 135.5q0 104 -37.5 154.5t-139.5 50.5z" />
<glyph unicode="E" horiz-adv-x="553" d="M67 650h447v-131h-286v-123h258v-130h-258v-133h285v-133h-446v650z" />
<glyph unicode="F" horiz-adv-x="520" d="M67 650h430v-131h-269v-156h245v-130h-245v-233h-161v650z" />
<glyph unicode="G" horiz-adv-x="621" d="M424 322h158v-270q-115 -62 -243 -62q-150 0 -231 88t-81 249q0 162 97.5 247t247.5 85q108 0 209 -54l-55 -144q-84 67 -161 67q-76 0 -121.5 -47.5t-45.5 -151.5q0 -109 47.5 -159t126.5 -50q25 0 52 6v196z" />
<glyph unicode="H" horiz-adv-x="693" d="M465 650h161v-650h-161v256h-237v-256h-161v650h161v-254h237v254z" />
<glyph unicode="I" horiz-adv-x="295" d="M67 650h161v-650h-161v650z" />
<glyph unicode="J" horiz-adv-x="296" d="M230 650v-586q0 -99 -68 -158t-183 -79l-45 140q33 6 52 12t41 18.5t32 34.5t10 55v563h161z" />
<glyph unicode="K" horiz-adv-x="614" d="M67 650h161v-262l45 15l149 247h179l-198 -308l219 -342h-196l-163 266l-35 -9v-257h-161v650z" />
<glyph unicode="L" horiz-adv-x="490" d="M67 650h161v-517h259v-133h-420v650z" />
<glyph unicode="M" horiz-adv-x="865" d="M648 0v394l-69 -220l-56 -174h-178l-57 171l-74 224v-395h-147v650h198l78 -212l97 -290l95 296l76 207h187v-651h-150z" />
<glyph unicode="N" horiz-adv-x="731" d="M219 201v-201h-152v650h175l142 -208l132 -203l-2 213v198h150v-650h-163l-146 215l-137 211z" />
<glyph unicode="O" horiz-adv-x="704" d="M348 659q72 0 130 -18t103.5 -56t70.5 -104t25 -156q0 -146 -88 -240.5t-240 -94.5q-145 0 -234 85.5t-89 242.5q0 149 88 245t234 96zM349 121q81 0 119 47t38 157q0 115 -37.5 159t-120.5 44q-78 0 -114.5 -47t-36.5 -163q0 -99 36.5 -148t115.5 -49z" />
<glyph unicode="P" horiz-adv-x="575" d="M67 0v650h249q128 0 188 -61t60 -162q0 -107 -67 -171t-194 -64h-75v-192h-161zM300 324q48 0 70.5 22.5t22.5 75.5q0 45 -20 71t-76 26h-69v-195h72z" />
<glyph unicode="Q" horiz-adv-x="705" d="M348 659q72 0 130 -18t103.5 -56t70.5 -104t25 -156q0 -98 -41.5 -175.5t-117.5 -119.5l160 -165l-129 -82l-152 210q-24 -3 -48 -3q-145 0 -234 85.5t-89 242.5q0 149 88 245t234 96zM349 121q81 0 119 47t38 157q0 115 -37.5 159t-120.5 44q-78 0 -114.5 -47 t-36.5 -163q0 -99 36.5 -148t115.5 -49z" />
<glyph unicode="R" horiz-adv-x="614" d="M67 0v650h244q128 0 188 -58.5t60 -158.5q0 -135 -103 -192l146 -241h-190l-112 206h-72v-206h-161zM295 335q93 0 93 97q0 46 -21 66.5t-75 20.5h-64v-184h67z" />
<glyph unicode="S" horiz-adv-x="524" d="M242 121q37 0 63 12.5t26 40.5q0 24 -22 44t-55 33.5t-71.5 33t-71.5 40.5t-55 59t-22 87q0 83 64.5 135.5t166.5 52.5q114 0 209 -52l-44 -147q-23 27 -66.5 47.5t-83.5 20.5q-75 0 -75 -47q0 -21 22 -38.5t55 -29t71.5 -30.5t71.5 -41.5t55 -64t22 -96.5 q0 -90 -73.5 -140.5t-187.5 -50.5q-128 0 -220 60l53 146q37 -34 84.5 -54.5t83.5 -20.5z" />
<glyph unicode="T" horiz-adv-x="555" d="M550 650v-131h-192v-519h-161v519h-192v131h545z" />
<glyph unicode="U" horiz-adv-x="693" d="M479 253v397h155v-427q0 -68 -28.5 -116.5t-75.5 -72.5t-93 -34t-95 -10q-41 0 -77 5t-75 20.5t-67 40.5t-46 68t-18 100v426h161v-396q0 -77 31 -105t98 -28q130 0 130 132z" />
<glyph unicode="V" horiz-adv-x="585" d="M159 650l79 -276l60 -237l58 238l71 275h166l-202 -650h-194l-207 650h169z" />
<glyph unicode="W" horiz-adv-x="892" d="M547 640l50 -259l43 -248l42 252l38 265h155l-132 -650h-221l-31 173l-48 294l-48 -295l-31 -172h-213l-137 650h165l47 -277l36 -240l40 239l49 268h196z" />
<glyph unicode="X" horiz-adv-x="583" d="M12 650h185l102 -192l103 192h162l-186 -307l213 -343h-185l-121 218l-123 -218h-165l206 336z" />
<glyph unicode="Y" horiz-adv-x="544" d="M158 650l124 -266l58 133l57 133h161l-203 -393v-257h-161v252l-210 398h174z" />
<glyph unicode="Z" horiz-adv-x="554" d="M43 519v131h474v-115l-162 -220l-140 -184h309v-131h-501v106l182 249l125 164h-287z" />
<glyph unicode="[" horiz-adv-x="315" d="M56 -167v917h250v-100h-118v-720h118v-97h-250z" />
<glyph unicode="\" horiz-adv-x="453" d="M8 686h118l320 -705h-122z" />
<glyph unicode="]" horiz-adv-x="315" d="M259 750v-917h-250v97h118v720h-118v100h250z" />
<glyph unicode="^" horiz-adv-x="529" d="M262 536l-121 -203h-120l198 317h90l199 -317h-115z" />
<glyph unicode="_" horiz-adv-x="458" d="M9 -130v87h440v-87h-440z" />
<glyph unicode="`" horiz-adv-x="450" d="M290 538l-166 107l76 96l142 -142z" />
<glyph unicode="a" horiz-adv-x="537" d="M310 156v45q-12 1 -35 1q-91 0 -91 -57q0 -19 13.5 -28.5t30.5 -9.5q49 0 82 49zM310 291l1 19q0 38 -13 53t-47 15q-30 0 -48.5 -13t-11.5 -39l-134 -20q-8 21 -8 45q0 63 60.5 104t155.5 41q100 0 152.5 -42t51.5 -139l-1 -162q0 -53 43 -39l7 -110q-48 -14 -88 -14 q-96 0 -111 83q-45 -83 -140 -83q-71 0 -114 37t-43 109q0 156 254 156q6 0 17.5 -0.5t16.5 -0.5z" />
<glyph unicode="b" horiz-adv-x="575" d="M210 685v-257q27 29 66 48.5t78 19.5q95 0 146 -64t51 -179q0 -123 -73.5 -193t-194.5 -70q-130 0 -232 53v642h159zM210 304v-170q27 -18 69 -18q48 0 76.5 30.5t28.5 89.5q0 64 -21 92t-62 28q-52 0 -91 -52z" />
<glyph unicode="c" horiz-adv-x="475" d="M190 244q0 -126 102 -126q62 0 122 49l40 -122q-84 -55 -193 -55q-104 0 -171 65t-67 189q0 107 68.5 179.5t184.5 72.5q103 0 181 -46l-52 -138q-56 56 -118 56q-45 0 -71 -31t-26 -93z" />
<glyph unicode="d" horiz-adv-x="581" d="M525 685v-685h-143l-5 71q-26 -34 -68.5 -57.5t-86.5 -23.5q-95 0 -146 64t-51 179q0 122 73 192.5t189 70.5q28 0 79 -7v196h159zM366 182v170q-27 18 -69 18q-48 0 -76.5 -30.5t-28.5 -89.5q0 -64 21 -92t62 -28q52 0 91 52z" />
<glyph unicode="e" horiz-adv-x="515" d="M306 113q32 0 71 15t70 40l40 -122q-102 -56 -213 -56q-107 0 -179 62.5t-72 193.5q0 112 70.5 181t167.5 69q111 0 169.5 -61t58.5 -200q0 -22 -1 -34h-302q10 -50 41 -69t79 -19zM184 298h145q3 47 -13 67.5t-51 20.5q-38 0 -57 -20t-24 -68z" />
<glyph unicode="f" horiz-adv-x="388" d="M250 506v-29h129v-119h-129v-358h-159v358h-71v110l71 9v39q5 92 59 135.5t143 43.5q67 0 128 -26l-27 -131q-45 34 -88 34q-56 0 -56 -66z" />
<glyph unicode="g" horiz-adv-x="557" d="M252 496q35 0 97.5 -9.5t132.5 -9.5h65v-101h-66q7 -20 7 -43q0 -64 -52.5 -109t-139.5 -56q-76 -20 -76 -36q0 -11 18.5 -16t65.5 -7t78 -6t62.5 -13.5t49.5 -24.5t29.5 -40.5t11.5 -60.5q0 -73 -79 -131.5t-203 -58.5q-118 0 -183 34t-65 95q0 44 26 72.5t80 50.5 q-34 23 -34 65q0 45 84 84q-141 32 -141 151q0 81 68 125.5t164 44.5zM297 -10q-72 4 -95 8q-53 -22 -53 -59q0 -30 28 -42.5t85 -12.5q111 0 111 59q0 26 -15 35.5t-61 11.5zM180 330q0 -31 20.5 -49.5t53.5 -18.5q74 0 74 68t-74 68t-74 -68z" />
<glyph unicode="h" horiz-adv-x="590" d="M215 301v-301h-159v685h159v-264q67 75 163 75q70 0 115.5 -42t45.5 -129v-325h-159v274q0 45 -17 61.5t-48 16.5q-56 0 -100 -51z" />
<glyph unicode="i" d="M215 481v-481h-159v481h159zM49 637q0 37 25.5 63t62.5 26t63 -26t26 -63t-26 -62.5t-63 -25.5t-62.5 25.5t-25.5 62.5z" />
<glyph unicode="j" d="M56 20v461h159v-467q0 -238 -290 -238l-22 132q153 -8 153 112zM49 637q0 37 25.5 63t62.5 26t63 -26t26 -63t-26 -62.5t-63 -25.5t-62.5 25.5t-25.5 62.5z" />
<glyph unicode="k" horiz-adv-x="546" d="M378 255l173 -255h-193l-112 183l-31 -8v-175h-159v685h159v-388l29 10l104 174h173z" />
<glyph unicode="l" d="M215 685v-685h-159v685h159z" />
<glyph unicode="m" horiz-adv-x="894" d="M215 301v-301h-159v481h145l3 -71q67 86 164 86q110 0 147 -90q71 90 167 90q70 0 115.5 -42t45.5 -129v-325h-159v274q0 45 -17 61.5t-48 16.5q-19 0 -45 -15t-45 -36v-301h-159v274q0 45 -17 61.5t-48 16.5q-20 0 -45.5 -14.5t-44.5 -36.5z" />
<glyph unicode="n" horiz-adv-x="590" d="M215 301v-301h-159v481h145l3 -71q67 86 174 86q70 0 115.5 -42t45.5 -129v-325h-159v274q0 45 -17 61.5t-48 16.5q-56 0 -100 -51z" />
<glyph unicode="o" horiz-adv-x="569" d="M22 244q0 108 73 180t190 72q124 0 192.5 -69t68.5 -183q0 -109 -70 -181.5t-190 -72.5q-122 0 -193 68t-71 186zM189 245q0 -132 92 -132q58 0 78 30t20 102q0 60 -21.5 94t-76.5 34q-50 0 -71 -32.5t-21 -95.5z" />
<glyph unicode="p" horiz-adv-x="581" d="M294 -10q-30 0 -79 7v-217h-159v701h143l5 -66q26 34 68.5 57.5t86.5 23.5q95 0 146 -64t51 -179q0 -122 -73 -192.5t-189 -70.5zM215 304v-170q27 -18 69 -18q48 0 76.5 30.5t28.5 89.5q0 64 -21 92t-62 28q-52 0 -91 -52z" />
<glyph unicode="q" horiz-adv-x="575" d="M365 -220v278q-63 -68 -144 -68q-95 0 -146 64t-51 179q0 124 78.5 193.5t199.5 69.5q118 0 222 -49v-667h-159zM365 182v170q-27 18 -69 18q-48 0 -76.5 -30.5t-28.5 -89.5q0 -64 21 -92t62 -28q52 0 91 52z" />
<glyph unicode="r" horiz-adv-x="386" d="M215 271v-271h-159v481h141l7 -97q54 105 134 105q22 0 42 -4l-12 -162q-27 11 -66 11q-49 0 -87 -63z" />
<glyph unicode="s" horiz-adv-x="461" d="M268 145q0 16 -24.5 28t-59.5 22.5t-70.5 26t-60 49t-24.5 82.5q0 62 60 102.5t150 40.5q117 0 192 -44l-46 -129q-46 55 -130 55q-61 0 -61 -27q0 -13 25 -22.5t60 -20t70.5 -27t60.5 -50.5t25 -82q0 -81 -66.5 -120t-163.5 -39q-112 0 -181 39l37 133 q25 -22 65.5 -37.5t74.5 -15.5q67 0 67 36z" />
<glyph unicode="t" horiz-adv-x="426" d="M244 358v-176q2 -36 16 -51t44 -15q43 0 89 38l23 -125q-76 -39 -159 -39q-79 0 -125.5 38t-46.5 121v209h-71v109l73 10l19 124h138v-124h144v-119h-144z" />
<glyph unicode="u" horiz-adv-x="587" d="M372 185v296h159v-481h-140l-8 76q-67 -86 -171 -86q-161 0 -161 171v320h159v-279q0 -47 15 -63.5t41 -16.5q25 0 54.5 18.5t51.5 44.5z" />
<glyph unicode="v" horiz-adv-x="510" d="M353 0h-199l-157 481h171l39 -160l52 -210l51 216l37 154h168z" />
<glyph unicode="w" horiz-adv-x="787" d="M325 0h-191l-121 481h171l27 -176l28 -173l34 169l32 180h179l36 -178l35 -171l26 168l26 181h168l-126 -481h-191l-21 95l-46 225l-45 -224z" />
<glyph unicode="x" horiz-adv-x="497" d="M253 368l57 113h170l-138 -222l154 -259h-171l-80 146l-83 -146h-162l156 250l-138 231h172z" />
<glyph unicode="y" horiz-adv-x="505" d="M510 481l-241 -701h-159l60 181l-175 520h173l50 -173l41 -158l40 149l51 182h160z" />
<glyph unicode="z" horiz-adv-x="486" d="M229 124h228v-124h-432v99l217 258h-201v124h408v-99z" />
<glyph unicode="{" horiz-adv-x="344" d="M271 -168q-103 0 -138.5 38.5t-35.5 126.5v213q0 16 -11.5 22.5t-41.5 6.5h-27v97h27q53 0 53 29v213q0 166 180 166h58v-94h-48q-39 0 -55.5 -17.5t-16.5 -52.5v-163q0 -53 -17.5 -85t-70.5 -45q88 -10 88 -123v-169q0 -35 13 -51t51 -16h56v-96h-64z" />
<glyph unicode="|" horiz-adv-x="246" d="M64 686h118v-705h-118v705z" />
<glyph unicode="}" horiz-adv-x="344" d="M73 -168h-64v96h56q38 0 51 16t13 51v169q0 113 88 123q-53 13 -70.5 45t-17.5 85v163q0 35 -16.5 52.5t-55.5 17.5h-48v94h58q180 0 180 -166v-213q0 -29 53 -29h27v-97h-27q-30 0 -41.5 -6.5t-11.5 -22.5v-213q0 -88 -35.5 -126.5t-138.5 -38.5z" />
<glyph unicode="~" horiz-adv-x="576" d="M392 201q-51 0 -115 36.5t-92 36.5q-47 0 -100 -68l-69 51q43 70 83 93.5t90 23.5q39 0 83 -18t78 -36t50 -18q24 0 40.5 15.5t48.5 64.5l71 -51q-75 -130 -168 -130z" />
<glyph unicode="&#xa1;" horiz-adv-x="267" d="M206 -165h-145v217l14 183h117l14 -184v-216zM226 410q0 -40 -24.5 -63t-67.5 -23q-42 0 -67.5 22t-25.5 64q0 86 93 86q92 0 92 -86z" />
<glyph unicode="&#xa2;" horiz-adv-x="483" d="M245 570h83v-77q71 -9 132 -43l-52 -138q-37 37 -80 50v-241q45 11 89 46l40 -122q-55 -36 -129 -49v-73h-83v68q-97 6 -158 70t-61 183q0 99 58.5 169t160.5 81v76zM193 244q0 -89 52 -116v230q-52 -28 -52 -114z" />
<glyph unicode="&#xa3;" horiz-adv-x="582" d="M120 272h-79v106h79v54q0 100 68 163.5t163 63.5q110 0 179 -53l-59 -112q-58 42 -102 42q-38 0 -65.5 -23.5t-27.5 -79.5v-55h197v-106h-197v-44q0 -67 -50 -108h133q53 0 84 19.5t55 54.5l71 -95q-17 -39 -63 -69t-130 -30h-342v89q40 3 63 35.5t23 68.5v79z" />
<glyph unicode="&#xa4;" horiz-adv-x="484" d="M82 63l-54 55l86 81q-18 35 -18 67q0 33 18 62q-13 13 -44 42t-42 40l55 56l89 -82q30 15 68 15q36 0 71 -15l89 81l58 -53l-88 -83q19 -27 19 -63q0 -35 -19 -67l88 -81l-58 -53l-88 81q-27 -16 -69 -16q-31 0 -70 17zM243 228q36 0 36 37q0 34 -36 34q-37 0 -37 -34 q0 -37 37 -37z" />
<glyph unicode="&#xa5;" horiz-adv-x="590" d="M182 650l124 -266l58 133l57 133h161l-176 -340h106v-106h-133v-34h133v-106h-133v-64h-161v64h-138v106h138v34h-138v106h107l-179 340h174z" />
<glyph unicode="&#xa6;" horiz-adv-x="266" d="M74 686h118v-303h-118v303zM74 284h118v-303h-118v303z" />
<glyph unicode="&#xa7;" horiz-adv-x="489" d="M218 -66q0 53 -85.5 249.5t-85.5 248.5q1 100 96.5 163t214.5 63q54 0 116 -9v-114q-61 37 -145 37q-47 0 -47 -59q0 -51 84 -244.5t84 -243.5q0 -59 -34 -106t-86 -73.5t-105.5 -40.5t-99.5 -14q-61 0 -116 15v117q69 -42 127 -42q79 0 82 53zM354 18q-1 48 -42.5 145 t-83 195.5t-41.5 150.5q0 22 6 30q-22 -16 -35 -45t-13 -49q0 -41 41.5 -135t83 -195.5t41.5 -160.5q0 -12 -1 -18q15 13 22.5 21t14.5 24t7 37z" />
<glyph unicode="&#xa8;" horiz-adv-x="450" d="M66 619q0 31 22 53.5t54 22.5t54 -22.5t22 -53.5t-22 -53.5t-54 -22.5t-54 22.5t-22 53.5zM258 619q0 31 22 53.5t54 22.5t54 -22.5t22 -53.5t-22 -53.5t-54 -22.5t-54 22.5t-22 53.5z" />
<glyph unicode="&#xa9;" horiz-adv-x="687" d="M341 -7q-128 0 -220 94t-92 226q0 133 91.5 227t220.5 94q132 0 224.5 -93.5t92.5 -227.5t-90.5 -227t-226.5 -93zM341 37q116 0 191.5 77t75.5 199q0 115 -76.5 195.5t-190.5 80.5q-112 0 -187 -78.5t-75 -197.5q0 -121 78 -198.5t184 -77.5zM344 107q-98 0 -149 52.5 t-51 151.5q0 95 60 150.5t154 55.5q78 0 136 -35l-36 -93q-57 43 -106 43q-40 0 -65.5 -30.5t-25.5 -88.5q0 -121 94 -121q52 0 114 41l27 -89q-71 -37 -152 -37z" />
<glyph unicode="&#xaa;" horiz-adv-x="432" d="M145 287q-56 0 -89.5 27.5t-33.5 81.5q0 30 17.5 52t47 33.5t62 16.5t69.5 5h20v19q0 26 -8.5 35.5t-30.5 9.5q-40 0 -40 -25q0 -2 2 -12l-111 -16q-8 19 -8 37q0 47 47 77.5t121 30.5q158 0 159 -134l-1 -117q0 -27 15 -27q5 0 17 5l5 -87q-43 -12 -72 -12q-68 0 -85 50 q-36 -50 -103 -50zM182 379q33 0 56 32v40h-21q-29 0 -45.5 -11t-16.5 -30q0 -15 8 -23t19 -8z" />
<glyph unicode="&#xab;" horiz-adv-x="510" d="M8 234l139 231h124l-99 -228l99 -234h-124zM225 234l139 231h123l-98 -228l98 -234h-123z" />
<glyph unicode="&#xac;" horiz-adv-x="679" d="M520 53v193h-487v89h597v-282h-110z" />
<glyph unicode="&#xae;" horiz-adv-x="544" d="M270 168q-98 0 -168.5 72t-70.5 173q0 102 70.5 174t168.5 72q100 0 171 -72t71 -174q0 -106 -70 -175.5t-172 -69.5zM270 208q88 0 142.5 56t54.5 149q0 83 -56 144t-141 61q-86 0 -140 -57t-54 -148q0 -92 57.5 -148.5t136.5 -56.5zM147 264v299h130q132 0 132 -101 q0 -60 -52 -87l51 -111h-101l-32 94h-36v-94h-92zM239 421h30q44 0 44 41q0 20 -9.5 28.5t-35.5 8.5h-29v-78z" />
<glyph unicode="&#xaf;" horiz-adv-x="450" d="M86 582v94h277v-94h-277z" />
<glyph unicode="&#xb0;" horiz-adv-x="325" d="M163 393q-65 0 -104.5 36.5t-39.5 97.5q0 59 40 95.5t104 36.5t103 -34.5t39 -97.5q0 -60 -39.5 -97t-102.5 -37zM163 459q27 0 42 18.5t15 49.5q0 65 -57 65q-61 0 -61 -65q0 -32 15.5 -50t45.5 -18z" />
<glyph unicode="&#xb1;" horiz-adv-x="495" d="M189 135v119h-154v101h154v124h117v-124h154v-101h-154v-119h-117zM35 -13v98h425v-98h-425z" />
<glyph unicode="&#xb2;" horiz-adv-x="345" d="M22 380v60q56 29 110 86.5t54 102.5q0 37 -33 37t-79 -46l-51 61q6 7 16.5 17.5t49.5 28.5t84 18q61 0 97.5 -30.5t36.5 -75.5q0 -46 -38 -92.5t-95 -83.5h149v-83h-301z" />
<glyph unicode="&#xb3;" horiz-adv-x="339" d="M159 375q-85 0 -146 43l51 75q41 -37 89 -37q18 0 32 8.5t14 23.5q0 45 -105 47v53q41 1 65 15.5t24 32.5q0 13 -12 21t-27 8q-36 0 -72 -31l-47 61q6 6 17.5 14t50 22t80.5 14q57 0 93 -27t36 -67q0 -50 -65 -75q80 -27 80 -95q0 -41 -39.5 -73.5t-118.5 -32.5z" />
<glyph unicode="&#xb4;" horiz-adv-x="450" d="M342 645l-166 -107l-52 61l142 142z" />
<glyph unicode="&#xb5;" horiz-adv-x="586" d="M373 185v297h159v-482h-140l-8 76q-67 -86 -171 -86h-39q37 -40 37 -92v-118h-159v702h159v-280q0 -47 15 -63.5t41 -16.5q25 0 54.5 18.5t51.5 44.5z" />
<glyph unicode="&#xb6;" horiz-adv-x="598" d="M339 650v-870h-120v322q-103 34 -156.5 106t-53.5 158q0 114 89 199t241 85zM420 -220v870h120v-870h-120z" />
<glyph unicode="&#xb7;" horiz-adv-x="241" d="M32 296q0 37 25.5 63t62.5 26t63 -26t26 -63t-26 -62.5t-63 -25.5t-62.5 25.5t-25.5 62.5z" />
<glyph unicode="&#xb8;" horiz-adv-x="450" d="M126 -213l24 73q25 -23 54 -23q35 0 35 27q0 34 -67 35l25 108h67l-13 -59q45 -8 69 -32t24 -60q0 -46 -37.5 -67.5t-86.5 -21.5q-56 0 -94 20z" />
<glyph unicode="&#xb9;" horiz-adv-x="250" d="M87 380v280l-75 -3v81l192 7v-365h-117z" />
<glyph unicode="&#xba;" horiz-adv-x="441" d="M222 287q-94 0 -148.5 50t-54.5 137q0 79 56 132t147 53q95 0 148 -50.5t53 -134.5q0 -81 -54 -134t-147 -53zM219 383q40 0 53.5 21t13.5 71q0 88 -67 88q-34 0 -48.5 -22t-14.5 -66q0 -92 63 -92z" />
<glyph unicode="&#xbb;" horiz-adv-x="510" d="M146 465l140 -231l-140 -231h-123l99 234l-99 228h123zM363 465l139 -231l-139 -231h-123l98 234l-98 228h123z" />
<glyph unicode="&#xbc;" horiz-adv-x="752" d="M168 39l-65 49l447 542l65 -49zM562 0v66h-164v54l168 240h112v-216h51v-78h-51v-66h-116zM493 144h69v102zM84 304v280l-75 -3v81l192 7v-365h-117z" />
<glyph unicode="&#xbd;" horiz-adv-x="790" d="M168 39l-65 49l447 542l65 -49zM463 0v60q56 29 110 86.5t54 102.5q0 37 -33 37t-79 -46l-51 61q6 7 16.5 17.5t49.5 28.5t84 18q61 0 97.5 -30.5t36.5 -75.5q0 -46 -38 -92.5t-95 -83.5h149v-83h-301zM84 304v280l-75 -3v81l192 7v-365h-117z" />
<glyph unicode="&#xbe;" horiz-adv-x="809" d="M249 39l-65 49l447 542l65 -49zM619 0v66h-164v54l168 240h112v-216h51v-78h-51v-66h-116zM550 144h69v102zM175 299q-85 0 -146 43l51 75q41 -37 89 -37q18 0 32 8.5t14 23.5q0 45 -105 47v53q41 1 65 15.5t24 32.5q0 13 -12 21t-27 8q-36 0 -72 -31l-47 61q6 6 17.5 14 t50 22t80.5 14q57 0 93 -27t36 -67q0 -50 -65 -75q80 -27 80 -95q0 -41 -39.5 -73.5t-118.5 -32.5z" />
<glyph unicode="&#xbf;" horiz-adv-x="431" d="M9 -24q0 39 26.5 71.5t59 51t59 42.5t26.5 49q0 23 -23 49l151 37q20 -47 20 -87q0 -26 -15 -51.5t-37 -45.5t-44 -38t-37 -36t-15 -34q0 -41 57 -41q71 0 126 51l60 -100q-86 -68 -210 -68q-86 0 -144.5 38t-59.5 112zM315 410q0 -40 -24.5 -63t-67.5 -23 q-42 0 -67.5 22t-25.5 64q0 86 93 86q92 0 92 -86z" />
<glyph unicode="&#xc0;" horiz-adv-x="611" d="M155 0h-165l224 650h181l227 -650h-171l-42 133h-216zM358 675l-213 65l45 117l199 -109zM369 258l-7 23l-64 215l-63 -221l-5 -17h139z" />
<glyph unicode="&#xc1;" horiz-adv-x="611" d="M155 0h-165l224 650h181l227 -650h-171l-42 133h-216zM449 740l-213 -65l-31 73l199 109zM369 258l-7 23l-64 215l-63 -221l-5 -17h139z" />
<glyph unicode="&#xc2;" horiz-adv-x="611" d="M155 0h-165l224 650h181l227 -650h-171l-42 133h-216zM335 860l127 -99l-51 -74l-113 68l-111 -68l-47 70l128 103h67zM369 258l-7 23l-64 215l-63 -221l-5 -17h139z" />
<glyph unicode="&#xc3;" horiz-adv-x="611" d="M155 0h-165l224 650h181l227 -650h-171l-42 133h-216zM168 704l-47 46q46 84 115 84q22 0 65.5 -13.5t64.5 -13.5q36 0 61 30l48 -53q-19 -37 -53 -60.5t-67 -23.5q-19 0 -61 15.5t-65 15.5q-34 0 -61 -27zM369 258l-7 23l-64 215l-63 -221l-5 -17h139z" />
<glyph unicode="&#xc4;" horiz-adv-x="611" d="M155 0h-165l224 650h181l227 -650h-171l-42 133h-216zM116 778q0 32 22 54t54 22t54 -22t22 -54t-22 -54t-54 -22t-54 22t-22 54zM328 778q0 32 22 54t54 22t54 -22t22 -54t-22 -54t-54 -22t-54 22t-22 54zM369 258l-7 23l-64 215l-63 -221l-5 -17h139z" />
<glyph unicode="&#xc5;" horiz-adv-x="611" d="M155 0h-165l224 650h181l227 -650h-171l-42 133h-216zM298 685q-53 0 -83 29t-30 76q0 50 34 77t81 27q48 0 79.5 -26t31.5 -78q0 -44 -30 -74.5t-83 -30.5zM369 258l-7 23l-64 215l-63 -221l-5 -17h139zM298 753q19 0 26.5 9t7.5 28q0 36 -34 36q-19 0 -26.5 -8 t-7.5 -28q0 -37 34 -37z" />
<glyph unicode="&#xc6;" horiz-adv-x="887" d="M848 650v-131h-286v-123h258v-130h-258v-133h285v-133h-446v133h-189l-69 -133h-165l362 650h508zM275 253h126v240z" />
<glyph unicode="&#xc7;" horiz-adv-x="592" d="M239 -213l24 73q25 -23 54 -23q35 0 35 27q0 34 -67 35l21 92q-137 9 -208 94t-71 238q0 156 93.5 246t240.5 90q120 0 208 -54l-53 -142q-84 65 -164 65q-68 0 -111 -51.5t-43 -150.5q0 -101 41 -153.5t117 -52.5q84 0 176 63l41 -135q-90 -49 -200 -57l-9 -43 q45 -8 69 -32t24 -60q0 -46 -37.5 -67.5t-86.5 -21.5q-56 0 -94 20z" />
<glyph unicode="&#xc8;" horiz-adv-x="553" d="M67 650h447v-131h-286v-123h258v-130h-258v-133h285v-133h-446v650zM379 675l-213 65l45 117l199 -109z" />
<glyph unicode="&#xc9;" horiz-adv-x="553" d="M67 650h447v-131h-286v-123h258v-130h-258v-133h285v-133h-446v650zM444 740l-213 -65l-31 73l199 109z" />
<glyph unicode="&#xca;" horiz-adv-x="553" d="M67 650h447v-131h-286v-123h258v-130h-258v-133h285v-133h-446v650zM333 860l127 -99l-51 -74l-113 68l-111 -68l-47 70l128 103h67z" />
<glyph unicode="&#xcb;" horiz-adv-x="553" d="M67 650h447v-131h-286v-123h258v-130h-258v-133h285v-133h-446v650zM122 778q0 32 22 54t54 22t54 -22t22 -54t-22 -54t-54 -22t-54 22t-22 54zM334 778q0 32 22 54t54 22t54 -22t22 -54t-22 -54t-54 -22t-54 22t-22 54z" />
<glyph unicode="&#xcc;" horiz-adv-x="295" d="M67 650h161v-650h-161v650zM198 675l-213 65l45 117l199 -109z" />
<glyph unicode="&#xcd;" horiz-adv-x="295" d="M67 650h161v-650h-161v650zM296 740l-213 -65l-31 73l199 109z" />
<glyph unicode="&#xce;" horiz-adv-x="295" d="M67 650h161v-650h-161v650zM174 860l127 -99l-51 -74l-113 68l-111 -68l-47 70l128 103h67z" />
<glyph unicode="&#xcf;" horiz-adv-x="295" d="M67 650h161v-650h-161v650zM-38 778q0 32 22 54t54 22t54 -22t22 -54t-22 -54t-54 -22t-54 22t-22 54zM174 778q0 32 22 54t54 22t54 -22t22 -54t-22 -54t-54 -22t-54 22t-22 54z" />
<glyph unicode="&#xd0;" horiz-adv-x="687" d="M67 0v267h-53v122h53v261h246q344 0 344 -311q0 -61 -9 -109.5t-32.5 -92.5t-61.5 -73.5t-98.5 -46.5t-141.5 -17h-247zM308 519h-80v-130h100v-122h-100v-134h94q94 0 128.5 45.5t34.5 135.5q0 104 -37.5 154.5t-139.5 50.5z" />
<glyph unicode="&#xd1;" horiz-adv-x="731" d="M219 201v-201h-152v650h175l142 -208l132 -203l-2 213v198h150v-650h-163l-146 215l-137 211zM244 704l-47 46q46 84 115 84q22 0 65.5 -13.5t64.5 -13.5q36 0 61 30l48 -53q-19 -37 -53 -60.5t-67 -23.5q-19 0 -61 15.5t-65 15.5q-34 0 -61 -27z" />
<glyph unicode="&#xd2;" horiz-adv-x="704" d="M348 659q72 0 130 -18t103.5 -56t70.5 -104t25 -156q0 -146 -88 -240.5t-240 -94.5q-145 0 -234 85.5t-89 242.5q0 149 88 245t234 96zM349 121q81 0 119 47t38 157q0 115 -37.5 159t-120.5 44q-78 0 -114.5 -47t-36.5 -163q0 -99 36.5 -148t115.5 -49zM409 675l-213 65 l45 117l199 -109z" />
<glyph unicode="&#xd3;" horiz-adv-x="704" d="M348 659q72 0 130 -18t103.5 -56t70.5 -104t25 -156q0 -146 -88 -240.5t-240 -94.5q-145 0 -234 85.5t-89 242.5q0 149 88 245t234 96zM349 121q81 0 119 47t38 157q0 115 -37.5 159t-120.5 44q-78 0 -114.5 -47t-36.5 -163q0 -99 36.5 -148t115.5 -49zM509 740l-213 -65 l-31 73l199 109z" />
<glyph unicode="&#xd4;" horiz-adv-x="704" d="M348 659q72 0 130 -18t103.5 -56t70.5 -104t25 -156q0 -146 -88 -240.5t-240 -94.5q-145 0 -234 85.5t-89 242.5q0 149 88 245t234 96zM349 121q81 0 119 47t38 157q0 115 -37.5 159t-120.5 44q-78 0 -114.5 -47t-36.5 -163q0 -99 36.5 -148t115.5 -49zM395 860l127 -99 l-51 -74l-113 68l-111 -68l-47 70l128 103h67z" />
<glyph unicode="&#xd5;" horiz-adv-x="704" d="M348 659q72 0 130 -18t103.5 -56t70.5 -104t25 -156q0 -146 -88 -240.5t-240 -94.5q-145 0 -234 85.5t-89 242.5q0 149 88 245t234 96zM349 121q81 0 119 47t38 157q0 115 -37.5 159t-120.5 44q-78 0 -114.5 -47t-36.5 -163q0 -99 36.5 -148t115.5 -49zM222 704l-47 46 q46 84 115 84q22 0 65.5 -13.5t64.5 -13.5q36 0 61 30l48 -53q-19 -37 -53 -60.5t-67 -23.5q-19 0 -61 15.5t-65 15.5q-34 0 -61 -27z" />
<glyph unicode="&#xd6;" horiz-adv-x="704" d="M348 659q72 0 130 -18t103.5 -56t70.5 -104t25 -156q0 -146 -88 -240.5t-240 -94.5q-145 0 -234 85.5t-89 242.5q0 149 88 245t234 96zM349 121q81 0 119 47t38 157q0 115 -37.5 159t-120.5 44q-78 0 -114.5 -47t-36.5 -163q0 -99 36.5 -148t115.5 -49zM162 778 q0 32 22 54t54 22t54 -22t22 -54t-22 -54t-54 -22t-54 22t-22 54zM374 778q0 32 22 54t54 22t54 -22t22 -54t-22 -54t-54 -22t-54 22t-22 54z" />
<glyph unicode="&#xd7;" horiz-adv-x="436" d="M322 100l-105 103l-104 -102l-74 72l104 101l-103 99l81 78l102 -100l104 101l75 -71l-106 -101l107 -103z" />
<glyph unicode="&#xd8;" horiz-adv-x="704" d="M348 659q104 0 179 -37l30 37h131l-81 -100q70 -83 70 -234q0 -146 -88 -240.5t-240 -94.5q-100 0 -174 41l-33 -41h-131l86 105q-71 85 -71 223q0 149 88 245t234 96zM349 121q81 0 119 47t38 157q0 55 -10 98l-231 -282q31 -20 84 -20zM197 318q0 -52 9 -89l230 281 q-33 18 -88 18q-78 0 -114.5 -47t-36.5 -163z" />
<glyph unicode="&#xd9;" horiz-adv-x="693" d="M479 253v397h155v-427q0 -68 -28.5 -116.5t-75.5 -72.5t-93 -34t-95 -10q-41 0 -77 5t-75 20.5t-67 40.5t-46 68t-18 100v426h161v-396q0 -77 31 -105t98 -28q130 0 130 132zM418 675l-213 65l45 117l199 -109z" />
<glyph unicode="&#xda;" horiz-adv-x="693" d="M479 253v397h155v-427q0 -68 -28.5 -116.5t-75.5 -72.5t-93 -34t-95 -10q-41 0 -77 5t-75 20.5t-67 40.5t-46 68t-18 100v426h161v-396q0 -77 31 -105t98 -28q130 0 130 132zM503 740l-213 -65l-31 73l199 109z" />
<glyph unicode="&#xdb;" horiz-adv-x="693" d="M479 253v397h155v-427q0 -68 -28.5 -116.5t-75.5 -72.5t-93 -34t-95 -10q-41 0 -77 5t-75 20.5t-67 40.5t-46 68t-18 100v426h161v-396q0 -77 31 -105t98 -28q130 0 130 132zM381 860l127 -99l-51 -74l-113 68l-111 -68l-47 70l128 103h67z" />
<glyph unicode="&#xdc;" horiz-adv-x="693" d="M479 253v397h155v-427q0 -68 -28.5 -116.5t-75.5 -72.5t-93 -34t-95 -10q-41 0 -77 5t-75 20.5t-67 40.5t-46 68t-18 100v426h161v-396q0 -77 31 -105t98 -28q130 0 130 132zM157 778q0 32 22.5 54t53.5 22t53.5 -22t22.5 -54t-22.5 -54t-53.5 -22t-53.5 22t-22.5 54z M369 778q0 32 22.5 54t53.5 22t53.5 -22t22.5 -54t-22.5 -54t-53.5 -22t-53.5 22t-22.5 54z" />
<glyph unicode="&#xdd;" horiz-adv-x="544" d="M158 650l124 -266l58 133l57 133h161l-203 -393v-257h-161v252l-210 398h174zM417 740l-213 -65l-31 73l199 109z" />
<glyph unicode="&#xde;" horiz-adv-x="576" d="M67 650h161v-70h88q128 0 188 -61t60 -162q0 -107 -67 -171t-194 -64h-75v-122h-161v650zM300 261q49 0 71 21t22 74q0 44 -20 68.5t-76 24.5h-69v-188h72z" />
<glyph unicode="&#xdf;" horiz-adv-x="689" d="M441 373q0 -20 25 -34.5t60.5 -27t70.5 -29.5t60 -51t25 -82q0 -81 -66.5 -120t-163.5 -39q-112 0 -181 39l37 133q25 -22 65.5 -37.5t74.5 -15.5q67 0 67 36q0 16 -24.5 28t-59.5 22.5t-70.5 26t-60 49t-24.5 82.5q0 33 17.5 61.5t38.5 44.5t38.5 35.5t17.5 36.5 q0 18 -17 29.5t-43 11.5q-43 0 -60.5 -23t-17.5 -79v-470h-159v358h-71v110l71 9v29q0 50 21 88t56.5 59t78 31.5t90.5 10.5q229 0 229 -152q0 -30 -19.5 -56.5t-43 -42t-43 -35t-19.5 -36.5z" />
<glyph unicode="&#xe0;" horiz-adv-x="537" d="M310 156v45q-12 1 -35 1q-91 0 -91 -57q0 -19 13.5 -28.5t30.5 -9.5q49 0 82 49zM310 291l1 19q0 38 -13 53t-47 15q-30 0 -48.5 -13t-11.5 -39l-134 -20q-8 21 -8 45q0 63 60.5 104t155.5 41q100 0 152.5 -42t51.5 -139l-1 -162q0 -53 43 -39l7 -110q-48 -14 -88 -14 q-96 0 -111 83q-45 -83 -140 -83q-71 0 -114 37t-43 109q0 156 254 156q6 0 17.5 -0.5t16.5 -0.5zM279 538l-166 107l76 96l142 -142z" />
<glyph unicode="&#xe1;" horiz-adv-x="537" d="M310 156v45q-12 1 -35 1q-91 0 -91 -57q0 -19 13.5 -28.5t30.5 -9.5q49 0 82 49zM310 291l1 19q0 38 -13 53t-47 15q-30 0 -48.5 -13t-11.5 -39l-134 -20q-8 21 -8 45q0 63 60.5 104t155.5 41q100 0 152.5 -42t51.5 -139l-1 -162q0 -53 43 -39l7 -110q-48 -14 -88 -14 q-96 0 -111 83q-45 -83 -140 -83q-71 0 -114 37t-43 109q0 156 254 156q6 0 17.5 -0.5t16.5 -0.5zM408 645l-166 -107l-52 61l142 142z" />
<glyph unicode="&#xe2;" horiz-adv-x="537" d="M310 156v45q-12 1 -35 1q-91 0 -91 -57q0 -19 13.5 -28.5t30.5 -9.5q49 0 82 49zM310 291l1 19q0 38 -13 53t-47 15q-30 0 -48.5 -13t-11.5 -39l-134 -20q-8 21 -8 45q0 63 60.5 104t155.5 41q100 0 152.5 -42t51.5 -139l-1 -162q0 -53 43 -39l7 -110q-48 -14 -88 -14 q-96 0 -111 83q-45 -83 -140 -83q-71 0 -114 37t-43 109q0 156 254 156q6 0 17.5 -0.5t16.5 -0.5zM301 725l128 -127l-70 -64l-95 82l-104 -82l-65 63l139 128h67z" />
<glyph unicode="&#xe3;" horiz-adv-x="537" d="M310 156v45q-12 1 -35 1q-91 0 -91 -57q0 -19 13.5 -28.5t30.5 -9.5q49 0 82 49zM310 291l1 19q0 38 -13 53t-47 15q-30 0 -48.5 -13t-11.5 -39l-134 -20q-8 21 -8 45q0 63 60.5 104t155.5 41q100 0 152.5 -42t51.5 -139l-1 -162q0 -53 43 -39l7 -110q-48 -14 -88 -14 q-96 0 -111 83q-45 -83 -140 -83q-71 0 -114 37t-43 109q0 156 254 156q6 0 17.5 -0.5t16.5 -0.5zM135 571l-47 46q46 84 115 84q22 0 65.5 -13.5t64.5 -13.5q36 0 61 30l48 -53q-20 -37 -53.5 -60.5t-66.5 -23.5q-19 0 -61 15.5t-65 15.5q-34 0 -61 -27z" />
<glyph unicode="&#xe4;" horiz-adv-x="537" d="M310 156v45q-12 1 -35 1q-91 0 -91 -57q0 -19 13.5 -28.5t30.5 -9.5q49 0 82 49zM310 291l1 19q0 38 -13 53t-47 15q-30 0 -48.5 -13t-11.5 -39l-134 -20q-8 21 -8 45q0 63 60.5 104t155.5 41q100 0 152.5 -42t51.5 -139l-1 -162q0 -53 43 -39l7 -110q-48 -14 -88 -14 q-96 0 -111 83q-45 -83 -140 -83q-71 0 -114 37t-43 109q0 156 254 156q6 0 17.5 -0.5t16.5 -0.5zM91 619q0 31 22.5 53.5t53.5 22.5t53.5 -22.5t22.5 -53.5t-22.5 -53.5t-53.5 -22.5t-53.5 22.5t-22.5 53.5zM283 619q0 31 22.5 53.5t53.5 22.5t53.5 -22.5t22.5 -53.5 t-22.5 -53.5t-53.5 -22.5t-53.5 22.5t-22.5 53.5z" />
<glyph unicode="&#xe5;" horiz-adv-x="537" d="M310 156v45q-12 1 -35 1q-91 0 -91 -57q0 -19 13.5 -28.5t30.5 -9.5q49 0 82 49zM310 291l1 19q0 38 -13 53t-47 15q-30 0 -48.5 -13t-11.5 -39l-134 -20q-8 21 -8 45q0 63 60.5 104t155.5 41q100 0 152.5 -42t51.5 -139l-1 -162q0 -53 43 -39l7 -110q-48 -14 -88 -14 q-96 0 -111 83q-45 -83 -140 -83q-71 0 -114 37t-43 109q0 156 254 156q6 0 17.5 -0.5t16.5 -0.5zM266 542q-53 0 -83 29t-30 76q0 50 34 77t81 27q48 0 79.5 -26t31.5 -78q0 -44 -30 -74.5t-83 -30.5zM266 610q19 0 26.5 9t7.5 28q0 36 -34 36q-19 0 -26.5 -8t-7.5 -28 q0 -37 34 -37z" />
<glyph unicode="&#xe6;" horiz-adv-x="794" d="M251 378q-30 0 -48.5 -13t-11.5 -39l-134 -20q-8 21 -8 45q0 63 60.5 104t155.5 41q97 0 146 -38q58 38 129 38q111 0 169.5 -61t58.5 -200q0 -22 -1 -34h-302q10 -50 41 -69t79 -19q32 0 71 15t70 40l40 -122q-102 -56 -213 -56q-145 0 -210 99q-58 -99 -164 -99 q-71 0 -114 37t-43 109q0 164 283 155l6 26v5q0 30 -14.5 43t-45.5 13zM463 298h145q3 47 -13 67.5t-51 20.5q-38 0 -57 -20t-24 -68zM184 145q0 -19 13.5 -28.5t30.5 -9.5q48 0 85 48q-6 20 -9 46q-10 1 -30 1q-90 0 -90 -57z" />
<glyph unicode="&#xe7;" horiz-adv-x="475" d="M168 -213l24 73q25 -23 54 -23q35 0 35 27q0 34 -67 35l21 92q-94 8 -153 72t-59 181q0 107 68.5 179.5t184.5 72.5q103 0 181 -46l-52 -138q-56 56 -118 56q-45 0 -71 -31t-26 -93q0 -126 102 -126q62 0 122 49l40 -122q-64 -43 -151 -52l-10 -45q45 -8 69 -32t24 -60 q0 -46 -37.5 -67.5t-86.5 -21.5q-56 0 -94 20z" />
<glyph unicode="&#xe8;" horiz-adv-x="515" d="M306 113q32 0 71 15t70 40l40 -122q-102 -56 -213 -56q-107 0 -179 62.5t-72 193.5q0 112 70.5 181t167.5 69q111 0 169.5 -61t58.5 -200q0 -22 -1 -34h-302q10 -50 41 -69t79 -19zM292 538l-166 107l76 96l142 -142zM184 298h145q3 47 -13 67.5t-51 20.5q-38 0 -57 -20 t-24 -68z" />
<glyph unicode="&#xe9;" horiz-adv-x="515" d="M306 113q32 0 71 15t70 40l40 -122q-102 -56 -213 -56q-107 0 -179 62.5t-72 193.5q0 112 70.5 181t167.5 69q111 0 169.5 -61t58.5 -200q0 -22 -1 -34h-302q10 -50 41 -69t79 -19zM395 645l-166 -107l-52 61l142 142zM184 298h145q3 47 -13 67.5t-51 20.5q-38 0 -57 -20 t-24 -68z" />
<glyph unicode="&#xea;" horiz-adv-x="515" d="M306 113q32 0 71 15t70 40l40 -122q-102 -56 -213 -56q-107 0 -179 62.5t-72 193.5q0 112 70.5 181t167.5 69q111 0 169.5 -61t58.5 -200q0 -22 -1 -34h-302q10 -50 41 -69t79 -19zM306 725l128 -127l-70 -64l-95 82l-104 -82l-65 63l139 128h67zM184 298h145 q3 47 -13 67.5t-51 20.5q-38 0 -57 -20t-24 -68z" />
<glyph unicode="&#xeb;" horiz-adv-x="515" d="M306 113q32 0 71 15t70 40l40 -122q-102 -56 -213 -56q-107 0 -179 62.5t-72 193.5q0 112 70.5 181t167.5 69q111 0 169.5 -61t58.5 -200q0 -22 -1 -34h-302q10 -50 41 -69t79 -19zM290 619q0 31 22 53.5t54 22.5t54 -22.5t22 -53.5t-22 -53.5t-54 -22.5t-54 22.5 t-22 53.5zM98 619q0 31 22 53.5t54 22.5t54 -22.5t22 -53.5t-22 -53.5t-54 -22.5t-54 22.5t-22 53.5zM184 298h145q3 47 -13 67.5t-51 20.5q-38 0 -57 -20t-24 -68z" />
<glyph unicode="&#xec;" d="M215 481v-481h-159v481h159zM145 538l-166 107l76 96l142 -142z" />
<glyph unicode="&#xed;" d="M215 481v-481h-159v481h159zM254 645l-166 -107l-52 61l142 142z" />
<glyph unicode="&#xee;" d="M215 481v-481h-159v481h159zM171 725l128 -127l-70 -64l-95 82l-104 -82l-65 63l139 128h67z" />
<glyph unicode="&#xef;" d="M215 481v-481h-159v481h159zM-36 619q0 31 22 53.5t54 22.5t54 -22.5t22 -53.5t-22 -53.5t-54 -22.5t-54 22.5t-22 53.5zM156 619q0 31 22 53.5t54 22.5t54 -22.5t22 -53.5t-22 -53.5t-54 -22.5t-54 22.5t-22 53.5z" />
<glyph unicode="&#xf0;" horiz-adv-x="583" d="M24 244q0 100 64.5 164.5t168.5 64.5q22 0 54 -5q-28 33 -69 63l-39 -47l-67 39l40 50q-7 4 -20.5 10.5t-16.5 7.5l78 102q4 -2 17.5 -9t20.5 -11l32 40l71 -43l-32 -38q101 -64 158 -150t63 -214q0 -4 0.5 -12t0.5 -12q0 -109 -70 -181.5t-190 -72.5q-122 0 -193 68 t-71 186zM191 245q0 -132 92 -132q58 0 78 30t20 102q0 52 -14 106q-39 12 -76 12q-56 0 -78 -28t-22 -90z" />
<glyph unicode="&#xf1;" horiz-adv-x="590" d="M215 301v-301h-159v481h145l3 -71q67 86 174 86q70 0 115.5 -42t45.5 -129v-325h-159v274q0 45 -17 61.5t-48 16.5q-56 0 -100 -51zM169 571l-47 46q46 84 115 84q22 0 65.5 -13.5t64.5 -13.5q36 0 61 30l48 -53q-19 -37 -53 -60.5t-67 -23.5q-19 0 -61 15.5t-65 15.5 q-34 0 -61 -27z" />
<glyph unicode="&#xf2;" horiz-adv-x="569" d="M22 244q0 108 73 180t190 72q124 0 192.5 -69t68.5 -183q0 -109 -70 -181.5t-190 -72.5q-122 0 -193 68t-71 186zM189 245q0 -132 92 -132q58 0 78 30t20 102q0 60 -21.5 94t-76.5 34q-50 0 -71 -32.5t-21 -95.5zM295 538l-166 107l76 96l142 -142z" />
<glyph unicode="&#xf3;" horiz-adv-x="569" d="M22 244q0 108 73 180t190 72q124 0 192.5 -69t68.5 -183q0 -109 -70 -181.5t-190 -72.5q-122 0 -193 68t-71 186zM189 245q0 -132 92 -132q58 0 78 30t20 102q0 60 -21.5 94t-76.5 34q-50 0 -71 -32.5t-21 -95.5zM415 645l-166 -107l-52 61l142 142z" />
<glyph unicode="&#xf4;" horiz-adv-x="569" d="M22 244q0 108 73 180t190 72q124 0 192.5 -69t68.5 -183q0 -109 -70 -181.5t-190 -72.5q-122 0 -193 68t-71 186zM189 245q0 -132 92 -132q58 0 78 30t20 102q0 60 -21.5 94t-76.5 34q-50 0 -71 -32.5t-21 -95.5zM321 725l128 -127l-70 -64l-95 82l-104 -82l-65 63 l139 128h67z" />
<glyph unicode="&#xf5;" horiz-adv-x="569" d="M22 244q0 108 73 180t190 72q124 0 192.5 -69t68.5 -183q0 -109 -70 -181.5t-190 -72.5q-122 0 -193 68t-71 186zM189 245q0 -132 92 -132q58 0 78 30t20 102q0 60 -21.5 94t-76.5 34q-50 0 -71 -32.5t-21 -95.5zM153 571l-47 46q46 84 115 84q22 0 65.5 -13.5 t64.5 -13.5q36 0 61 30l48 -53q-19 -37 -53 -60.5t-67 -23.5q-19 0 -61 15.5t-65 15.5q-34 0 -61 -27z" />
<glyph unicode="&#xf6;" horiz-adv-x="569" d="M22 244q0 108 73 180t190 72q124 0 192.5 -69t68.5 -183q0 -109 -70 -181.5t-190 -72.5q-122 0 -193 68t-71 186zM189 245q0 -132 92 -132q58 0 78 30t20 102q0 60 -21.5 94t-76.5 34q-50 0 -71 -32.5t-21 -95.5zM112 619q0 31 22 53.5t54 22.5t54 -22.5t22 -53.5 t-22 -53.5t-54 -22.5t-54 22.5t-22 53.5zM304 619q0 31 22 53.5t54 22.5t54 -22.5t22 -53.5t-22 -53.5t-54 -22.5t-54 22.5t-22 53.5z" />
<glyph unicode="&#xf7;" horiz-adv-x="454" d="M431 227h-408v101h408v-101zM152 439q0 32 22.5 54.5t54.5 22.5q31 0 54 -23t23 -54q0 -32 -22.5 -54.5t-54.5 -22.5t-54.5 22.5t-22.5 54.5zM152 113q0 32 22.5 54.5t54.5 22.5q31 0 54 -23t23 -54q0 -32 -22.5 -54.5t-54.5 -22.5t-54.5 22.5t-22.5 54.5z" />
<glyph unicode="&#xf8;" horiz-adv-x="569" d="M22 244q0 108 73 180t190 72q74 0 132 -28l24 28h127l-75 -87q53 -65 53 -165q0 -109 -70 -181.5t-190 -72.5q-74 0 -134 27l-23 -27h-123l72 84q-56 65 -56 170zM189 245q0 -16 2 -40l136 159q-18 9 -46 9q-50 0 -71 -32.5t-21 -95.5zM281 113q58 0 78 30t20 102 q0 11 -2 31l-135 -156q15 -7 39 -7z" />
<glyph unicode="&#xf9;" horiz-adv-x="587" d="M372 185v296h159v-481h-140l-8 76q-67 -86 -171 -86q-161 0 -161 171v320h159v-279q0 -47 15 -63.5t41 -16.5q25 0 54.5 18.5t51.5 44.5zM315 538l-166 107l76 96l142 -142z" />
<glyph unicode="&#xfa;" horiz-adv-x="587" d="M372 185v296h159v-481h-140l-8 76q-67 -86 -171 -86q-161 0 -161 171v320h159v-279q0 -47 15 -63.5t41 -16.5q25 0 54.5 18.5t51.5 44.5zM421 645l-166 -107l-52 61l142 142z" />
<glyph unicode="&#xfb;" horiz-adv-x="587" d="M372 185v296h159v-481h-140l-8 76q-67 -86 -171 -86q-161 0 -161 171v320h159v-279q0 -47 15 -63.5t41 -16.5q25 0 54.5 18.5t51.5 44.5zM331 725l128 -127l-70 -64l-95 82l-104 -82l-65 63l139 128h67z" />
<glyph unicode="&#xfc;" horiz-adv-x="587" d="M372 185v296h159v-481h-140l-8 76q-67 -86 -171 -86q-161 0 -161 171v320h159v-279q0 -47 15 -63.5t41 -16.5q25 0 54.5 18.5t51.5 44.5zM129 619q0 31 22.5 53.5t53.5 22.5t53.5 -22.5t22.5 -53.5t-22.5 -53.5t-53.5 -22.5t-53.5 22.5t-22.5 53.5zM321 619 q0 31 22.5 53.5t53.5 22.5t53.5 -22.5t22.5 -53.5t-22.5 -53.5t-53.5 -22.5t-53.5 22.5t-22.5 53.5z" />
<glyph unicode="&#xfd;" horiz-adv-x="505" d="M510 481l-241 -701h-159l60 181l-175 520h173l50 -173l41 -153l40 144l51 182h160zM392 645l-166 -107l-52 61l142 142z" />
<glyph unicode="&#xfe;" horiz-adv-x="581" d="M294 -10q-30 0 -79 7v-217h-159v905h159v-270q23 36 64 58.5t80 22.5q95 0 146 -64t51 -179q0 -122 -73 -192.5t-189 -70.5zM215 304v-170q27 -18 69 -18q48 0 76.5 30.5t28.5 89.5q0 64 -21 92t-62 28q-52 0 -91 -52z" />
<glyph unicode="&#xff;" horiz-adv-x="505" d="M510 481l-241 -701h-159l60 181l-175 520h173l50 -173l41 -153l40 144l51 182h160zM95 619q0 31 22.5 53.5t53.5 22.5t53.5 -22.5t22.5 -53.5t-22.5 -53.5t-53.5 -22.5t-53.5 22.5t-22.5 53.5zM287 619q0 31 22.5 53.5t53.5 22.5t53.5 -22.5t22.5 -53.5t-22.5 -53.5 t-53.5 -22.5t-53.5 22.5t-22.5 53.5z" />
<glyph unicode="&#x100;" horiz-adv-x="611" d="M155 0h-165l224 650h181l227 -650h-171l-42 133h-216zM161 714v94h277v-94h-277zM369 258l-7 23l-64 215l-63 -221l-5 -17h139z" />
<glyph unicode="&#x101;" horiz-adv-x="537" d="M310 156v45q-12 1 -35 1q-91 0 -91 -57q0 -19 13.5 -28.5t30.5 -9.5q49 0 82 49zM310 291l1 19q0 38 -13 53t-47 15q-30 0 -48.5 -13t-11.5 -39l-134 -20q-8 21 -8 45q0 63 60.5 104t155.5 41q100 0 152.5 -42t51.5 -139l-1 -162q0 -53 43 -39l7 -110q-48 -14 -88 -14 q-96 0 -111 83q-45 -83 -140 -83q-71 0 -114 37t-43 109q0 156 254 156q6 0 17.5 -0.5t16.5 -0.5zM122 582v94h277v-94h-277z" />
<glyph unicode="&#x102;" horiz-adv-x="611" d="M155 0h-165l224 650h181l227 -650h-171l-42 133h-216zM348 831h97q0 -68 -38 -102.5t-106 -34.5q-67 0 -105.5 35.5t-38.5 101.5h97q3 -51 50 -51q44 0 44 51zM369 258l-7 23l-64 215l-63 -221l-5 -17h139z" />
<glyph unicode="&#x103;" horiz-adv-x="537" d="M310 156v45q-12 1 -35 1q-91 0 -91 -57q0 -19 13.5 -28.5t30.5 -9.5q49 0 82 49zM310 291l1 19q0 38 -13 53t-47 15q-30 0 -48.5 -13t-11.5 -39l-134 -20q-8 21 -8 45q0 63 60.5 104t155.5 41q100 0 152.5 -42t51.5 -139l-1 -162q0 -53 43 -39l7 -110q-48 -14 -88 -14 q-96 0 -111 83q-45 -83 -140 -83q-71 0 -114 37t-43 109q0 156 254 156q6 0 17.5 -0.5t16.5 -0.5zM303 692h97q0 -68 -38 -102.5t-106 -34.5q-67 0 -105.5 35.5t-38.5 101.5h97q3 -51 50 -51q44 0 44 51z" />
<glyph unicode="&#x104;" horiz-adv-x="611" d="M155 0h-165l224 650h181l227 -650h-55q-43 -43 -43 -91q0 -25 13.5 -39.5t33.5 -14.5q24 0 45 17l22 -70q-44 -30 -102 -30q-53 0 -89 28t-36 82q0 72 65 118h-25l-42 133h-216zM369 258l-7 23l-64 215l-63 -221l-5 -17h139z" />
<glyph unicode="&#x105;" horiz-adv-x="537" d="M310 291l1 19q0 38 -13 53t-47 15q-30 0 -48.5 -13t-11.5 -39l-134 -20q-8 21 -8 45q0 63 60.5 104t155.5 41q100 0 152.5 -42t51.5 -139l-1 -162q0 -53 43 -39l7 -110q-36 -10 -69 -13q-35 -40 -35 -82q0 -25 13.5 -39.5t33.5 -14.5q24 0 45 17l22 -70q-44 -30 -102 -30 q-53 0 -89 28t-36 82q0 75 68 120q-42 20 -50 71q-45 -83 -140 -83q-71 0 -114 37t-43 109q0 156 254 156q6 0 17.5 -0.5t16.5 -0.5zM310 156v45q-12 1 -35 1q-91 0 -91 -57q0 -19 13.5 -28.5t30.5 -9.5q49 0 82 49z" />
<glyph unicode="&#x106;" horiz-adv-x="592" d="M532 183l41 -135q-108 -58 -234 -58q-153 0 -232.5 85.5t-79.5 247.5q0 156 93.5 246t240.5 90q120 0 208 -54l-53 -142q-84 65 -164 65q-68 0 -111 -51.5t-43 -150.5q0 -101 41 -153.5t117 -52.5q84 0 176 63zM495 740l-213 -65l-31 73l199 109z" />
<glyph unicode="&#x107;" horiz-adv-x="475" d="M190 244q0 -126 102 -126q62 0 122 49l40 -122q-84 -55 -193 -55q-104 0 -171 65t-67 189q0 107 68.5 179.5t184.5 72.5q103 0 181 -46l-52 -138q-56 56 -118 56q-45 0 -71 -31t-26 -93zM399 645l-166 -107l-52 61l142 142z" />
<glyph unicode="&#x108;" horiz-adv-x="592" d="M532 183l41 -135q-108 -58 -234 -58q-153 0 -232.5 85.5t-79.5 247.5q0 156 93.5 246t240.5 90q120 0 208 -54l-53 -142q-84 65 -164 65q-68 0 -111 -51.5t-43 -150.5q0 -101 41 -153.5t117 -52.5q84 0 176 63zM389 860l127 -99l-51 -74l-113 68l-111 -68l-47 70l128 103 h67z" />
<glyph unicode="&#x109;" horiz-adv-x="475" d="M190 244q0 -126 102 -126q62 0 122 49l40 -122q-84 -55 -193 -55q-104 0 -171 65t-67 189q0 107 68.5 179.5t184.5 72.5q103 0 181 -46l-52 -138q-56 56 -118 56q-45 0 -71 -31t-26 -93zM308 725l128 -127l-70 -64l-95 82l-104 -82l-65 63l139 128h67z" />
<glyph unicode="&#x10a;" horiz-adv-x="592" d="M532 183l41 -135q-108 -58 -234 -58q-153 0 -232.5 85.5t-79.5 247.5q0 156 93.5 246t240.5 90q120 0 208 -54l-53 -142q-84 65 -164 65q-68 0 -111 -51.5t-43 -150.5q0 -101 41 -153.5t117 -52.5q84 0 176 63zM265 777q0 34 24.5 58.5t58.5 24.5t58.5 -24.5t24.5 -58.5 t-24.5 -58.5t-58.5 -24.5t-58.5 24t-24.5 59z" />
<glyph unicode="&#x10b;" horiz-adv-x="475" d="M190 244q0 -126 102 -126q62 0 122 49l40 -122q-84 -55 -193 -55q-104 0 -171 65t-67 189q0 107 68.5 179.5t184.5 72.5q103 0 181 -46l-52 -138q-56 56 -118 56q-45 0 -71 -31t-26 -93zM184 625q0 34 24.5 58.5t58.5 24.5t58.5 -24.5t24.5 -58.5t-24.5 -58.5 t-58.5 -24.5q-35 0 -59 24t-24 59z" />
<glyph unicode="&#x10c;" horiz-adv-x="592" d="M532 183l41 -135q-108 -58 -234 -58q-153 0 -232.5 85.5t-79.5 247.5q0 156 93.5 246t240.5 90q120 0 208 -54l-53 -142q-84 65 -164 65q-68 0 -111 -51.5t-43 -150.5q0 -101 41 -153.5t117 -52.5q84 0 176 63zM316 691l-125 99l51 74l111 -68l113 68l47 -70l-130 -103 h-67z" />
<glyph unicode="&#x10d;" horiz-adv-x="475" d="M190 244q0 -126 102 -126q62 0 122 49l40 -122q-84 -55 -193 -55q-104 0 -171 65t-67 189q0 107 68.5 179.5t184.5 72.5q103 0 181 -46l-52 -138q-56 56 -118 56q-45 0 -71 -31t-26 -93zM237 534l-134 127l70 64l97 -83l102 83l65 -63l-133 -128h-67z" />
<glyph unicode="&#x10e;" horiz-adv-x="687" d="M67 0v650h246q344 0 344 -311q0 -61 -9 -109.5t-32.5 -92.5t-61.5 -73.5t-98.5 -46.5t-141.5 -17h-247zM308 519h-80v-386h94q94 0 128.5 45.5t34.5 135.5q0 104 -37.5 154.5t-139.5 50.5zM274 691l-125 99l51 74l111 -68l113 68l47 -70l-130 -103h-67z" />
<glyph unicode="&#x10f;" horiz-adv-x="611" d="M287 496q28 0 79 -7v196h159v-685h-143l-5 71q-26 -34 -68.5 -57.5t-86.5 -23.5q-95 0 -146 64t-51 179q0 122 73 192.5t189 70.5zM366 182v170q-27 18 -69 18q-48 0 -76.5 -30.5t-28.5 -89.5q0 -64 21 -92t62 -28q52 0 91 52zM553 499l15 186h122l-49 -186h-88z" />
<glyph unicode="&#x110;" horiz-adv-x="687" d="M67 0v267h-53v122h53v261h246q344 0 344 -311q0 -61 -9 -109.5t-32.5 -92.5t-61.5 -73.5t-98.5 -46.5t-141.5 -17h-247zM308 519h-80v-130h100v-122h-100v-134h94q94 0 128.5 45.5t34.5 135.5q0 104 -37.5 154.5t-139.5 50.5z" />
<glyph unicode="&#x111;" horiz-adv-x="581" d="M578 538h-53v-538h-143l-5 71q-26 -34 -68.5 -57.5t-86.5 -23.5q-95 0 -146 64t-51 179q0 122 73 192.5t189 70.5q28 0 79 -7v49h-157v101h157v46h159v-46h53v-101zM366 182v170q-27 18 -69 18q-48 0 -76.5 -30.5t-28.5 -89.5q0 -64 21 -92t62 -28q52 0 91 52z" />
<glyph unicode="&#x112;" horiz-adv-x="553" d="M67 650h447v-131h-286v-123h258v-130h-258v-133h285v-133h-446v650zM168 714v94h277v-94h-277z" />
<glyph unicode="&#x113;" horiz-adv-x="515" d="M306 113q32 0 71 15t70 40l40 -122q-102 -56 -213 -56q-107 0 -179 62.5t-72 193.5q0 112 70.5 181t167.5 69q111 0 169.5 -61t58.5 -200q0 -22 -1 -34h-302q10 -50 41 -69t79 -19zM127 582v94h277v-94h-277zM184 298h145q3 47 -13 67.5t-51 20.5q-38 0 -57 -20t-24 -68z " />
<glyph unicode="&#x114;" horiz-adv-x="553" d="M67 650h447v-131h-286v-123h258v-130h-258v-133h285v-133h-446v650zM350 831h97q0 -68 -38 -102.5t-106 -34.5q-67 0 -105.5 35.5t-38.5 101.5h97q3 -51 50 -51q44 0 44 51z" />
<glyph unicode="&#x115;" horiz-adv-x="515" d="M306 113q32 0 71 15t70 40l40 -122q-102 -56 -213 -56q-107 0 -179 62.5t-72 193.5q0 112 70.5 181t167.5 69q111 0 169.5 -61t58.5 -200q0 -22 -1 -34h-302q10 -50 41 -69t79 -19zM305 692h97q0 -68 -38 -102.5t-106 -34.5q-67 0 -105.5 35.5t-38.5 101.5h97 q3 -51 50 -51q44 0 44 51zM184 298h145q3 47 -13 67.5t-51 20.5q-38 0 -57 -20t-24 -68z" />
<glyph unicode="&#x116;" horiz-adv-x="553" d="M67 650h447v-131h-286v-123h258v-130h-258v-133h285v-133h-446v650zM217 777q0 34 24.5 58.5t58.5 24.5t58.5 -24.5t24.5 -58.5t-24.5 -58.5t-58.5 -24.5t-58.5 24t-24.5 59z" />
<glyph unicode="&#x117;" horiz-adv-x="515" d="M306 113q32 0 71 15t70 40l40 -122q-102 -56 -213 -56q-107 0 -179 62.5t-72 193.5q0 112 70.5 181t167.5 69q111 0 169.5 -61t58.5 -200q0 -22 -1 -34h-302q10 -50 41 -69t79 -19zM178 625q0 34 24.5 58.5t58.5 24.5t58.5 -24.5t24.5 -58.5t-24.5 -58.5t-58.5 -24.5 q-35 0 -59 24t-24 59zM184 298h145q3 47 -13 67.5t-51 20.5q-38 0 -57 -20t-24 -68z" />
<glyph unicode="&#x118;" horiz-adv-x="553" d="M67 650h447v-131h-286v-123h258v-130h-258v-133h285v-133h-64q-43 -43 -43 -91q0 -25 13.5 -39.5t33.5 -14.5q24 0 45 17l22 -70q-44 -30 -102 -30q-53 0 -89 28t-36 82q0 72 65 118h-291v650z" />
<glyph unicode="&#x119;" horiz-adv-x="515" d="M306 113q32 0 71 15t70 40l40 -122q-45 -24 -83 -36q-24 -19 -39.5 -46.5t-15.5 -54.5q0 -25 13.5 -39.5t33.5 -14.5q24 0 45 17l22 -70q-44 -30 -102 -30q-53 0 -89 28t-36 82q0 65 52 108h-14q-107 0 -179 62.5t-72 193.5q0 112 70.5 181t167.5 69q111 0 169.5 -61 t58.5 -200q0 -22 -1 -34h-302q10 -50 41 -69t79 -19zM184 298h145q3 47 -13 67.5t-51 20.5q-38 0 -57 -20t-24 -68z" />
<glyph unicode="&#x11a;" horiz-adv-x="553" d="M67 650h447v-131h-286v-123h258v-130h-258v-133h285v-133h-446v650zM268 691l-125 99l51 74l111 -68l113 68l47 -70l-130 -103h-67z" />
<glyph unicode="&#x11b;" horiz-adv-x="515" d="M306 113q32 0 71 15t70 40l40 -122q-102 -56 -213 -56q-107 0 -179 62.5t-72 193.5q0 112 70.5 181t167.5 69q111 0 169.5 -61t58.5 -200q0 -22 -1 -34h-302q10 -50 41 -69t79 -19zM225 534l-134 127l70 64l97 -83l102 83l65 -63l-133 -128h-67zM184 298h145 q3 47 -13 67.5t-51 20.5q-38 0 -57 -20t-24 -68z" />
<glyph unicode="&#x11c;" horiz-adv-x="621" d="M424 322h158v-270q-115 -62 -243 -62q-150 0 -231 88t-81 249q0 162 97.5 247t247.5 85q108 0 209 -54l-55 -144q-84 67 -161 67q-76 0 -121.5 -47.5t-45.5 -151.5q0 -109 47.5 -159t126.5 -50q25 0 52 6v196zM399 860l127 -99l-51 -74l-113 68l-111 -68l-47 70l128 103 h67z" />
<glyph unicode="&#x11d;" horiz-adv-x="557" d="M252 496q35 0 97.5 -9.5t132.5 -9.5h65v-101h-66q7 -20 7 -43q0 -64 -52.5 -109t-139.5 -56q-76 -20 -76 -36q0 -11 18.5 -16t65.5 -7t78 -6t62.5 -13.5t49.5 -24.5t29.5 -40.5t11.5 -60.5q0 -73 -79 -131.5t-203 -58.5q-118 0 -183 34t-65 95q0 44 26 72.5t80 50.5 q-34 23 -34 65q0 45 84 84q-141 32 -141 151q0 81 68 125.5t164 44.5zM291 725l128 -127l-70 -64l-95 82l-104 -82l-65 63l139 128h67zM297 -10q-72 4 -95 8q-53 -22 -53 -59q0 -30 28 -42.5t85 -12.5q111 0 111 59q0 26 -15 35.5t-61 11.5zM180 330q0 -31 20.5 -49.5 t53.5 -18.5q74 0 74 68t-74 68t-74 -68z" />
<glyph unicode="&#x11e;" horiz-adv-x="621" d="M424 322h158v-270q-115 -62 -243 -62q-150 0 -231 88t-81 249q0 162 97.5 247t247.5 85q108 0 209 -54l-55 -144q-84 67 -161 67q-76 0 -121.5 -47.5t-45.5 -151.5q0 -109 47.5 -159t126.5 -50q25 0 52 6v196zM409 831h97q0 -68 -38 -102.5t-106 -34.5q-67 0 -105.5 35.5 t-38.5 101.5h97q3 -51 50 -51q44 0 44 51z" />
<glyph unicode="&#x11f;" horiz-adv-x="557" d="M252 496q35 0 97.5 -9.5t132.5 -9.5h65v-101h-66q7 -20 7 -43q0 -64 -52.5 -109t-139.5 -56q-76 -20 -76 -36q0 -11 18.5 -16t65.5 -7t78 -6t62.5 -13.5t49.5 -24.5t29.5 -40.5t11.5 -60.5q0 -73 -79 -131.5t-203 -58.5q-118 0 -183 34t-65 95q0 44 26 72.5t80 50.5 q-34 23 -34 65q0 45 84 84q-141 32 -141 151q0 81 68 125.5t164 44.5zM298 692h97q0 -68 -38 -102.5t-106 -34.5q-67 0 -105.5 35.5t-38.5 101.5h97q3 -51 50 -51q44 0 44 51zM297 -10q-72 4 -95 8q-53 -22 -53 -59q0 -30 28 -42.5t85 -12.5q111 0 111 59q0 26 -15 35.5 t-61 11.5zM180 330q0 -31 20.5 -49.5t53.5 -18.5q74 0 74 68t-74 68t-74 -68z" />
<glyph unicode="&#x120;" horiz-adv-x="621" d="M424 322h158v-270q-115 -62 -243 -62q-150 0 -231 88t-81 249q0 162 97.5 247t247.5 85q108 0 209 -54l-55 -144q-84 67 -161 67q-76 0 -121.5 -47.5t-45.5 -151.5q0 -109 47.5 -159t126.5 -50q25 0 52 6v196zM276 777q0 34 24.5 58.5t58.5 24.5t58.5 -24.5t24.5 -58.5 t-24.5 -58.5t-58.5 -24.5q-35 0 -59 24t-24 59z" />
<glyph unicode="&#x121;" horiz-adv-x="557" d="M252 496q35 0 97.5 -9.5t132.5 -9.5h65v-101h-66q7 -20 7 -43q0 -64 -52.5 -109t-139.5 -56q-76 -20 -76 -36q0 -11 18.5 -16t65.5 -7t78 -6t62.5 -13.5t49.5 -24.5t29.5 -40.5t11.5 -60.5q0 -73 -79 -131.5t-203 -58.5q-118 0 -183 34t-65 95q0 44 26 72.5t80 50.5 q-34 23 -34 65q0 45 84 84q-141 32 -141 151q0 81 68 125.5t164 44.5zM167 625q0 34 24.5 58.5t58.5 24.5t58.5 -24.5t24.5 -58.5t-24.5 -58.5t-58.5 -24.5t-58.5 24t-24.5 59zM297 -10q-72 4 -95 8q-53 -22 -53 -59q0 -30 28 -42.5t85 -12.5q111 0 111 59q0 26 -15 35.5 t-61 11.5zM180 330q0 -31 20.5 -49.5t53.5 -18.5q74 0 74 68t-74 68t-74 -68z" />
<glyph unicode="&#x122;" horiz-adv-x="621" d="M424 322h158v-270q-115 -62 -243 -62q-150 0 -231 88t-81 249q0 162 97.5 247t247.5 85q108 0 209 -54l-55 -144q-84 67 -161 67q-76 0 -121.5 -47.5t-45.5 -151.5q0 -109 47.5 -159t126.5 -50q25 0 52 6v196zM305 -55h119q0 -57 -24.5 -118.5t-60.5 -109.5l-83 26 q49 85 49 202z" />
<glyph unicode="&#x123;" horiz-adv-x="557" d="M252 496q35 0 97.5 -9.5t132.5 -9.5h65v-101h-66q7 -20 7 -43q0 -64 -52.5 -109t-139.5 -56q-76 -20 -76 -36q0 -11 18.5 -16t65.5 -7t78 -6t62.5 -13.5t49.5 -24.5t29.5 -40.5t11.5 -60.5q0 -73 -79 -131.5t-203 -58.5q-118 0 -183 34t-65 95q0 44 26 72.5t80 50.5 q-34 23 -34 65q0 45 84 84q-141 32 -141 151q0 81 68 125.5t164 44.5zM306 542h-119q0 57 24.5 118.5t60.5 109.5l83 -26q-49 -85 -49 -202zM297 -10q-72 4 -95 8q-53 -22 -53 -59q0 -30 28 -42.5t85 -12.5q111 0 111 59q0 26 -15 35.5t-61 11.5zM180 330q0 -31 20.5 -49.5 t53.5 -18.5q74 0 74 68t-74 68t-74 -68z" />
<glyph unicode="&#x124;" horiz-adv-x="693" d="M465 650h161v-650h-161v256h-237v-256h-161v650h161v-254h237v254zM384 860l127 -99l-51 -74l-113 68l-111 -68l-47 70l128 103h67z" />
<glyph unicode="&#x125;" horiz-adv-x="590" d="M215 301v-301h-159v685h159v-264q67 75 163 75q70 0 115.5 -42t45.5 -129v-325h-159v274q0 45 -17 61.5t-48 16.5q-56 0 -100 -51zM178 885l128 -127l-70 -64l-95 82l-104 -82l-65 63l139 128h67z" />
<glyph unicode="&#x126;" horiz-adv-x="693" d="M465 650h161v-67h51v-112h-51v-471h-161v256h-237v-256h-161v471h-51v112h51v67h161v-67h237v67zM228 396h237v75h-237v-75z" />
<glyph unicode="&#x127;" horiz-adv-x="590" d="M215 301v-301h-159v538h-52v101h52v46h159v-46h158v-101h-158v-117q67 75 163 75q70 0 115.5 -42t45.5 -129v-325h-159v274q0 45 -17 61.5t-48 16.5q-56 0 -100 -51z" />
<glyph unicode="&#x128;" horiz-adv-x="295" d="M67 650h161v-650h-161v650zM18 704l-47 46q46 84 115 84q22 0 65.5 -13.5t64.5 -13.5q36 0 61 30l48 -53q-19 -37 -53 -60.5t-67 -23.5q-19 0 -61 15.5t-65 15.5q-34 0 -61 -27z" />
<glyph unicode="&#x129;" d="M215 481v-481h-159v481h159zM3 571l-47 46q46 84 115 84q22 0 65.5 -13.5t64.5 -13.5q36 0 61 30l48 -53q-20 -37 -53.5 -60.5t-66.5 -23.5q-19 0 -61 15.5t-65 15.5q-34 0 -61 -27z" />
<glyph unicode="&#x12a;" horiz-adv-x="295" d="M67 650h161v-650h-161v650zM8 714v94h277v-94h-277z" />
<glyph unicode="&#x12b;" d="M215 481v-481h-159v481h159zM-6 582v94h277v-94h-277z" />
<glyph unicode="&#x12c;" horiz-adv-x="295" d="M67 650h161v-650h-161v650zM188 831h97q0 -68 -38 -102.5t-106 -34.5q-67 0 -105.5 35.5t-38.5 101.5h97q3 -51 50 -51q44 0 44 51z" />
<glyph unicode="&#x12d;" d="M215 481v-481h-159v481h159zM177 692h97q0 -68 -38 -102.5t-106 -34.5q-67 0 -105.5 35.5t-38.5 101.5h97q3 -51 50 -51q44 0 44 51z" />
<glyph unicode="&#x12e;" horiz-adv-x="295" d="M67 650h161v-650h-34q-43 -43 -43 -91q0 -25 13.5 -39.5t33.5 -14.5q24 0 45 17l22 -70q-44 -30 -102 -30q-53 0 -89 28t-36 82q0 72 65 118h-36v650z" />
<glyph unicode="&#x12f;" d="M215 481v-481h-37q-43 -43 -43 -91q0 -25 13.5 -39.5t33.5 -14.5q24 0 45 17l22 -70q-44 -30 -102 -30q-53 0 -89 28t-36 82q0 72 65 118h-31v481h159zM49 637q0 37 25.5 63t62.5 26t63 -26t26 -63t-26 -62.5t-63 -25.5t-62.5 25.5t-25.5 62.5z" />
<glyph unicode="&#x130;" horiz-adv-x="295" d="M67 650h161v-650h-161v650zM63 777q0 34 24.5 58.5t58.5 24.5t58.5 -24.5t24.5 -58.5t-24.5 -58.5t-58.5 -24.5t-58.5 24t-24.5 59z" />
<glyph unicode="&#x131;" d="M215 481v-481h-159v481h159z" />
<glyph unicode="&#x132;" horiz-adv-x="613" d="M67 650h161v-650h-161v650zM547 650v-586q0 -99 -68 -158t-183 -79l-45 140q33 6 52 12t41 18.5t32 34.5t10 55v563h161z" />
<glyph unicode="&#x133;" horiz-adv-x="557" d="M215 481v-481h-159v481h159zM49 637q0 37 25.5 63t62.5 26t63 -26t26 -63t-26 -62.5t-63 -25.5t-62.5 25.5t-25.5 62.5zM342 20v461h159v-467q0 -238 -290 -238l-22 132q153 -8 153 112zM335 637q0 37 25.5 63t62.5 26t63 -26t26 -63t-26 -62.5t-63 -25.5t-62.5 25.5 t-25.5 62.5z" />
<glyph unicode="&#x134;" horiz-adv-x="296" d="M230 650v-586q0 -99 -68 -158t-183 -79l-45 140q33 6 52 12t41 18.5t32 34.5t10 55v563h161zM184 860l127 -99l-51 -74l-113 68l-111 -68l-47 70l128 103h67z" />
<glyph unicode="&#x135;" d="M167 725l128 -127l-70 -64l-95 82l-104 -82l-65 63l139 128h67zM56 20v461h159v-467q0 -238 -290 -238l-22 132q153 -8 153 112z" />
<glyph unicode="&#x136;" horiz-adv-x="614" d="M67 650h161v-262l45 15l149 247h179l-198 -308l219 -342h-196l-163 266l-35 -9v-257h-161v650zM269 -55h119q0 -57 -24.5 -118.5t-60.5 -109.5l-83 26q49 85 49 202z" />
<glyph unicode="&#x137;" horiz-adv-x="546" d="M378 255l173 -255h-193l-112 183l-31 -8v-175h-159v685h159v-388l29 10l104 174h173zM231 -55h119q0 -57 -24.5 -118.5t-60.5 -109.5l-83 26q49 85 49 202z" />
<glyph unicode="&#x139;" horiz-adv-x="490" d="M67 650h161v-517h259v-133h-420v650zM300 740l-213 -65l-31 73l199 109z" />
<glyph unicode="&#x13a;" d="M215 685v-685h-159v685h159zM277 765l-213 -65l-31 73l199 109z" />
<glyph unicode="&#x13b;" horiz-adv-x="490" d="M67 650h161v-517h259v-133h-420v650zM225 -55h119q0 -57 -24.5 -118.5t-60.5 -109.5l-83 26q49 85 49 202z" />
<glyph unicode="&#x13c;" d="M215 685v-685h-159v685h159zM77 -55h119q0 -57 -24.5 -118.5t-60.5 -109.5l-83 26q49 85 49 202z" />
<glyph unicode="&#x13d;" horiz-adv-x="490" d="M67 650h161v-517h259v-133h-420v650zM312 473l15 186h122l-49 -186h-88z" />
<glyph unicode="&#x13e;" horiz-adv-x="301" d="M215 685v-685h-159v685h159zM239 500l15 186h122l-49 -186h-88z" />
<glyph unicode="&#x13f;" horiz-adv-x="490" d="M67 650h161v-517h259v-133h-420v650zM317 357q0 40 24.5 63t67.5 23q42 0 67.5 -22t25.5 -64q0 -86 -93 -86q-92 0 -92 86z" />
<glyph unicode="&#x140;" horiz-adv-x="391" d="M215 685v-685h-159v685h159zM238 309q0 40 24.5 63t67.5 23q42 0 67.5 -22t25.5 -64q0 -86 -93 -86q-92 0 -92 86z" />
<glyph unicode="&#x141;" horiz-adv-x="517" d="M94 650h161v-250l73 40l45 -87l-118 -63v-157h259v-133h-420v204l-40 -21l-44 86l84 45v336z" />
<glyph unicode="&#x142;" horiz-adv-x="309" d="M234 300v-300h-159v239l-28 -10l-31 90l59 23v343h159v-282l25 10l33 -90z" />
<glyph unicode="&#x143;" horiz-adv-x="731" d="M219 201v-201h-152v650h175l142 -208l132 -203l-2 213v198h150v-650h-163l-146 215l-137 211zM532 740l-213 -65l-31 73l199 109z" />
<glyph unicode="&#x144;" horiz-adv-x="590" d="M215 301v-301h-159v481h145l3 -71q67 86 174 86q70 0 115.5 -42t45.5 -129v-325h-159v274q0 45 -17 61.5t-48 16.5q-56 0 -100 -51zM435 645l-166 -107l-52 61l142 142z" />
<glyph unicode="&#x145;" horiz-adv-x="731" d="M219 201v-201h-152v650h175l142 -208l132 -203l-2 213v198h150v-650h-163l-146 215l-137 211zM307 -55h119q0 -57 -24.5 -118.5t-60.5 -109.5l-83 26q49 85 49 202z" />
<glyph unicode="&#x146;" horiz-adv-x="590" d="M215 301v-301h-159v481h145l3 -71q67 86 174 86q70 0 115.5 -42t45.5 -129v-325h-159v274q0 45 -17 61.5t-48 16.5q-56 0 -100 -51zM239 -55h119q0 -57 -24.5 -118.5t-60.5 -109.5l-83 26q49 85 49 202z" />
<glyph unicode="&#x147;" horiz-adv-x="731" d="M219 201v-201h-152v650h175l142 -208l132 -203l-2 213v198h150v-650h-163l-146 215l-137 211zM338 691l-125 99l51 74l111 -68l113 68l47 -70l-130 -103h-67z" />
<glyph unicode="&#x148;" horiz-adv-x="590" d="M215 301v-301h-159v481h145l3 -71q67 86 174 86q70 0 115.5 -42t45.5 -129v-325h-159v274q0 45 -17 61.5t-48 16.5q-56 0 -100 -51zM267 534l-134 127l70 64l97 -83l102 83l65 -63l-133 -128h-67z" />
<glyph unicode="&#x149;" horiz-adv-x="590" d="M215 301v-301h-159v481h145l3 -71q67 86 174 86q70 0 115.5 -42t45.5 -129v-325h-159v274q0 45 -17 61.5t-48 16.5q-56 0 -100 -51zM105 781h125q0 -60 -27.5 -125t-67.5 -115l-85 27q55 91 55 213z" />
<glyph unicode="&#x14a;" horiz-adv-x="731" d="M219 201v-201h-152v650h175l142 -208l132 -203l-2 213v198h150v-650q0 -91 -69 -146t-182 -74l-45 140q51 9 81.5 23t44.5 45q4 10 5 15l-144 212l-137 211z" />
<glyph unicode="&#x14b;" horiz-adv-x="590" d="M249 -224l-22 132q153 -8 153 112v254q0 45 -17 61.5t-48 16.5q-56 0 -100 -51v-301h-159v481h145l3 -71q67 86 174 86q70 0 115.5 -42t45.5 -129v-325q0 -54 -18.5 -95t-47.5 -65t-69 -39t-77 -20t-78 -5z" />
<glyph unicode="&#x14c;" horiz-adv-x="704" d="M348 659q72 0 130 -18t103.5 -56t70.5 -104t25 -156q0 -146 -88 -240.5t-240 -94.5q-145 0 -234 85.5t-89 242.5q0 149 88 245t234 96zM349 121q81 0 119 47t38 157q0 115 -37.5 159t-120.5 44q-78 0 -114.5 -47t-36.5 -163q0 -99 36.5 -148t115.5 -49zM214 714v94h277 v-94h-277z" />
<glyph unicode="&#x14d;" horiz-adv-x="569" d="M22 244q0 108 73 180t190 72q124 0 192.5 -69t68.5 -183q0 -109 -70 -181.5t-190 -72.5q-122 0 -193 68t-71 186zM189 245q0 -132 92 -132q58 0 78 30t20 102q0 60 -21.5 94t-76.5 34q-50 0 -71 -32.5t-21 -95.5zM144 582v94h277v-94h-277z" />
<glyph unicode="&#x14e;" horiz-adv-x="704" d="M348 659q72 0 130 -18t103.5 -56t70.5 -104t25 -156q0 -146 -88 -240.5t-240 -94.5q-145 0 -234 85.5t-89 242.5q0 149 88 245t234 96zM349 121q81 0 119 47t38 157q0 115 -37.5 159t-120.5 44q-78 0 -114.5 -47t-36.5 -163q0 -99 36.5 -148t115.5 -49zM396 831h97 q0 -68 -38 -102.5t-106 -34.5q-67 0 -105.5 35.5t-38.5 101.5h97q3 -51 50 -51q44 0 44 51z" />
<glyph unicode="&#x14f;" horiz-adv-x="569" d="M22 244q0 108 73 180t190 72q124 0 192.5 -69t68.5 -183q0 -109 -70 -181.5t-190 -72.5q-122 0 -193 68t-71 186zM189 245q0 -132 92 -132q58 0 78 30t20 102q0 60 -21.5 94t-76.5 34q-50 0 -71 -32.5t-21 -95.5zM331 692h97q0 -68 -38 -102.5t-106 -34.5 q-67 0 -105.5 35.5t-38.5 101.5h97q3 -51 50 -51q44 0 44 51z" />
<glyph unicode="&#x150;" horiz-adv-x="704" d="M348 659q72 0 130 -18t103.5 -56t70.5 -104t25 -156q0 -146 -88 -240.5t-240 -94.5q-145 0 -234 85.5t-89 242.5q0 149 88 245t234 96zM349 121q81 0 119 47t38 157q0 115 -37.5 159t-120.5 44q-78 0 -114.5 -47t-36.5 -163q0 -99 36.5 -148t115.5 -49zM427 825 l-189 -150l-50 56l159 191zM611 740l-213 -65l-31 73l199 109z" />
<glyph unicode="&#x151;" horiz-adv-x="569" d="M22 244q0 108 73 180t190 72q124 0 192.5 -69t68.5 -183q0 -109 -70 -181.5t-190 -72.5q-122 0 -193 68t-71 186zM189 245q0 -132 92 -132q58 0 78 30t20 102q0 60 -21.5 94t-76.5 34q-50 0 -71 -32.5t-21 -95.5zM332 673l-146 -130l-58 51l119 160zM508 645l-166 -107 l-52 61l142 142z" />
<glyph unicode="&#x152;" horiz-adv-x="913" d="M348 659q50 0 96 -9h430v-131h-286v-123h258v-130h-258v-133h285v-133h-434q-47 -10 -90 -10q-145 0 -234 85.5t-89 242.5q0 149 88 245t234 96zM349 120q45 0 78 15v380q-31 14 -79 14q-78 0 -114 -47.5t-36 -163.5q0 -100 36.5 -149t114.5 -49z" />
<glyph unicode="&#x153;" horiz-adv-x="880" d="M22 244q0 108 73 180t190 72q114 0 183 -60q66 60 158 60q111 0 169.5 -61t58.5 -200q0 -22 -1 -34h-302q10 -50 41 -69t79 -19q32 0 71 15t70 40l40 -122q-102 -56 -213 -56q-110 0 -177 60q-68 -60 -176 -60q-122 0 -193 68t-71 186zM189 245q0 -132 92 -132 q58 0 78 30t20 102q0 60 -21.5 94t-76.5 34q-50 0 -71 -32.5t-21 -95.5zM549 298h145q3 47 -13 67.5t-51 20.5q-38 0 -57 -20t-24 -68z" />
<glyph unicode="&#x154;" horiz-adv-x="614" d="M67 0v650h244q128 0 188 -58.5t60 -158.5q0 -135 -103 -192l146 -241h-190l-112 206h-72v-206h-161zM295 335q93 0 93 97q0 46 -21 66.5t-75 20.5h-64v-184h67zM425 740l-213 -65l-31 73l199 109z" />
<glyph unicode="&#x155;" horiz-adv-x="386" d="M215 271v-271h-159v481h141l7 -97q54 105 134 105q22 0 42 -4l-12 -162q-27 11 -66 11q-49 0 -87 -63zM340 645l-166 -107l-52 61l142 142z" />
<glyph unicode="&#x156;" horiz-adv-x="614" d="M67 0v650h244q128 0 188 -58.5t60 -158.5q0 -135 -103 -192l146 -241h-190l-112 206h-72v-206h-161zM295 335q93 0 93 97q0 46 -21 66.5t-75 20.5h-64v-184h67zM257 -55h119q0 -57 -24.5 -118.5t-60.5 -109.5l-83 26q49 85 49 202z" />
<glyph unicode="&#x157;" horiz-adv-x="386" d="M215 271v-271h-159v481h141l7 -97q54 105 134 105q22 0 42 -4l-12 -162q-27 11 -66 11q-49 0 -87 -63zM76 -55h119q0 -57 -24.5 -118.5t-60.5 -109.5l-83 26q49 85 49 202z" />
<glyph unicode="&#x158;" horiz-adv-x="614" d="M67 0v650h244q128 0 188 -58.5t60 -158.5q0 -135 -103 -192l146 -241h-190l-112 206h-72v-206h-161zM253 691l-125 99l51 74l111 -68l113 68l47 -70l-130 -103h-67zM295 335q93 0 93 97q0 46 -21 66.5t-75 20.5h-64v-184h67z" />
<glyph unicode="&#x159;" horiz-adv-x="386" d="M215 271v-271h-159v481h141l7 -97q54 105 134 105q22 0 42 -4l-12 -162q-27 11 -66 11q-49 0 -87 -63zM186 534l-134 127l70 64l97 -83l102 83l65 -63l-133 -128h-67z" />
<glyph unicode="&#x15a;" horiz-adv-x="524" d="M242 121q37 0 63 12.5t26 40.5q0 24 -22 44t-55 33.5t-71.5 33t-71.5 40.5t-55 59t-22 87q0 83 64.5 135.5t166.5 52.5q114 0 209 -52l-44 -147q-23 27 -66.5 47.5t-83.5 20.5q-75 0 -75 -47q0 -21 22 -38.5t55 -29t71.5 -30.5t71.5 -41.5t55 -64t22 -96.5 q0 -90 -73.5 -140.5t-187.5 -50.5q-128 0 -220 60l53 146q37 -34 84.5 -54.5t83.5 -20.5zM408 740l-213 -65l-31 73l199 109z" />
<glyph unicode="&#x15b;" horiz-adv-x="461" d="M268 145q0 16 -24.5 28t-59.5 22.5t-70.5 26t-60 49t-24.5 82.5q0 62 60 102.5t150 40.5q117 0 192 -44l-46 -129q-46 55 -130 55q-61 0 -61 -27q0 -13 25 -22.5t60 -20t70.5 -27t60.5 -50.5t25 -82q0 -81 -66.5 -120t-163.5 -39q-112 0 -181 39l37 133 q25 -22 65.5 -37.5t74.5 -15.5q67 0 67 36zM364 645l-166 -107l-52 61l142 142z" />
<glyph unicode="&#x15c;" horiz-adv-x="524" d="M242 121q37 0 63 12.5t26 40.5q0 24 -22 44t-55 33.5t-71.5 33t-71.5 40.5t-55 59t-22 87q0 83 64.5 135.5t166.5 52.5q114 0 209 -52l-44 -147q-23 27 -66.5 47.5t-83.5 20.5q-75 0 -75 -47q0 -21 22 -38.5t55 -29t71.5 -30.5t71.5 -41.5t55 -64t22 -96.5 q0 -90 -73.5 -140.5t-187.5 -50.5q-128 0 -220 60l53 146q37 -34 84.5 -54.5t83.5 -20.5zM296 860l127 -99l-51 -74l-113 68l-111 -68l-47 70l128 103h67z" />
<glyph unicode="&#x15d;" horiz-adv-x="461" d="M268 145q0 16 -24.5 28t-59.5 22.5t-70.5 26t-60 49t-24.5 82.5q0 62 60 102.5t150 40.5q117 0 192 -44l-46 -129q-46 55 -130 55q-61 0 -61 -27q0 -13 25 -22.5t60 -20t70.5 -27t60.5 -50.5t25 -82q0 -81 -66.5 -120t-163.5 -39q-112 0 -181 39l37 133 q25 -22 65.5 -37.5t74.5 -15.5q67 0 67 36zM269 725l128 -127l-70 -64l-95 82l-104 -82l-65 63l139 128h67z" />
<glyph unicode="&#x15e;" horiz-adv-x="524" d="M141 -213l24 73q25 -23 54 -23q35 0 35 27q0 34 -67 35l21 92q-109 8 -187 59l53 146q37 -34 84.5 -54.5t83.5 -20.5q37 0 63 12.5t26 40.5q0 24 -22 44t-55 33.5t-71.5 33t-71.5 40.5t-55 59t-22 87q0 83 64.5 135.5t166.5 52.5q114 0 209 -52l-44 -147 q-23 27 -66.5 47.5t-83.5 20.5q-75 0 -75 -47q0 -21 22 -38.5t55 -29t71.5 -30.5t71.5 -41.5t55 -64t22 -96.5q0 -83 -63 -132.5t-164 -57.5l-9 -43q45 -8 69 -32t24 -60q0 -46 -37.5 -67.5t-86.5 -21.5q-56 0 -94 20z" />
<glyph unicode="&#x15f;" horiz-adv-x="461" d="M118 -213l24 73q25 -23 54 -23q35 0 35 27q0 34 -67 35l21 91q-103 5 -161 39l37 133q25 -22 65.5 -37.5t74.5 -15.5q67 0 67 36q0 16 -24.5 28t-59.5 22.5t-70.5 26t-60 49t-24.5 82.5q0 62 60 102.5t150 40.5q117 0 192 -44l-46 -129q-46 55 -130 55q-61 0 -61 -27 q0 -13 25 -22.5t60 -20t70.5 -27t60.5 -50.5t25 -82q0 -71 -51 -109.5t-131 -46.5l-10 -45q45 -8 69 -32t24 -60q0 -46 -37.5 -67.5t-86.5 -21.5q-56 0 -94 20z" />
<glyph unicode="&#x160;" horiz-adv-x="524" d="M242 121q37 0 63 12.5t26 40.5q0 24 -22 44t-55 33.5t-71.5 33t-71.5 40.5t-55 59t-22 87q0 83 64.5 135.5t166.5 52.5q114 0 209 -52l-44 -147q-23 27 -66.5 47.5t-83.5 20.5q-75 0 -75 -47q0 -21 22 -38.5t55 -29t71.5 -30.5t71.5 -41.5t55 -64t22 -96.5 q0 -90 -73.5 -140.5t-187.5 -50.5q-128 0 -220 60l53 146q37 -34 84.5 -54.5t83.5 -20.5zM226 691l-125 99l51 74l111 -68l113 68l47 -70l-130 -103h-67z" />
<glyph unicode="&#x161;" horiz-adv-x="461" d="M268 145q0 16 -24.5 28t-59.5 22.5t-70.5 26t-60 49t-24.5 82.5q0 62 60 102.5t150 40.5q117 0 192 -44l-46 -129q-46 55 -130 55q-61 0 -61 -27q0 -13 25 -22.5t60 -20t70.5 -27t60.5 -50.5t25 -82q0 -81 -66.5 -120t-163.5 -39q-112 0 -181 39l37 133 q25 -22 65.5 -37.5t74.5 -15.5q67 0 67 36zM198 534l-134 127l70 64l97 -83l102 83l65 -63l-133 -128h-67z" />
<glyph unicode="&#x162;" horiz-adv-x="555" d="M550 650v-131h-192v-519h-161v519h-192v131h545zM216 -55h119q0 -57 -24.5 -118.5t-60.5 -109.5l-83 26q49 85 49 202z" />
<glyph unicode="&#x163;" horiz-adv-x="426" d="M244 358v-176q2 -36 16 -51t44 -15q43 0 89 38l23 -125q-76 -39 -159 -39q-79 0 -125.5 38t-46.5 121v209h-71v109l73 10l19 124h138v-124h144v-119h-144zM181 -55h119q0 -57 -24.5 -118.5t-60.5 -109.5l-83 26q49 85 49 202z" />
<glyph unicode="&#x164;" horiz-adv-x="555" d="M550 650v-131h-192v-519h-161v519h-192v131h545zM239 691l-125 99l51 74l111 -68l113 68l47 -70l-130 -103h-67z" />
<glyph unicode="&#x165;" horiz-adv-x="426" d="M244 358v-176q2 -36 16 -51t44 -15q43 0 89 38l23 -125q-76 -39 -159 -39q-79 0 -125.5 38t-46.5 121v209h-71v109l73 10l19 124h138v-124h144v-119h-144zM286 531l15 186h122l-49 -186h-88z" />
<glyph unicode="&#x166;" horiz-adv-x="555" d="M550 650v-131h-192v-167h101v-114h-101v-238h-161v238h-99v114h99v167h-192v131h545z" />
<glyph unicode="&#x167;" horiz-adv-x="426" d="M244 194v-12q2 -36 16 -51t44 -15q43 0 89 38l23 -125q-76 -39 -159 -39q-79 0 -125.5 38t-46.5 121v45h-64v101h64v63h-71v109l73 10l19 124h138v-124h144v-119h-144v-63h146v-101h-146z" />
<glyph unicode="&#x168;" horiz-adv-x="693" d="M479 253v397h155v-427q0 -68 -28.5 -116.5t-75.5 -72.5t-93 -34t-95 -10q-41 0 -77 5t-75 20.5t-67 40.5t-46 68t-18 100v426h161v-396q0 -77 31 -105t98 -28q130 0 130 132zM223 704l-47 46q46 84 115 84q22 0 65.5 -13.5t64.5 -13.5q36 0 61 30l48 -53 q-19 -37 -53 -60.5t-67 -23.5q-19 0 -61 15.5t-65 15.5q-34 0 -61 -27z" />
<glyph unicode="&#x169;" horiz-adv-x="587" d="M372 185v296h159v-481h-140l-8 76q-67 -86 -171 -86q-161 0 -161 171v320h159v-279q0 -47 15 -63.5t41 -16.5q25 0 54.5 18.5t51.5 44.5zM167 571l-47 46q46 84 115 84q22 0 65.5 -13.5t64.5 -13.5q36 0 61 30l48 -53q-20 -37 -53.5 -60.5t-66.5 -23.5q-19 0 -61 15.5 t-65 15.5q-34 0 -61 -27z" />
<glyph unicode="&#x16a;" horiz-adv-x="693" d="M479 253v397h155v-427q0 -68 -28.5 -116.5t-75.5 -72.5t-93 -34t-95 -10q-41 0 -77 5t-75 20.5t-67 40.5t-46 68t-18 100v426h161v-396q0 -77 31 -105t98 -28q130 0 130 132zM212 714v94h277v-94h-277z" />
<glyph unicode="&#x16b;" horiz-adv-x="587" d="M372 185v296h159v-481h-140l-8 76q-67 -86 -171 -86q-161 0 -161 171v320h159v-279q0 -47 15 -63.5t41 -16.5q25 0 54.5 18.5t51.5 44.5zM158 582v94h277v-94h-277z" />
<glyph unicode="&#x16c;" horiz-adv-x="693" d="M479 253v397h155v-427q0 -68 -28.5 -116.5t-75.5 -72.5t-93 -34t-95 -10q-41 0 -77 5t-75 20.5t-67 40.5t-46 68t-18 100v426h161v-396q0 -77 31 -105t98 -28q130 0 130 132zM387 831h97q0 -68 -38 -102.5t-106 -34.5q-67 0 -105.5 35.5t-38.5 101.5h97q3 -51 50 -51 q44 0 44 51z" />
<glyph unicode="&#x16d;" horiz-adv-x="587" d="M372 185v296h159v-481h-140l-8 76q-67 -86 -171 -86q-161 0 -161 171v320h159v-279q0 -47 15 -63.5t41 -16.5q25 0 54.5 18.5t51.5 44.5zM334 692h97q0 -68 -38 -102.5t-106 -34.5q-67 0 -105.5 35.5t-38.5 101.5h97q3 -51 50 -51q44 0 44 51z" />
<glyph unicode="&#x16e;" horiz-adv-x="693" d="M479 253v397h155v-427q0 -68 -28.5 -116.5t-75.5 -72.5t-93 -34t-95 -10q-41 0 -77 5t-75 20.5t-67 40.5t-46 68t-18 100v426h161v-396q0 -77 31 -105t98 -28q130 0 130 132zM347 685q-53 0 -83 29t-30 76q0 50 34 77t81 27q48 0 79.5 -26t31.5 -78q0 -44 -30 -74.5 t-83 -30.5zM347 753q19 0 26.5 9t7.5 28q0 36 -34 36q-19 0 -26.5 -8t-7.5 -28q0 -37 34 -37z" />
<glyph unicode="&#x16f;" horiz-adv-x="587" d="M372 185v296h159v-481h-140l-8 76q-67 -86 -171 -86q-161 0 -161 171v320h159v-279q0 -47 15 -63.5t41 -16.5q25 0 54.5 18.5t51.5 44.5zM291 542q-53 0 -83 29t-30 76q0 50 34 77t81 27q48 0 79.5 -26t31.5 -78q0 -44 -30 -74.5t-83 -30.5zM291 610q19 0 26.5 9t7.5 28 q0 36 -34 36q-19 0 -26.5 -8t-7.5 -28q0 -37 34 -37z" />
<glyph unicode="&#x170;" horiz-adv-x="693" d="M479 253v397h155v-427q0 -68 -28.5 -116.5t-75.5 -72.5t-93 -34t-95 -10q-41 0 -77 5t-75 20.5t-67 40.5t-46 68t-18 100v426h161v-396q0 -77 31 -105t98 -28q130 0 130 132zM407 825l-189 -150l-50 56l159 191zM591 740l-213 -65l-31 73l199 109z" />
<glyph unicode="&#x171;" horiz-adv-x="587" d="M372 185v296h159v-481h-140l-8 76q-67 -86 -171 -86q-161 0 -161 171v320h159v-279q0 -47 15 -63.5t41 -16.5q25 0 54.5 18.5t51.5 44.5zM346 673l-146 -130l-58 51l119 160zM522 645l-166 -107l-52 61l142 142z" />
<glyph unicode="&#x172;" horiz-adv-x="693" d="M479 253v397h155v-427q0 -94 -51 -147t-130 -73q-24 -19 -41 -48t-17 -56q0 -25 13.5 -39.5t33.5 -14.5q24 0 45 17l22 -70q-44 -30 -102 -30q-53 0 -89 28t-36 82q0 72 65 118h-5q-41 0 -77 5t-75 20.5t-67 40.5t-46 68t-18 100v426h161v-396q0 -77 31 -105t98 -28 q130 0 130 132z" />
<glyph unicode="&#x173;" horiz-adv-x="587" d="M372 185v296h159v-481h-42q-43 -43 -43 -91q0 -25 13.5 -39.5t33.5 -14.5q24 0 45 17l22 -70q-44 -30 -102 -30q-53 0 -89 28t-36 82q0 72 65 118h-7l-8 76q-67 -86 -171 -86q-161 0 -161 171v320h159v-279q0 -47 15 -63.5t41 -16.5q25 0 54.5 18.5t51.5 44.5z" />
<glyph unicode="&#x174;" horiz-adv-x="892" d="M547 640l50 -259l43 -248l42 252l38 265h155l-132 -650h-221l-31 173l-48 294l-48 -295l-31 -172h-213l-137 650h165l47 -277l36 -240l40 239l49 268h196zM480 860l127 -99l-51 -74l-113 68l-111 -68l-47 70l128 103h67z" />
<glyph unicode="&#x175;" horiz-adv-x="787" d="M325 0h-191l-121 481h171l27 -176l28 -170l31 166l35 180h182l36 -178l32 -168l26 165l26 181h168l-126 -481h-191l-21 95l-46 219l-45 -218zM428 725l128 -127l-70 -64l-95 82l-104 -82l-65 63l139 128h67z" />
<glyph unicode="&#x176;" horiz-adv-x="544" d="M158 650l124 -266l58 133l57 133h161l-203 -393v-257h-161v252l-210 398h174zM315 860l127 -99l-51 -74l-113 68l-111 -68l-47 70l128 103h67z" />
<glyph unicode="&#x177;" horiz-adv-x="505" d="M510 481l-241 -701h-159l60 181l-175 520h173l50 -173l41 -153l40 144l51 182h160zM302 725l128 -127l-70 -64l-95 82l-104 -82l-65 63l139 128h67z" />
<glyph unicode="&#x178;" horiz-adv-x="544" d="M158 650l124 -266l58 133l57 133h161l-203 -393v-257h-161v252l-210 398h174zM311 778q0 32 22.5 54t53.5 22t53.5 -22t22.5 -54t-22.5 -54t-53.5 -22t-53.5 22t-22.5 54zM99 778q0 32 22.5 54t53.5 22t53.5 -22t22.5 -54t-22.5 -54t-53.5 -22t-53.5 22t-22.5 54z" />
<glyph unicode="&#x179;" horiz-adv-x="554" d="M43 519v131h474v-115l-162 -220l-140 -184h309v-131h-501v106l182 249l125 164h-287zM427 740l-213 -65l-31 73l199 109z" />
<glyph unicode="&#x17a;" horiz-adv-x="486" d="M229 124h228v-124h-432v99l217 258h-201v124h408v-99zM378 645l-166 -107l-52 61l142 142z" />
<glyph unicode="&#x17b;" horiz-adv-x="554" d="M43 519v131h474v-115l-162 -220l-140 -184h309v-131h-501v106l182 249l125 164h-287zM201 777q0 34 24.5 58.5t58.5 24.5t58.5 -24.5t24.5 -58.5t-24.5 -58.5t-58.5 -24.5t-58.5 24t-24.5 59z" />
<glyph unicode="&#x17c;" horiz-adv-x="486" d="M229 124h228v-124h-432v99l217 258h-201v124h408v-99zM173 625q0 34 24.5 58.5t58.5 24.5t58.5 -24.5t24.5 -58.5t-24.5 -58.5t-58.5 -24.5t-58.5 24t-24.5 59z" />
<glyph unicode="&#x17d;" horiz-adv-x="554" d="M43 519v131h474v-115l-162 -220l-140 -184h309v-131h-501v106l182 249l125 164h-287zM246 691l-125 99l51 74l111 -68l113 68l47 -70l-130 -103h-67z" />
<glyph unicode="&#x17e;" horiz-adv-x="486" d="M229 124h228v-124h-432v99l217 258h-201v124h408v-99zM216 534l-134 127l70 64l97 -83l102 83l65 -63l-133 -128h-67z" />
<glyph unicode="&#x18f;" horiz-adv-x="673" d="M291 528q-46 0 -109.5 -20t-101.5 -51l-47 128q135 74 281 74q69 0 125 -16.5t104.5 -53t75.5 -105t27 -163.5q0 -148 -93.5 -239.5t-221.5 -91.5q-146 0 -223.5 78.5t-77.5 253.5q0 29 1 45h441q-9 91 -52 126t-129 35zM333 120q61 0 94.5 31.5t43.5 99.5h-261 q-4 -64 28.5 -97.5t94.5 -33.5z" />
<glyph unicode="&#x192;" horiz-adv-x="459" d="M114 272h-99v106h102l3 85q6 121 71.5 176.5t160.5 55.5q66 0 127 -26l-32 -138q-43 30 -82 30q-83 0 -86 -108l-3 -75h171v-106h-174l-11 -331q-3 -85 -58.5 -126t-135.5 -41q-66 0 -128 27l32 122q35 -26 71 -26q58 0 61 65z" />
<glyph unicode="&#x1c4;" horiz-adv-x="1253" d="M67 0v650h246q344 0 344 -311q0 -61 -9 -109.5t-32.5 -92.5t-61.5 -73.5t-98.5 -46.5t-141.5 -17h-247zM742 519v131h474v-115l-162 -220l-140 -184h309v-131h-501v106l182 249l125 164h-287zM308 519h-80v-386h94q94 0 128.5 45.5t34.5 135.5q0 104 -37.5 154.5 t-139.5 50.5zM945 691l-125 99l51 74l111 -68l113 68l47 -70l-130 -103h-67z" />
<glyph unicode="&#x1c5;" horiz-adv-x="1181" d="M924 124h228v-124h-432v99l217 258h-201v124h408v-99zM911 534l-134 127l70 64l97 -83l102 83l65 -63l-133 -128h-67zM67 0v650h246q344 0 344 -311q0 -61 -9 -109.5t-32.5 -92.5t-61.5 -73.5t-98.5 -46.5t-141.5 -17h-247zM308 519h-80v-386h94q94 0 128.5 45.5 t34.5 135.5q0 104 -37.5 154.5t-139.5 50.5z" />
<glyph unicode="&#x1c6;" horiz-adv-x="1071" d="M525 685v-685h-143l-5 71q-26 -34 -68.5 -57.5t-86.5 -23.5q-95 0 -146 64t-51 179q0 122 73 192.5t189 70.5q28 0 79 -7v196h159zM814 124h228v-124h-432v99l217 258h-201v124h408v-99zM366 182v170q-27 18 -69 18q-48 0 -76.5 -30.5t-28.5 -89.5q0 -64 21 -92t62 -28 q52 0 91 52zM801 534l-134 127l70 64l97 -83l102 83l65 -63l-133 -128h-67z" />
<glyph unicode="&#x1c7;" horiz-adv-x="824" d="M67 650h161v-517h259v-133h-420v650zM758 650v-586q0 -99 -68 -158t-183 -79l-45 140q33 6 52 12t41 18.5t32 34.5t10 55v563h161z" />
<glyph unicode="&#x1c8;" horiz-adv-x="771" d="M67 650h161v-517h259v-133h-420v650zM560 20v461h159v-467q0 -238 -290 -238l-22 132q153 -8 153 112zM553 637q0 37 25.5 63t62.5 26t63 -26t26 -63t-26 -62.5t-63 -25.5t-62.5 25.5t-25.5 62.5z" />
<glyph unicode="&#x1c9;" horiz-adv-x="544" d="M215 685v-685h-159v685h159zM331 20v461h159v-467q0 -238 -290 -238l-22 132q153 -8 153 112zM324 637q0 37 25.5 63t62.5 26t63 -26t26 -63t-26 -62.5t-63 -25.5t-62.5 25.5t-25.5 62.5z" />
<glyph unicode="&#x1ca;" horiz-adv-x="1049" d="M219 201v-201h-152v650h175l142 -208l132 -203l-2 213v198h150v-650h-163l-146 215l-137 211zM983 650v-586q0 -99 -68 -158t-183 -79l-45 140q33 6 52 12t41 18.5t32 34.5t10 55v563h161z" />
<glyph unicode="&#x1cb;" horiz-adv-x="998" d="M219 201v-201h-152v650h175l142 -208l132 -203l-2 213v198h150v-650h-163l-146 215l-137 211zM785 20v461h159v-467q0 -238 -290 -238l-22 132q153 -8 153 112zM778 637q0 37 25.5 63t62.5 26t63 -26t26 -63t-26 -62.5t-63 -25.5t-62.5 25.5t-25.5 62.5z" />
<glyph unicode="&#x1cc;" horiz-adv-x="867" d="M215 301v-301h-159v481h145l3 -71q67 86 174 86q70 0 115.5 -42t45.5 -129v-325h-159v274q0 45 -17 61.5t-48 16.5q-56 0 -100 -51zM655 20v461h159v-467q0 -238 -290 -238l-22 132q153 -8 153 112zM648 637q0 37 25.5 63t62.5 26t63 -26t26 -63t-26 -62.5t-63 -25.5 t-62.5 25.5t-25.5 62.5z" />
<glyph unicode="&#x1d3;" horiz-adv-x="693" d="M479 253v397h155v-427q0 -68 -28.5 -116.5t-75.5 -72.5t-93 -34t-95 -10q-41 0 -77 5t-75 20.5t-67 40.5t-46 68t-18 100v426h161v-396q0 -77 31 -105t98 -28q130 0 130 132zM314 691l-125 99l51 74l111 -68l113 68l47 -70l-130 -103h-67z" />
<glyph unicode="&#x1d4;" horiz-adv-x="587" d="M372 185v296h159v-481h-140l-8 76q-67 -86 -171 -86q-161 0 -161 171v320h159v-279q0 -47 15 -63.5t41 -16.5q25 0 54.5 18.5t51.5 44.5zM259 535l-134 127l70 64l97 -83l102 83l65 -63l-133 -128h-67z" />
<glyph unicode="&#x1e2;" horiz-adv-x="887" d="M340 650h508v-131h-286v-123h258v-130h-258v-133h285v-133h-446v133h-189l-69 -133h-165zM500 714v94h277v-94h-277zM275 253h126v240z" />
<glyph unicode="&#x1e3;" horiz-adv-x="794" d="M251 378q-30 0 -48.5 -13t-11.5 -39l-134 -20q-8 21 -8 45q0 63 60.5 104t155.5 41q97 0 146 -38q58 38 129 38q111 0 169.5 -61t58.5 -200q0 -22 -1 -34h-302q10 -50 41 -69t79 -19q32 0 71 15t70 40l40 -122q-102 -56 -213 -56q-145 0 -210 99q-58 -99 -164 -99 q-71 0 -114 37t-43 109q0 164 283 155l6 26v5q0 30 -14.5 43t-45.5 13zM463 298h145q3 47 -13 67.5t-51 20.5q-38 0 -57 -20t-24 -68zM184 145q0 -19 13.5 -28.5t30.5 -9.5q48 0 85 48q-6 20 -9 46q-10 1 -30 1q-90 0 -90 -57zM273 582v94h277v-94h-277z" />
<glyph unicode="&#x1f1;" horiz-adv-x="1253" d="M67 0v650h246q344 0 344 -311q0 -61 -9 -109.5t-32.5 -92.5t-61.5 -73.5t-98.5 -46.5t-141.5 -17h-247zM742 519v131h474v-115l-162 -220l-140 -184h309v-131h-501v106l182 249l125 164h-287zM308 519h-80v-386h94q94 0 128.5 45.5t34.5 135.5q0 104 -37.5 154.5 t-139.5 50.5z" />
<glyph unicode="&#x1f2;" horiz-adv-x="1181" d="M67 0v650h246q344 0 344 -311q0 -61 -9 -109.5t-32.5 -92.5t-61.5 -73.5t-98.5 -46.5t-141.5 -17h-247zM308 519h-80v-386h94q94 0 128.5 45.5t34.5 135.5q0 104 -37.5 154.5t-139.5 50.5zM924 124h228v-124h-432v99l217 258h-201v124h408v-99z" />
<glyph unicode="&#x1f3;" horiz-adv-x="1071" d="M525 685v-685h-143l-5 71q-26 -34 -68.5 -57.5t-86.5 -23.5q-95 0 -146 64t-51 179q0 122 73 192.5t189 70.5q28 0 79 -7v196h159zM814 124h228v-124h-432v99l217 258h-201v124h408v-99zM366 182v170q-27 18 -69 18q-48 0 -76.5 -30.5t-28.5 -89.5q0 -64 21 -92t62 -28 q52 0 91 52z" />
<glyph unicode="&#x1fc;" horiz-adv-x="887" d="M340 650h508v-131h-286v-123h258v-130h-258v-133h285v-133h-446v133h-189l-69 -133h-165zM773 740l-213 -65l-31 73l199 109zM275 253h126v240z" />
<glyph unicode="&#x1fd;" horiz-adv-x="794" d="M251 378q-30 0 -48.5 -13t-11.5 -39l-134 -20q-8 21 -8 45q0 63 60.5 104t155.5 41q97 0 146 -38q58 38 129 38q111 0 169.5 -61t58.5 -200q0 -22 -1 -34h-302q10 -50 41 -69t79 -19q32 0 71 15t70 40l40 -122q-102 -56 -213 -56q-145 0 -210 99q-58 -99 -164 -99 q-71 0 -114 37t-43 109q0 164 283 155l6 26v5q0 30 -14.5 43t-45.5 13zM463 298h145q3 47 -13 67.5t-51 20.5q-38 0 -57 -20t-24 -68zM184 145q0 -19 13.5 -28.5t30.5 -9.5q48 0 85 48q-6 20 -9 46q-10 1 -30 1q-90 0 -90 -57zM573 645l-166 -107l-52 61l142 142z" />
<glyph unicode="&#x1fe;" horiz-adv-x="704" d="M348 659q104 0 179 -37l30 37h131l-81 -100q70 -83 70 -234q0 -146 -88 -240.5t-240 -94.5q-100 0 -174 41l-33 -41h-131l86 105q-71 85 -71 223q0 149 88 245t234 96zM349 121q81 0 119 47t38 157q0 55 -10 98l-231 -282q31 -20 84 -20zM197 318q0 -52 9 -89l230 281 q-33 18 -88 18q-78 0 -114.5 -47t-36.5 -163zM523 740l-213 -65l-31 73l199 109z" />
<glyph unicode="&#x1ff;" horiz-adv-x="569" d="M22 244q0 108 73 180t190 72q74 0 132 -28l24 28h127l-75 -87q53 -65 53 -165q0 -109 -70 -181.5t-190 -72.5q-74 0 -134 27l-23 -27h-123l72 84q-56 65 -56 170zM428 645l-166 -107l-52 61l142 142zM189 245q0 -16 2 -40l136 159q-18 9 -46 9q-50 0 -71 -32.5t-21 -95.5 zM281 113q58 0 78 30t20 102q0 11 -2 31l-135 -156q15 -7 39 -7z" />
<glyph unicode="&#x218;" horiz-adv-x="524" d="M242 121q37 0 63 12.5t26 40.5q0 24 -22 44t-55 33.5t-71.5 33t-71.5 40.5t-55 59t-22 87q0 83 64.5 135.5t166.5 52.5q114 0 209 -52l-44 -147q-23 27 -66.5 47.5t-83.5 20.5q-75 0 -75 -47q0 -21 22 -38.5t55 -29t71.5 -30.5t71.5 -41.5t55 -64t22 -96.5 q0 -90 -73.5 -140.5t-187.5 -50.5q-128 0 -220 60l53 146q37 -34 84.5 -54.5t83.5 -20.5zM203 -55h119q0 -57 -24.5 -118.5t-60.5 -109.5l-83 26q49 85 49 202z" />
<glyph unicode="&#x219;" horiz-adv-x="461" d="M268 145q0 16 -24.5 28t-59.5 22.5t-70.5 26t-60 49t-24.5 82.5q0 62 60 102.5t150 40.5q117 0 192 -44l-46 -129q-46 55 -130 55q-61 0 -61 -27q0 -13 25 -22.5t60 -20t70.5 -27t60.5 -50.5t25 -82q0 -81 -66.5 -120t-163.5 -39q-112 0 -181 39l37 133 q25 -22 65.5 -37.5t74.5 -15.5q67 0 67 36zM178 -55h119q0 -57 -24.5 -118.5t-60.5 -109.5l-83 26q49 85 49 202z" />
<glyph unicode="&#x21a;" horiz-adv-x="555" d="M550 650v-131h-192v-519h-161v519h-192v131h545zM216 -55h119q0 -57 -24.5 -118.5t-60.5 -109.5l-83 26q49 85 49 202z" />
<glyph unicode="&#x21b;" horiz-adv-x="426" d="M244 358v-176q2 -36 16 -51t44 -15q43 0 89 38l23 -125q-76 -39 -159 -39q-79 0 -125.5 38t-46.5 121v209h-71v109l73 10l19 124h138v-124h144v-119h-144zM181 -55h119q0 -57 -24.5 -118.5t-60.5 -109.5l-83 26q49 85 49 202z" />
<glyph unicode="&#x232;" horiz-adv-x="544" d="M158 650l124 -266l58 133l57 133h161l-203 -393v-257h-161v252l-210 398h174zM142 714v94h277v-94h-277z" />
<glyph unicode="&#x233;" horiz-adv-x="505" d="M510 481l-241 -701h-159l60 181l-175 520h173l50 -173l41 -153l40 144l51 182h160zM124 582v94h277v-94h-277z" />
<glyph unicode="&#x237;" d="M56 20v461h159v-467q0 -238 -290 -238l-22 132q153 -8 153 112z" />
<glyph unicode="&#x259;" horiz-adv-x="515" d="M209 373q-32 0 -71 -15t-70 -40l-40 122q102 56 213 56q107 0 179 -62.5t72 -193.5q0 -112 -70.5 -181t-167.5 -69q-228 0 -228 251q0 22 1 34h303q-8 56 -39.5 77t-81.5 21zM250 100q35 0 54 18t25 60h-143q-3 -46 12.5 -62t51.5 -16z" />
<glyph unicode="&#x2c6;" horiz-adv-x="450" d="M262 725l128 -127l-70 -64l-95 82l-104 -82l-65 63l139 128h67z" />
<glyph unicode="&#x2c7;" horiz-adv-x="450" d="M190 534l-134 127l70 64l97 -83l102 83l65 -63l-133 -128h-67z" />
<glyph unicode="&#x2d8;" horiz-adv-x="450" d="M272 692h97q0 -68 -38 -102.5t-106 -34.5q-67 0 -105.5 35.5t-38.5 101.5h97q3 -51 50 -51q44 0 44 51z" />
<glyph unicode="&#x2d9;" horiz-adv-x="450" d="M140 625q0 34 24.5 58.5t58.5 24.5t58.5 -24.5t24.5 -58.5t-24.5 -58.5t-58.5 -24.5q-35 0 -59 24t-24 59z" />
<glyph unicode="&#x2da;" horiz-adv-x="450" d="M224 542q-53 0 -83 29t-30 76q0 50 34 77t81 27q48 0 79.5 -26t31.5 -78q0 -44 -30 -74.5t-83 -30.5zM224 610q19 0 26.5 9t7.5 28q0 36 -34 36q-19 0 -26.5 -8t-7.5 -28q0 -37 34 -37z" />
<glyph unicode="&#x2db;" horiz-adv-x="450" d="M246 35l45 -11q-29 -17 -51.5 -50t-22.5 -65q0 -25 13.5 -39.5t33.5 -14.5q24 0 45 17l22 -70q-44 -30 -102 -30q-53 0 -89 28t-36 82q0 60 42 98.5t100 54.5z" />
<glyph unicode="&#x2dc;" horiz-adv-x="450" d="M97 571l-47 46q46 84 115 84q22 0 65.5 -13.5t64.5 -13.5q36 0 61 30l48 -53q-20 -37 -53.5 -60.5t-66.5 -23.5q-19 0 -61 15.5t-65 15.5q-34 0 -61 -27z" />
<glyph unicode="&#x2dd;" horiz-adv-x="450" d="M236 673l-146 -130l-58 51l119 160zM412 645l-166 -107l-52 61l142 142z" />
<glyph unicode="&#x394;" horiz-adv-x="621" d="M18 0l232 651h123l230 -651h-585zM177 96h262l-132 406z" />
<glyph unicode="&#x3a3;" horiz-adv-x="532" d="M31 0v98l182 239l-182 214v99h487v-98h-339l157 -182v-57l-164 -216h346v-97h-487z" />
<glyph unicode="&#x3c0;" horiz-adv-x="598" d="M537 481v-481h-159v342h-158v-342h-159v481h476z" />
<glyph unicode="&#x1e46;" horiz-adv-x="731" d="M219 201v-201h-152v650h175l142 -208l132 -203l-2 213v198h150v-650h-163l-146 215l-137 211zM291 -169q0 34 24.5 58.5t58.5 24.5t58.5 -24.5t24.5 -58.5t-24.5 -58.5t-58.5 -24.5t-58.5 24t-24.5 59z" />
<glyph unicode="&#x1e47;" horiz-adv-x="590" d="M215 301v-301h-159v481h145l3 -71q67 86 174 86q70 0 115.5 -42t45.5 -129v-325h-159v274q0 45 -17 61.5t-48 16.5q-56 0 -100 -51zM214 -139q0 34 24.5 58.5t58.5 24.5t58.5 -24.5t24.5 -58.5t-24.5 -58.5t-58.5 -24.5q-35 0 -59 24t-24 59z" />
<glyph unicode="&#x1e62;" horiz-adv-x="524" d="M242 121q37 0 63 12.5t26 40.5q0 24 -22 44t-55 33.5t-71.5 33t-71.5 40.5t-55 59t-22 87q0 83 64.5 135.5t166.5 52.5q114 0 209 -52l-44 -147q-23 27 -66.5 47.5t-83.5 20.5q-75 0 -75 -47q0 -21 22 -38.5t55 -29t71.5 -30.5t71.5 -41.5t55 -64t22 -96.5 q0 -90 -73.5 -140.5t-187.5 -50.5q-128 0 -220 60l53 146q37 -34 84.5 -54.5t83.5 -20.5zM177 -169q0 34 24.5 58.5t58.5 24.5t58.5 -24.5t24.5 -58.5t-24.5 -58.5t-58.5 -24.5t-58.5 24t-24.5 59z" />
<glyph unicode="&#x1e63;" horiz-adv-x="461" d="M268 145q0 16 -24.5 28t-59.5 22.5t-70.5 26t-60 49t-24.5 82.5q0 62 60 102.5t150 40.5q117 0 192 -44l-46 -129q-46 55 -130 55q-61 0 -61 -27q0 -13 25 -22.5t60 -20t70.5 -27t60.5 -50.5t25 -82q0 -81 -66.5 -120t-163.5 -39q-112 0 -181 39l37 133 q25 -22 65.5 -37.5t74.5 -15.5q67 0 67 36zM145 -139q0 34 24.5 58.5t58.5 24.5t58.5 -24.5t24.5 -58.5t-24.5 -58.5t-58.5 -24.5t-58.5 24t-24.5 59z" />
<glyph unicode="&#x1e80;" horiz-adv-x="892" d="M547 640l50 -259l43 -248l42 252l38 265h155l-132 -650h-221l-31 173l-48 294l-48 -295l-31 -172h-213l-137 650h165l47 -277l36 -240l40 239l49 268h196zM511 675l-213 65l45 117l199 -109z" />
<glyph unicode="&#x1e81;" horiz-adv-x="787" d="M325 0h-191l-121 481h171l27 -176l28 -170l31 166l35 180h182l36 -178l32 -168l26 165l26 181h168l-126 -481h-191l-21 95l-46 219l-45 -218zM415 538l-166 107l76 96l142 -142z" />
<glyph unicode="&#x1e82;" horiz-adv-x="892" d="M547 640l50 -259l43 -248l42 252l38 265h155l-132 -650h-221l-31 173l-48 294l-48 -295l-31 -172h-213l-137 650h165l47 -277l36 -240l40 239l49 268h196zM607 740l-213 -65l-31 73l199 109z" />
<glyph unicode="&#x1e83;" horiz-adv-x="787" d="M325 0h-191l-121 481h171l27 -176l28 -170l31 166l35 180h182l36 -178l32 -168l26 165l26 181h168l-126 -481h-191l-21 95l-46 219l-45 -218zM532 645l-166 -107l-52 61l142 142z" />
<glyph unicode="&#x1e84;" horiz-adv-x="892" d="M547 640l50 -259l43 -248l42 252l38 265h155l-132 -650h-221l-31 173l-48 294l-48 -295l-31 -172h-213l-137 650h165l47 -277l36 -240l40 239l49 268h196zM267 778q0 32 22.5 54t53.5 22t53.5 -22t22.5 -54t-22.5 -54t-53.5 -22t-53.5 22t-22.5 54zM479 778q0 32 22.5 54 t53.5 22t53.5 -22t22.5 -54t-22.5 -54t-53.5 -22t-53.5 22t-22.5 54z" />
<glyph unicode="&#x1e85;" horiz-adv-x="787" d="M325 0h-191l-121 481h171l27 -176l28 -170l31 166l35 180h182l36 -178l32 -168l26 165l26 181h168l-126 -481h-191l-21 95l-46 219l-45 -218zM222 619q0 31 22 53.5t54 22.5t54 -22.5t22 -53.5t-22 -53.5t-54 -22.5t-54 22.5t-22 53.5zM414 619q0 31 22 53.5t54 22.5 t54 -22.5t22 -53.5t-22 -53.5t-54 -22.5t-54 22.5t-22 53.5z" />
<glyph unicode="&#x1ebc;" horiz-adv-x="553" d="M67 650h447v-131h-286v-123h258v-130h-258v-133h285v-133h-446v650zM167 704l-47 46q46 84 115 84q22 0 65.5 -13.5t64.5 -13.5q36 0 61 30l48 -53q-20 -37 -53.5 -60.5t-66.5 -23.5q-19 0 -61 15.5t-65 15.5q-34 0 -61 -27z" />
<glyph unicode="&#x1ebd;" horiz-adv-x="515" d="M306 113q32 0 71 15t70 40l40 -122q-102 -56 -213 -56q-107 0 -179 62.5t-72 193.5q0 112 70.5 181t167.5 69q111 0 169.5 -61t58.5 -200q0 -22 -1 -34h-302q10 -50 41 -69t79 -19zM135 571l-47 46q46 84 115 84q22 0 65.5 -13.5t64.5 -13.5q36 0 61 30l48 -53 q-20 -37 -53.5 -60.5t-66.5 -23.5q-19 0 -61 15.5t-65 15.5q-34 0 -61 -27zM184 298h145q3 47 -13 67.5t-51 20.5q-38 0 -57 -20t-24 -68z" />
<glyph unicode="&#x1ef2;" horiz-adv-x="544" d="M158 650l124 -266l58 133l57 133h161l-203 -393v-257h-161v252l-210 398h174zM349 675l-213 65l45 117l199 -109z" />
<glyph unicode="&#x1ef3;" horiz-adv-x="505" d="M510 481l-241 -701h-159l60 181l-175 520h173l50 -173l41 -153l40 144l51 182h160zM269 538l-166 107l76 96l142 -142z" />
<glyph unicode="&#x2004;" horiz-adv-x="333" />
<glyph unicode="&#x2007;" horiz-adv-x="600" />
<glyph unicode="&#x2009;" horiz-adv-x="160" />
<glyph unicode="&#x200a;" horiz-adv-x="80" />
<glyph unicode="&#x200b;" horiz-adv-x="0" />
<glyph unicode="&#x2012;" horiz-adv-x="329" d="M0 207v120h329v-120h-329z" />
<glyph unicode="&#x2013;" horiz-adv-x="550" d="M55 201v107h440v-107h-440z" />
<glyph unicode="&#x2014;" horiz-adv-x="1050" d="M55 201v107h940v-107h-940z" />
<glyph unicode="&#x2018;" horiz-adv-x="232" d="M168 412h-142q0 68 31.5 142t76.5 131l97 -31q-63 -103 -63 -242z" />
<glyph unicode="&#x2019;" horiz-adv-x="221" d="M75 685h142q0 -68 -31.5 -142t-76.5 -131l-97 31q63 103 63 242z" />
<glyph unicode="&#x201a;" horiz-adv-x="229" d="M49 135h142q0 -68 -31.5 -142t-76.5 -131l-97 31q63 103 63 242z" />
<glyph unicode="&#x201c;" horiz-adv-x="433" d="M369 412h-142q0 68 31.5 142t76.5 131l97 -31q-63 -103 -63 -242zM168 412h-142q0 68 31.5 142t76.5 131l97 -31q-63 -103 -63 -242z" />
<glyph unicode="&#x201d;" horiz-adv-x="422" d="M75 685h142q0 -68 -31.5 -142t-76.5 -131l-97 31q63 103 63 242zM276 685h142q0 -68 -31.5 -142t-76.5 -131l-97 31q63 103 63 242z" />
<glyph unicode="&#x201e;" horiz-adv-x="430" d="M49 135h142q0 -68 -31.5 -142t-76.5 -131l-97 31q63 103 63 242zM250 135h142q0 -68 -31.5 -142t-76.5 -131l-97 31q63 103 63 242z" />
<glyph unicode="&#x2020;" horiz-adv-x="524" d="M32 336v96h167v207h116v-207h177v-96h-177v-508h-116v508h-167z" />
<glyph unicode="&#x2021;" horiz-adv-x="524" d="M32 336v96h167v207h116v-207h177v-96h-177v-146h177v-97h-177v-265h-116v265h-167v97h167v146h-167z" />
<glyph unicode="&#x2022;" horiz-adv-x="296" d="M28 269q0 50 35 85.5t85 35.5t85.5 -35.5t35.5 -85.5t-35.5 -85t-85.5 -35t-85 35t-35 85z" />
<glyph unicode="&#x2026;" horiz-adv-x="727" d="M30 75q0 40 24.5 63t67.5 23q42 0 67.5 -22t25.5 -64q0 -86 -93 -86q-92 0 -92 86zM271 75q0 40 24.5 63t67.5 23q42 0 67.5 -22t25.5 -64q0 -86 -93 -86q-92 0 -92 86zM512 75q0 40 24.5 63t67.5 23q42 0 67.5 -22t25.5 -64q0 -86 -93 -86q-92 0 -92 86z" />
<glyph unicode="&#x2030;" horiz-adv-x="1142" d="M197 659q81 0 126.5 -43.5t45.5 -131.5q0 -75 -49.5 -124.5t-126.5 -49.5q-79 0 -126 45.5t-47 128.5q0 79 48.5 127t128.5 48zM195 409q30 0 42.5 18t12.5 57q0 76 -55 76q-31 0 -43.5 -18t-12.5 -58q0 -38 13 -56.5t43 -18.5zM579 339q81 0 126.5 -43.5t45.5 -131.5 q0 -75 -49.5 -124.5t-126.5 -49.5q-79 0 -126 45.5t-47 128.5q0 79 48.5 127t128.5 48zM577 89q30 0 42.5 18t12.5 57q0 76 -55 76q-31 0 -43.5 -18t-12.5 -58q0 -38 13 -56.5t43 -18.5zM944 339q81 0 126.5 -43.5t45.5 -131.5q0 -75 -49.5 -124.5t-126.5 -49.5 q-79 0 -126 45.5t-47 128.5q0 79 48.5 127t128.5 48zM942 89q30 0 42.5 18t12.5 57q0 76 -55 76q-31 0 -43.5 -18t-12.5 -58q0 -38 13 -56.5t43 -18.5zM615 555l-377 -501l-76 50l380 505z" />
<glyph unicode="&#x2039;" horiz-adv-x="294" d="M8 234l139 231h124l-99 -228l99 -234h-124z" />
<glyph unicode="&#x203a;" horiz-adv-x="293" d="M146 465l140 -231l-140 -231h-123l99 234l-99 228h123z" />
<glyph unicode="&#x2044;" horiz-adv-x="182" d="M-100 39l-65 49l447 542l65 -49z" />
<glyph unicode="&#x2070;" horiz-adv-x="379" d="M187 375q-163 0 -163 178q0 92 42 142t127 50q162 0 162 -178q0 -192 -168 -192zM190 455q28 0 37 24t9 83q0 55 -8.5 79.5t-39.5 24.5q-26 0 -36 -26t-10 -77q0 -60 9 -84t39 -24z" />
<glyph unicode="&#x2074;" horiz-adv-x="361" d="M174 380v66h-164v54l168 240h112v-216h51v-78h-51v-66h-116zM105 524h69v102z" />
<glyph unicode="&#x2075;" horiz-adv-x="339" d="M151 375q-77 0 -138 44l47 77q42 -41 92 -41q17 0 30.5 9t13.5 24q0 27 -31 40t-116 13v199h256v-82h-146v-44q76 -3 116 -37t40 -84q0 -48 -43.5 -83t-120.5 -35z" />
<glyph unicode="&#x2076;" horiz-adv-x="352" d="M179 375q-83 0 -119 43.5t-36 128.5q0 96 57 147t154 51q39 0 78 -8v-85q-51 12 -79 12q-68 0 -85 -55q22 7 44 7q64 0 100 -29t36 -82q0 -61 -39 -95.5t-111 -34.5zM184 455q27 0 27 44q0 37 -33 37l-35 -6q0 -41 8 -58t33 -17z" />
<glyph unicode="&#x2077;" horiz-adv-x="322" d="M44 380l139 278h-168v82h300v-51l-156 -309h-115z" />
<glyph unicode="&#x2078;" horiz-adv-x="356" d="M177 375q-70 0 -112 25.5t-42 73.5q0 49 77 90q-65 37 -65 84q0 41 43.5 69t102.5 28q62 0 101.5 -26.5t39.5 -67.5q0 -38 -69 -79q37 -17 58.5 -41t21.5 -50q0 -46 -43.5 -76t-112.5 -30zM182 445q35 0 35 35q0 22 -47 48q-29 -22 -29 -47q0 -36 41 -36zM153 648 q0 -21 27 -40q24 20 24 37q0 27 -25 27q-26 0 -26 -24z" />
<glyph unicode="&#x2079;" horiz-adv-x="351" d="M39 382v86q53 -12 79 -12q68 0 86 55q-27 -8 -45 -8q-64 0 -100 29t-36 83q0 60 39 95t111 35q84 0 119.5 -44t35.5 -129q0 -95 -57 -146.5t-154 -51.5q-32 0 -78 8zM175 583l34 7q0 41 -8 58t-33 17q-27 0 -27 -44q0 -38 34 -38z" />
<glyph unicode="&#x207a;" horiz-adv-x="378" d="M139 414v110h-115v80h115v109h100v-109h115v-80h-115v-110h-100z" />
<glyph unicode="&#x207b;" horiz-adv-x="418" d="M50 524v80h318v-80h-318z" />
<glyph unicode="&#x207c;" horiz-adv-x="426" d="M48 462v84h330v-84h-330zM48 585v83h330v-83h-330z" />
<glyph unicode="&#x207d;" horiz-adv-x="288" d="M276 396l-68 -67q-86 52 -135 128t-49 158q0 80 44.5 153.5t125.5 132.5l70 -66q-113 -82 -113 -215q0 -69 33 -128.5t92 -95.5z" />
<glyph unicode="&#x207e;" horiz-adv-x="288" d="M80 330l-68 66q59 36 92.5 95.5t33.5 128.5q0 133 -114 215l71 66q169 -123 169 -286q0 -82 -48 -157t-136 -128z" />
<glyph unicode="&#x207f;" horiz-adv-x="464" d="M47 380v354h121l2 -41q48 52 124 52q56 0 91.5 -31t35.5 -96v-238h-131v202q0 52 -43 52q-35 0 -69 -34v-220h-131z" />
<glyph unicode="&#x2080;" horiz-adv-x="379" d="M187 -5q-163 0 -163 178q0 92 42 142t127 50q162 0 162 -178q0 -192 -168 -192zM190 75q28 0 37 24t9 83q0 55 -8.5 79.5t-39.5 24.5q-26 0 -36 -26t-10 -77q0 -60 9 -84t39 -24z" />
<glyph unicode="&#x2081;" horiz-adv-x="250" d="M87 0v280l-75 -3v81l192 7v-365h-117z" />
<glyph unicode="&#x2082;" horiz-adv-x="345" d="M22 0v60q56 29 110 86.5t54 102.5q0 37 -33 37t-79 -46l-51 61q6 7 16.5 17.5t49.5 28.5t84 18q61 0 97.5 -30.5t36.5 -75.5q0 -46 -38 -92.5t-95 -83.5h149v-83h-301z" />
<glyph unicode="&#x2083;" horiz-adv-x="339" d="M159 -5q-85 0 -146 43l51 75q41 -37 89 -37q18 0 32 8.5t14 23.5q0 45 -105 47v53q41 1 65 15.5t24 32.5q0 13 -12 21t-27 8q-36 0 -72 -31l-47 61q6 6 17.5 14t50 22t80.5 14q57 0 93 -27t36 -67q0 -50 -65 -75q80 -27 80 -95q0 -41 -39.5 -73.5t-118.5 -32.5z" />
<glyph unicode="&#x2084;" horiz-adv-x="361" d="M174 0v66h-164v54l168 240h112v-216h51v-78h-51v-66h-116zM105 144h69v102z" />
<glyph unicode="&#x2085;" horiz-adv-x="339" d="M151 -5q-77 0 -138 44l47 77q42 -41 92 -41q17 0 30.5 9t13.5 24q0 27 -31 40t-116 13v199h256v-82h-146v-44q76 -3 116 -37t40 -84q0 -48 -43.5 -83t-120.5 -35z" />
<glyph unicode="&#x2086;" horiz-adv-x="352" d="M179 -5q-83 0 -119 43.5t-36 128.5q0 96 57 147t154 51q39 0 78 -8v-85q-51 12 -79 12q-68 0 -85 -55q22 7 44 7q64 0 100 -29t36 -82q0 -61 -39 -95.5t-111 -34.5zM184 75q27 0 27 44q0 37 -33 37l-35 -6q0 -41 8 -58t33 -17z" />
<glyph unicode="&#x2087;" horiz-adv-x="322" d="M44 0l139 278h-168v82h300v-51l-156 -309h-115z" />
<glyph unicode="&#x2088;" horiz-adv-x="356" d="M177 -5q-70 0 -112 25.5t-42 73.5q0 49 77 90q-65 37 -65 84q0 41 43.5 69t102.5 28q62 0 101.5 -26.5t39.5 -67.5q0 -38 -69 -79q37 -17 58.5 -41t21.5 -50q0 -46 -43.5 -76t-112.5 -30zM182 65q35 0 35 35q0 22 -47 48q-29 -22 -29 -47q0 -36 41 -36zM153 268 q0 -21 27 -40q24 20 24 37q0 27 -25 27q-26 0 -26 -24z" />
<glyph unicode="&#x2089;" horiz-adv-x="351" d="M39 2v86q53 -12 79 -12q68 0 86 55q-27 -8 -45 -8q-64 0 -100 29t-36 83q0 60 39 95t111 35q84 0 119.5 -44t35.5 -129q0 -95 -57 -146.5t-154 -51.5q-32 0 -78 8zM175 203l34 7q0 41 -8 58t-33 17q-27 0 -27 -44q0 -38 34 -38z" />
<glyph unicode="&#x208d;" horiz-adv-x="288" d="M276 16l-68 -67q-86 52 -135 128t-49 158q0 80 44.5 153.5t125.5 132.5l70 -66q-113 -82 -113 -215q0 -69 33 -128.5t92 -95.5z" />
<glyph unicode="&#x208e;" horiz-adv-x="288" d="M80 -50l-68 66q59 36 92.5 95.5t33.5 128.5q0 133 -114 215l71 66q169 -123 169 -286q0 -82 -48 -157t-136 -128z" />
<glyph unicode="&#x20a1;" horiz-adv-x="698" d="M577 707h113l-221 -560q33 15 63 36l41 -135q-77 -42 -164 -53l-23 -59h-113l22 56q-32 4 -50 8l-25 -64h-113l41 104q-121 82 -121 283q0 156 93.5 246t240.5 90q5 0 15 -0.5t15 -0.5l20 49h113l-27 -69q19 -6 45 -19zM445 506l-149 -376q21 -8 49 -10l143 363 q-21 14 -43 23zM198 326q0 -66 18 -113l124 314q-64 -4 -103 -55t-39 -146z" />
<glyph unicode="&#x20a2;" horiz-adv-x="652" d="M576 169l40 -131q-123 -48 -250 -48q-71 0 -130.5 18.5t-106.5 57t-73 104t-26 153.5q0 157 99 246.5t265 89.5q120 0 208 -54l-53 -142q-84 65 -164 65q-83 0 -133.5 -51t-50.5 -151q0 -144 86 -188v244h141l7 -97q54 105 134 105q22 0 42 -4l-12 -162q-27 11 -66 11 q-49 0 -87 -63v-47q72 12 130 44z" />
<glyph unicode="&#x20a3;" horiz-adv-x="704" d="M519 173v-173h-159v253h-129v-253h-161v650h430v-131h-269v-136h270l7 -97q54 105 134 105q22 0 42 -4l-12 -162q-28 11 -66 11q-49 0 -87 -63z" />
<glyph unicode="&#x20a4;" horiz-adv-x="595" d="M132 202h-89v103h89v40h-89v103h89q6 93 73.5 152t157.5 59q110 0 179 -53l-59 -112q-58 42 -102 42q-35 0 -61.5 -20.5t-30.5 -67.5h186v-103h-187v-40h187v-103h-189q-8 -50 -48 -82h133q53 0 84 19.5t55 54.5l71 -95q-17 -39 -63 -69t-130 -30h-342v89q40 3 63 35.5 t23 68.5v9z" />
<glyph unicode="&#x20a5;" horiz-adv-x="878" d="M207 301v-301h-159v481h145l3 -71q67 86 164 86q46 0 80 -17l44 134h152l-44 -135q38 18 82 18q70 0 115.5 -42t45.5 -129v-325h-159v274q0 45 -17 61.5t-48 16.5t-70 -32l-20 -61v-259h-84l-29 -89h-152l106 326v37q0 45 -17 61.5t-48 16.5q-20 0 -45.5 -14.5 t-44.5 -36.5z" />
<glyph unicode="&#x20a6;" horiz-adv-x="794" d="M253 182v-182h-152v182h-65v103h65v70h-65v103h65v192h175l131 -192h141v192h150v-192h60v-103h-60v-70h60v-103h-60v-182h-163l-124 182h-158zM298 355h-46v-70h91zM474 355l46 -70h29v70h-75z" />
<glyph unicode="&#x20a7;" horiz-adv-x="1423" d="M70 0v650h249q128 0 188 -61t60 -162q0 -107 -67 -171t-194 -64h-75v-192h-161zM303 324q48 0 70.5 22.5t22.5 75.5q0 45 -20 71t-76 26h-69v-195h72zM804 358v-176q2 -36 16 -51t44 -15q43 0 89 38l23 -125q-76 -39 -159 -39q-79 0 -125.5 38t-46.5 121v209h-71v109 l73 10l19 124h138v-124h144v-119h-144zM1224 145q0 16 -24.5 28t-60 22.5t-70.5 26t-59.5 49t-24.5 82.5q0 62 60 102.5t150 40.5q117 0 192 -44l-46 -129q-46 55 -130 55q-61 0 -61 -27q0 -13 25 -22.5t60 -20t70.5 -27t60.5 -50.5t25 -82q0 -81 -66.5 -120t-163.5 -39 q-112 0 -181 39l37 133q25 -22 65.5 -37.5t74.5 -15.5q67 0 67 36z" />
<glyph unicode="&#x20a8;" horiz-adv-x="1004" d="M713 -10q-141 0 -235.5 54t-167.5 162h-79v-206h-161v650h244q128 0 188 -58.5t60 -158.5q0 -133 -102 -192q95 -132 259 -132q87 0 87 36q0 16 -24.5 28t-60 22.5t-70.5 26t-59.5 49t-24.5 82.5q0 62 60 102.5t150 40.5q117 0 192 -44l-46 -129q-46 55 -130 55 q-61 0 -61 -27q0 -13 25 -22.5t60 -20t70.5 -27t60.5 -50.5t25 -82q0 -45 -23.5 -78t-64 -49.5t-83 -24t-89.5 -7.5zM298 335q93 0 93 97q0 46 -21 66.5t-75 20.5h-64v-184h67z" />
<glyph unicode="&#x20a9;" horiz-adv-x="948" d="M577 640l37 -191h107l29 201h155l-41 -201h42v-103h-63l-14 -70h77v-103h-98l-35 -173h-221l-31 173h-96v-1l-31 -172h-213l-37 173h-102v103h81l-15 70h-66v103h44l-42 201h165l34 -201h103l35 191h196zM633 346l12 -70h48l12 70h-72zM260 346l10 -70h46l11 70h-67z M453 346l-11 -70h62l-11 70h-40zM663 173l7 -40l6 40h-13zM286 173l6 -40l6 40h-12zM473 467l-3 -18h6z" />
<glyph unicode="&#x20aa;" horiz-adv-x="824" d="M70 0v650h209q155 0 221 -58t66 -211v-133h-121v30q0 104 -16.5 155.5t-49.5 68.5t-101 17h-77v-519h-131zM623 314v336h131v-381q0 -150 -67.5 -209.5t-200.5 -59.5h-228v402h121v-271h96q92 0 120 37t28 146z" />
<glyph unicode="&#x20ab;" horiz-adv-x="539" d="M155 556v100h171v29h141v-29h47v-100h-47v-429h-128l-4 58q-21 -28 -56 -47t-71 -19q-79 0 -126 53t-47 145q0 98 64.5 156t161.5 58q29 0 65 -6v31h-171zM45 -10v100h422v-100h-422zM326 285v119q-22 14 -57 14q-86 0 -86 -87q0 -52 16.5 -70t51.5 -18q42 0 75 42z" />
<glyph unicode="&#x20ac;" horiz-adv-x="594" d="M107 185h-95l10 106h68q-1 10 -1 32v22h-67l10 106h74q30 99 105.5 153.5t181.5 54.5q89 0 178 -45l-47 -126q-73 42 -131 42q-80 0 -113 -79h190l-11 -106h-199v-19q0 -24 1 -35h193l-10 -106h-153q39 -66 118 -66q65 0 137 43l39 -124q-54 -29 -98 -38.5t-106 -9.5 q-106 0 -175.5 50t-98.5 145z" />
<glyph unicode="&#x20ad;" horiz-adv-x="648" d="M615 650l-186 -274h158v-103h-135l184 -273h-186l-175 273h-33v-272h-161v272h-48v103h48v274h161v-274h33l171 274h169z" />
<glyph unicode="&#x20ae;" horiz-adv-x="575" d="M561 650v-131h-192v-89l110 39v-111l-110 -39v-44l110 39v-111l-110 -39v-164h-161v106l-108 -38v111l108 38v44l-108 -38v111l108 38v147h-192v131h545z" />
<glyph unicode="&#x20b1;" horiz-adv-x="653" d="M78 0v349h-47v63h47v27h-47v63h47v148h249q197 0 238 -148h65v-63h-55v-27h55v-63h-66q-22 -74 -85.5 -115.5t-164.5 -41.5h-75v-192h-161zM404 422q0 11 -1 17h-164v-27h165v10zM311 324q51 0 73 25h-145v-25h72zM239 519v-17h135q-22 17 -66 17h-69z" />
<glyph unicode="&#x2113;" horiz-adv-x="512" d="M11 224l76 46v218q0 81 52 144t153 63q98 0 148.5 -38.5t50.5 -104.5q0 -35 -14.5 -69t-32.5 -58t-50.5 -52.5t-51.5 -42t-54.5 -36.5t-41.5 -27v-22q0 -142 79 -142q38 0 87 31l17 -109q-22 -17 -61.5 -26t-69.5 -9q-107 0 -159 43t-52 138v21l-49 -30zM246 454v-107 q42 36 56 78t14 99q0 60 -30 60q-26 0 -33 -25t-7 -105z" />
<glyph unicode="&#x2116;" horiz-adv-x="1118" d="M713 159v98h354v-98h-354zM211 201v-201h-152v650h175l142 -208l132 -203l-2 213v198h150v-650h-163l-146 215l-137 211zM892 287q-94 0 -148.5 50t-54.5 137q0 79 56 132t147 53q95 0 148 -50.5t53 -134.5q0 -81 -54 -134t-147 -53zM889 383q40 0 53.5 21t13.5 71 q0 88 -67 88q-34 0 -48.5 -22t-14.5 -66q0 -92 63 -92z" />
<glyph unicode="&#x2117;" horiz-adv-x="687" d="M341 -7q-128 0 -220 94t-92 226q0 133 91.5 227t220.5 94q132 0 224.5 -93.5t92.5 -227.5t-90.5 -227t-226.5 -93zM341 37q116 0 191.5 77t75.5 199q0 115 -76.5 195.5t-190.5 80.5q-112 0 -187 -78.5t-75 -197.5q0 -121 78 -198.5t184 -77.5zM207 91v435h171 q88 0 129 -41t41 -109q0 -72 -45.5 -115t-132.5 -43h-45v-127h-118zM325 316h43q29 0 42.5 13t13.5 46q0 28 -12 43.5t-47 15.5h-40v-118z" />
<glyph unicode="&#x2120;" horiz-adv-x="851" d="M356 266v385h127l49 -133l55 -155l56 160l47 128h118v-385h-100v203l-32 -99l-35 -104h-113l-37 102l-44 117v-219h-91zM163 260q-78 0 -139 38l36 92q56 -49 101 -49q52 0 52 27q0 13 -10.5 23.5t-21.5 16.5t-35 16q-26 11 -40.5 18.5t-34 22t-29 34.5t-9.5 45 q0 50 40 81.5t104 31.5q71 0 133 -33l-30 -95q-15 18 -43 31.5t-51 13.5q-41 0 -41 -24q0 -13 14.5 -22t43.5 -20q28 -11 43.5 -18.5t37 -23t32 -38.5t10.5 -53q0 -55 -45.5 -85t-117.5 -30z" />
<glyph unicode="&#x2122;" horiz-adv-x="856" d="M359 266v385h128l48 -133l55 -155l56 160l47 128h119v-385h-101v203l-32 -99l-34 -104h-113l-38 102l-43 117v-219h-92zM119 266v304h-116v81h339v-81h-116v-304h-107z" />
<glyph unicode="&#x2126;" horiz-adv-x="718" d="M44 0v96h167v6q-78 41 -122.5 100t-44.5 159q0 125 89.5 208t226.5 83t223.5 -83.5t86.5 -207.5q0 -71 -23 -122.5t-55.5 -79.5t-86.5 -58v-5h164v-96h-292v146q83 36 129 85.5t46 129.5q0 84 -53 142t-139 58t-141.5 -57.5t-55.5 -142.5q0 -41 14.5 -75.5t42.5 -60.5 t55.5 -43.5t65.5 -35.5v-146h-297z" />
<glyph unicode="&#x212e;" horiz-adv-x="677" d="M626 231h-465q-4 0 -4 -3v-135q0 -7 7 -18q70 -73 174 -73q111 0 186 83h41q-38 -45 -99 -71.5t-129 -26.5q-118 0 -202 73.5t-84 176.5q0 105 83.5 177t202.5 72q120 0 204.5 -72t84.5 -177v-6zM520 249v136q0 11 -6 17q-72 69 -176 69q-105 0 -174 -71q-7 -7 -7 -18 v-133q0 -3 4 -3h357q2 0 2 3z" />
<glyph unicode="&#x2153;" horiz-adv-x="773" d="M153 39l-65 49l447 542l65 -49zM589 -5q-85 0 -146 43l51 75q41 -37 89 -37q18 0 32 8.5t14 23.5q0 45 -105 47v53q41 1 65 15.5t24 32.5q0 13 -12 21t-27 8q-36 0 -72 -31l-47 61q6 6 17.5 14t50 22t80.5 14q57 0 93 -27t36 -67q0 -50 -65 -75q80 -27 80 -95 q0 -41 -39.5 -73.5t-118.5 -32.5zM85 304v280l-75 -3v81l192 7v-365h-117z" />
<glyph unicode="&#x2154;" horiz-adv-x="864" d="M261 39l-65 49l447 542l65 -49zM680 -5q-85 0 -146 43l51 75q41 -37 89 -37q18 0 32 8.5t14 23.5q0 45 -105 47v53q41 1 65 15.5t24 32.5q0 13 -12 21t-27 8q-36 0 -72 -31l-47 61q6 6 17.5 14t50 22t80.5 14q57 0 93 -27t36 -67q0 -50 -65 -75q80 -27 80 -95 q0 -41 -39.5 -73.5t-118.5 -32.5zM28 304v60q56 29 110 86.5t54 102.5q0 37 -33 37t-79 -46l-51 61q6 7 16.5 17.5t49.5 28.5t84 18q61 0 97.5 -30.5t36.5 -75.5q0 -46 -38 -92.5t-95 -83.5h149v-83h-301z" />
<glyph unicode="&#x215b;" horiz-adv-x="773" d="M159 39l-65 49l447 542l65 -49zM591 -5q-70 0 -112 25.5t-42 73.5q0 49 77 90q-65 37 -65 84q0 41 43.5 69t102.5 28q62 0 101.5 -26.5t39.5 -67.5q0 -38 -69 -79q37 -17 58.5 -41t21.5 -50q0 -46 -43.5 -76t-112.5 -30zM596 65q35 0 35 35q0 22 -47 48q-29 -22 -29 -47 q0 -36 41 -36zM567 268q0 -21 27 -40q24 20 24 37q0 27 -25 27q-26 0 -26 -24zM84 304v280l-75 -3v81l192 7v-365h-117z" />
<glyph unicode="&#x2190;" horiz-adv-x="579" d="M579 327v-120h-356l68 -55v-147l-280 263l280 263v-146l-74 -58h362z" />
<glyph unicode="&#x2191;" horiz-adv-x="548" d="M333 31h-120v356l-55 -68h-147l263 280l263 -280h-146l-58 73v-361z" />
<glyph unicode="&#x2192;" horiz-adv-x="579" d="M0 207v120h361l-73 58v146l280 -263l-280 -263v147l68 55h-356z" />
<glyph unicode="&#x2193;" horiz-adv-x="548" d="M213 599h120v-362l58 74h146l-263 -280l-263 280h147l55 -68v356z" />
<glyph unicode="&#x2196;" horiz-adv-x="465" d="M395 567l-104 -103l-93 11l256 -256l-85 -85l-251 251l9 -86l-104 -104l-12 384z" />
<glyph unicode="&#x2197;" horiz-adv-x="465" d="M174 464l-104 103l384 12l-12 -384l-104 104l9 86l-251 -251l-85 85l256 256z" />
<glyph unicode="&#x2198;" horiz-adv-x="465" d="M11 494l85 85l251 -251l-9 86l104 104l12 -384l-384 12l104 103l93 -11z" />
<glyph unicode="&#x2199;" horiz-adv-x="465" d="M369 579l85 -85l-256 -256l93 11l104 -103l-384 -12l12 384l104 -104l-9 -86z" />
<glyph unicode="&#x2202;" horiz-adv-x="590" d="M33 224q0 104 69 161t168 57q27 0 50 -4q-26 45 -74 88.5t-98 64.5l78 102q59 -29 103 -56t87 -65t71.5 -80.5t47 -99.5t21.5 -124q0 -4 0.5 -12t0.5 -12q0 -109 -70 -181.5t-190 -72.5q-109 0 -186.5 61t-77.5 173zM200 225q0 -61 26.5 -86.5t65.5 -25.5q58 0 78 30 t20 102q0 42 -9 77q-42 14 -84 14q-97 0 -97 -111z" />
<glyph unicode="&#x2206;" horiz-adv-x="621" d="M18 0l232 651h123l230 -651h-585zM177 96h262l-132 406z" />
<glyph unicode="&#x220f;" horiz-adv-x="637" d="M59 650h519v-650h-161v511h-197v-511h-161v650z" />
<glyph unicode="&#x2211;" horiz-adv-x="532" d="M31 0v98l182 239l-182 214v99h487v-98h-339l157 -182v-57l-164 -216h346v-97h-487z" />
<glyph unicode="&#x2212;" horiz-adv-x="470" d="M439 227h-408v101h408v-101z" />
<glyph unicode="&#x221a;" horiz-adv-x="605" d="M265 0l-141 392h-119v100h215l100 -312l144 529h124l-224 -709h-99z" />
<glyph unicode="&#x221e;" horiz-adv-x="797" d="M224 76q-82 0 -138 55t-56 140t59 140.5t145 55.5q94 0 170 -107q26 48 71.5 77.5t97.5 29.5q90 0 142 -55.5t52 -136.5q0 -89 -58.5 -144t-146.5 -55q-92 0 -161 102q-27 -45 -74.5 -73.5t-102.5 -28.5zM137 271q0 -51 24.5 -77.5t62.5 -26.5q40 0 77.5 28.5t52.5 77.5 q-14 48 -49 74.5t-75 26.5q-39 0 -66 -26.5t-27 -76.5zM451 273q14 -51 46.5 -78.5t69.5 -27.5t62.5 27.5t25.5 76.5q0 50 -23.5 77t-58.5 27q-36 0 -70.5 -27.5t-51.5 -74.5z" />
<glyph unicode="&#x222b;" horiz-adv-x="433" d="M3 -210v94h90q33 0 43.5 26t10.5 97v470q0 100 49.5 154.5t129.5 54.5h95v-95h-89q-36 0 -49.5 -27.5t-13.5 -95.5v-469q0 -101 -45.5 -155t-124.5 -54h-96z" />
<glyph unicode="&#x2248;" horiz-adv-x="623" d="M412 289q-43 0 -82.5 26.5t-72 52.5t-59.5 26q-56 0 -56 -69q0 -15 3 -33h-115q-2 20 -2 29q0 79 51 124t122 45q37 0 72.5 -16.5t58 -36.5t47.5 -36.5t44 -16.5q25 0 43 28.5t10 81.5h118q5 -96 -48 -150.5t-134 -54.5zM412 58q-34 0 -66.5 16.5t-53.5 36t-46.5 36 t-47.5 16.5q-56 0 -56 -69q0 -15 3 -33h-115q-2 20 -2 29q0 79 51 124t122 45q37 0 72.5 -16.5t58 -36.5t47.5 -36.5t44 -16.5q25 0 43 28.5t10 81.5h118q5 -96 -48 -150.5t-134 -54.5z" />
<glyph unicode="&#x2260;" horiz-adv-x="568" d="M83 50l55 91h-64v106h129l39 64h-168v106h233l63 103h118l-63 -103h74v-106h-139l-39 -64h178v-106h-243l-55 -91h-118z" />
<glyph unicode="&#x2264;" horiz-adv-x="496" d="M397 111l-349 177v97l347 194l57 -101l-257 -135l252 -130zM40 -13v98h425v-98h-425z" />
<glyph unicode="&#x2265;" horiz-adv-x="496" d="M456 85v-98h-425v98h425zM448 288l-349 -177l-50 102l252 130l-257 135l57 101l347 -194v-97z" />
<glyph unicode="&#x2460;" horiz-adv-x="758" d="M376 -10q-134 0 -229.5 98t-95.5 236t95.5 236.5t229.5 98.5q138 0 234.5 -98t96.5 -237q0 -138 -96.5 -236t-234.5 -98zM376 28q121 0 203 84.5t82 211.5q0 122 -82.5 208.5t-202.5 86.5q-118 0 -198.5 -83.5t-80.5 -211.5t80.5 -212t198.5 -84zM363 143v313l-79 -4v39 l122 7v-355h-43z" />
<glyph unicode="&#x2461;" horiz-adv-x="758" d="M376 -10q-134 0 -229.5 98t-95.5 236t95.5 236.5t229.5 98.5q138 0 234.5 -98t96.5 -237q0 -138 -96.5 -236t-234.5 -98zM376 28q121 0 203 84.5t82 211.5q0 122 -82.5 208.5t-202.5 86.5q-118 0 -198.5 -83.5t-80.5 -211.5t80.5 -212t198.5 -84zM252 158v31 q62 47 120.5 115t58.5 112q0 28 -17.5 43t-42.5 15q-37 0 -74 -39l-26 28q45 50 105 50q41 0 69.5 -24.5t28.5 -69.5t-48.5 -108.5t-109.5 -114.5h175v-38h-239z" />
<glyph unicode="&#x2462;" horiz-adv-x="758" d="M376 -10q-134 0 -229.5 98t-95.5 236t95.5 236.5t229.5 98.5q138 0 234.5 -98t96.5 -237q0 -138 -96.5 -236t-234.5 -98zM376 28q121 0 203 84.5t82 211.5q0 122 -82.5 208.5t-202.5 86.5q-118 0 -198.5 -83.5t-80.5 -211.5t80.5 -212t198.5 -84zM363 147 q-30 0 -60.5 12.5t-40.5 22.5l25 34q37 -32 81 -32q31 0 54.5 17t23.5 45q0 64 -127 73v33q45 3 78 21.5t33 48.5q0 21 -16.5 33.5t-41.5 12.5q-37 0 -74 -27l-19 34q44 32 97 32q42 0 69.5 -23t27.5 -57q0 -61 -64 -87q81 -22 81 -93q0 -42 -31 -71t-96 -29z" />
<glyph unicode="&#x2463;" horiz-adv-x="758" d="M376 -10q-134 0 -229.5 98t-95.5 236t95.5 236.5t229.5 98.5q138 0 234.5 -98t96.5 -237q0 -138 -96.5 -236t-234.5 -98zM376 28q121 0 203 84.5t82 211.5q0 122 -82.5 208.5t-202.5 86.5q-118 0 -198.5 -83.5t-80.5 -211.5t80.5 -212t198.5 -84zM378 153v92h-168v30 l170 227h41v-220h53v-37h-53v-92h-43zM261 282h117v159z" />
<glyph unicode="&#x2464;" horiz-adv-x="758" d="M376 -10q-134 0 -229.5 98t-95.5 236t95.5 236.5t229.5 98.5q138 0 234.5 -98t96.5 -237q0 -138 -96.5 -236t-234.5 -98zM376 28q121 0 203 84.5t82 211.5q0 122 -82.5 208.5t-202.5 86.5q-118 0 -198.5 -83.5t-80.5 -211.5t80.5 -212t198.5 -84zM358 138q-53 0 -95 36 l23 34q38 -33 80 -33q31 0 52.5 18.5t21.5 51.5q0 45 -41 63t-115 18v167h190v-38h-147v-92q157 -6 157 -117q0 -46 -31 -77t-95 -31z" />
<glyph unicode="&#x2465;" horiz-adv-x="758" d="M376 -10q-134 0 -229.5 98t-95.5 236t95.5 236.5t229.5 98.5q138 0 234.5 -98t96.5 -237q0 -138 -96.5 -236t-234.5 -98zM376 28q121 0 203 84.5t82 211.5q0 122 -82.5 208.5t-202.5 86.5q-118 0 -198.5 -83.5t-80.5 -211.5t80.5 -212t198.5 -84zM363 138 q-123 0 -123 167q0 89 50 141t139 52q6 0 36 -2v-40q-32 4 -39 4q-57 0 -96.5 -33.5t-45.5 -95.5q42 25 92 25q45 0 75 -25.5t30 -73.5q0 -53 -31.5 -86t-86.5 -33zM367 175q34 0 52 22t18 53q0 68 -74 68q-41 0 -80 -30q4 -113 84 -113z" />
<glyph unicode="&#x2466;" horiz-adv-x="758" d="M376 -10q-134 0 -229.5 98t-95.5 236t95.5 236.5t229.5 98.5q138 0 234.5 -98t96.5 -237q0 -138 -96.5 -236t-234.5 -98zM376 28q121 0 203 84.5t82 211.5q0 122 -82.5 208.5t-202.5 86.5q-118 0 -198.5 -83.5t-80.5 -211.5t80.5 -212t198.5 -84zM295 144l147 311h-186 v38h236v-26l-153 -323h-44z" />
<glyph unicode="&#x2467;" horiz-adv-x="758" d="M376 -10q-134 0 -229.5 98t-95.5 236t95.5 236.5t229.5 98.5q138 0 234.5 -98t96.5 -237q0 -138 -96.5 -236t-234.5 -98zM376 28q121 0 203 84.5t82 211.5q0 122 -82.5 208.5t-202.5 86.5q-118 0 -198.5 -83.5t-80.5 -211.5t80.5 -212t198.5 -84zM375 138q-46 0 -83 24 t-37 64q0 60 82 102h-1q-24 14 -36 23.5t-22.5 26t-10.5 36.5q0 38 32.5 61t78.5 23q47 0 76 -22.5t29 -59.5q0 -45 -74 -86h1q28 -16 42 -25t29.5 -29t15.5 -42q0 -42 -37 -69t-85 -27zM379 175q33 0 53.5 15.5t20.5 40.5q0 16 -15 31.5t-27.5 23t-36.5 20.5l-3 1 q-72 -36 -72 -77q0 -27 22.5 -41t57.5 -14zM309 416q0 -18 11.5 -29t55.5 -38q63 38 63 66q0 24 -18 35t-44 11q-31 0 -49.5 -12t-18.5 -33z" />
<glyph unicode="&#x2468;" horiz-adv-x="758" d="M376 -10q-134 0 -229.5 98t-95.5 236t95.5 236.5t229.5 98.5q138 0 234.5 -98t96.5 -237q0 -138 -96.5 -236t-234.5 -98zM376 28q121 0 203 84.5t82 211.5q0 122 -82.5 208.5t-202.5 86.5q-118 0 -198.5 -83.5t-80.5 -211.5t80.5 -212t198.5 -84zM276 140v40q23 -4 39 -4 q58 0 97 33t45 95q-43 -24 -92 -24q-45 0 -75 25.5t-30 73.5q0 53 31.5 86t86.5 33q123 0 123 -167q0 -89 -50 -141t-139 -52q-6 0 -36 2zM379 318q39 0 79 29q-4 114 -84 114q-35 0 -52.5 -22t-17.5 -54q0 -67 75 -67z" />
<glyph unicode="&#x2469;" horiz-adv-x="758" d="M376 -10q-134 0 -229.5 98t-95.5 236t95.5 236.5t229.5 98.5q138 0 234.5 -98t96.5 -237q0 -138 -96.5 -236t-234.5 -98zM376 28q121 0 203 84.5t82 211.5q0 122 -82.5 208.5t-202.5 86.5q-118 0 -198.5 -83.5t-80.5 -211.5t80.5 -212t198.5 -84zM245 143v313l-79 -4v39 l122 7v-355h-43zM459 138q-66 0 -99.5 46t-33.5 128q0 186 136 186q134 0 134 -170q0 -34 -6 -64t-19.5 -60t-42.5 -48t-69 -18zM463 175q50 0 70 44t20 103q0 137 -94 137q-89 0 -89 -135q0 -30 3 -52.5t12 -46.5t28.5 -37t49.5 -13z" />
<glyph unicode="&#x24ca;" horiz-adv-x="731" d="M363 -7q-128 0 -220 94t-92 226q0 133 91.5 227t220.5 94q132 0 224.5 -93.5t92.5 -227.5t-90.5 -227t-226.5 -93zM363 37q116 0 191.5 77t75.5 199q0 115 -76.5 195.5t-190.5 80.5q-112 0 -187 -78.5t-75 -197.5q0 -121 78 -198.5t184 -77.5zM362 104q-31 0 -58.5 6.5 t-54 21.5t-42.5 45t-16 72v243h104v-227q0 -43 18 -61.5t54 -18.5q72 0 72 80v227h101v-244q0 -40 -17.5 -70t-46 -45t-57 -22t-57.5 -7z" />
<glyph unicode="&#x25ca;" horiz-adv-x="585" d="M238 0l-219 313l220 338h107l219 -335l-217 -316h-110zM291 100l146 214l-146 240l-142 -240z" />
<glyph unicode="&#x25fc;" horiz-adv-x="480" d="M0 480h480v-480h-480v480z" />
<glyph unicode="&#x2610;" horiz-adv-x="834" d="M91 0v650h652v-650h-652zM146 596v-542h542v542h-542z" />
<glyph unicode="&#x2611;" horiz-adv-x="834" d="M91 0v650h652v-650h-652zM146 596v-542h542v542h-542zM347 179l253 386l52 -35l-289 -427h-41l-130 205l54 32z" />
<glyph unicode="&#x261a;" horiz-adv-x="730" d="M689 342v-208l-83 -55q-80 -18 -167 -18l-87 5q19 20 19 41q0 8 -2.5 15.5t-4.5 11.5l-3 3q26 18 26 39q0 10 -4.5 19.5t-9.5 14.5l-5 5q19 15 19 37q0 20 -21 41l-282 2q-43 0 -43 36q0 37 43 37h323l32 -68l37 -23l11 9l-37 20l-39 79l-31 18l-116 -25h-6q-36 0 -36 30 q0 7 2 15t4 13l3 4l163 41l66 -12q32 -11 229 -127zM185 281h174q12 -12 12 -30q0 -15 -11 -29h-175q-19 13 -19 29q0 8 5 15.5t9 11.5zM196 207h163q13 -11 13 -29q0 -14 -12 -29h-164q-19 14 -19 28q0 8 4.5 15.5t9.5 11.5zM206 133h140q9 -11 9 -27q0 -19 -14 -33h-96 q-59 0 -59 30q0 8 5 15.5t10 11.5z" />
<glyph unicode="&#x261b;" horiz-adv-x="730" d="M41 134v208q197 116 229 127l66 12l163 -41q9 -16 9 -32q0 -30 -36 -30h-6l-116 25l-31 -18l-39 -79l-37 -20l11 -9l37 23l32 68h323q43 0 43 -37q0 -36 -43 -36l-282 -2q-21 -21 -21 -41q0 -10 4.5 -19t9.5 -13l5 -5q-19 -17 -19 -39q0 -21 26 -39q-10 -12 -10 -30 q0 -21 19 -41q-35 -5 -87 -5q-87 0 -167 18zM371 281h174q19 -13 19 -30q0 -16 -19 -29h-175q-11 14 -11 29q0 8 3 15.5t6 11.5zM371 207h163q19 -13 19 -30q0 -14 -19 -28h-164q-12 15 -12 29q0 8 3 15t7 11zM384 133h140q20 -13 20 -30q0 -30 -59 -30h-96q-14 14 -14 33 q0 7 2.5 14t4.5 10z" />
<glyph unicode="&#x261c;" horiz-adv-x="786" d="M646 97l75 56l24 -34l-89 -61q-80 -19 -166 -19q-22 0 -53 3t-51 6l-21 2q-13 -2 -61 -2q-36 0 -55.5 10.5t-19.5 39.5q0 18 16 34q-24 18 -24 44q0 19 12 31q-23 19 -23 43q0 13 7 23l-117 1q-59 0 -59 56q0 57 59 57h167q-3 9 -3 21q0 9 4 21.5t8 20.5l3 8l167 44 l66 -13q18 -6 51 -26.5t88.5 -56.5t93.5 -59l-22 -28q-7 5 -67 43q-113 72 -149 87l-59 12q-27 -6 -76.5 -20t-70.5 -19q-1 -9 -1 -14q0 -10 20 -10l116 24l40 -21l36 -81l33 -34l-17 -34l-52 33l-27 62h-349q-23 0 -23 -17q0 -16 23 -16l328 -2q29 -30 29 -61 q0 -21 -11 -37q11 -23 11 -39q0 -22 -18 -45q4 -16 4 -25q0 -13 -4 -24q1 -2 51 -2q74 0 156 18zM404 260h-152q-7 -3 -7 -10q0 -8 7 -9l156 -4q0 17 -4 23zM406 186h-144q-7 -4 -7 -10q0 -5 8 -9l145 -4v8q0 13 -2 15zM390 111h-119q-6 -7 -6 -10q0 -10 39 -10q23 0 34 1 q7 0 19 0.5t17 0.5h15q3 6 3 11q0 3 -2 7z" />
<glyph unicode="&#x261d;" horiz-adv-x="545" d="M99 96l56 -75l-34 -24l-61 89q-19 80 -19 166q0 22 3 53t6 51l2 21q-2 13 -2 61q0 36 10.5 55.5t39.5 19.5q18 0 34 -16q18 24 44 24q19 0 31 -12q19 23 43 23q13 0 23 -7l1 117q0 59 56 59q57 0 57 -59v-167q9 3 21 3q9 0 21.5 -4t20.5 -8l8 -3l44 -167l-13 -66 q-6 -18 -26.5 -51t-56.5 -88.5t-59 -93.5l-28 22q5 8 43 67q72 113 87 149l12 59q-6 27 -20 76.5t-19 70.5q-9 1 -14 1q-10 0 -10 -20l24 -116l-21 -40l-81 -36l-34 -33l-34 17l33 52l62 27v349q0 23 -17 23q-16 0 -16 -23l-2 -328q-30 -29 -61 -29q-21 0 -37 11 q-23 -11 -39 -11q-22 0 -45 18q-16 -4 -25 -4q-13 0 -24 4q-2 -1 -2 -51q0 -74 18 -156zM262 338v152q-3 7 -10 7q-8 0 -9 -7l-4 -156q17 0 23 4zM188 336v144q-4 7 -10 7q-5 0 -9 -8l-4 -145h8q13 0 15 2zM113 352v119q-7 6 -10 6q-10 0 -10 -39q0 -23 1 -34q0 -7 0.5 -19 t0.5 -17v-15q6 -3 11 -3q3 0 7 2z" />
<glyph unicode="&#x261e;" horiz-adv-x="786" d="M65 153l75 -56q83 -18 156 -18l51 2q-4 11 -4 24l4 25q-18 23 -18 45q0 7 2.5 17t5.5 16l3 6q-11 16 -11 37q0 31 29 61l328 2q23 0 23 16q0 17 -23 17h-349l-27 -62l-52 -33l-17 34l33 34l36 81l40 21l116 -24q20 0 20 10l-1 14q-21 5 -70.5 19t-76.5 20l-59 -12 q-36 -15 -149 -87q-59 -38 -67 -43l-22 28q38 23 93.5 59t88.5 56.5t51 26.5l66 13l167 -44q15 -30 15 -50q0 -12 -3 -21h167q59 0 59 -57q0 -56 -59 -56l-117 -1q7 -10 7 -23q0 -24 -23 -43q12 -12 12 -31q0 -26 -24 -44q16 -16 16 -34q0 -29 -19.5 -39.5t-55.5 -10.5 q-48 0 -61 2q-76 -11 -125 -11q-86 0 -166 19l-89 61zM534 260h-152q-4 -6 -4 -23l156 4q7 1 7 9q0 3 -1.5 5.5t-3.5 3.5zM524 186h-144q-2 -2 -2 -15v-8l145 4q8 4 8 9q0 3 -1.5 5.5t-3.5 3.5zM515 111h-119q-2 -4 -2 -7q0 -5 3 -11h15q5 0 17 -0.5t19 -0.5q11 -1 34 -1 q39 0 39 10z" />
<glyph unicode="&#x261f;" horiz-adv-x="545" d="M155 677l-56 -75q-18 -82 -18 -156l2 -51q11 4 24 4l25 -4q23 18 45 18q7 0 17 -2.5t16 -5.5l6 -3q16 11 37 11q31 0 61 -29l2 -328q0 -23 16 -23q17 0 17 23v349l-62 27l-33 52l34 17l34 -33l81 -36l21 -40l-24 -116q0 -20 10 -20l14 1q5 21 19 70.5t20 76.5l-12 59 q-15 36 -87 149q-38 59 -43 67l28 22q23 -38 59 -93.5t56.5 -88.5t26.5 -51l13 -66l-44 -167q-30 -15 -50 -15q-12 0 -21 3v-167q0 -59 -57 -59q-56 0 -56 59l-1 117q-10 -7 -23 -7q-24 0 -43 23q-12 -12 -31 -12q-26 0 -44 24q-16 -16 -34 -16q-29 0 -39.5 19.5t-10.5 55.5 q0 48 2 61q-11 76 -11 125q0 86 19 166l61 89zM262 208v152q-6 4 -23 4l4 -156q1 -7 9 -7q3 0 5.5 1.5t3.5 3.5zM188 218v144q-2 2 -15 2h-8l4 -145q4 -8 9 -8q3 0 5.5 1.5t3.5 3.5zM113 227v119q-4 2 -7 2q-5 0 -11 -3v-15q0 -5 -0.5 -17t-0.5 -19q-1 -11 -1 -34 q0 -39 10 -39z" />
<glyph unicode="&#x267e;" horiz-adv-x="731" d="M363 -7q-128 0 -220 94t-92 226q0 133 91.5 227t220.5 94q132 0 224.5 -93.5t92.5 -227.5t-90.5 -227t-226.5 -93zM363 37q116 0 191.5 77t75.5 199q0 115 -76.5 195.5t-190.5 80.5q-112 0 -187 -78.5t-75 -197.5q0 -121 78 -198.5t184 -77.5zM258 156q-51 0 -86.5 43.5 t-35.5 110.5t37 111t92 44q59 0 107 -85q16 38 44.5 61.5t62.5 23.5q56 0 89 -44t33 -108q0 -71 -37 -114t-93 -43q-59 0 -101 81q-17 -36 -47 -58.5t-65 -22.5zM203 310q0 -40 15.5 -61t39.5 -21q26 0 49.5 22.5t32.5 60.5q-9 39 -30.5 59.5t-47.5 20.5q-25 0 -42 -20.5 t-17 -60.5zM401 311q9 -40 30 -61.5t44 -21.5t39 21.5t16 60.5q0 40 -14.5 61t-36.5 21q-23 0 -44.5 -21.5t-33.5 -59.5z" />
<glyph unicode="&#x2713;" horiz-adv-x="542" d="M196 154l253 386l52 -35l-289 -427h-41l-130 205l54 32z" />
<glyph unicode="&#x2776;" horiz-adv-x="758" d="M376 -10q-134 0 -229.5 98t-95.5 236t95.5 236.5t229.5 98.5q138 0 234.5 -98t96.5 -237q0 -138 -96.5 -236t-234.5 -98zM363 456v-313h43v355l-122 -7v-39z" />
<glyph unicode="&#x2777;" horiz-adv-x="758" d="M376 -10q-134 0 -229.5 98t-95.5 236t95.5 236.5t229.5 98.5q138 0 234.5 -98t96.5 -237q0 -138 -96.5 -236t-234.5 -98zM252 189v-31h239v38h-175q61 51 109.5 114.5t48.5 108.5t-28.5 69.5t-69.5 24.5q-60 0 -105 -50l26 -28q37 39 74 39q25 0 42.5 -15t17.5 -43 q0 -44 -58.5 -112t-120.5 -115z" />
<glyph unicode="&#x2778;" horiz-adv-x="758" d="M376 -10q-134 0 -229.5 98t-95.5 236t95.5 236.5t229.5 98.5q138 0 234.5 -98t96.5 -237q0 -138 -96.5 -236t-234.5 -98zM363 147q65 0 96 29t31 71q0 71 -81 93q64 26 64 87q0 34 -27.5 57t-69.5 23q-24 0 -48 -8t-36 -16l-13 -8l19 -34q37 27 74 27q25 0 41.5 -12.5 t16.5 -33.5q0 -30 -33 -48.5t-78 -21.5v-33q127 -9 127 -73q0 -28 -23.5 -45t-54.5 -17q-44 0 -81 32l-25 -34q10 -10 40.5 -22.5t60.5 -12.5z" />
<glyph unicode="&#x2779;" horiz-adv-x="758" d="M376 -10q-134 0 -229.5 98t-95.5 236t95.5 236.5t229.5 98.5q138 0 234.5 -98t96.5 -237q0 -138 -96.5 -236t-234.5 -98zM385 255v-92h43v92h53v37h-53v220h-41l-170 -227v-30h168zM385 292h-117l117 159v-159z" />
<glyph unicode="&#x277a;" horiz-adv-x="758" d="M376 -10q-134 0 -229.5 98t-95.5 236t95.5 236.5t229.5 98.5q138 0 234.5 -98t96.5 -237q0 -138 -96.5 -236t-234.5 -98zM358 138q64 0 95 31t31 77q0 111 -157 117v92h147v38h-190v-167q74 0 115 -18t41 -63q0 -33 -21.5 -51.5t-52.5 -18.5q-42 0 -80 33l-23 -34 q42 -36 95 -36z" />
<glyph unicode="&#x277b;" horiz-adv-x="758" d="M376 -10q-134 0 -229.5 98t-95.5 236t95.5 236.5t229.5 98.5q138 0 234.5 -98t96.5 -237q0 -138 -96.5 -236t-234.5 -98zM365 148q55 0 86.5 33t31.5 86q0 48 -30 73.5t-75 25.5q-50 0 -92 -25q6 62 45.5 95.5t96.5 33.5q7 0 39 -4v40q-30 2 -36 2q-89 0 -139 -52 t-50 -141q0 -167 123 -167zM369 185q-80 0 -84 113q39 30 80 30q74 0 74 -68q0 -31 -18 -53t-52 -22z" />
<glyph unicode="&#x277c;" horiz-adv-x="758" d="M376 -10q-134 0 -229.5 98t-95.5 236t95.5 236.5t229.5 98.5q138 0 234.5 -98t96.5 -237q0 -138 -96.5 -236t-234.5 -98zM442 455l-147 -311h44l153 323v26h-236v-38h186z" />
<glyph unicode="&#x277d;" horiz-adv-x="758" d="M376 -10q-134 0 -229.5 98t-95.5 236t95.5 236.5t229.5 98.5q138 0 234.5 -98t96.5 -237q0 -138 -96.5 -236t-234.5 -98zM375 138q48 0 85 27t37 69q0 22 -15.5 42t-29.5 29t-42 25h-1q74 41 74 86q0 37 -29 59.5t-76 22.5q-46 0 -78.5 -23t-32.5 -61q0 -20 10.5 -36.5 t22.5 -26t36 -23.5h1q-82 -42 -82 -102q0 -40 37 -64t83 -24zM379 175q-35 0 -57.5 14t-22.5 41q0 41 72 77l3 -1q24 -13 36.5 -20.5t27.5 -23t15 -31.5q0 -25 -20.5 -40.5t-53.5 -15.5zM309 416q0 21 18.5 33t49.5 12q26 0 44 -11t18 -35q0 -28 -63 -66q-44 27 -55.5 38 t-11.5 29z" />
<glyph unicode="&#x277e;" horiz-adv-x="758" d="M376 -10q-134 0 -229.5 98t-95.5 236t95.5 236.5t229.5 98.5q138 0 234.5 -98t96.5 -237q0 -138 -96.5 -236t-234.5 -98zM279 182v-40q30 -2 36 -2q89 0 139 52t50 141q0 167 -123 167q-55 0 -86.5 -33t-31.5 -86q0 -48 30 -73.5t75 -25.5q49 0 92 24q-6 -62 -45 -95 t-97 -33q-16 0 -39 4zM382 320q-75 0 -75 67q0 32 17.5 54t52.5 22q80 0 84 -114q-40 -29 -79 -29z" />
<glyph unicode="&#x277f;" horiz-adv-x="758" d="M376 -10q-134 0 -229.5 98t-95.5 236t95.5 236.5t229.5 98.5q138 0 234.5 -98t96.5 -237q0 -138 -96.5 -236t-234.5 -98zM235 456v-313h43v355l-122 -7v-39zM469 138q40 0 69 18t42.5 48t19.5 60t6 64q0 170 -134 170q-136 0 -136 -186q0 -82 33.5 -128t99.5 -46z M473 175q-30 0 -49.5 13t-28.5 37t-12 46.5t-3 52.5q0 135 89 135q94 0 94 -137q0 -59 -20 -103t-70 -44z" />
<glyph unicode="&#x301a;" horiz-adv-x="477" d="M56 -167v917h400v-100h-66v-720h66v-97h-400zM188 650v-720h75v720h-75z" />
<glyph unicode="&#x301b;" horiz-adv-x="477" d="M421 750v-917h-400v97h66v720h-66v100h400zM289 650h-75v-720h75v720z" />
<glyph unicode="&#xf8ff;" horiz-adv-x="476" d="M100 265v132h136v-132h-66v68h-4v-68h-66zM240 265v64h68v4h-68v64h136v-132h-136z" />
<glyph horiz-adv-x="604" d="M308 659q129 0 189 -82t60 -240q0 -62 -6.5 -111.5t-24.5 -95t-46.5 -75.5t-74.5 -47.5t-108 -17.5q-128 0 -189.5 75.5t-61.5 245.5q0 171 61 259.5t201 88.5zM206 330q0 -93 8 -132l115 331q-18 4 -30 4q-52 0 -72.5 -51t-20.5 -152zM303 117q56 0 74.5 47.5 t18.5 163.5q0 68 -5 105l-110 -315q6 -1 22 -1z" />
<glyph horiz-adv-x="613" d="M67 650h161v-650h-161v650zM547 650v-586q0 -99 -68 -158t-183 -79l-45 140q33 6 52 12t41 18.5t32 34.5t10 55v563h161zM319 740l-213 -65l-31 73l199 109zM615 740l-213 -65l-31 73l199 109z" />
<glyph horiz-adv-x="557" d="M215 481v-481h-159v481h159zM342 20v461h159v-467q0 -238 -290 -238l-22 132q153 -8 153 112zM276 645l-166 -107l-52 61l142 142zM538 645l-166 -107l-52 61l142 142z" />
<glyph horiz-adv-x="451" d="M24 139q0 39 26.5 71.5t59 51t59 42.5t26.5 49q0 23 -23 49l151 37q20 -47 20 -87q0 -26 -15 -51.5t-37 -45.5t-44 -38t-37 -36t-15 -34q0 -41 57 -41q71 0 126 51l60 -100q-86 -68 -210 -68q-86 0 -144.5 38t-59.5 112zM330 573q0 -40 -24.5 -63t-67.5 -23 q-42 0 -67.5 22t-25.5 64q0 86 93 86q92 0 92 -86z" />
<glyph horiz-adv-x="381" d="M254 189l-145 -34q-19 41 -19 78q0 21 13 42t25.5 32.5t37.5 30.5q14 11 18.5 14.5t13.5 11t12 13t3 10.5q0 22 -49 22q-52 0 -104 -39l-54 87q84 60 189 60q76 0 127 -31.5t52 -92.5q0 -26 -15 -48t-29.5 -32.5t-42.5 -27.5q-18 -11 -27.5 -17.5t-18 -17t-8.5 -21.5 q0 -18 21 -40zM186 -9q-86 0 -86 76q0 35 23 55.5t63 20.5q39 0 63 -19.5t24 -56.5q0 -36 -22.5 -56t-64.5 -20z" />
<glyph horiz-adv-x="381" d="M127 319l145 34q19 -41 19 -78q0 -21 -13 -42t-25.5 -32.5t-37.5 -30.5q-14 -11 -18.5 -14.5t-13.5 -11t-12 -13t-3 -10.5q0 -22 49 -22q52 0 104 39l54 -87q-84 -60 -189 -60q-76 0 -127 31.5t-52 92.5q0 26 15 48t29.5 32.5t42.5 27.5q18 11 27.5 17.5t18 17t8.5 21.5 q0 18 -21 40zM195 517q86 0 86 -76q0 -35 -23 -55.5t-63 -20.5q-39 0 -63 19.5t-24 56.5q0 36 22.5 56t64.5 20z" />
<glyph horiz-adv-x="295" d="M220 -2h-145v217l14 183h117l14 -184v-216zM240 573q0 -40 -24.5 -63t-67.5 -23q-42 0 -67.5 22t-25.5 64q0 86 93 86q92 0 92 -86z" />
<glyph horiz-adv-x="260" d="M130 -9q-86 0 -86 76q0 35 23 55.5t63 20.5q39 0 63 -19.5t24 -56.5q0 -36 -22.5 -56t-64.5 -20zM73 187l-13 149v174h140v-175l-13 -148h-114z" />
<glyph horiz-adv-x="260" d="M130 510q86 0 86 -76q0 -35 -23 -55.5t-63 -20.5q-39 0 -63 19.5t-24 56.5q0 36 22.5 56t64.5 20zM187 314l13 -149v-174h-140v175l13 148h114z" />
<glyph horiz-adv-x="390" d="M338 257h-286v129h286v-129z" />
<glyph horiz-adv-x="548" d="M54 271v107h440v-107h-440z" />
<glyph horiz-adv-x="1048" d="M54 271v107h940v-107h-940z" />
<glyph horiz-adv-x="400" d="M5 -15l269 525h120l-266 -525h-123z" />
<glyph horiz-adv-x="400" d="M126 510l269 -525h-123l-266 525h120z" />
<glyph horiz-adv-x="352" d="M243 708l85 -82q-72 -54 -111 -131t-39 -168q0 -96 44 -179t122 -132l-82 -83q-113 71 -175 173t-62 215q0 110 57 209.5t161 177.5z" />
<glyph horiz-adv-x="352" d="M24 626l85 82q104 -78 161 -177.5t57 -209.5q0 -113 -62 -215t-175 -173l-82 83q78 49 122 132t44 179q0 91 -39 168t-111 131z" />
<glyph horiz-adv-x="324" d="M56 -77v787h250v-100h-118v-590h118v-97h-250z" />
<glyph horiz-adv-x="324" d="M268 710v-787h-250v97h118v590h-118v100h250z" />
<glyph horiz-adv-x="351" d="M272 -77q-103 0 -138.5 38.5t-35.5 126.5v154q0 16 -11.5 22.5t-41.5 6.5h-27v97h27q53 0 53 29v147q0 166 180 166h58v-94h-48q-39 0 -55.5 -17.5t-16.5 -52.5v-97q0 -53 -17.5 -85t-70.5 -45q88 -10 88 -123v-110q0 -35 13 -51t51 -16h56v-96h-64z" />
<glyph horiz-adv-x="351" d="M79 -77h-64v96h56q38 0 51 16t13 51v110q0 113 88 123q-53 13 -70.5 45t-17.5 85v97q0 35 -16.5 52.5t-55.5 17.5h-48v94h58q180 0 180 -166v-147q0 -29 53 -29h27v-97h-27q-30 0 -41.5 -6.5t-11.5 -22.5v-154q0 -88 -35.5 -126.5t-138.5 -38.5z" />
<glyph horiz-adv-x="481" d="M56 -77v787h400v-100h-66v-590h66v-97h-400zM188 610v-590h75v590h-75z" />
<glyph horiz-adv-x="481" d="M425 710v-787h-400v97h66v590h-66v100h400zM293 610h-75v-590h75v590z" />
<glyph horiz-adv-x="626" d="M18 270q0 135 64.5 258.5t177.5 209.5l94 -88q-82 -67 -134 -165t-52 -206q0 -218 187 -381l-82 -83q-123 84 -189 205.5t-66 249.5zM282 270q0 135 64.5 258.5t177.5 209.5l94 -88q-82 -67 -134 -165t-52 -206q0 -218 187 -381l-82 -83q-123 84 -189 205.5t-66 249.5z " />
<glyph horiz-adv-x="588" d="M243 708l85 -82q-72 -54 -111 -131t-39 -168q0 -96 44 -179t122 -132l-82 -83q-113 71 -175 173t-62 215q0 110 57 209.5t161 177.5zM479 708l85 -82q-72 -54 -111 -131t-39 -168q0 -96 44 -179t122 -132l-82 -83q-113 71 -175 173t-62 215q0 110 57 209.5t161 177.5z " />
<glyph horiz-adv-x="627" d="M344 270q0 -128 -66 -249.5t-189 -205.5l-82 83q187 163 187 381q0 108 -52 206t-134 165l94 88q113 -86 177.5 -209.5t64.5 -258.5zM608 270q0 -128 -66 -249.5t-189 -205.5l-82 83q187 163 187 381q0 108 -52 206t-134 165l94 88q113 -86 177.5 -209.5t64.5 -258.5z " />
<glyph horiz-adv-x="588" d="M24 626l85 82q104 -78 161 -177.5t57 -209.5q0 -113 -62 -215t-175 -173l-82 83q78 49 122 132t44 179q0 91 -39 168t-111 131zM260 626l85 82q104 -78 161 -177.5t57 -209.5q0 -113 -62 -215t-175 -173l-82 83q78 49 122 132t44 179q0 91 -39 168t-111 131z" />
<glyph horiz-adv-x="509" d="M181 0v138q-80 16 -127 64t-47 113q0 91 79 143t213 52v-510h-118zM330 0v510h119v-510h-119z" />
<glyph horiz-adv-x="448" d="M154 146q-56 0 -89.5 27.5t-33.5 81.5q0 30 17.5 52t47 33.5t62 16.5t69.5 5h20v19q0 26 -8.5 35.5t-30.5 9.5q-40 0 -40 -25q0 -2 2 -12l-111 -16q-8 19 -8 37q0 47 47 77.5t121 30.5q158 0 159 -134l-1 -117q0 -27 15 -27q5 0 17 5l5 -87q-44 -12 -72 -12q-68 0 -85 50 q-36 -50 -103 -50zM191 238q33 0 56 32v40h-21q-29 0 -45.5 -11t-16.5 -30q0 -15 8 -23t19 -8z" />
<glyph horiz-adv-x="448" d="M373 302h-142q0 68 31.5 142t76.5 131l97 -31q-63 -103 -63 -242zM172 302h-142q0 68 31.5 142t76.5 131l97 -31q-63 -103 -63 -242z" />
<glyph horiz-adv-x="437" d="M78 575h142q0 -68 -31.5 -142t-76.5 -131l-97 31q63 103 63 242zM279 575h142q0 -68 -31.5 -142t-76.5 -131l-97 31q63 103 63 242z" />
<glyph horiz-adv-x="247" d="M172 302h-142q0 68 31.5 142t76.5 131l97 -31q-63 -103 -63 -242z" />
<glyph horiz-adv-x="236" d="M78 575h142q0 -68 -31.5 -142t-76.5 -131l-97 31q63 103 63 242z" />
<glyph horiz-adv-x="372" d="M196 545l140 -231l-140 -231h-123l99 234l-99 228h123z" />
<glyph horiz-adv-x="373" d="M37 314l139 231h124l-99 -228l99 -234h-124z" />
<glyph horiz-adv-x="588" d="M37 314l139 231h124l-99 -228l99 -234h-124zM254 314l139 231h123l-98 -228l98 -234h-123z" />
<glyph horiz-adv-x="589" d="M196 545l140 -231l-140 -231h-123l99 234l-99 228h123zM413 545l139 -231l-139 -231h-123l98 234l-98 228h123z" />
<glyph horiz-adv-x="239" d="M31 286q0 37 25.5 63t62.5 26t63 -26t26 -63t-26 -62.5t-63 -25.5t-62.5 25.5t-25.5 62.5z" />
<glyph horiz-adv-x="450" d="M364 740l-213 -65l-31 73l199 109z" />
<glyph horiz-adv-x="450" d="M279 831h97q0 -68 -38 -102.5t-106 -34.5q-67 0 -105.5 35.5t-38.5 101.5h97q3 -51 50 -51q44 0 44 51z" />
<glyph horiz-adv-x="450" d="M190 691l-125 99l51 74l111 -68l113 68l47 -70l-130 -103h-67z" />
<glyph horiz-adv-x="450" d="M260 860l127 -99l-51 -74l-113 68l-111 -68l-47 70l128 103h67z" />
<glyph horiz-adv-x="450" d="M46 778q0 32 22 54t54 22t54 -22t22 -54t-22 -54t-54 -22t-54 22t-22 54zM258 778q0 32 22 54t54 22t54 -22t22 -54t-22 -54t-54 -22t-54 22t-22 54z" />
<glyph horiz-adv-x="450" d="M143 777q0 34 24.5 58.5t58.5 24.5t58.5 -24.5t24.5 -58.5t-24.5 -58.5t-58.5 -24.5t-58.5 24t-24.5 59z" />
<glyph horiz-adv-x="450" d="M240 825l-189 -150l-50 56l159 191zM424 740l-213 -65l-31 73l199 109z" />
<glyph horiz-adv-x="450" d="M333 675l-213 65l45 117l199 -109z" />
<glyph horiz-adv-x="450" d="M86 714v94h277v-94h-277z" />
<glyph horiz-adv-x="450" d="M99 704l-47 46q46 84 115 84q22 0 65.5 -13.5t64.5 -13.5q36 0 61 30l48 -53q-19 -37 -53 -60.5t-67 -23.5q-19 0 -61 15.5t-65 15.5q-34 0 -61 -27z" />
<glyph horiz-adv-x="450" d="M190 -55h119q0 -57 -24.5 -118.5t-60.5 -109.5l-83 26q49 85 49 202z" />
<glyph horiz-adv-x="450" d="M227 685q-53 0 -83 29t-30 76q0 50 34 77t81 27q48 0 79.5 -26t31.5 -78q0 -44 -30 -74.5t-83 -30.5zM227 753q19 0 26.5 9t7.5 28q0 36 -34 36q-19 0 -26.5 -8t-7.5 -28q0 -37 34 -37z" />
<glyph horiz-adv-x="450" d="M147 499l15 186h122l-49 -186h-88z" />
<glyph horiz-adv-x="501" d="M246 -8q-112 0 -165.5 59t-53.5 193t53 203.5t175 69.5q217 0 217 -253q0 -62 -10 -108t-34 -85t-70 -59t-112 -20zM251 110q41 0 54.5 33t13.5 114q0 56 -6 84l-87 -228q10 -3 25 -3zM179 259q0 -47 2 -66l80 206q-3 0 -7 0.5t-7 0.5q-38 0 -53 -35.5t-15 -105.5z" />
<glyph horiz-adv-x="501" d="M246 -8q-112 0 -165.5 59t-53.5 193t53 203.5t175 69.5q217 0 217 -253q0 -62 -10 -108t-34 -85t-70 -59t-112 -20zM251 110q41 0 54.5 33t13.5 114q0 75 -13 109t-59 34q-38 0 -53 -35.5t-15 -105.5q0 -82 13.5 -115.5t58.5 -33.5z" />
<glyph horiz-adv-x="318" d="M110 0v392l-103 -5v119l252 11v-517h-149z" />
<glyph horiz-adv-x="447" d="M21 0v90q77 41 151.5 121t74.5 141q0 48 -51 48q-55 0 -103 -55l-72 94q3 3 9 8.5t26 19t42 23.5t56 18.5t70 8.5q83 0 131 -41.5t48 -110.5q0 -64 -49 -128t-124 -116h194v-121h-403z" />
<glyph horiz-adv-x="437" d="M204 -8q-115 0 -198 63l70 104q55 -47 126 -47q62 0 62 36q0 32 -43.5 49.5t-119.5 17.5v84q61 0 101 21.5t40 46.5q0 32 -53 32t-98 -45l-67 90q3 3 8.5 8t25 17.5t41 22t55.5 17.5t70 8q76 0 123.5 -38.5t47.5 -96.5q0 -69 -98 -105q53 -11 86 -47.5t33 -84.5 q0 -60 -52.5 -106.5t-159.5 -46.5z" />
<glyph horiz-adv-x="471" d="M233 0v92h-226v81l231 337h144v-302h70v-116h-70v-92h-149zM150 208h83v128z" />
<glyph horiz-adv-x="437" d="M194 -8q-101 0 -187 63l69 109q57 -54 119 -54q29 0 47.5 13.5t18.5 34.5q0 35 -42 51t-160 16v285h342v-122h-201v-62q108 -2 160.5 -45.5t52.5 -119.5q0 -69 -57.5 -119t-161.5 -50z" />
<glyph horiz-adv-x="455" d="M231 -8q-112 0 -159.5 62t-47.5 183q0 135 77 207.5t207 72.5q48 0 102 -10v-125q-62 15 -103 15q-98 0 -122 -74q33 14 66 14q85 0 132.5 -41.5t47.5 -117.5q0 -87 -51.5 -136.5t-148.5 -49.5zM237 100q23 0 33.5 20t10.5 46q0 53 -53 53q-12 0 -25 -2.5t-20 -4.5l-7 -3 q1 -56 13 -82.5t48 -26.5z" />
<glyph horiz-adv-x="419" d="M47 0l193 388h-228v122h400v-77l-214 -433h-151z" />
<glyph horiz-adv-x="459" d="M227 -8q-100 0 -152.5 36t-52.5 106q0 37 28.5 69.5t70.5 56.5q-41 25 -62 51.5t-21 66.5q0 63 57.5 101t137.5 38q85 0 136.5 -36t51.5 -99q0 -57 -86 -110q47 -23 74.5 -56.5t27.5 -71.5q0 -68 -55.5 -110t-154.5 -42zM235 91q24 0 38 13t14 35q0 25 -65 65 q-49 -34 -49 -65q0 -48 62 -48zM189 386q0 -30 43 -60q38 31 38 58q0 35 -40 35q-21 0 -31 -10t-10 -23z" />
<glyph horiz-adv-x="454" d="M45 2v125q60 -15 102 -15q98 0 123 73q-39 -13 -67 -13q-85 0 -132.5 41.5t-47.5 117.5q0 87 51.5 136.5t148.5 49.5q112 0 159.5 -62t47.5 -183q0 -135 -77 -207.5t-207 -72.5q-47 0 -101 10zM226 290q12 0 25 2.5t20 5.5l7 2q0 56 -11 82.5t-46 26.5q-24 0 -36 -19.5 t-12 -44.5q0 -55 53 -55z" />
<glyph horiz-adv-x="613" d="M309 515q121 0 193.5 -65.5t72.5 -195.5q0 -115 -74.5 -189.5t-198.5 -74.5q-118 0 -191 69t-73 195q0 118 78 189.5t193 71.5zM304 117q61 0 88 32.5t27 104.5q0 59 -17 89l-120 -225q7 -1 22 -1zM194 254q0 -58 18 -89l118 221q-16 2 -26 2q-58 0 -84 -31.5t-26 -102.5 z" />
<glyph horiz-adv-x="613" d="M309 515q121 0 193.5 -65.5t72.5 -195.5q0 -115 -74.5 -189.5t-198.5 -74.5q-118 0 -191 69t-73 195q0 118 78 189.5t193 71.5zM304 117q61 0 88 32.5t27 104.5q0 73 -26 103.5t-89 30.5q-58 0 -84 -31.5t-26 -102.5q0 -137 110 -137z" />
<glyph horiz-adv-x="382" d="M24 369v129l280 13v-511h-157v375z" />
<glyph horiz-adv-x="519" d="M39 96q255 150 255 228q0 64 -69 64q-32 0 -63 -19t-45 -49l-73 105q3 4 8 10t24 21.5t41 27.5t59.5 21.5t78.5 9.5q94 0 148.5 -45t54.5 -120q0 -68 -60 -119.5t-164 -98.5h246v-132h-441v96z" />
<glyph horiz-adv-x="497" d="M439 350q0 -49 -34 -86t-91 -55q69 -17 109.5 -62t40.5 -113q0 -74 -60.5 -131t-182.5 -57q-134 0 -221 72l75 124q25 -21 42.5 -33.5t46.5 -23t62 -10.5q35 0 56.5 15.5t21.5 47.5q0 49 -54 74.5t-141 26.5v96q71 4 120 31.5t49 63.5q0 30 -20 44t-51 14q-64 0 -118 -58 l-68 102l9 9t27 20t45 25t63 20t80 9q86 0 140 -47t54 -118z" />
<glyph horiz-adv-x="558" d="M444 8v-143h-156v143h-271v88l271 415h156v-379h84v-124h-84zM166 132h122v185z" />
<glyph horiz-adv-x="502" d="M211 378v-104q126 0 191 -60.5t65 -153.5q0 -86 -66.5 -148t-185.5 -62q-118 0 -208 73l71 124q66 -70 138 -70q35 0 63 20t28 53q0 56 -51.5 83t-190.5 27v350h387v-132h-241z" />
<glyph horiz-adv-x="561" d="M356 210q0 44 -18.5 63t-55.5 19q-20 0 -38.5 -4.5t-27.5 -9.5l-8 -4q0 -85 17 -121t68 -36q63 0 63 93zM514 222q0 -108 -59 -170t-170 -62q-127 0 -182 79t-55 232q0 173 89 266t240 93q53 0 111 -12v-135q-63 17 -112 17q-142 0 -163 -136q55 25 96 25q97 0 151 -51.5 t54 -145.5z" />
<glyph horiz-adv-x="487" d="M476 510v-84l-251 -566h-155l231 518h-282v132h457z" />
<glyph horiz-adv-x="564" d="M500 494q0 -74 -120 -147q63 -30 101.5 -74.5t38.5 -95.5q0 -82 -67 -134.5t-174 -52.5t-171 45t-64 129q0 50 40 94.5t95 72.5q-57 35 -86 70.5t-29 87.5q0 71 66.5 120.5t155.5 49.5q94 0 154 -46.5t60 -118.5zM362 171q0 40 -90 99q-69 -52 -69 -97q0 -35 22.5 -54.5 t62.5 -19.5q34 0 54 19.5t20 52.5zM222 496q0 -23 15.5 -42t47.5 -44q57 50 57 80q0 25 -15 40t-44 15q-31 0 -46 -14.5t-15 -34.5z" />
<glyph horiz-adv-x="532" d="M188 295q0 -44 18.5 -63t55.5 -19q20 0 38.5 4.5t27.5 8.5l8 5q0 85 -17 121t-68 36q-63 0 -63 -93zM30 283q0 108 59 170t170 62q127 0 182 -79t55 -232q0 -173 -89 -266t-240 -93q-53 0 -111 12v135q63 -17 112 -17q142 0 163 136q-55 -25 -96 -25q-97 0 -151 51.5 t-54 145.5z" />
<glyph horiz-adv-x="600" d="M306 659q129 0 189 -82t60 -240q0 -62 -6.5 -111.5t-24.5 -95t-46.5 -75.5t-74.5 -47.5t-108 -17.5q-128 0 -189.5 75.5t-61.5 245.5q0 171 61 259.5t201 88.5zM204 330q0 -93 8 -132l115 331q-18 4 -30 4q-52 0 -72.5 -51t-20.5 -152zM301 117q56 0 74.5 47.5 t18.5 163.5q0 68 -5 105l-110 -315q6 -1 22 -1z" />
<glyph horiz-adv-x="600" d="M306 659q129 0 189 -82t60 -240q0 -62 -6.5 -111.5t-24.5 -95t-46.5 -75.5t-74.5 -47.5t-108 -17.5q-128 0 -189.5 75.5t-61.5 245.5q0 171 61 259.5t201 88.5zM301 117q56 0 74.5 47.5t18.5 163.5q0 42 -1.5 68.5t-7 55.5t-15.5 44.5t-28.5 26t-44.5 10.5 q-52 0 -72.5 -51t-20.5 -152q0 -118 18 -165.5t79 -47.5z" />
<glyph horiz-adv-x="600" d="M109 517v129l280 13v-527h147v-132h-455v132h151v391z" />
<glyph horiz-adv-x="600" d="M68 96q92 54 181.5 163.5t89.5 194.5q0 79 -73 79q-65 0 -120 -69l-73 105q3 4 9.5 10t28 21.5t46 27.5t63.5 21.5t80 9.5q94 0 148.5 -51t54.5 -136q0 -91 -70 -182t-170 -158h266v-132h-461v96z" />
<glyph horiz-adv-x="600" d="M499 494q0 -49 -34 -86t-91 -55q69 -17 109.5 -62t40.5 -113q0 -74 -60.5 -131t-182.5 -57q-134 0 -221 72l75 124q25 -21 42.5 -33.5t46.5 -23t62 -10.5q35 0 56.5 15.5t21.5 47.5q0 49 -54 74.5t-141 26.5v96q71 4 120 31.5t49 63.5q0 30 -20 44t-51 14q-64 0 -118 -58 l-68 102l9 9t27 20t45 25t63 20t80 9q86 0 140 -47t54 -118z" />
<glyph horiz-adv-x="600" d="M466 123v-123h-156v123h-271v88l271 439h156v-403h84v-124h-84zM188 247h122v209z" />
<glyph horiz-adv-x="600" d="M264 518v-104q126 0 191 -60.5t65 -153.5q0 -86 -66.5 -148t-185.5 -62q-118 0 -208 73l71 124q66 -70 138 -70q35 0 63 20t28 53q0 56 -51.5 83t-190.5 27v350h387v-132h-241z" />
<glyph horiz-adv-x="600" d="M375 210q0 44 -18.5 63t-55.5 19q-20 0 -38.5 -4.5t-26.5 -9.5l-9 -4q0 -85 17 -121t68 -36q63 0 63 93zM533 222q0 -108 -59 -170t-170 -62q-127 0 -182 79t-55 232q0 173 89 266t240 93q52 0 111 -12v-135q-63 17 -112 17q-142 0 -163 -136q55 25 96 25q97 0 151 -51.5 t54 -145.5z" />
<glyph horiz-adv-x="600" d="M533 650v-84l-251 -566h-155l231 518h-282v132h457z" />
<glyph horiz-adv-x="600" d="M518 494q0 -74 -120 -147q63 -30 101.5 -74.5t38.5 -95.5q0 -82 -67 -134.5t-174 -52.5t-171 45t-64 129q0 50 40 94.5t95 72.5q-57 35 -86 70.5t-29 87.5q0 71 66.5 120.5t155.5 49.5q94 0 154 -46.5t60 -118.5zM380 171q0 40 -90 99q-69 -52 -69 -97q0 -35 22.5 -54.5 t62.5 -19.5q34 0 54 19.5t20 52.5zM240 496q0 -23 15.5 -42t47.5 -44q57 50 57 80q0 25 -15 40t-44 15q-31 0 -46 -14.5t-15 -34.5z" />
<glyph horiz-adv-x="600" d="M225 439q0 -44 18.5 -63t55.5 -19q20 0 38.5 4.5t26.5 8.5l9 5q0 85 -17 121t-68 36q-63 0 -63 -93zM67 427q0 108 59 170t170 62q127 0 182 -79t55 -232q0 -173 -89 -266t-240 -93q-52 0 -111 12v135q63 -17 112 -17q142 0 163 136q-55 -25 -96 -25q-97 0 -151 51.5 t-54 145.5z" />
<glyph horiz-adv-x="600" d="M302 515q121 0 193.5 -65.5t72.5 -195.5q0 -115 -74.5 -189.5t-198.5 -74.5q-118 0 -191 69t-73 195q0 118 78 189.5t193 71.5zM297 117q61 0 88 32.5t27 104.5q0 59 -17 89l-120 -225q7 -1 22 -1zM187 254q0 -58 18 -89l118 221q-16 2 -26 2q-58 0 -84 -31.5t-26 -102.5 z" />
<glyph horiz-adv-x="600" d="M302 515q121 0 193.5 -65.5t72.5 -195.5q0 -115 -74.5 -189.5t-198.5 -74.5q-118 0 -191 69t-73 195q0 118 78 189.5t193 71.5zM297 117q61 0 88 32.5t27 104.5q0 73 -26 103.5t-89 30.5q-58 0 -84 -31.5t-26 -102.5q0 -137 110 -137z" />
<glyph horiz-adv-x="600" d="M111 369v129l280 13v-379h145v-132h-455v132h153v243z" />
<glyph horiz-adv-x="600" d="M79 96q255 150 255 228q0 64 -69 64q-32 0 -63 -19t-45 -49l-73 105q3 4 8 10t24 21.5t41 27.5t59.5 21.5t78.5 9.5q94 0 148.5 -45t54.5 -120q0 -68 -60 -119.5t-164 -98.5h246v-132h-441v96z" />
<glyph horiz-adv-x="600" d="M490 350q0 -49 -34 -86t-91 -55q69 -17 109.5 -62t40.5 -113q0 -74 -60.5 -131t-182.5 -57q-134 0 -221 72l75 124q25 -21 42.5 -33.5t46.5 -23t62 -10.5q35 0 56.5 15.5t21.5 47.5q0 49 -54 74.5t-141 26.5v96q71 4 120 31.5t49 63.5q0 30 -20 44t-51 14q-64 0 -118 -58 l-68 102l9 9t27 20t45 25t63 20t80 9q86 0 140 -47t54 -118z" />
<glyph horiz-adv-x="600" d="M465 8v-143h-156v143h-271v88l271 415h156v-379h84v-124h-84zM187 132h122v185z" />
<glyph horiz-adv-x="600" d="M260 383v-104q126 0 191 -60.5t65 -153.5q0 -86 -66.5 -148t-185.5 -62q-118 0 -208 73l71 124q66 -70 138 -70q35 0 63 20t28 53q0 56 -51.5 83t-190.5 27v350h387v-132h-241z" />
<glyph horiz-adv-x="600" d="M375 210q0 44 -18.5 63t-55.5 19q-20 0 -38.5 -4.5t-26.5 -9.5l-9 -4q0 -85 17 -121t68 -36q63 0 63 93zM533 222q0 -108 -59 -170t-170 -62q-127 0 -182 79t-55 232q0 173 89 266t240 93q52 0 111 -12v-135q-63 17 -112 17q-142 0 -163 -136q55 25 96 25q97 0 151 -51.5 t54 -145.5z" />
<glyph horiz-adv-x="600" d="M532 515v-84l-251 -566h-155l231 518h-282v132h457z" />
<glyph horiz-adv-x="600" d="M518 494q0 -74 -120 -147q63 -30 101.5 -74.5t38.5 -95.5q0 -82 -67 -134.5t-174 -52.5t-171 45t-64 129q0 50 40 94.5t95 72.5q-57 35 -86 70.5t-29 87.5q0 71 66.5 120.5t155.5 49.5q94 0 154 -46.5t60 -118.5zM380 171q0 40 -90 99q-69 -52 -69 -97q0 -35 22.5 -54.5 t62.5 -19.5q34 0 54 19.5t20 52.5zM240 496q0 -23 15.5 -42t47.5 -44q57 50 57 80q0 25 -15 40t-44 15q-31 0 -46 -14.5t-15 -34.5z" />
<glyph horiz-adv-x="600" d="M222 295q0 -44 18.5 -63t55.5 -19q20 0 38.5 4.5t27.5 8.5l8 5q0 85 -17 121t-68 36q-63 0 -63 -93zM64 283q0 108 59 170t170 62q127 0 182 -79t55 -232q0 -173 -89 -266t-240 -93q-53 0 -111 12v135q63 -17 112 -17q142 0 163 136q-55 -25 -96 -25q-97 0 -151 51.5 t-54 145.5z" />
<glyph horiz-adv-x="381" d="M188 289q-163 0 -163 178q0 92 42 142t127 50q162 0 162 -178q0 -192 -168 -192zM191 369q28 0 37 24t9 83q0 55 -8.5 79.5t-39.5 24.5q-26 0 -36 -26t-10 -77q0 -60 9 -84t39 -24z" />
<glyph horiz-adv-x="249" d="M86 294v280l-75 -3v81l192 7v-365h-117z" />
<glyph horiz-adv-x="347" d="M23 294v60q56 29 110 86.5t54 102.5q0 37 -33 37t-79 -46l-51 61q6 7 16.5 17.5t49.5 28.5t84 18q61 0 97.5 -30.5t36.5 -75.5q0 -46 -38 -92.5t-95 -83.5h149v-83h-301z" />
<glyph horiz-adv-x="340" d="M160 289q-85 0 -146 43l51 75q41 -37 89 -37q18 0 32 8.5t14 23.5q0 45 -105 47v53q41 1 65 15.5t24 32.5q0 13 -12 21t-27 8q-36 0 -72 -31l-47 61q6 6 17.5 14t50 22t80.5 14q57 0 93 -27t36 -67q0 -50 -65 -75q80 -27 80 -95q0 -41 -39.5 -73.5t-118.5 -32.5z" />
<glyph horiz-adv-x="362" d="M175 294v66h-164v54l168 240h112v-216h51v-78h-51v-66h-116zM106 438h69v102z" />
<glyph horiz-adv-x="339" d="M151 289q-77 0 -138 44l47 77q42 -41 92 -41q17 0 30.5 9t13.5 24q0 27 -31 40t-116 13v199h256v-82h-146v-44q76 -3 116 -37t40 -84q0 -48 -43.5 -83t-120.5 -35z" />
<glyph horiz-adv-x="353" d="M179 289q-83 0 -119 43.5t-36 128.5q0 96 57 147t154 51q39 0 78 -8v-85q-51 12 -79 12q-68 0 -85 -55q22 7 44 7q64 0 100 -29t36 -82q0 -61 -39 -95.5t-111 -34.5zM184 369q27 0 27 44q0 37 -33 37l-35 -6q0 -41 8 -58t33 -17z" />
<glyph horiz-adv-x="321" d="M44 294l139 278h-168v82h300v-51l-156 -309h-115z" />
<glyph horiz-adv-x="356" d="M177 289q-70 0 -112 25.5t-42 73.5q0 49 77 90q-65 37 -65 84q0 41 43.5 69t102.5 28q62 0 101.5 -26.5t39.5 -67.5q0 -38 -69 -79q37 -17 58.5 -41t21.5 -50q0 -46 -43.5 -76t-112.5 -30zM182 359q35 0 35 35q0 22 -47 48q-29 -22 -29 -47q0 -36 41 -36zM153 562 q0 -21 27 -40q24 20 24 37q0 27 -25 27q-26 0 -26 -24z" />
<glyph horiz-adv-x="351" d="M39 296v86q53 -12 79 -12q68 0 86 55q-27 -8 -45 -8q-64 0 -100 29t-36 83q0 60 39 95t111 35q84 0 119.5 -44t35.5 -129q0 -95 -57 -146.5t-154 -51.5q-32 0 -78 8zM175 497l34 7q0 41 -8 58t-33 17q-27 0 -27 -44q0 -38 34 -38z" />
<glyph horiz-adv-x="525" d="M261 -7q-98 0 -168.5 72t-70.5 173q0 102 70.5 174t168.5 72q100 0 171 -72t71 -174q0 -106 -70 -175.5t-172 -69.5zM261 33q88 0 142.5 56t54.5 149q0 83 -56 144t-141 61q-86 0 -140 -57t-54 -148q0 -92 57.5 -148.5t136.5 -56.5zM265 73q-77 0 -117.5 42t-40.5 120 q0 75 47.5 118.5t121.5 43.5q61 0 108 -28l-29 -73q-38 29 -84 29q-68 0 -68 -90t70 -90q47 0 91 28l21 -71q-58 -29 -120 -29z" />
<glyph horiz-adv-x="525" d="M261 -7q-98 0 -168.5 72t-70.5 173q0 102 70.5 174t168.5 72q100 0 171 -72t71 -174q0 -106 -70 -175.5t-172 -69.5zM261 33q88 0 142.5 56t54.5 149q0 83 -56 144t-141 61q-86 0 -140 -57t-54 -148q0 -92 57.5 -148.5t136.5 -56.5zM159 79v306h131q67 0 98.5 -29 t31.5 -77q0 -50 -35 -80.5t-101 -30.5h-35v-89h-90zM249 237h33q23 0 33 9.5t10 32.5q0 19 -9 30t-36 11h-31v-83z" />
<glyph horiz-adv-x="525" d="M261 -7q-98 0 -168.5 72t-70.5 173q0 102 70.5 174t168.5 72q100 0 171 -72t71 -174q0 -106 -70 -175.5t-172 -69.5zM261 33q88 0 142.5 56t54.5 149q0 83 -56 144t-141 61q-86 0 -140 -57t-54 -148q0 -92 57.5 -148.5t136.5 -56.5zM179 117q-39 0 -66 34t-27 86 t28.5 86.5t69.5 34.5q45 0 82 -66q12 29 34 47.5t48 18.5q43 0 68 -34t25 -85q0 -54 -28.5 -88t-70.5 -34q-46 0 -77 63q-13 -28 -36.5 -45.5t-49.5 -17.5zM147 237q0 -31 11 -47.5t29 -16.5q39 0 55 64q-13 64 -52 64q-19 0 -31 -16t-12 -48zM289 237q6 -31 19.5 -47.5 t30.5 -16.5q16 0 27 18t11 49q0 62 -35 62q-36 0 -53 -65z" />
<glyph horiz-adv-x="845" d="M229 39l-65 49l447 542l65 -49zM663 -5q-70 0 -112 25.5t-42 73.5q0 49 77 90q-65 37 -65 84q0 41 43.5 69t102.5 28q62 0 101.5 -26.5t39.5 -67.5q0 -38 -69 -79q37 -17 58.5 -41t21.5 -50q0 -46 -43.5 -76t-112.5 -30zM668 65q35 0 35 35q0 22 -47 48q-29 -22 -29 -47 q0 -36 41 -36zM639 268q0 -21 27 -40q24 20 24 37q0 27 -25 27q-26 0 -26 -24zM175 299q-85 0 -146 43l51 75q41 -37 89 -37q18 0 32 8.5t14 23.5q0 45 -105 47v53q41 1 65 15.5t24 32.5q0 13 -12 21t-27 8q-36 0 -72 -31l-47 61q6 6 17.5 14t50 22t80.5 14q57 0 93 -27 t36 -67q0 -50 -65 -75q80 -27 80 -95q0 -41 -39.5 -73.5t-118.5 -32.5z" />
<glyph horiz-adv-x="847" d="M236 39l-65 49l447 542l65 -49zM665 -5q-70 0 -112 25.5t-42 73.5q0 49 77 90q-65 37 -65 84q0 41 43.5 69t102.5 28q62 0 101.5 -26.5t39.5 -67.5q0 -38 -69 -79q37 -17 58.5 -41t21.5 -50q0 -46 -43.5 -76t-112.5 -30zM670 65q35 0 35 35q0 22 -47 48q-29 -22 -29 -47 q0 -36 41 -36zM641 268q0 -21 27 -40q24 20 24 37q0 27 -25 27q-26 0 -26 -24zM166 299q-77 0 -138 44l47 77q42 -41 92 -41q17 0 30.5 9t13.5 24q0 27 -31 40t-116 13v199h256v-82h-146v-44q76 -3 116 -37t40 -84q0 -48 -43.5 -83t-120.5 -35z" />
<glyph horiz-adv-x="749" d="M152 39l-65 49l447 542l65 -49zM567 -5q-70 0 -112 25.5t-42 73.5q0 49 77 90q-65 37 -65 84q0 41 43.5 69t102.5 28q62 0 101.5 -26.5t39.5 -67.5q0 -38 -69 -79q37 -17 58.5 -41t21.5 -50q0 -46 -43.5 -76t-112.5 -30zM572 65q35 0 35 35q0 22 -47 48q-29 -22 -29 -47 q0 -36 41 -36zM543 268q0 -21 27 -40q24 20 24 37q0 27 -25 27q-26 0 -26 -24zM48 304l139 278h-168v82h300v-51l-156 -309h-115z" />
<glyph horiz-adv-x="540" d="M151 0h-159l196 510h163l198 -510h-164l-35 100h-167zM296 257l-32 107l-31 -105l-16 -53h95z" />
<glyph horiz-adv-x="528" d="M59 0v510h219q100 0 143 -36t43 -91q0 -78 -80 -105q58 -5 89.5 -35.5t31.5 -79.5q0 -79 -51 -121t-137 -42h-258zM212 117h75q60 0 60 47q0 25 -16.5 36t-57.5 11h-61v-94zM212 312h33q62 0 62 40q0 41 -55 41h-40v-81z" />
<glyph horiz-adv-x="520" d="M294 -8q-132 0 -201 67.5t-69 193.5q0 122 81 193t207 71q102 0 186 -47l-51 -124q-72 50 -142 50q-53 0 -86 -36t-33 -104q0 -70 31.5 -107t90.5 -37q68 0 152 52l41 -123q-98 -49 -207 -49z" />
<glyph horiz-adv-x="597" d="M59 0v510h214q297 0 297 -245q0 -60 -13 -105t-45 -83t-92 -57.5t-146 -19.5h-215zM212 121h69q73 0 100 31.5t27 94.5q0 72 -29.5 107t-109.5 35h-57v-268z" />
<glyph horiz-adv-x="486" d="M59 0v510h391v-121h-238v-70h205v-120h-205v-77h238v-122h-391z" />
<glyph horiz-adv-x="455" d="M59 0v510h377v-121h-224v-94h194v-120h-194v-175h-153z" />
<glyph horiz-adv-x="542" d="M294 -8q-130 0 -200 69t-70 195q0 127 84.5 194t213.5 67q89 0 187 -46l-55 -130q-77 55 -138 55q-60 0 -95 -33t-35 -105q0 -76 37 -111t99 -35q16 0 34 3v149h150v-222q-103 -50 -212 -50z" />
<glyph horiz-adv-x="603" d="M59 0v510h153v-191h179v191h153v-510h-153v192h-179v-192h-153z" />
<glyph d="M212 0h-153v510h153v-510z" />
<glyph horiz-adv-x="295" d="M13 -131l-45 126q29 5 45 9t35 13t27.5 23.5t8.5 35.5v434h153v-451q0 -79 -60.5 -126.5t-163.5 -63.5z" />
<glyph horiz-adv-x="548" d="M367 0l-135 199l-20 -5v-194h-153v510h153v-194l30 9l123 185h170l-175 -241l192 -269h-185z" />
<glyph horiz-adv-x="432" d="M59 0v510h153v-388h216v-122h-369z" />
<glyph horiz-adv-x="746" d="M59 0v510h179l68 -176l73 -208l74 213l67 172h167v-511h-143v267l-40 -129l-49 -138h-161l-50 135l-54 153v-288h-131z" />
<glyph horiz-adv-x="635" d="M59 0v510h159l122 -161l93 -131l-1 132v160h144v-510h-150l-125 166l-97 138v-304h-145z" />
<glyph horiz-adv-x="610" d="M303 -8q-125 0 -202 67.5t-77 190.5q0 118 74.5 192.5t203.5 74.5q130 0 207 -62.5t77 -199.5q0 -115 -75.5 -189t-207.5 -74zM303 113q63 0 92 32.5t29 109.5q0 80 -28.5 110.5t-93.5 30.5q-60 0 -88 -33t-28 -113q0 -69 28 -103t89 -34z" />
<glyph horiz-adv-x="503" d="M59 0v510h217q111 0 163.5 -49t52.5 -130q0 -85 -58.5 -136t-168.5 -51h-53v-144h-153zM212 265h51q35 0 51.5 15t16.5 49q0 28 -14.5 44t-56.5 16h-48v-124z" />
<glyph horiz-adv-x="613" d="M303 -8q-125 0 -202 67.5t-77 190.5q0 118 74 192.5t204 74.5t207 -62.5t77 -199.5q0 -73 -32 -131.5t-92 -92.5l133 -124l-127 -72l-128 159q-24 -2 -37 -2zM303 112q63 0 92.5 33t29.5 110q0 80 -29 111t-94 31q-60 0 -88 -33.5t-28 -113.5q0 -138 117 -138z" />
<glyph horiz-adv-x="543" d="M59 0v510h213q112 0 164 -47t52 -127q0 -102 -80 -149l126 -187h-176l-94 154h-52v-154h-153zM212 264h46q69 0 69 67q0 29 -16 43.5t-55 14.5h-44v-125z" />
<glyph horiz-adv-x="467" d="M216 -8q-108 0 -196 51l51 127q27 -23 72 -40t85 -17q53 0 53 25q0 19 -22 32.5t-67 31.5q-31 13 -45 19.5t-40.5 22t-39 30t-23 38.5t-10.5 52q0 67 56 110t146 43q96 0 187 -45l-43 -129q-21 23 -59.5 38t-78.5 15q-46 0 -46 -24q0 -13 18.5 -23t56.5 -24 q31 -12 48 -18.5t44.5 -22.5t42 -33t26 -44t11.5 -60q0 -73 -63.5 -114t-163.5 -41z" />
<glyph horiz-adv-x="486" d="M167 0v389h-161v121h474v-121h-161v-389h-152z" />
<glyph horiz-adv-x="602" d="M297 -8q-45 0 -84 7.5t-77.5 26.5t-61 58t-22.5 95v331h153v-309q0 -51 23.5 -70t74.5 -19q99 0 99 88v310h148v-332q0 -44 -17 -78t-43 -54t-61 -32.5t-67 -17t-65 -4.5z" />
<glyph horiz-adv-x="513" d="M170 0l-180 510h161l69 -215l41 -161l37 161l62 215h161l-177 -510h-174z" />
<glyph horiz-adv-x="769" d="M132 0l-120 510h158l41 -217l24 -146l24 145l43 210h178l44 -203l26 -151l23 153l33 209h149l-115 -510h-193l-26 149l-35 191l-36 -192l-25 -148h-193z" />
<glyph horiz-adv-x="530" d="M0 0l179 263q-43 65 -167 247h179l80 -141l81 141h160l-163 -242q182 -264 185 -268h-178l-97 162l-98 -162h-161z" />
<glyph horiz-adv-x="481" d="M166 0v197q-37 62 -184 313h168l56 -108l42 -85l40 86l51 107h157l-177 -310v-200h-153z" />
<glyph horiz-adv-x="493" d="M25 0v95l154 189l89 105h-226v121h414v-102l-137 -167l-102 -120h245v-121h-437z" />
<glyph horiz-adv-x="772" d="M-17 0l316 510h438v-121h-239v-70h206v-120h-206v-77h238v-122h-391v105h-144l-57 -105h-161zM254 212h91v175z" />
<glyph horiz-adv-x="786" d="M302 -8q-125 0 -202 67.5t-77 190.5q0 117 76 192t202 75q35 0 81 -7h367v-121h-238v-70h215v-120h-215v-77h238v-122h-371q-38 -8 -76 -8zM302 112q32 0 56 9v268q-26 8 -57 8q-60 0 -88 -33.5t-28 -113.5q0 -138 117 -138z" />
<glyph horiz-adv-x="597" d="M59 0v210h-42v107h42v193h214q297 0 297 -245q0 -60 -13 -105t-45 -83t-92 -57.5t-146 -19.5h-215zM212 121h69q73 0 100 31.5t27 94.5q0 72 -29.5 107t-109.5 35h-57v-72h72v-107h-72v-89z" />
<glyph horiz-adv-x="540" d="M151 0h-159l196 510h163l198 -510h-164l-35 100h-167zM296 257l-32 107l-31 -105l-16 -53h95zM407 645l-166 -107l-52 61l142 142z" />
<glyph horiz-adv-x="540" d="M151 0h-159l196 510h163l198 -510h-164l-35 100h-167zM296 257l-32 107l-31 -105l-16 -53h95zM311 692h97q0 -68 -38 -102.5t-106 -34.5q-67 0 -105.5 35.5t-38.5 101.5h97q3 -51 50 -51q44 0 44 51z" />
<glyph horiz-adv-x="540" d="M151 0h-159l196 510h163l198 -510h-164l-35 100h-167zM296 257l-32 107l-31 -105l-16 -53h95zM304 725l128 -127l-70 -64l-95 82l-104 -82l-65 63l139 128h67z" />
<glyph horiz-adv-x="540" d="M151 0h-159l196 510h163l198 -510h-164l-35 100h-167zM296 257l-32 107l-31 -105l-16 -53h95zM93 619q0 31 22.5 53.5t53.5 22.5t53.5 -22.5t22.5 -53.5t-22.5 -53.5t-53.5 -22.5t-53.5 22.5t-22.5 53.5zM285 619q0 31 22.5 53.5t53.5 22.5t53.5 -22.5t22.5 -53.5 t-22.5 -53.5t-53.5 -22.5t-53.5 22.5t-22.5 53.5z" />
<glyph horiz-adv-x="540" d="M151 0h-159l196 510h163l198 -510h-164l-35 100h-167zM296 257l-32 107l-31 -105l-16 -53h95zM283 538l-166 107l76 96l142 -142z" />
<glyph horiz-adv-x="540" d="M151 0h-159l196 510h163l198 -510h-164l-35 100h-167zM296 257l-32 107l-31 -105l-16 -53h95zM127 582v94h277v-94h-277z" />
<glyph horiz-adv-x="540" d="M151 0h-159l196 510h163l198 -510h-50q-43 -43 -43 -91q0 -25 13.5 -39.5t33.5 -14.5q24 0 45 17l22 -70q-44 -30 -102 -30q-53 0 -89 28t-36 82q0 72 65 118h-23l-35 100h-167zM296 257l-32 107l-31 -105l-16 -53h95z" />
<glyph horiz-adv-x="540" d="M151 0h-159l196 510h163l198 -510h-164l-35 100h-167zM296 257l-32 107l-31 -105l-16 -53h95zM264 542q-53 0 -83 29t-30 76q0 50 34 77t81 27q48 0 79.5 -26t31.5 -78q0 -44 -30 -74.5t-83 -30.5zM264 610q19 0 26.5 9t7.5 28q0 36 -34 36q-19 0 -26.5 -8t-7.5 -28 q0 -37 34 -37z" />
<glyph horiz-adv-x="540" d="M151 0h-159l196 510h163l198 -510h-164l-35 100h-167zM296 257l-32 107l-31 -105l-16 -53h95zM132 571l-47 46q46 84 115 84q22 0 65.5 -13.5t64.5 -13.5q36 0 61 30l48 -53q-19 -37 -53 -60.5t-67 -23.5q-19 0 -61 15.5t-65 15.5q-34 0 -61 -27z" />
<glyph horiz-adv-x="520" d="M294 -8q-132 0 -201 67.5t-69 193.5q0 122 81 193t207 71q102 0 186 -47l-51 -124q-72 50 -142 50q-53 0 -86 -36t-33 -104q0 -70 31.5 -107t90.5 -37q68 0 152 52l41 -123q-98 -49 -207 -49zM416 645l-166 -107l-52 61l142 142z" />
<glyph horiz-adv-x="520" d="M294 -8q-132 0 -201 67.5t-69 193.5q0 122 81 193t207 71q102 0 186 -47l-51 -124q-72 50 -142 50q-53 0 -86 -36t-33 -104q0 -70 31.5 -107t90.5 -37q68 0 152 52l41 -123q-98 -49 -207 -49zM262 534l-134 127l70 64l97 -83l102 83l65 -63l-133 -128h-67z" />
<glyph horiz-adv-x="520" d="M186 -213l24 73q25 -23 54 -23q35 0 35 27q0 34 -67 35l22 95q-112 10 -171 76.5t-59 182.5q0 122 81 193t207 71q102 0 186 -47l-51 -124q-72 50 -142 50q-53 0 -86 -36t-33 -104q0 -70 31.5 -107t90.5 -37q68 0 152 52l41 -123q-88 -43 -180 -48l-10 -45q45 -8 69 -32 t24 -60q0 -46 -37.5 -67.5t-86.5 -21.5q-56 0 -94 20z" />
<glyph horiz-adv-x="520" d="M294 -8q-132 0 -201 67.5t-69 193.5q0 122 81 193t207 71q102 0 186 -47l-51 -124q-72 50 -142 50q-53 0 -86 -36t-33 -104q0 -70 31.5 -107t90.5 -37q68 0 152 52l41 -123q-98 -49 -207 -49zM344 725l128 -127l-70 -64l-95 82l-104 -82l-65 63l139 128h67z" />
<glyph horiz-adv-x="520" d="M294 -8q-132 0 -201 67.5t-69 193.5q0 122 81 193t207 71q102 0 186 -47l-51 -124q-72 50 -142 50q-53 0 -86 -36t-33 -104q0 -70 31.5 -107t90.5 -37q68 0 152 52l41 -123q-98 -49 -207 -49zM214 625q0 34 24.5 58.5t58.5 24.5t58.5 -24.5t24.5 -58.5t-24.5 -58.5 t-58.5 -24.5q-35 0 -59 24t-24 59z" />
<glyph horiz-adv-x="597" d="M59 0v510h214q297 0 297 -245q0 -60 -13 -105t-45 -83t-92 -57.5t-146 -19.5h-215zM212 121h69q73 0 100 31.5t27 94.5q0 72 -29.5 107t-109.5 35h-57v-268zM231 534l-134 127l70 64l97 -83l102 83l65 -63l-133 -128h-67z" />
<glyph horiz-adv-x="597" d="M59 0v210h-42v107h42v193h214q297 0 297 -245q0 -60 -13 -105t-45 -83t-92 -57.5t-146 -19.5h-215zM212 121h69q73 0 100 31.5t27 94.5q0 72 -29.5 107t-109.5 35h-57v-72h72v-107h-72v-89z" />
<glyph horiz-adv-x="486" d="M59 0v510h391v-121h-238v-70h205v-120h-205v-77h238v-122h-391zM374 645l-166 -107l-52 61l142 142z" />
<glyph horiz-adv-x="486" d="M59 0v510h391v-121h-238v-70h205v-120h-205v-77h238v-122h-391zM307 692h97q0 -68 -38 -102.5t-106 -34.5q-67 0 -105.5 35.5t-38.5 101.5h97q3 -51 50 -51q44 0 44 51z" />
<glyph horiz-adv-x="486" d="M59 0v510h391v-121h-238v-70h205v-120h-205v-77h238v-122h-391zM233 534l-134 127l70 64l97 -83l102 83l65 -63l-133 -128h-67z" />
<glyph horiz-adv-x="486" d="M59 0v510h391v-121h-238v-70h205v-120h-205v-77h238v-122h-391zM303 725l128 -127l-70 -64l-95 82l-104 -82l-65 63l139 128h67z" />
<glyph horiz-adv-x="486" d="M59 0v510h391v-121h-238v-70h205v-120h-205v-77h238v-122h-391zM88 619q0 31 22 53.5t54 22.5t54 -22.5t22 -53.5t-22 -53.5t-54 -22.5t-54 22.5t-22 53.5zM280 619q0 31 22 53.5t54 22.5t54 -22.5t22 -53.5t-22 -53.5t-54 -22.5t-54 22.5t-22 53.5z" />
<glyph horiz-adv-x="486" d="M59 0v510h391v-121h-238v-70h205v-120h-205v-77h238v-122h-391zM180 625q0 34 24.5 58.5t58.5 24.5t58.5 -24.5t24.5 -58.5t-24.5 -58.5t-58.5 -24.5q-35 0 -59 24t-24 59z" />
<glyph horiz-adv-x="486" d="M59 0v510h391v-121h-238v-70h205v-120h-205v-77h238v-122h-391zM288 538l-166 107l76 96l142 -142z" />
<glyph horiz-adv-x="486" d="M59 0v510h391v-121h-238v-70h205v-120h-205v-77h238v-122h-391zM123 582v94h277v-94h-277z" />
<glyph horiz-adv-x="486" d="M59 0v510h391v-121h-238v-70h205v-120h-205v-77h238v-122h-58q-43 -43 -43 -91q0 -25 13.5 -39.5t33.5 -14.5q24 0 45 17l22 -70q-44 -30 -102 -30q-53 0 -89 28t-36 82q0 72 65 118h-242z" />
<glyph horiz-adv-x="486" d="M59 0v510h391v-121h-238v-70h205v-120h-205v-77h238v-122h-391zM130 571l-47 46q46 84 115 84q22 0 65.5 -13.5t64.5 -13.5q36 0 61 30l48 -53q-19 -37 -53 -60.5t-67 -23.5q-19 0 -61 15.5t-65 15.5q-34 0 -61 -27z" />
<glyph horiz-adv-x="542" d="M294 -8q-130 0 -200 69t-70 195q0 127 84.5 194t213.5 67q89 0 187 -46l-55 -130q-77 55 -138 55q-60 0 -95 -33t-35 -105q0 -76 37 -111t99 -35q16 0 34 3v149h150v-222q-103 -50 -212 -50zM344 692h97q0 -68 -38 -102.5t-106 -34.5q-67 0 -105.5 35.5t-38.5 101.5h97 q3 -51 50 -51q44 0 44 51z" />
<glyph horiz-adv-x="542" d="M294 -8q-130 0 -200 69t-70 195q0 127 84.5 194t213.5 67q89 0 187 -46l-55 -130q-77 55 -138 55q-60 0 -95 -33t-35 -105q0 -76 37 -111t99 -35q16 0 34 3v149h150v-222q-103 -50 -212 -50zM338 725l128 -127l-70 -64l-95 82l-104 -82l-65 63l139 128h67z" />
<glyph horiz-adv-x="542" d="M294 -8q-130 0 -200 69t-70 195q0 127 84.5 194t213.5 67q89 0 187 -46l-55 -130q-77 55 -138 55q-60 0 -95 -33t-35 -105q0 -76 37 -111t99 -35q16 0 34 3v149h150v-222q-103 -50 -212 -50zM251 -55h119q0 -57 -24.5 -118.5t-60.5 -109.5l-83 26q49 85 49 202z" />
<glyph horiz-adv-x="542" d="M294 -8q-130 0 -200 69t-70 195q0 127 84.5 194t213.5 67q89 0 187 -46l-55 -130q-77 55 -138 55q-60 0 -95 -33t-35 -105q0 -76 37 -111t99 -35q16 0 34 3v149h150v-222q-103 -50 -212 -50zM222 625q0 34 24.5 58.5t58.5 24.5t58.5 -24.5t24.5 -58.5t-24.5 -58.5 t-58.5 -24.5q-35 0 -59 24t-24 59z" />
<glyph horiz-adv-x="603" d="M15 370v98h44v42h153v-42h179v42h153v-42h47v-98h-47v-370h-153v192h-179v-192h-153v370h-44zM212 319h179v51h-179v-51z" />
<glyph horiz-adv-x="603" d="M59 0v510h153v-191h179v191h153v-510h-153v192h-179v-192h-153zM341 725l128 -127l-70 -64l-95 82l-104 -82l-65 63l139 128h67z" />
<glyph d="M212 0h-153v510h153v-510zM254 645l-166 -107l-52 61l142 142z" />
<glyph d="M212 0h-153v510h153v-510zM174 692h97q0 -68 -38 -102.5t-106 -34.5q-67 0 -105.5 35.5t-38.5 101.5h97q3 -51 50 -51q44 0 44 51z" />
<glyph d="M212 0h-153v510h153v-510zM171 725l128 -127l-70 -64l-95 82l-104 -82l-65 63l139 128h67z" />
<glyph d="M212 0h-153v510h153v-510zM-36 619q0 31 22 53.5t54 22.5t54 -22.5t22 -53.5t-22 -53.5t-54 -22.5t-54 22.5t-22 53.5zM156 619q0 31 22 53.5t54 22.5t54 -22.5t22 -53.5t-22 -53.5t-54 -22.5t-54 22.5t-22 53.5z" />
<glyph d="M212 0h-153v510h153v-510zM51 625q0 34 24.5 58.5t58.5 24.5t58.5 -24.5t24.5 -58.5t-24.5 -58.5t-58.5 -24.5t-58.5 24t-24.5 59z" />
<glyph d="M212 0h-153v510h153v-510zM140 538l-166 107l76 96l142 -142z" />
<glyph d="M212 0h-153v510h153v-510zM-4 582v94h277v-94h-277z" />
<glyph d="M87 0h-28v510h153v-510h-34q-43 -43 -43 -91q0 -25 13.5 -39.5t33.5 -14.5q24 0 45 17l22 -70q-44 -30 -102 -30q-53 0 -89 28t-36 82q0 72 65 118z" />
<glyph d="M212 0h-153v510h153v-510zM2 577l-47 46q46 84 115 84q22 0 65.5 -13.5t64.5 -13.5q36 0 61 30l48 -53q-19 -37 -53 -60.5t-67 -23.5q-19 0 -61 15.5t-65 15.5q-34 0 -61 -27z" />
<glyph horiz-adv-x="552" d="M212 0h-153v510h153v-510zM270 -131l-45 126q29 5 45 9t35 13t27.5 23.5t8.5 35.5v434h153v-451q0 -79 -60.5 -126.5t-163.5 -63.5z" />
<glyph horiz-adv-x="552" d="M212 0h-153v510h153v-510zM270 -131l-45 126q29 5 45 9t35 13t27.5 23.5t8.5 35.5v434h153v-451q0 -79 -60.5 -126.5t-163.5 -63.5zM276 645l-166 -107l-52 61l142 142zM550 645l-166 -107l-52 61l142 142z" />
<glyph horiz-adv-x="295" d="M13 -131l-45 126q29 5 45 9t35 13t27.5 23.5t8.5 35.5v434h153v-451q0 -79 -60.5 -126.5t-163.5 -63.5zM197 725l128 -127l-70 -64l-95 82l-104 -82l-65 63l139 128h67z" />
<glyph horiz-adv-x="548" d="M367 0l-135 199l-20 -5v-194h-153v510h153v-194l30 9l123 185h170l-175 -241l192 -269h-185zM224 -55h119q0 -57 -24.5 -118.5t-60.5 -109.5l-83 26q49 85 49 202z" />
<glyph horiz-adv-x="432" d="M59 0v510h153v-388h216v-122h-369zM256 645l-166 -107l-52 61l142 142z" />
<glyph horiz-adv-x="432" d="M59 0v510h153v-388h216v-122h-369zM270 325l15 186h122l-49 -186h-88z" />
<glyph horiz-adv-x="432" d="M59 0v510h153v-388h216v-122h-369zM198 -55h119q0 -57 -24.5 -118.5t-60.5 -109.5l-83 26q49 85 49 202z" />
<glyph horiz-adv-x="432" d="M281 273q0 32 23 55t55 23t55 -23t23 -55t-23 -55t-55 -23t-55 23t-23 55zM59 0v510h153v-388h216v-122h-369z" />
<glyph horiz-adv-x="454" d="M81 0v147l-26 -14l-44 86l70 37v254h153v-172l63 34l45 -87l-108 -57v-106h216v-122h-369z" />
<glyph horiz-adv-x="635" d="M59 0v510h159l122 -161l93 -131l-1 132v160h144v-510h-150l-125 166l-97 138v-304h-145zM459 645l-166 -107l-52 61l142 142z" />
<glyph horiz-adv-x="635" d="M59 0v510h159l122 -161l93 -131l-1 132v160h144v-510h-150l-125 166l-97 138v-304h-145zM109 770h119q0 -57 -26 -119t-64 -110l-82 26q53 86 53 203z" />
<glyph horiz-adv-x="635" d="M59 0v510h159l122 -161l93 -131l-1 132v160h144v-510h-150l-125 166l-97 138v-304h-145zM289 534l-134 127l70 64l97 -83l102 83l65 -63l-133 -128h-67z" />
<glyph horiz-adv-x="635" d="M59 0v510h159l122 -161l93 -131l-1 132v160h144v-510h-150l-125 166l-97 138v-304h-145zM263 -55h119q0 -57 -24.5 -118.5t-60.5 -109.5l-83 26q49 85 49 202z" />
<glyph horiz-adv-x="635" d="M59 0v510h159l122 -161l93 -131l-1 132v160h144v-510h-150l-125 166l-97 138v-304h-145zM192 571l-47 46q46 84 115 84q22 0 65.5 -13.5t64.5 -13.5q36 0 61 30l48 -53q-19 -37 -53 -60.5t-67 -23.5q-19 0 -61 15.5t-65 15.5q-34 0 -61 -27z" />
<glyph horiz-adv-x="635" d="M59 0v510h159l122 -161l93 -131l-1 132v160h144v-510h-150l-125 166l-97 138v-304h-145zM239 -169q0 34 24.5 58.5t58.5 24.5t58.5 -24.5t24.5 -58.5t-24.5 -58.5t-58.5 -24.5t-58.5 24t-24.5 59z" />
<glyph horiz-adv-x="635" d="M352 -235l-45 126q39 7 59.5 13t39.5 23.5t19 45.5v28l-124 165l-97 138v-304h-145v510h159l122 -161l93 -131l-1 132v160h144v-555q0 -79 -60.5 -126.5t-163.5 -63.5z" />
<glyph horiz-adv-x="610" d="M303 -8q-125 0 -202 67.5t-77 190.5q0 118 74.5 192.5t203.5 74.5q130 0 207 -62.5t77 -199.5q0 -115 -75.5 -189t-207.5 -74zM303 113q63 0 92 32.5t29 109.5q0 80 -28.5 110.5t-93.5 30.5q-60 0 -88 -33t-28 -113q0 -69 28 -103t89 -34zM450 645l-166 -107l-52 61 l142 142z" />
<glyph horiz-adv-x="610" d="M303 -8q-125 0 -202 67.5t-77 190.5q0 118 74.5 192.5t203.5 74.5q130 0 207 -62.5t77 -199.5q0 -115 -75.5 -189t-207.5 -74zM303 113q63 0 92 32.5t29 109.5q0 80 -28.5 110.5t-93.5 30.5q-60 0 -88 -33t-28 -113q0 -69 28 -103t89 -34zM345 692h97q0 -68 -38 -102.5 t-106 -34.5q-67 0 -105.5 35.5t-38.5 101.5h97q3 -51 50 -51q44 0 44 51z" />
<glyph horiz-adv-x="610" d="M303 -8q-125 0 -202 67.5t-77 190.5q0 118 74.5 192.5t203.5 74.5q130 0 207 -62.5t77 -199.5q0 -115 -75.5 -189t-207.5 -74zM303 113q63 0 92 32.5t29 109.5q0 80 -28.5 110.5t-93.5 30.5q-60 0 -88 -33t-28 -113q0 -69 28 -103t89 -34zM337 725l128 -127l-70 -64 l-95 82l-104 -82l-65 63l139 128h67z" />
<glyph horiz-adv-x="610" d="M303 -8q-125 0 -202 67.5t-77 190.5q0 118 74.5 192.5t203.5 74.5q130 0 207 -62.5t77 -199.5q0 -115 -75.5 -189t-207.5 -74zM303 113q63 0 92 32.5t29 109.5q0 80 -28.5 110.5t-93.5 30.5q-60 0 -88 -33t-28 -113q0 -69 28 -103t89 -34zM132 619q0 31 22 53.5t54 22.5 t54 -22.5t22 -53.5t-22 -53.5t-54 -22.5t-54 22.5t-22 53.5zM324 619q0 31 22 53.5t54 22.5t54 -22.5t22 -53.5t-22 -53.5t-54 -22.5t-54 22.5t-22 53.5z" />
<glyph horiz-adv-x="610" d="M303 -8q-125 0 -202 67.5t-77 190.5q0 118 74.5 192.5t203.5 74.5q130 0 207 -62.5t77 -199.5q0 -115 -75.5 -189t-207.5 -74zM303 113q63 0 92 32.5t29 109.5q0 80 -28.5 110.5t-93.5 30.5q-60 0 -88 -33t-28 -113q0 -69 28 -103t89 -34zM325 538l-166 107l76 96 l142 -142z" />
<glyph horiz-adv-x="610" d="M303 -8q-125 0 -202 67.5t-77 190.5q0 118 74.5 192.5t203.5 74.5q130 0 207 -62.5t77 -199.5q0 -115 -75.5 -189t-207.5 -74zM303 113q63 0 92 32.5t29 109.5q0 80 -28.5 110.5t-93.5 30.5q-60 0 -88 -33t-28 -113q0 -69 28 -103t89 -34zM169 571l-47 46q46 84 115 84 q22 0 65.5 -13.5t64.5 -13.5q36 0 61 30l48 -53q-19 -37 -53 -60.5t-67 -23.5q-19 0 -61 15.5t-65 15.5q-34 0 -61 -27z" />
<glyph horiz-adv-x="610" d="M303 -8q-125 0 -202 67.5t-77 190.5q0 118 74.5 192.5t203.5 74.5q130 0 207 -62.5t77 -199.5q0 -115 -75.5 -189t-207.5 -74zM303 113q63 0 92 32.5t29 109.5q0 80 -28.5 110.5t-93.5 30.5q-60 0 -88 -33t-28 -113q0 -69 28 -103t89 -34zM355 673l-146 -130l-58 51 l119 160zM531 645l-166 -107l-52 61l142 142z" />
<glyph horiz-adv-x="610" d="M303 -8q-81 0 -144 29l-28 -31h-123l76 86q-60 68 -60 174q0 118 74.5 192.5t203.5 74.5q86 0 148 -26l23 26h127l-72 -81q58 -68 58 -181q0 -115 -75.5 -189t-207.5 -74zM303 113q63 0 92 32.5t29 109.5q0 31 -5 58l-171 -191q22 -9 55 -9zM186 250q0 -33 5 -52l168 190 q-21 8 -57 8q-60 0 -88 -33t-28 -113z" />
<glyph horiz-adv-x="610" d="M303 -8q-81 0 -144 29l-28 -31h-123l76 86q-60 68 -60 174q0 118 74.5 192.5t203.5 74.5q86 0 148 -26l23 26h127l-72 -81q58 -68 58 -181q0 -115 -75.5 -189t-207.5 -74zM438 645l-166 -107l-52 61l142 142zM303 113q63 0 92 32.5t29 109.5q0 31 -5 58l-171 -191 q22 -9 55 -9zM186 250q0 -33 5 -52l168 190q-21 8 -57 8q-60 0 -88 -33t-28 -113z" />
<glyph horiz-adv-x="610" d="M303 -8q-125 0 -202 67.5t-77 190.5q0 118 74.5 192.5t203.5 74.5q130 0 207 -62.5t77 -199.5q0 -115 -75.5 -189t-207.5 -74zM303 113q63 0 92 32.5t29 109.5q0 80 -28.5 110.5t-93.5 30.5q-60 0 -88 -33t-28 -113q0 -69 28 -103t89 -34zM174 582v94h277v-94h-277z" />
<glyph horiz-adv-x="543" d="M59 0v510h213q112 0 164 -47t52 -127q0 -102 -80 -149l126 -187h-176l-94 154h-52v-154h-153zM212 264h46q69 0 69 67q0 29 -16 43.5t-55 14.5h-44v-125zM394 645l-166 -107l-52 61l142 142z" />
<glyph horiz-adv-x="543" d="M59 0v510h213q112 0 164 -47t52 -127q0 -102 -80 -149l126 -187h-176l-94 154h-52v-154h-153zM212 264h46q69 0 69 67q0 29 -16 43.5t-55 14.5h-44v-125zM218 534l-134 127l70 64l97 -83l102 83l65 -63l-133 -128h-67z" />
<glyph horiz-adv-x="543" d="M59 0v510h213q112 0 164 -47t52 -127q0 -102 -80 -149l126 -187h-176l-94 154h-52v-154h-153zM212 264h46q69 0 69 67q0 29 -16 43.5t-55 14.5h-44v-125zM225 -55h119q0 -57 -24.5 -118.5t-60.5 -109.5l-83 26q49 85 49 202z" />
<glyph horiz-adv-x="467" d="M216 -8q-108 0 -196 51l51 127q27 -23 72 -40t85 -17q53 0 53 25q0 19 -22 32.5t-67 31.5q-31 13 -45 19.5t-40.5 22t-39 30t-23 38.5t-10.5 52q0 67 56 110t146 43q96 0 187 -45l-43 -129q-21 23 -59.5 38t-78.5 15q-46 0 -46 -24q0 -13 18.5 -23t56.5 -24 q31 -12 48 -18.5t44.5 -22.5t42 -33t26 -44t11.5 -60q0 -73 -63.5 -114t-163.5 -41zM370 645l-166 -107l-52 61l142 142z" />
<glyph horiz-adv-x="467" d="M216 -8q-108 0 -196 51l51 127q27 -23 72 -40t85 -17q53 0 53 25q0 19 -22 32.5t-67 31.5q-31 13 -45 19.5t-40.5 22t-39 30t-23 38.5t-10.5 52q0 67 56 110t146 43q96 0 187 -45l-43 -129q-21 23 -59.5 38t-78.5 15q-46 0 -46 -24q0 -13 18.5 -23t56.5 -24 q31 -12 48 -18.5t44.5 -22.5t42 -33t26 -44t11.5 -60q0 -73 -63.5 -114t-163.5 -41zM197 534l-134 127l70 64l97 -83l102 83l65 -63l-133 -128h-67z" />
<glyph horiz-adv-x="467" d="M119 -213l24 73q25 -23 54 -23q35 0 35 27q0 34 -67 35l21 94q-90 6 -166 50l51 127q27 -23 72 -40t85 -17q53 0 53 25q0 19 -22 32.5t-67 31.5q-31 13 -45 19.5t-40.5 22t-39 30t-23 38.5t-10.5 52q0 67 56 110t146 43q96 0 187 -45l-43 -129q-21 23 -59.5 38t-78.5 15 q-46 0 -46 -24q0 -13 18.5 -23t56.5 -24q31 -12 48 -18.5t44.5 -22.5t42 -33t26 -44t11.5 -60q0 -66 -52 -106t-137 -47l-10 -46q45 -8 69 -32t24 -60q0 -46 -37.5 -67.5t-86.5 -21.5q-56 0 -94 20z" />
<glyph horiz-adv-x="467" d="M216 -8q-108 0 -196 51l51 127q27 -23 72 -40t85 -17q53 0 53 25q0 19 -22 32.5t-67 31.5q-31 13 -45 19.5t-40.5 22t-39 30t-23 38.5t-10.5 52q0 67 56 110t146 43q96 0 187 -45l-43 -129q-21 23 -59.5 38t-78.5 15q-46 0 -46 -24q0 -13 18.5 -23t56.5 -24 q31 -12 48 -18.5t44.5 -22.5t42 -33t26 -44t11.5 -60q0 -73 -63.5 -114t-163.5 -41zM268 725l128 -127l-70 -64l-95 82l-104 -82l-65 63l139 128h67z" />
<glyph horiz-adv-x="467" d="M216 -8q-108 0 -196 51l51 127q27 -23 72 -40t85 -17q53 0 53 25q0 19 -22 32.5t-67 31.5q-31 13 -45 19.5t-40.5 22t-39 30t-23 38.5t-10.5 52q0 67 56 110t146 43q96 0 187 -45l-43 -129q-21 23 -59.5 38t-78.5 15q-46 0 -46 -24q0 -13 18.5 -23t56.5 -24 q31 -12 48 -18.5t44.5 -22.5t42 -33t26 -44t11.5 -60q0 -73 -63.5 -114t-163.5 -41zM173 -55h119q0 -57 -24.5 -118.5t-60.5 -109.5l-83 26q49 85 49 202z" />
<glyph horiz-adv-x="467" d="M216 -8q-108 0 -196 51l51 127q27 -23 72 -40t85 -17q53 0 53 25q0 19 -22 32.5t-67 31.5q-31 13 -45 19.5t-40.5 22t-39 30t-23 38.5t-10.5 52q0 67 56 110t146 43q96 0 187 -45l-43 -129q-21 23 -59.5 38t-78.5 15q-46 0 -46 -24q0 -13 18.5 -23t56.5 -24 q31 -12 48 -18.5t44.5 -22.5t42 -33t26 -44t11.5 -60q0 -73 -63.5 -114t-163.5 -41zM148 625q0 34 24.5 58.5t58.5 24.5t58.5 -24.5t24.5 -58.5t-24.5 -58.5t-58.5 -24.5q-35 0 -59 24t-24 59z" />
<glyph horiz-adv-x="486" d="M76 184v103h91v102h-161v121h474v-121h-161v-102h91v-103h-91v-184h-152v184h-91z" />
<glyph horiz-adv-x="486" d="M167 0v389h-161v121h474v-121h-161v-389h-152zM201 534l-134 127l70 64l97 -83l102 83l65 -63l-133 -128h-67z" />
<glyph horiz-adv-x="486" d="M167 0v389h-161v121h474v-121h-161v-389h-152zM182 -55h119q0 -57 -24.5 -118.5t-60.5 -109.5l-83 26q49 85 49 202z" />
<glyph horiz-adv-x="486" d="M167 0v389h-161v121h474v-121h-161v-389h-152zM182 -55h119q0 -57 -24.5 -118.5t-60.5 -109.5l-83 26q49 85 49 202z" />
<glyph horiz-adv-x="517" d="M59 0v510h153v-60h64q111 0 163.5 -49t52.5 -130q0 -85 -58.5 -136t-168.5 -51h-53v-84h-153zM212 201h51q68 0 68 65q0 29 -14.5 46t-56.5 17h-48v-128z" />
<glyph horiz-adv-x="602" d="M297 -8q-45 0 -84 7.5t-77.5 26.5t-61 58t-22.5 95v331h153v-309q0 -51 23.5 -70t74.5 -19q99 0 99 88v310h148v-332q0 -44 -17 -78t-43 -54t-61 -32.5t-67 -17t-65 -4.5zM426 645l-166 -107l-52 61l142 142z" />
<glyph horiz-adv-x="602" d="M297 -8q-45 0 -84 7.5t-77.5 26.5t-61 58t-22.5 95v331h153v-309q0 -51 23.5 -70t74.5 -19q99 0 99 88v310h148v-332q0 -44 -17 -78t-43 -54t-61 -32.5t-67 -17t-65 -4.5zM344 692h97q0 -68 -38 -102.5t-106 -34.5q-67 0 -105.5 35.5t-38.5 101.5h97q3 -51 50 -51 q44 0 44 51z" />
<glyph horiz-adv-x="602" d="M297 -8q-45 0 -84 7.5t-77.5 26.5t-61 58t-22.5 95v331h153v-309q0 -51 23.5 -70t74.5 -19q99 0 99 88v310h148v-332q0 -44 -17 -78t-43 -54t-61 -32.5t-67 -17t-65 -4.5zM339 725l128 -127l-70 -64l-95 82l-104 -82l-65 63l139 128h67z" />
<glyph horiz-adv-x="602" d="M297 -8q-45 0 -84 7.5t-77.5 26.5t-61 58t-22.5 95v331h153v-309q0 -51 23.5 -70t74.5 -19q99 0 99 88v310h148v-332q0 -44 -17 -78t-43 -54t-61 -32.5t-67 -17t-65 -4.5zM135 619q0 31 22.5 53.5t53.5 22.5t53.5 -22.5t22.5 -53.5t-22.5 -53.5t-53.5 -22.5t-53.5 22.5 t-22.5 53.5zM327 619q0 31 22.5 53.5t53.5 22.5t53.5 -22.5t22.5 -53.5t-22.5 -53.5t-53.5 -22.5t-53.5 22.5t-22.5 53.5z" />
<glyph horiz-adv-x="602" d="M297 -8q-45 0 -84 7.5t-77.5 26.5t-61 58t-22.5 95v331h153v-309q0 -51 23.5 -70t74.5 -19q99 0 99 88v310h148v-332q0 -44 -17 -78t-43 -54t-61 -32.5t-67 -17t-65 -4.5zM331 538l-166 107l76 96l142 -142z" />
<glyph horiz-adv-x="602" d="M297 -8q-45 0 -84 7.5t-77.5 26.5t-61 58t-22.5 95v331h153v-309q0 -51 23.5 -70t74.5 -19q99 0 99 88v310h148v-332q0 -44 -17 -78t-43 -54t-61 -32.5t-67 -17t-65 -4.5zM344 673l-146 -130l-58 51l119 160zM520 645l-166 -107l-52 61l142 142z" />
<glyph horiz-adv-x="602" d="M297 -8q-45 0 -84 7.5t-77.5 26.5t-61 58t-22.5 95v331h153v-309q0 -51 23.5 -70t74.5 -19q99 0 99 88v310h148v-332q0 -44 -17 -78t-43 -54t-61 -32.5t-67 -17t-65 -4.5zM160 582v94h277v-94h-277z" />
<glyph horiz-adv-x="602" d="M304 -8h-7q-45 0 -84 7.5t-77.5 26.5t-61 58t-22.5 95v331h153v-309q0 -51 23.5 -70t74.5 -19q99 0 99 88v310h148v-332q0 -128 -136 -170q-52 -45 -52 -99q0 -25 13.5 -39.5t33.5 -14.5q24 0 45 17l22 -70q-44 -30 -102 -30q-53 0 -89 28t-36 82q0 65 55 110z" />
<glyph horiz-adv-x="602" d="M297 -8q-45 0 -84 7.5t-77.5 26.5t-61 58t-22.5 95v331h153v-309q0 -51 23.5 -70t74.5 -19q99 0 99 88v310h148v-332q0 -44 -17 -78t-43 -54t-61 -32.5t-67 -17t-65 -4.5zM303 542q-53 0 -83 29t-30 76q0 50 34 77t81 27q48 0 79.5 -26t31.5 -78q0 -44 -30 -74.5 t-83 -30.5zM303 610q19 0 26.5 9t7.5 28q0 36 -34 36q-19 0 -26.5 -8t-7.5 -28q0 -37 34 -37z" />
<glyph horiz-adv-x="602" d="M297 -8q-45 0 -84 7.5t-77.5 26.5t-61 58t-22.5 95v331h153v-309q0 -51 23.5 -70t74.5 -19q99 0 99 88v310h148v-332q0 -44 -17 -78t-43 -54t-61 -32.5t-67 -17t-65 -4.5zM166 571l-47 46q46 84 115 84q22 0 65.5 -13.5t64.5 -13.5q36 0 61 30l48 -53 q-20 -37 -53.5 -60.5t-66.5 -23.5q-19 0 -61 15.5t-65 15.5q-34 0 -61 -27z" />
<glyph horiz-adv-x="602" d="M297 -8q-45 0 -84 7.5t-77.5 26.5t-61 58t-22.5 95v331h153v-309q0 -51 23.5 -70t74.5 -19q99 0 99 88v310h148v-332q0 -44 -17 -78t-43 -54t-61 -32.5t-67 -17t-65 -4.5zM267 534l-134 127l70 64l97 -83l102 83l65 -63l-133 -128h-67z" />
<glyph horiz-adv-x="769" d="M132 0l-120 510h158l41 -217l24 -146l24 145l43 210h178l44 -203l26 -151l23 153l33 209h149l-115 -510h-193l-26 149l-35 191l-36 -192l-25 -148h-193zM520 645l-166 -107l-52 61l142 142z" />
<glyph horiz-adv-x="769" d="M132 0l-120 510h158l41 -217l24 -146l24 145l43 210h178l44 -203l26 -151l23 153l33 209h149l-115 -510h-193l-26 149l-35 191l-36 -192l-25 -148h-193zM425 725l128 -127l-70 -64l-95 82l-104 -82l-65 63l139 128h67z" />
<glyph horiz-adv-x="769" d="M132 0l-120 510h158l41 -217l24 -146l24 145l43 210h178l44 -203l26 -151l23 153l33 209h149l-115 -510h-193l-26 149l-35 191l-36 -192l-25 -148h-193zM208 619q0 31 22 53.5t54 22.5t54 -22.5t22 -53.5t-22 -53.5t-54 -22.5t-54 22.5t-22 53.5zM400 619q0 31 22 53.5 t54 22.5t54 -22.5t22 -53.5t-22 -53.5t-54 -22.5t-54 22.5t-22 53.5z" />
<glyph horiz-adv-x="769" d="M132 0l-120 510h158l41 -217l24 -146l24 145l43 210h178l44 -203l26 -151l23 153l33 209h149l-115 -510h-193l-26 149l-35 191l-36 -192l-25 -148h-193zM417 538l-166 107l76 96l142 -142z" />
<glyph horiz-adv-x="481" d="M166 0v197q-37 62 -184 313h168l56 -108l42 -85l40 86l51 107h157l-177 -310v-200h-153zM109 582v94h277v-94h-277z" />
<glyph horiz-adv-x="481" d="M166 0v197q-37 62 -184 313h168l56 -108l42 -85l40 86l51 107h157l-177 -310v-200h-153zM372 645l-166 -107l-52 61l142 142z" />
<glyph horiz-adv-x="481" d="M166 0v197q-37 62 -184 313h168l56 -108l42 -85l40 86l51 107h157l-177 -310v-200h-153zM282 725l128 -127l-70 -64l-95 82l-104 -82l-65 63l139 128h67z" />
<glyph horiz-adv-x="481" d="M166 0v197q-37 62 -184 313h168l56 -108l42 -85l40 86l51 107h157l-177 -310v-200h-153zM71 619q0 31 22.5 53.5t53.5 22.5t53.5 -22.5t22.5 -53.5t-22.5 -53.5t-53.5 -22.5t-53.5 22.5t-22.5 53.5zM263 619q0 31 22.5 53.5t53.5 22.5t53.5 -22.5t22.5 -53.5t-22.5 -53.5 t-53.5 -22.5t-53.5 22.5t-22.5 53.5z" />
<glyph horiz-adv-x="481" d="M166 0v197q-37 62 -184 313h168l56 -108l42 -85l40 86l51 107h157l-177 -310v-200h-153zM274 538l-166 107l76 96l142 -142z" />
<glyph horiz-adv-x="493" d="M25 0v95l154 189l89 105h-226v121h414v-102l-137 -167l-102 -120h245v-121h-437zM379 645l-166 -107l-52 61l142 142z" />
<glyph horiz-adv-x="493" d="M25 0v95l154 189l89 105h-226v121h414v-102l-137 -167l-102 -120h245v-121h-437zM218 534l-134 127l70 64l97 -83l102 83l65 -63l-133 -128h-67z" />
<glyph horiz-adv-x="493" d="M25 0v95l154 189l89 105h-226v121h414v-102l-137 -167l-102 -120h245v-121h-437zM175 625q0 34 24.5 58.5t58.5 24.5t58.5 -24.5t24.5 -58.5t-24.5 -58.5t-58.5 -24.5t-58.5 24t-24.5 59z" />
<glyph horiz-adv-x="772" d="M-17 0l316 510h438v-121h-239v-70h206v-120h-206v-77h238v-122h-391v105h-144l-57 -105h-161zM254 212h91v175zM658 645l-166 -107l-52 61l142 142z" />
<glyph horiz-adv-x="772" d="M-17 0l316 510h438v-121h-239v-70h206v-120h-206v-77h238v-122h-391v105h-144l-57 -105h-161zM254 212h91v175zM395 582v94h277v-94h-277z" />
<glyph horiz-adv-x="964" d="M216 -8q-108 0 -196 51l51 127q27 -23 72 -40t85 -17q53 0 53 25q0 19 -22 32.5t-67 31.5q-31 13 -45 19.5t-40.5 22t-39 30t-23 38.5t-10.5 52q0 67 56 110t146 43q96 0 187 -45l-43 -129q-21 23 -59.5 38t-78.5 15q-46 0 -46 -24q0 -13 18.5 -23t56.5 -24 q31 -12 48 -18.5t44.5 -22.5t42 -33t26 -44t11.5 -60q0 -73 -63.5 -114t-163.5 -41zM713 -8q-108 0 -196 51l51 127q27 -23 72 -40t85 -17q53 0 53 25q0 19 -22 32.5t-67 31.5q-31 13 -45 19.5t-40.5 22t-39 30t-23 38.5t-10.5 52q0 67 56 110t146 43q96 0 187 -45l-43 -129 q-21 23 -59.5 38t-78.5 15q-46 0 -46 -24q0 -13 18.5 -23t56.5 -24q31 -12 48 -18.5t44.5 -22.5t42 -33t26 -44t11.5 -60q0 -73 -63.5 -114t-163.5 -41z" />
<glyph horiz-adv-x="584" d="M288 -8q-116 0 -188.5 63.5t-72.5 197.5q0 21 2 45h366q-9 55 -42.5 76.5t-98.5 21.5q-37 0 -91 -16.5t-89 -41.5l-47 118q125 61 247 61q59 0 107.5 -13t90 -41.5t65 -82t23.5 -128.5q0 -116 -80.5 -188t-191.5 -72zM290 112q94 0 103 95h-197q0 -41 23 -68t71 -27z" />
<glyph horiz-adv-x="1105" d="M637 0v95l154 189l89 105h-226v121h414v-102l-137 -167l-102 -120h245v-121h-437zM830 534l-134 127l70 64l97 -83l102 83l65 -63l-133 -128h-67zM59 0v510h214q297 0 297 -245q0 -60 -13 -105t-45 -83t-92 -57.5t-146 -19.5h-215zM212 121h69q73 0 100 31.5t27 94.5 q0 72 -29.5 107t-109.5 35h-57v-268z" />
<glyph horiz-adv-x="734" d="M59 0v510h153v-388h216v-122h-369zM452 -131l-45 126q29 5 45 9t35 13t27.5 23.5t8.5 35.5v434h153v-451q0 -79 -60.5 -126.5t-163.5 -63.5z" />
<glyph horiz-adv-x="922" d="M59 0v510h159l122 -161l93 -131l-1 132v160h144v-510h-150l-125 166l-97 138v-304h-145zM640 -131l-45 126q29 5 45 9t35 13t27.5 23.5t8.5 35.5v434h153v-451q0 -79 -60.5 -126.5t-163.5 -63.5z" />
<glyph horiz-adv-x="1105" d="M59 0v510h214q297 0 297 -245q0 -60 -13 -105t-45 -83t-92 -57.5t-146 -19.5h-215zM212 121h69q73 0 100 31.5t27 94.5q0 72 -29.5 107t-109.5 35h-57v-268zM637 0v95l154 189l89 105h-226v121h414v-102l-137 -167l-102 -120h245v-121h-437z" />
<glyph horiz-adv-x="1191" d="M723 0v95l154 189l89 105h-226v121h414v-102l-137 -167l-102 -120h245v-121h-437zM916 534l-134 127l70 64l97 -83l102 83l65 -63l-133 -128h-67zM67 0v650h246q344 0 344 -311q0 -61 -9 -109.5t-32.5 -92.5t-61.5 -73.5t-98.5 -46.5t-141.5 -17h-247zM308 519h-80v-386 h94q94 0 128.5 45.5t34.5 135.5q0 104 -37.5 154.5t-139.5 50.5z" />
<glyph horiz-adv-x="789" d="M67 650h161v-517h259v-133h-420v650zM507 -131l-45 126q29 5 45 9t35 13t27.5 23.5t8.5 35.5v434h153v-451q0 -79 -60.5 -126.5t-163.5 -63.5z" />
<glyph horiz-adv-x="1014" d="M219 201v-201h-152v650h175l142 -208l132 -203l-2 213v198h150v-650h-163l-146 215l-137 211zM732 -131l-45 126q29 5 45 9t35 13t27.5 23.5t8.5 35.5v434h153v-451q0 -79 -60.5 -126.5t-163.5 -63.5z" />
<glyph horiz-adv-x="1191" d="M67 0v650h246q344 0 344 -311q0 -61 -9 -109.5t-32.5 -92.5t-61.5 -73.5t-98.5 -46.5t-141.5 -17h-247zM308 519h-80v-386h94q94 0 128.5 45.5t34.5 135.5q0 104 -37.5 154.5t-139.5 50.5zM723 0v95l154 189l89 105h-226v121h414v-102l-137 -167l-102 -120h245v-121h-437 z" />
<glyph horiz-adv-x="733" d="M59 0v510h377v-121h-224v-94h194v-120h-194v-175h-153zM674 0h-153v510h153v-510z" />
<glyph horiz-adv-x="894" d="M59 0v510h377v-121h-224v-94h194v-120h-194v-175h-153zM521 0v510h153v-388h216v-122h-369z" />
<glyph horiz-adv-x="629" d="M149 148q0 -44 53 -44q22 0 43 8q-33 36 -56 83q-40 -20 -40 -47zM264 383q0 -24 12 -63q45 17 45 59q0 36 -28 36q-12 0 -20.5 -8.5t-8.5 -23.5zM375 258h208v-97h-125q-13 -23 -34 -43q28 -15 61 -15q52 0 91 43l47 -92q-68 -62 -156 -62q-72 0 -156 45 q-61 -45 -133 -45q-71 0 -121 38t-50 103q0 51 41 89.5t106 58.5q-17 49 -17 93q0 63 42 103t116 40q39 0 73 -10.5t60.5 -39.5t26.5 -73q0 -55 -41.5 -96t-101.5 -66q21 -38 39 -55q18 46 24 81z" />
<glyph horiz-adv-x="422" d="M177 -30v43q-89 4 -164 48l42 99q66 -37 122 -46v102q-28 11 -44 18.5t-39 21t-36 26t-22.5 31.5t-9.5 41q0 54 41.5 91.5t109.5 45.5v41h75v-39q65 -5 138 -39l-36 -104q-47 31 -102 41v-82q32 -12 56 -24t49 -30.5t38.5 -43.5t13.5 -56q0 -56 -43 -92t-114 -46v-47h-75 zM252 182v-63q29 5 29 28q0 20 -29 35zM177 338v49q-24 -3 -24 -21q0 -20 24 -28z" />
<glyph horiz-adv-x="684" d="M160 232q-70 0 -111.5 37t-41.5 105q0 64 43 103.5t114 39.5q72 0 112 -35.5t40 -107.5q0 -61 -44 -101.5t-112 -40.5zM162 329q37 0 37 45q0 46 -37 46q-38 0 -38 -46q0 -45 38 -45zM521 -8q-70 0 -112 37t-42 105q0 64 43 103.5t114 39.5q73 0 113 -35.5t40 -107.5 q0 -61 -44 -101.5t-112 -40.5zM523 89q36 0 36 45q0 46 -36 46q-21 0 -29.5 -11t-8.5 -35q0 -45 38 -45zM220 38l-81 48l331 396l78 -52z" />
<glyph horiz-adv-x="318" d="M312 25l-84 -80q-97 55 -153 137t-56 170q0 86 50 164t141 139l88 -76q-133 -89 -133 -223q0 -68 39 -129.5t108 -101.5z" />
<glyph horiz-adv-x="318" d="M91 -52l-85 77q69 40 108 101.5t39 129.5q0 134 -133 223l87 76q91 -61 141.5 -139t50.5 -164q0 -88 -54.5 -168t-153.5 -136z" />
<glyph horiz-adv-x="318" d="M62 -58v613h227v-98h-98v-420h98v-95h-227z" />
<glyph horiz-adv-x="318" d="M29 -58v95h98v420h-98v98h227v-613h-227z" />
<glyph horiz-adv-x="327" d="M236 -58q-91 0 -123 31.5t-32 103.5v116q0 10 -35 10h-31v95h31q35 0 35 11v110q0 136 160 136h57v-93h-49q-51 0 -51 -41v-73q0 -73 -45 -97q45 -23 45 -93v-82q0 -21 9 -30t35 -9h56v-95h-62z" />
<glyph horiz-adv-x="234" d="M58 517h118v-536h-118v536z" />
<glyph horiz-adv-x="327" d="M29 -58v95h56q26 0 35 9t9 30v82q0 70 46 93q-46 24 -46 97v73q0 41 -51 41h-49v93h58q159 0 159 -136v-110q0 -11 35 -11h32v-95h-32q-35 0 -35 -10v-116q0 -72 -31.5 -103.5t-122.5 -31.5h-63z" />
<glyph horiz-adv-x="524" d="M332 -8q-180 0 -235 147h-83l9 92h55q0 10 1 18q0 5 0.5 12t0.5 8h-57l10 92h64q28 74 92.5 115t152.5 41q77 0 161 -39l-47 -115q-66 34 -114 34q-51 0 -77 -36h152l-11 -92h-165q0 -2 -0.5 -9t-0.5 -11v-18h162l-9 -92h-114q28 -27 76 -27q53 0 120 35l39 -114 q-51 -25 -90 -33t-92 -8z" />
<glyph horiz-adv-x="224" d="M193 510l-27 -293h-108l-27 293h162z" />
<glyph horiz-adv-x="429" d="M193 510l-27 -293h-108l-27 293h162zM398 510l-27 -293h-108l-26 293h161z" />
<glyph horiz-adv-x="396" d="M261 196h-127l34 116q9 -6 24 -6q14 0 25 6zM261 510l-46 -118q-10 6 -23 6q-8 0 -18 -4l-41 116h128zM146 353q0 -21 14 -35l-73 -102l-69 104zM18 386l68 104l84 -98q-21 -9 -24 -34zM311 217l-87 101q16 12 16 33l139 -32zM379 387l-140 -29q-3 19 -21 32l93 98z" />
<glyph horiz-adv-x="542" d="M57 0l23 118h-69l23 107h66l11 60h-73l22 108h72l21 117h129l-22 -117h69l23 117h128l-23 -117h74l-22 -108h-71l-12 -60h79l-22 -107h-77q-2 -10 -10.5 -54t-11.5 -64h-128l22 118h-70l-23 -118h-128zM228 225h70l11 60h-70z" />
<glyph horiz-adv-x="334" d="M168 252q-65 0 -104.5 36.5t-39.5 97.5q0 59 40 95.5t104 36.5t103 -34.5t39 -97.5q0 -60 -39.5 -97t-102.5 -37zM168 318q27 0 42 18.5t15 49.5q0 65 -57 65q-61 0 -61 -65q0 -32 15.5 -50t45.5 -18z" />
<glyph horiz-adv-x="930" d="M49 0v510h159l122 -161l93 -131l-1 132v160h144v-510h-150l-125 166l-97 138v-304h-145zM748 206q-73 0 -115.5 42t-42.5 114q0 66 44 110.5t114 44.5q74 0 115 -42t41 -113q0 -67 -42 -111.5t-114 -44.5zM603 109v78h294v-78h-294zM746 286q31 0 41.5 18t10.5 59 q0 74 -52 74q-49 0 -49 -74q0 -77 49 -77z" />
<glyph horiz-adv-x="423" d="M144 373q-56 0 -89.5 27.5t-33.5 81.5q0 30 17.5 52t47 33.5t62 16.5t69.5 5h20v19q0 26 -8.5 35.5t-30.5 9.5q-40 0 -40 -25q0 -2 2 -12l-111 -16q-8 19 -8 37q0 47 47 77.5t121 30.5q158 0 159 -134l-1 -117q0 -27 15 -27q5 0 17 5l5 -87q-44 -12 -72 -12q-68 0 -85 50 q-36 -50 -103 -50zM181 465q33 0 56 32v40h-21q-29 0 -45.5 -11t-16.5 -30q0 -15 8 -23t19 -8z" />
<glyph horiz-adv-x="453" d="M223 373q-98 0 -180 40v469h131v-177q47 40 102 40q74 0 114 -47t40 -132q0 -90 -57 -141.5t-150 -51.5zM220 471q33 0 53 21t20 62q0 83 -56 83q-34 0 -63 -34v-121q21 -11 46 -11z" />
<glyph horiz-adv-x="379" d="M206 373q-80 0 -132 47.5t-52 139.5q0 79 52.5 132t142.5 53q80 0 142 -35l-39 -99q-41 35 -88 35q-73 0 -73 -86q0 -87 74 -87q44 0 92 37l32 -95q-67 -42 -151 -42z" />
<glyph horiz-adv-x="455" d="M176 373q-74 0 -113.5 47t-39.5 132q0 90 56 141.5t146 51.5q28 0 53 -4v141h131v-502h-119l-3 42q-49 -49 -111 -49zM216 481q34 0 62 35v120q-17 11 -46 11q-33 0 -52.5 -21t-19.5 -62q0 -83 56 -83z" />
<glyph horiz-adv-x="407" d="M216 373q-83 0 -138.5 46t-55.5 142q0 82 54.5 133t129.5 51q86 0 131 -44.5t45 -147.5q0 -16 -1 -28h-224q15 -56 82 -56q58 0 112 36l31 -89q-81 -43 -166 -43zM153 589h98v20q0 50 -45 50q-53 0 -53 -70z" />
<glyph horiz-adv-x="407" d="M216 373q-83 0 -138.5 46t-55.5 142q0 82 54.5 133t129.5 51q86 0 131 -44.5t45 -147.5q0 -16 -1 -28h-224q15 -56 82 -56q58 0 112 36l31 -89q-81 -43 -166 -43zM300 875l-118 -100l-45 45l107 116zM153 589h98v20q0 50 -45 50q-53 0 -53 -70z" />
<glyph horiz-adv-x="407" d="M216 373q-83 0 -138.5 46t-55.5 142q0 82 54.5 133t129.5 51q86 0 131 -44.5t45 -147.5q0 -16 -1 -28h-224q15 -56 82 -56q58 0 112 36l31 -89q-81 -43 -166 -43zM215 775l-118 100l56 61l107 -116zM251 609q0 50 -45 50q-53 0 -53 -70h98v20z" />
<glyph horiz-adv-x="314" d="M73 380v259h-53v85l53 7v25q4 68 46 100.5t112 32.5q53 0 102 -21l-21 -94q-29 20 -60 20q-48 0 -48 -45v-17h97v-93h-97v-259h-131z" />
<glyph horiz-adv-x="448" d="M207 217q-91 0 -141.5 25.5t-50.5 71.5q0 57 77 90q-23 18 -23 46q0 31 58 59q-100 26 -100 110q0 60 52.5 93t126.5 33q58 0 97 -16h130v-77h-48q4 -13 4 -28q0 -48 -40.5 -81t-107.5 -41q-53 -13 -53 -23t58 -13q91 -4 134.5 -25.5t43.5 -82.5q0 -54 -61 -97.5 t-156 -43.5zM214 304q77 0 77 39q0 17 -10 23t-41 7q-2 0 -5.5 0.5t-5.5 0.5q-41 2 -59 5q-35 -15 -35 -39q0 -36 79 -36zM208 577q49 0 49 45t-49 45q-50 0 -50 -45q0 -21 14 -33t36 -12z" />
<glyph horiz-adv-x="463" d="M46 380v502h131v-181q48 44 116 44q56 0 91.5 -31t35.5 -96v-238h-131v202q0 52 -43 52q-35 0 -69 -34v-220h-131z" />
<glyph horiz-adv-x="225" d="M113 776q-30 0 -51 19.5t-21 47.5t21 48t51 20t51.5 -20t21.5 -48t-21.5 -47.5t-51.5 -19.5zM47 380v354h131v-354h-131z" />
<glyph horiz-adv-x="225" d="M116 776q-30 0 -51 19.5t-21 47.5t21 48t51 20t51.5 -20t21.5 -48t-21.5 -47.5t-51.5 -19.5zM-48 219l-18 103q5 -1 22 -1q93 0 93 77v336h131v-340q0 -175 -228 -175z" />
<glyph horiz-adv-x="435" d="M46 380v502h131v-278l24 6l79 124h129l-108 -167l131 -187h-158l-81 132l-16 -4v-128h-131z" />
<glyph horiz-adv-x="223" d="M46 380v502h131v-502h-131z" />
<glyph horiz-adv-x="691" d="M47 380v354h121l2 -40q48 51 117 51q81 0 112 -59q52 59 123 59q56 0 91 -31t35 -96v-238h-130v202q0 52 -43 52q-28 0 -62 -34v-220h-131v202q0 30 -11 41t-31 11q-30 0 -62 -34v-220h-131z" />
<glyph horiz-adv-x="447" d="M224 373q-94 0 -148.5 50t-54.5 137q0 79 56 132t147 53q95 0 148 -50.5t53 -134.5q0 -81 -54 -134t-147 -53zM221 469q40 0 53.5 21t13.5 71q0 88 -67 88q-34 0 -48.5 -22t-14.5 -66q0 -92 63 -92z" />
<glyph horiz-adv-x="455" d="M45 222v512h119l3 -38q49 49 111 49q74 0 114 -47t40 -132q0 -90 -56 -141.5t-146 -51.5q-16 0 -54 4v-155h-131zM222 471q33 0 53 21t20 62q0 83 -56 83q-34 0 -63 -34v-121q21 -11 46 -11z" />
<glyph horiz-adv-x="452" d="M278 222v191q-47 -40 -102 -40q-74 0 -113.5 47t-39.5 132q0 91 60.5 142t153.5 51q92 0 172 -37v-486h-131zM216 481q34 0 62 35v120q-17 11 -46 11q-33 0 -52.5 -21t-19.5 -62q0 -83 56 -83z" />
<glyph horiz-adv-x="312" d="M47 380v354h118l4 -54q39 60 96 60q17 0 37 -4l-10 -125q-29 10 -54 10q-33 0 -60 -42v-199h-131z" />
<glyph horiz-adv-x="368" d="M165 373q-86 0 -142 31l29 100q44 -38 100 -38q54 0 54 23q0 14 -52 30q-27 8 -43.5 14.5t-39 20.5t-33.5 35t-11 50q0 46 46.5 76t117.5 30q89 0 150 -34l-36 -96q-38 38 -102 38q-40 0 -40 -16q0 -9 45 -23q29 -9 45.5 -15t41 -20t36.5 -36t12 -52q0 -61 -51.5 -89.5 t-126.5 -28.5z" />
<glyph horiz-adv-x="348" d="M204 373q-135 0 -135 118v148h-53v85l55 7l15 90h114v-89h108v-93h-108v-124q0 -27 12.5 -36t34.5 -9q32 0 65 24l17 -91q-64 -30 -125 -30z" />
<glyph horiz-adv-x="460" d="M168 373q-126 0 -126 127v235h131v-205q0 -54 36 -54q35 0 73 42v217h131v-355h-116l-5 46q-50 -53 -124 -53z" />
<glyph horiz-adv-x="406" d="M122 380l-120 354h141l32 -118l32 -133l29 138l30 113h139l-124 -354h-159z" />
<glyph horiz-adv-x="612" d="M107 380l-93 354h141l21 -129l15 -120l17 117l27 132h147l27 -131l18 -118l14 116q10 71 20 133h138l-96 -354h-154l-16 72l-29 171l-27 -171l-17 -72h-153z" />
<glyph horiz-adv-x="404" d="M8 380l120 184l-107 170h142l43 -97l43 97h136l-108 -163q75 -120 119 -191h-140l-57 119l-61 -119h-130z" />
<glyph horiz-adv-x="396" d="M84 222l46 134q-68 196 -132 378h142l38 -127l25 -117l24 111l39 133h132l-183 -512h-131z" />
<glyph horiz-adv-x="390" d="M25 380v76l165 182h-153v96h318v-75l-167 -183h173v-96h-336z" />
<glyph horiz-adv-x="325" d="M239 430l-78 74l-78 -74l-63 59l78 73l-77 71l68 63l76 -72l78 72l63 -57l-79 -73l80 -74z" />
<glyph horiz-adv-x="248" d="M23 367l198 397h90l-194 -397h-94z" />
<glyph horiz-adv-x="348" d="M175 389q-26 0 -44.5 17t-18.5 42t18.5 42.5t44.5 17.5t45 -17.5t19 -42.5t-19 -42t-45 -17zM175 624q-26 0 -44.5 17.5t-18.5 42.5q0 24 18.5 41.5t44.5 17.5t45 -17.5t19 -41.5q0 -25 -19 -42.5t-45 -17.5zM15 524v80h318v-80h-318z" />
<glyph horiz-adv-x="209" d="M104 372q-37 0 -56 19t-19 51q0 31 21 49.5t55 18.5q33 0 54 -18t21 -50t-19.5 -51t-56.5 -19z" />
<glyph horiz-adv-x="201" d="M80 280l-82 25q48 76 48 180h118q0 -52 -24.5 -107.5t-59.5 -97.5z" />
<glyph horiz-adv-x="344" d="M146 362v25q-74 2 -129 33l33 74q58 -36 96 -40v83q-22 8 -35 13.5t-31 15t-28.5 19t-18 23t-7.5 29.5q0 39 32.5 65.5t87.5 32.5v30h56v-29q56 -3 109 -27l-30 -79q-32 29 -79 38v-67q29 -11 45 -18t38 -21t32.5 -32.5t10.5 -42.5q0 -40 -34.5 -65t-91.5 -33v-27h-56z M202 513v-55q25 6 25 24q0 17 -25 31zM146 623v43q-19 -8 -19 -22q0 -11 19 -21z" />
<glyph horiz-adv-x="343" d="M166 325v46q-68 6 -110.5 49.5t-42.5 123.5q0 66 41 113.5t112 56.5v52h68v-53q47 -6 93 -30l-36 -91q-24 23 -57 25v-151q33 3 62 27l29 -84q-37 -23 -91 -35v-49h-68zM166 474v138q-36 -18 -36 -68q0 -55 36 -70z" />
<glyph horiz-adv-x="423" d="M144 -7q-56 0 -89.5 27.5t-33.5 81.5q0 30 17.5 52t47 33.5t62 16.5t69.5 5h20v19q0 26 -8.5 35.5t-30.5 9.5q-40 0 -40 -25q0 -2 2 -12l-111 -16q-8 19 -8 37q0 47 47 77.5t121 30.5q158 0 159 -134l-1 -117q0 -27 15 -27q5 0 17 5l5 -87q-44 -12 -72 -12q-68 0 -85 50 q-36 -50 -103 -50zM181 85q33 0 56 32v40h-21q-29 0 -45.5 -11t-16.5 -30q0 -15 8 -23t19 -8z" />
<glyph horiz-adv-x="453" d="M223 -7q-98 0 -180 40v469h131v-177q47 40 102 40q74 0 114 -47t40 -132q0 -90 -57 -141.5t-150 -51.5zM220 91q33 0 53 21t20 62q0 83 -56 83q-34 0 -63 -34v-121q21 -11 46 -11z" />
<glyph horiz-adv-x="379" d="M206 -7q-80 0 -132 47.5t-52 139.5q0 79 52.5 132t142.5 53q80 0 142 -35l-39 -99q-41 35 -88 35q-73 0 -73 -86q0 -87 74 -87q44 0 92 37l32 -95q-67 -42 -151 -42z" />
<glyph horiz-adv-x="455" d="M176 -7q-74 0 -113.5 47t-39.5 132q0 90 56 141.5t146 51.5q28 0 53 -4v141h131v-502h-119l-3 42q-49 -49 -111 -49zM216 101q34 0 62 35v120q-17 11 -46 11q-33 0 -52.5 -21t-19.5 -62q0 -83 56 -83z" />
<glyph horiz-adv-x="407" d="M216 -7q-83 0 -138.5 46t-55.5 142q0 82 54.5 133t129.5 51q86 0 131 -44.5t45 -147.5q0 -16 -1 -28h-224q15 -56 82 -56q58 0 112 36l31 -89q-81 -43 -166 -43zM153 209h98v20q0 50 -45 50q-53 0 -53 -70z" />
<glyph horiz-adv-x="407" d="M216 -7q-83 0 -138.5 46t-55.5 142q0 82 54.5 133t129.5 51q86 0 131 -44.5t45 -147.5q0 -16 -1 -28h-224q15 -56 82 -56q58 0 112 36l31 -89q-81 -43 -166 -43zM300 495l-118 -100l-45 45l107 116zM153 209h98v20q0 50 -45 50q-53 0 -53 -70z" />
<glyph horiz-adv-x="407" d="M216 -7q-83 0 -138.5 46t-55.5 142q0 82 54.5 133t129.5 51q86 0 131 -44.5t45 -147.5q0 -16 -1 -28h-224q15 -56 82 -56q58 0 112 36l31 -89q-81 -43 -166 -43zM215 395l-118 100l56 61l107 -116zM251 229q0 50 -45 50q-53 0 -53 -70h98v20z" />
<glyph horiz-adv-x="314" d="M73 0v259h-53v85l53 7v25q4 68 46 100.5t112 32.5q53 0 102 -21l-21 -94q-29 20 -60 20q-48 0 -48 -45v-17h97v-93h-97v-259h-131z" />
<glyph horiz-adv-x="445" d="M201 -163q-91 0 -141.5 25.5t-50.5 71.5q0 57 77 90q-23 18 -23 46q0 31 58 59q-100 26 -100 110q0 60 52.5 93t126.5 33q58 0 97 -16h130v-77h-48q4 -13 4 -28q0 -48 -40.5 -81t-107.5 -41q-53 -13 -53 -23t58 -13q91 -4 134.5 -25.5t43.5 -82.5q0 -54 -61 -97.5 t-156 -43.5zM208 -76q77 0 77 39q0 17 -10 23t-41 7q-2 0 -5.5 0.5t-5.5 0.5q-41 2 -59 5q-35 -15 -35 -39q0 -36 79 -36zM202 197q49 0 49 45t-49 45q-50 0 -50 -45q0 -21 14 -33t36 -12z" />
<glyph horiz-adv-x="462" d="M46 0v502h131v-181q48 44 116 44q56 0 91.5 -31t35.5 -96v-238h-131v202q0 52 -43 52q-35 0 -69 -34v-220h-131z" />
<glyph horiz-adv-x="225" d="M113 396q-30 0 -51 19.5t-21 47.5t21 48t51 20t51.5 -20t21.5 -48t-21.5 -47.5t-51.5 -19.5zM47 0v354h131v-354h-131z" />
<glyph horiz-adv-x="225" d="M114 396q-30 0 -51 19.5t-21 47.5t21 48t51 20t51.5 -20t21.5 -48t-21.5 -47.5t-51.5 -19.5zM-50 -161l-18 103q5 -1 22 -1q93 0 93 77v336h131v-340q0 -175 -228 -175z" />
<glyph horiz-adv-x="435" d="M46 0v502h131v-278l24 6l79 124h129l-108 -167l131 -187h-158l-81 132l-16 -4v-128h-131z" />
<glyph horiz-adv-x="223" d="M46 0v502h131v-502h-131z" />
<glyph horiz-adv-x="690" d="M47 0v354h121l2 -40q48 51 117 51q81 0 112 -59q52 59 123 59q56 0 91 -31t35 -96v-238h-130v202q0 52 -43 52q-28 0 -62 -34v-220h-131v202q0 30 -11 41t-31 11q-30 0 -62 -34v-220h-131z" />
</font>
</defs>
</svg>
