<?xml version="1.0" standalone="no"?>
<!DOCTYPE svg PUBLIC "-//W3C//DTD SVG 1.1//EN" "http://www.w3.org/Graphics/SVG/1.1/DTD/svg11.dtd" >
<svg xmlns="http://www.w3.org/2000/svg">
<metadata></metadata>
<defs>
<font id="typoninesans_monospacemedium" horiz-adv-x="1228" >
<font-face units-per-em="2048" ascent="1597" descent="-451" />
<missing-glyph horiz-adv-x="500" />
<glyph horiz-adv-x="0" />
<glyph horiz-adv-x="682" />
<glyph unicode=" " />
<glyph unicode="!" d="M457 125q0 67 41.5 106t113.5 39q70 0 114 -37t44 -108q0 -72 -41.5 -110t-116.5 -38q-76 0 -115.5 38t-39.5 110zM492 881v450h241v-450l-24 -410h-193z" />
<glyph unicode="&#x22;" d="M281 1331h268l-45 -635h-176zM678 1331h268l-47 -635h-174z" />
<glyph unicode="#" d="M45 291l31 153h174l47 244h-193l33 156h189l53 284h209l-53 -284h253l54 284h209l-54 -284h187l-31 -156h-186l-45 -244h202l-32 -153h-199l-55 -291h-207l53 291h-254l-55 -291h-207l53 291h-176zM459 444h254l47 244h-256z" />
<glyph unicode="$" d="M174 139l74 193q69 -47 153.5 -79t153.5 -36v377q-49 21 -74.5 32.5t-69.5 34.5t-68.5 40.5t-56 45.5t-47.5 55.5t-28 64t-12 77.5q0 133 98.5 223t257.5 107v112h123v-110q171 -6 321 -82l-65 -201q-50 37 -119.5 65t-136.5 34v-322q49 -21 76.5 -33.5t73 -36t72 -43.5 t59.5 -51t51 -63t30.5 -75t12.5 -91q0 -137 -103.5 -226t-271.5 -110v-102h-123v96q-225 4 -381 104zM428 965q0 -80 127 -142v262q-127 -25 -127 -120zM678 225q147 30 147 133q0 56 -38.5 99t-108.5 80v-312z" />
<glyph unicode="%" d="M29 1006q0 153 80 248.5t217 95.5q141 0 214.5 -87.5t73.5 -256.5q0 -146 -79 -244t-216 -98t-213.5 88.5t-76.5 253.5zM197 1006q0 -88 28 -132.5t99 -44.5q69 0 97 44.5t28 132.5q0 176 -125 176q-72 0 -99.5 -44.5t-27.5 -131.5zM213 195l688 1015l107 -69l-693 -1006 zM618 322q0 155 75.5 249.5t213.5 94.5q140 0 215.5 -88t75.5 -256q0 -145 -80 -243.5t-215 -98.5q-138 0 -211.5 88t-73.5 254zM778 322q0 -88 28 -132.5t99 -44.5q69 0 97 44.5t28 132.5q0 176 -125 176q-71 0 -99 -45t-28 -131z" />
<glyph unicode="&#x26;" d="M35 326q0 140 77.5 242t213.5 145q-43 150 -43 284q0 156 82.5 254.5t220.5 98.5q40 0 79.5 -8.5t80 -29.5t70.5 -53.5t49.5 -84.5t19.5 -117q0 -153 -94.5 -263t-231.5 -163q69 -201 139 -271q62 119 76 310h379v-187h-244q-34 -127 -108 -235q76 -66 157 -66 q104 0 164 92l88 -163q-52 -64 -121.5 -97.5t-144.5 -33.5q-73 0 -155.5 31t-141.5 81q-57 -53 -135.5 -82.5t-155.5 -29.5q-138 0 -229.5 95t-91.5 251zM254 367q0 -84 40.5 -133.5t111.5 -49.5t129 52q-107 139 -170 333q-111 -64 -111 -202zM485 1020q0 -103 31 -236 q76 30 116 84t40 150q0 151 -92 151q-95 0 -95 -149z" />
<glyph unicode="'" d="M479 1331h271l-50 -635h-172z" />
<glyph unicode="(" d="M293 541q0 284 129.5 529.5t361.5 420.5l148 -145q-179 -150 -286 -349t-107 -442q0 -134 29 -253t85 -217.5t123.5 -178.5t157.5 -158l-131 -137q-245 170 -377.5 414t-132.5 516z" />
<glyph unicode=")" d="M293 -252q90 78 157.5 158t123.5 178.5t85 217.5t29 253q0 244 -106.5 442.5t-286.5 348.5l149 145q230 -175 360 -421.5t130 -528.5q0 -274 -131.5 -517t-378.5 -413z" />
<glyph unicode="*" d="M262 924l260 77q0 -36 27 -59l-168 -197zM262 1083l117 179l182 -187q-38 -15 -41 -61zM502 1319h217l-76 -240q-22 11 -39 11q-10 0 -33 -9zM504 690l59 242q17 -10 41 -10t41 10l74 -242h-215zM653 1073l195 187l117 -175l-277 -69q-3 32 -35 57zM657 940q28 21 31 57 l277 -75l-117 -174z" />
<glyph unicode="+" d="M184 496v172h330v317h199v-317h329v-172h-329v-322h-199v322h-330z" />
<glyph unicode="," d="M434 -233q67 114 95 224t30 238h234q-3 -127 -58 -264.5t-137 -249.5z" />
<glyph unicode="-" d="M334 412v215h561v-215h-561z" />
<glyph unicode="." d="M457 125q0 67 41.5 106t113.5 39q71 0 114.5 -37t43.5 -108q0 -72 -41.5 -110t-116.5 -38q-76 0 -115.5 38t-39.5 110z" />
<glyph unicode="/" d="M190 -66l650 1471h198l-643 -1471h-205z" />
<glyph unicode="0" d="M96 639q0 130 16.5 235t55 195.5t98.5 151t151 95t208 34.5q262 0 383.5 -168t121.5 -488q0 -84 -6.5 -157t-23 -146.5t-42 -133.5t-67 -112.5t-95 -88t-128 -56t-164.5 -20.5q-258 0 -383 160t-125 499zM358 680q0 -129 9 -215.5t36 -147.5l304 805q-49 17 -101 17 q-72 0 -122 -34.5t-77 -100t-38 -143.5t-11 -181zM526 203q41 -13 90 -13q62 0 107 24t72.5 64t43.5 104t21.5 132t5.5 160q0 224 -41 325z" />
<glyph unicode="1" d="M156 0v219h336v860l-271 -47v209l529 109v-1131h331v-219h-925z" />
<glyph unicode="2" d="M150 0v164q90 58 192.5 151t195 201t153.5 225t61 207q0 88 -49 139.5t-136 51.5q-70 0 -139.5 -39t-122.5 -103l-123 172q15 17 45.5 41.5t85.5 59t137 57.5t171 23q181 0 290 -100t109 -271q0 -97 -49 -206.5t-130 -209.5t-174 -187t-192 -157h602v-219h-927z" />
<glyph unicode="3" d="M156 117l127 207q147 -129 313 -129q91 0 152 44t61 126q0 115 -118.5 173.5t-311.5 63.5v162q155 11 264 73.5t109 153.5q0 72 -50.5 109t-130.5 37q-139 0 -254 -111l-110 172q6 6 18 16.5t53 36.5t87 46t118.5 36.5t149.5 16.5q169 0 277 -92.5t108 -231.5 q0 -111 -76.5 -190.5t-204.5 -114.5q156 -33 246 -126t90 -235q0 -69 -27 -133.5t-82.5 -121t-154 -91t-227.5 -34.5q-140 0 -254 43.5t-172 93.5z" />
<glyph unicode="4" d="M98 285v153l586 893h260v-839h184v-207h-184v-283h-256v283h-590zM348 494h340v520z" />
<glyph unicode="5" d="M164 121l119 205q133 -136 290 -136q91 0 159.5 52.5t68.5 142.5q0 137 -121.5 198.5t-409.5 61.5v686h762v-219h-520v-272q276 -3 414.5 -122.5t138.5 -316.5q0 -82 -31 -156t-90.5 -134t-158 -95.5t-222.5 -35.5q-229 0 -399 141z" />
<glyph unicode="6" d="M145 616q0 349 185 541.5t501 192.5q87 0 195 -19v-223q-90 20 -186 20q-82 0 -151.5 -19.5t-127.5 -61t-96 -113.5t-49 -170q138 74 258 74q188 0 298.5 -102.5t110.5 -289.5q0 -216 -119.5 -341t-340.5 -125q-130 0 -223.5 43.5t-148.5 128.5t-80.5 199t-25.5 265z M410 561q0 -90 9.5 -153.5t34 -115t70.5 -77t115 -25.5q95 0 138.5 66t43.5 164q0 108 -50 156.5t-153 48.5q-68 0 -123 -20.5t-85 -43.5z" />
<glyph unicode="7" d="M154 1112v219h919v-143l-538 -1186h-256l505 1110h-630z" />
<glyph unicode="8" d="M139 326q0 60 25.5 115t70 100t94 79.5t107.5 63.5q-65 40 -103 68t-77.5 68.5t-57.5 87.5t-18 106q0 144 132 240t311 96q187 0 304 -91.5t117 -234.5q0 -157 -268 -313q314 -155 314 -357q0 -163 -137 -268.5t-345 -105.5q-132 0 -237 38.5t-168.5 118t-63.5 189.5z M399 342q0 -85 62 -131.5t166 -46.5q92 0 147 49t55 129q0 34 -19.5 67.5t-57.5 65t-72 54.5t-86 53q-195 -120 -195 -240zM438 1028q0 -59 38.5 -101.5t141.5 -111.5q83 61 124.5 107.5t41.5 93.5q0 68 -46.5 104.5t-121.5 36.5q-85 0 -131.5 -37.5t-46.5 -91.5z" />
<glyph unicode="9" d="M145 883q0 216 120 341.5t339 125.5q131 0 224.5 -44t149 -129t80.5 -199t25 -265q0 -349 -185 -541t-501 -192q-92 0 -194 18v223q90 -20 186 -20q82 0 151.5 19.5t127.5 61t95 113.5t48 170q-132 -73 -256 -73q-188 0 -299 102t-111 289zM408 909q0 -108 49.5 -156 t152.5 -48q67 0 123.5 20.5t85.5 42.5q-1 72 -6.5 125.5t-21 102t-40.5 78.5t-66 47.5t-97 17.5q-64 0 -106 -34.5t-58 -84t-16 -111.5z" />
<glyph unicode=":" d="M457 125q0 67 41.5 106t113.5 39q71 0 114.5 -37t43.5 -108q0 -72 -41.5 -110t-116.5 -38q-76 0 -115.5 38t-39.5 110zM457 786q0 67 41.5 105.5t113.5 38.5q71 0 114.5 -36.5t43.5 -107.5t-41 -109t-117 -38q-155 0 -155 147z" />
<glyph unicode=";" d="M418 -233q66 114 93.5 223t29.5 239h233q-1 -128 -56 -265.5t-138 -248.5zM498 786q0 67 41.5 105.5t113.5 38.5q71 0 114.5 -36.5t43.5 -107.5t-41 -109t-117 -38q-155 0 -155 147z" />
<glyph unicode="&#x3c;" d="M215 506v162l672 465l125 -175l-543 -370l537 -395l-123 -173z" />
<glyph unicode="=" d="M176 311v178h875v-178h-875zM176 684v178h875v-178h-875z" />
<glyph unicode="&#x3e;" d="M215 958l125 175l672 -465v-162l-668 -486l-123 173l537 395z" />
<glyph unicode="?" d="M207 1212q170 138 409 138q112 0 202 -32.5t146.5 -101.5t57.5 -165q0 -71 -39 -130.5t-94 -100t-110.5 -77t-94.5 -80t-39 -90.5q0 -49 45 -106l-252 -64q-39 93 -39 172q0 50 25.5 97.5t63.5 82.5t82 72t82 68t63.5 68.5t25.5 74.5q0 55 -45 84t-118 29 q-155 0 -267 -109zM430 125q0 67 42 106t114 39q69 0 113 -37t44 -108q0 -72 -41 -110t-116 -38q-156 0 -156 148z" />
<glyph unicode="@" d="M25 416q0 365 167 568.5t459 203.5q116 0 210 -34t157.5 -93t106 -142.5t62 -179.5t19.5 -207q0 -95 -13 -180t-42.5 -164t-85 -125.5t-131.5 -46.5q-74 0 -124.5 36.5t-70.5 103.5q-44 -74 -104 -108t-121 -34q-105 0 -169 66t-64 186q0 78 32.5 133t89 82.5t116.5 39 t132 11.5q28 0 74 -4l2 66q0 79 -28 110t-89 31q-44 0 -78 -20.5t-34 -63.5q0 -10 4 -30l-164 -29q-12 40 -12 76q0 104 86.5 171.5t216.5 67.5q289 0 289 -301l-5 -391q0 -40 18 -60t44 -20q33 0 55 30t32.5 88t14.5 119t4 144q0 126 -23.5 224.5t-73.5 174t-135 116 t-202 40.5q-243 0 -371.5 -167.5t-128.5 -493.5q0 -303 131 -463t357 -160q209 0 409 139l54 -102q-212 -152 -482 -152q-127 0 -232 43.5t-186.5 131.5t-127 233.5t-45.5 335.5zM477 283q0 -48 27.5 -72.5t68.5 -24.5q87 0 152 97v112q-25 4 -80 4q-168 0 -168 -116z" />
<glyph unicode="A" d="M29 0l436 1331h293l442 -1331h-280l-93 305h-442l-86 -305h-270zM442 512h324l-166 561z" />
<glyph unicode="B" d="M145 0v1331h473q116 0 199.5 -25t130.5 -70t68.5 -101t21.5 -125q0 -219 -209 -293v-4q88 -11 151 -43t96 -78.5t48 -96t15 -106.5q0 -187 -117 -288t-330 -101h-547zM410 221h231q117 0 169 42.5t52 139.5q0 98 -62 142.5t-190 44.5h-200v-369zM410 793h147 q209 0 209 172q0 147 -195 147h-161v-319z" />
<glyph unicode="C" d="M106 664q0 325 171.5 505.5t465.5 180.5q208 0 371 -99l-88 -225q-131 104 -295 104q-170 0 -257 -115.5t-87 -344.5q0 -236 84.5 -354.5t261.5 -118.5q186 0 332 98l61 -211q-195 -104 -417 -104q-291 0 -447 172.5t-156 511.5z" />
<glyph unicode="D" d="M100 0v1331h439q178 0 304.5 -46.5t198.5 -135.5t104 -204.5t32 -268.5q0 -76 -7 -142t-25.5 -136.5t-49 -127t-80.5 -108.5t-115.5 -86.5t-158 -55t-205.5 -20.5h-437zM365 221h188q65 0 116.5 12t87.5 31.5t62 52.5t41 67.5t23.5 83t11 93t2.5 103.5q0 86 -7.5 148.5 t-30.5 122.5t-62.5 96.5t-106 58.5t-158.5 22h-167v-891z" />
<glyph unicode="E" d="M150 0v1331h942v-219h-678v-324h614v-217h-614v-350h676v-221h-940z" />
<glyph unicode="F" d="M158 0v1331h932v-219h-668v-387h610v-217h-610v-508h-264z" />
<glyph unicode="G" d="M88 666q0 172 48.5 304t136 214.5t204.5 124t260 41.5q192 0 375 -86l-90 -242q-74 58 -143 83t-152 25q-181 0 -269.5 -108.5t-88.5 -351.5q0 -253 93 -363t273 -110q68 0 127 18v444h260v-550q-213 -129 -436 -129q-291 0 -444.5 171t-153.5 515z" />
<glyph unicode="H" d="M102 0v1331h265v-540h495v540h264v-1331h-264v559h-495v-559h-265z" />
<glyph unicode="I" d="M127 0v221h354v889h-354v221h979v-221h-361v-889h361v-221h-979z" />
<glyph unicode="J" d="M213 133q61 6 105.5 13t105.5 21.5t104.5 33.5t90 52t75.5 74.5t47.5 101.5t18.5 134v547h-547v221h811v-803q0 -102 -26.5 -187.5t-71 -147t-108 -111t-130.5 -80.5t-145.5 -52.5t-147.5 -31.5t-141 -14z" />
<glyph unicode="K" d="M129 0v1331h264v-565l105 29l321 536h299l-405 -637l450 -694h-323l-357 569l-90 -20v-549h-264z" />
<glyph unicode="L" d="M188 0v1331h265v-1110h653v-221h-918z" />
<glyph unicode="M" d="M68 0v1331h233l320 -610l311 610h227v-1331h-217v920l-227 -459h-189l-245 477v-938h-213z" />
<glyph unicode="N" d="M88 0v1331h289l518 -905v905h246v-1331h-269l-536 946l2 -946h-250z" />
<glyph unicode="O" d="M53 655q0 156 32.5 280.5t98.5 218.5t174.5 145t253.5 51q290 0 427 -162.5t137 -521.5q0 -150 -32 -272t-98.5 -216t-177.5 -146t-260 -52q-555 0 -555 675zM334 655q0 -96 6 -162.5t23.5 -125.5t47.5 -94t79 -54.5t118 -19.5q86 0 142 27.5t88 88.5t44.5 144t12.5 207 q0 105 -7 177t-25 130t-50.5 90.5t-81.5 49.5t-119 17q-163 0 -220.5 -105.5t-57.5 -369.5z" />
<glyph unicode="P" d="M150 0v1331h501q130 0 226 -32.5t153 -93.5t84 -140.5t27 -179.5q0 -213 -131 -337t-369 -124h-227v-424h-264zM414 643h219q112 0 169.5 53.5t57.5 177.5q0 114 -52 176t-183 62h-211v-469z" />
<glyph unicode="Q" d="M53 655q0 156 32.5 280.5t98.5 218.5t174.5 145t253.5 51q290 0 427 -162.5t137 -521.5q0 -210 -63.5 -367.5t-194.5 -241.5l337 -350l-215 -139l-321 422q-58 -10 -111 -10q-555 0 -555 675zM334 655q0 -96 6 -162.5t23.5 -125.5t47.5 -94t79 -54.5t118 -19.5 q86 0 142 27.5t88 88.5t44.5 144t12.5 207q0 105 -7 177t-25 130t-50.5 90.5t-81.5 49.5t-119 17q-163 0 -220.5 -105.5t-57.5 -369.5z" />
<glyph unicode="R" d="M127 0v1331h494q491 0 491 -430q0 -137 -58.5 -236t-170.5 -153l280 -512h-313l-234 461h-225v-461h-264zM391 676h211q229 0 229 221q0 114 -53 164.5t-182 50.5h-205v-436z" />
<glyph unicode="S" d="M125 100l86 244q166 -147 383 -147q103 0 166 36.5t63 112.5q0 57 -37 100t-96 71t-130.5 54t-143.5 58.5t-131 75t-96 112.5t-37 162q0 106 66 191.5t178.5 132.5t248.5 47q228 0 408 -101l-74 -245q-143 126 -332 126q-99 0 -157 -32.5t-58 -100.5q0 -43 29 -77 t76.5 -56.5t108 -47t123.5 -47t123.5 -58t108 -78.5t76.5 -110t29 -150q0 -101 -44 -178.5t-120 -123t-170.5 -68.5t-204.5 -23q-258 0 -442 120z" />
<glyph unicode="T" d="M61 1112v219h1104v-219h-420v-1112h-264v1112h-420z" />
<glyph unicode="U" d="M102 467v864h265v-819q0 -179 59 -247t190 -68q140 0 196 71.5t56 247.5v815h256v-858q0 -130 -39.5 -227t-111 -154t-163 -84.5t-204.5 -27.5q-504 0 -504 487z" />
<glyph unicode="V" d="M35 1331h276l320 -1075l293 1075h270l-414 -1331h-313z" />
<glyph unicode="W" d="M23 1331h270l67 -1036l164 723h201l184 -727l43 1040h256l-149 -1331h-264l-172 670l-150 -670h-270z" />
<glyph unicode="X" d="M49 0l416 690l-383 641h303l238 -440l239 440h266l-376 -629l428 -702h-301l-279 496l-281 -496h-270z" />
<glyph unicode="Y" d="M53 1331h285l299 -596l274 596h265l-418 -807v-524h-266v518z" />
<glyph unicode="Z" d="M115 0v176l680 936h-639v219h946v-192l-672 -920h688v-219h-1003z" />
<glyph unicode="[" d="M379 -354v1865h471v-170h-250v-1531h250v-164h-471z" />
<glyph unicode="\" d="M190 1405h199l649 -1471h-204z" />
<glyph unicode="]" d="M379 -190h250v1531h-250v170h471v-1865h-471v164z" />
<glyph unicode="^" d="M131 700l404 631h157l404 -631h-201l-287 441l-272 -441h-205z" />
<glyph unicode="_" d="M123 -90h981v-154h-981v154z" />
<glyph unicode="`" d="M408 1337l133 160l280 -283l-92 -104z" />
<glyph unicode="a" d="M145 268q0 62 20.5 111t58.5 82.5t85 57t106 36t116 18t120 5.5q21 0 99 -5l2 76q0 91 -38 127.5t-124 36.5q-66 0 -114 -24t-48 -76q0 -18 6 -33l-223 -33q-14 41 -14 82q0 123 116 202t299 79q91 0 161 -17.5t124.5 -56.5t83.5 -107.5t29 -164.5l-2 -390q0 -94 69 -94 q18 0 39 6l12 -184q-76 -22 -147 -22q-91 0 -145 41.5t-72 115.5q-117 -157 -303 -157q-140 0 -228 75t-88 213zM412 287q0 -56 36.5 -83.5t94.5 -27.5q120 0 207 109v133q-99 6 -107 6q-231 0 -231 -137z" />
<glyph unicode="b" d="M147 76v1327h261v-524q62 59 143.5 95t161.5 36q195 0 302 -132.5t107 -363.5q0 -247 -149 -390.5t-389 -143.5q-115 0 -231 26.5t-206 69.5zM408 227q66 -39 167 -39q124 0 198.5 78t74.5 221q0 151 -57.5 222t-159.5 71q-57 0 -117 -29t-106 -79v-445z" />
<glyph unicode="c" d="M180 489q0 127 41 227t113.5 163.5t169.5 97t213 33.5q101 0 200.5 -25.5t169.5 -66.5l-83 -228q-54 49 -130 79t-145 30q-124 0 -199 -72.5t-75 -234.5q0 -84 22 -145t62 -94t88 -48t108 -15q71 0 149 29t130 72l67 -205q-79 -52 -188.5 -79t-204.5 -27q-82 0 -154.5 16 t-138.5 54t-112.5 95t-74.5 145t-28 199z" />
<glyph unicode="d" d="M121 475q0 247 144 391t378 144q77 0 193 -21v414h260v-1403h-236l-8 135q-60 -66 -150.5 -110.5t-177.5 -44.5q-194 0 -298.5 131.5t-104.5 363.5zM393 502q0 -150 56 -221.5t157 -71.5q58 0 121 32t109 83v432q-67 45 -179 45q-122 0 -193 -77.5t-71 -221.5z" />
<glyph unicode="e" d="M145 500q0 118 39.5 216t106 161.5t153 98t181.5 34.5q101 0 182.5 -28t144.5 -87t97 -159.5t34 -235.5q0 -50 -2 -66h-669q18 -133 100.5 -191.5t204.5 -58.5q71 0 153 31t138 76l67 -203q-194 -108 -420 -108q-82 0 -155.5 18t-139 58t-113 99.5t-75 147.5t-27.5 197z M412 598h409v15q1 99 -49 153q-54 58 -141 59q-99 0 -152.5 -54t-66.5 -173z" />
<glyph unicode="f" d="M150 0v207h258v569h-207v180l207 17v57q0 190 110.5 291.5t319.5 101.5q71 0 147.5 -15.5t124.5 -41.5l-41 -213q-39 29 -101 46.5t-118 17.5q-84 0 -133 -46.5t-49 -140.5v-57h342v-197h-342v-569h370v-207h-888z" />
<glyph unicode="g" d="M111 475q0 249 152.5 392t393.5 143q231 0 430 -90v-867q0 -115 -27.5 -204.5t-75.5 -147.5t-116.5 -95.5t-145 -53t-167.5 -15.5q-209 0 -393 96l82 236q69 -55 152 -88t163 -33q42 0 75 5t64.5 17t54 34.5t40 56.5t26 83.5t8.5 114.5v95q-61 -61 -145.5 -99.5 t-167.5 -38.5q-192 0 -297.5 120.5t-105.5 338.5zM385 502q0 -256 211 -256q59 0 122 31t109 81v404q-67 39 -178 39q-124 0 -194 -77t-70 -222z" />
<glyph unicode="h" d="M152 0v1403h260v-539q146 146 338 146q67 0 124.5 -18t106.5 -56t77.5 -108t28.5 -164v-664h-260v578q0 112 -44 154t-128 42q-60 0 -126.5 -30t-116.5 -78v-666h-260z" />
<glyph unicode="i" d="M154 0v207h325v569h-325v207h585v-776h336v-207h-921zM463 1307q0 63 43 107t106 44t107.5 -44t44.5 -107q0 -61 -44.5 -104.5t-107.5 -43.5t-106 43t-43 105z" />
<glyph unicode="j" d="M168 -236q53 0 95 2t99 10.5t100 22.5t88.5 41t74.5 64.5t48 94t19 126.5v651h-504v207h764v-889q0 -102 -28.5 -185.5t-74.5 -139.5t-112.5 -99t-133.5 -66.5t-147 -38.5t-143.5 -19.5t-132.5 -4.5zM676 1307q0 63 43 107t106 44q62 0 106 -44t44 -107q0 -61 -44 -104.5 t-106 -43.5q-63 0 -106 43t-43 105z" />
<glyph unicode="k" d="M147 0v1403h261v-823l102 26l256 377h287l-328 -463l389 -520h-319l-281 401l-106 -22v-379h-261z" />
<glyph unicode="l" d="M150 0v207h333v989h-315v207h575v-1196h328v-207h-921z" />
<glyph unicode="m" d="M74 0v983h200l5 -164q55 98 111 144.5t130 46.5q84 0 130.5 -45.5t64.5 -133.5q52 89 108.5 134t128.5 45q120 0 165.5 -86t45.5 -260v-664h-221v639q0 101 -15.5 133.5t-58.5 32.5q-36 0 -73.5 -32t-65.5 -87v-686h-221v639q0 97 -15.5 131.5t-56.5 34.5q-38 0 -76 -33 t-65 -88v-684h-221z" />
<glyph unicode="n" d="M152 0v983h239l4 -133q74 82 166.5 121t188.5 39q67 0 124.5 -18t106.5 -56t77.5 -108t28.5 -164v-664h-260v578q0 112 -44 154t-128 42q-60 0 -126.5 -30t-116.5 -78v-666h-260z" />
<glyph unicode="o" d="M98 498q0 224 143 368t373 144q244 0 380 -137.5t136 -374.5q0 -146 -60 -262.5t-178 -186t-276 -69.5q-239 0 -378.5 136.5t-139.5 381.5zM373 498q0 -314 237 -314q135 0 191.5 77t56.5 237q0 307 -248 307q-237 0 -237 -307z" />
<glyph unicode="p" d="M147 -451v1434h236l8 -129q60 67 148 111.5t176 44.5q194 0 300.5 -132.5t106.5 -363.5q0 -246 -147 -390t-381 -144q-76 0 -186 20v-451h-261zM408 231q64 -43 172 -43q124 0 196 77.5t72 221.5q0 293 -215 293q-58 0 -118.5 -31t-106.5 -83v-435z" />
<glyph unicode="q" d="M121 475q0 166 72.5 288.5t195.5 184.5t281 62q222 0 426 -92v-1369h-260v568q-62 -60 -144.5 -98.5t-163.5 -38.5q-194 0 -300.5 132t-106.5 363zM395 502q0 -150 57 -221.5t158 -71.5q58 0 118.5 31.5t107.5 83.5v436q-70 41 -174 41q-123 0 -195 -78t-72 -221z" />
<glyph unicode="r" d="M96 0v207h310v569h-300v207h533l10 -195q60 103 157.5 156t188.5 53q35 0 76 -6l-20 -266q-45 18 -113 18q-65 0 -147 -40.5t-125 -104.5v-391h415v-207h-985z" />
<glyph unicode="s" d="M190 61l64 222q56 -46 141 -75.5t172 -29.5q40 0 75 5t67 15.5t50.5 32t18.5 50.5q0 36 -31.5 62.5t-82 43t-111.5 33t-122.5 39t-112 53t-82 83t-31.5 122.5q0 91 58.5 158.5t154.5 101t217 33.5q117 0 224.5 -21.5t176.5 -62.5l-75 -217q-51 46 -133 75t-169 29 q-32 0 -61.5 -4t-59 -12.5t-47.5 -26.5t-18 -43q0 -28 32 -49.5t83 -36.5t112.5 -31.5t123 -41.5t112.5 -58.5t83 -89.5t32 -129t-30 -129t-77.5 -89.5t-113 -55t-129 -29.5t-132.5 -8q-242 0 -379 81z" />
<glyph unicode="t" d="M117 776v180l231 17l33 258h225v-258h408v-197h-408v-403q0 -102 47 -143.5t131 -41.5q58 0 123.5 22.5t116.5 55.5l43 -209q-154 -77 -342 -77q-63 0 -117.5 10.5t-103.5 35.5t-83.5 63.5t-54.5 98.5t-20 136v452h-229z" />
<glyph unicode="u" d="M143 326v657h260v-586q0 -113 41.5 -156.5t116.5 -43.5q60 0 128.5 36t123.5 91v659h260v-983h-231l-13 139q-144 -159 -346 -159q-340 0 -340 346z" />
<glyph unicode="v" d="M109 983h278l231 -778l230 778h272l-348 -983h-326z" />
<glyph unicode="w" d="M27 983h247l88 -762l160 608h197l160 -608l82 762h243l-203 -983h-253l-138 551l-135 -551h-256z" />
<glyph unicode="x" d="M133 0l336 512l-295 471h281l170 -285l168 285h266l-295 -455l330 -528h-279l-207 348l-217 -348h-258z" />
<glyph unicode="y" d="M111 983h280l236 -727l229 727h262l-518 -1434h-258l139 392z" />
<glyph unicode="z" d="M152 0v162l534 614h-502v207h856v-162l-555 -614h594v-207h-927z" />
<glyph unicode="{" d="M305 492v163h51q121 3 121 86v433q0 58 8 103.5t31.5 90t61 74t100.5 47.5t147 18h99v-157h-84q-96 0 -130 -40t-34 -132v-328q0 -56 -6 -96t-23.5 -78.5t-52.5 -64t-88 -38.5q170 -25 170 -268v-336q0 -94 28.5 -131t122.5 -37h97v-161h-109q-85 0 -145.5 15t-97.5 41 t-58.5 69.5t-29 91.5t-7.5 116v433q0 44 -27.5 63.5t-91.5 22.5h-53z" />
<glyph unicode="|" d="M514 -27v1432h201v-1432h-201z" />
<glyph unicode="}" d="M305 -199h96q49 0 79.5 9.5t46.5 32t21 51t5 75.5v336q0 243 170 268q-53 13 -88 38.5t-52.5 64t-23.5 78.5t-6 96v328q0 92 -34 132t-130 40h-84v157h98q104 0 175.5 -26t108 -75t51 -104t14.5 -128v-433q0 -45 31 -64.5t96 -21.5h45v-163h-47q-67 -2 -96 -21.5 t-29 -64.5v-433q0 -68 -7.5 -116t-29 -91.5t-58.5 -69.5t-97.5 -41t-145.5 -15h-109v161z" />
<glyph unicode="~" d="M61 532q44 70 87.5 116.5t86.5 70t80.5 32.5t83.5 9q64 0 136 -25t123 -55t104.5 -55t85.5 -25q54 0 92.5 37t101.5 137l125 -90q-44 -77 -89.5 -129.5t-88.5 -79t-80.5 -37t-79.5 -10.5q-62 0 -126 25.5t-108.5 55.5t-100.5 55.5t-105 25.5q-100 0 -207 -148z" />
<glyph unicode="&#xa0;" />
<glyph unicode="&#xa1;" d="M457 840q0 72 41 109.5t116 37.5q76 0 116 -37.5t40 -109.5q0 -67 -42 -106.5t-114 -39.5q-69 0 -113 37.5t-44 108.5zM494 84l24 410h193l24 -410v-451h-241v451z" />
<glyph unicode="&#xa2;" d="M195 489q0 212 115.5 352t314.5 165v159h145v-159q145 -12 262 -78l-84 -232q-90 78 -178 95v-596q103 15 191 90l67 -205q-106 -70 -258 -92v-142h-145v136q-193 14 -311.5 143.5t-118.5 363.5zM469 492q0 -230 156 -287v577q-156 -53 -156 -290z" />
<glyph unicode="&#xa3;" d="M72 0v154q85 7 135.5 80.5t50.5 156.5v184h-168v179h168v129q0 109 37.5 198.5t101.5 147.5t147 89.5t175 31.5q209 0 348 -113l-106 -186q-62 51 -112 72.5t-108 21.5q-225 0 -225 -260v-131h432v-179h-432v-108q0 -85 -27 -149t-94 -115h357q111 0 174 37.5t108 105.5 l121 -160q-15 -32 -40.5 -61.5t-67 -59t-106.5 -47.5t-144 -18h-725z" />
<glyph unicode="&#xa4;" d="M164 201l190 186q-45 75 -45 156q0 78 45 145q-62 65 -190 186l94 99l197 -187q72 41 155 41q79 0 160 -43l197 187l98 -92l-197 -189q50 -66 50 -147q0 -83 -50 -156l197 -186l-100 -88l-195 182q-66 -43 -156 -43q-77 0 -159 45l-195 -188zM496 541q0 -56 31.5 -89.5 t86.5 -33.5t86 34.5t31 88.5q0 52 -29.5 84t-87.5 32q-57 0 -87.5 -31.5t-30.5 -84.5z" />
<glyph unicode="&#xa5;" d="M53 1331h285l299 -596l274 596h265l-367 -708h242v-177h-293v-114h293v-178h-293v-154h-266v154h-299v178h299v114h-299v177h241z" />
<glyph unicode="&#xa6;" d="M514 -27v615h201v-615h-201zM514 801v604h201v-604h-201z" />
<glyph unicode="&#xa7;" d="M131 -401l2 206q65 -41 130.5 -60t111.5 -19q87 0 144.5 33t58.5 104q0 73 -56 221t-122.5 289.5t-122.5 289.5t-56 220q1 86 40 162.5t104 131.5t148 94.5t171.5 59t173.5 19.5q113 0 238 -25l-2 -203q-62 39 -143 60.5t-142 21.5q-62 0 -93.5 -39t-31.5 -106 q0 -69 54.5 -216t120.5 -289t120.5 -288.5t54.5 -214.5q0 -81 -33.5 -152t-90 -122.5t-127 -92t-147 -65t-148 -37t-132.5 -12.5q-113 0 -225 29zM391 911q0 -60 36 -161t87 -211.5t102 -224t87 -225t36 -187.5q0 -43 -16 -74q73 40 108.5 87.5t36.5 119.5q-1 66 -37 171 t-87 217.5t-101.5 225.5t-85.5 222.5t-35 181.5q0 56 27 90q-73 -38 -115.5 -107.5t-42.5 -124.5z" />
<glyph unicode="&#xa8;" d="M293 1274q0 55 38.5 93t92.5 38q56 0 94.5 -38t38.5 -93t-38.5 -93t-94.5 -38q-54 0 -92.5 38t-38.5 93zM672 1274q0 55 38.5 93t92.5 38q56 0 94.5 -38t38.5 -93t-38.5 -93t-94.5 -38q-54 0 -92.5 38t-38.5 93z" />
<glyph unicode="&#xa9;" d="M12 641q0 181 75.5 331t213.5 238t309 88q176 0 316 -88t216.5 -237.5t76.5 -331.5q0 -180 -74 -328.5t-214 -237.5t-321 -89q-171 0 -309 88.5t-213.5 238t-75.5 328.5zM109 641q0 -253 142 -412t359 -159q155 0 272 73t178.5 202t61.5 296q0 157 -61.5 286.5 t-179.5 207t-271 77.5q-226 0 -363.5 -159.5t-137.5 -411.5zM213 637q0 198 121 310t315 112q150 0 262 -64l-59 -157q-103 77 -211 77t-170.5 -70t-62.5 -204q0 -137 61.5 -206.5t175.5 -69.5q117 0 227 73l46 -149q-130 -68 -289 -68q-200 0 -308 105.5t-108 310.5z" />
<glyph unicode="&#xaa;" d="M231 793q0 68 38.5 115t104.5 69.5t135.5 30.5t149.5 6h39v63q0 63 -26.5 89t-85.5 26q-42 0 -76.5 -16.5t-34.5 -51.5q0 -4 4 -28l-186 -27q-14 31 -14 70q-1 92 92 151.5t233 59.5q308 0 311 -263l-2 -292q0 -66 39 -66q9 0 33 8l10 -145q-74 -19 -121 -19 q-65 0 -106 27.5t-55 75.5q-88 -103 -232 -103q-112 0 -181 57.5t-69 162.5zM455 817q0 -44 25 -66t65 -22q85 0 153 76v110q-35 5 -80 5q-73 0 -118 -26.5t-45 -76.5z" />
<glyph unicode="&#xab;" d="M158 479l274 473h209l-213 -467l213 -479h-209zM588 479l272 473h209l-213 -467l213 -479h-209z" />
<glyph unicode="&#xac;" d="M63 524v154h1094v-563h-186v409h-908z" />
<glyph unicode="&#xad;" d="M334 412v215h561v-215h-561z" />
<glyph unicode="&#xae;" d="M121 846q0 137 66 253t178.5 183.5t244.5 67.5q135 0 249 -67.5t180.5 -183.5t66.5 -253q0 -142 -66.5 -257.5t-180 -180t-249.5 -64.5q-132 0 -244.5 67.5t-178.5 183t-66 251.5zM207 846q0 -126 56.5 -224.5t148 -150t198.5 -51.5q181 0 295.5 117.5t114.5 308.5 q0 112 -51.5 209.5t-146.5 157t-212 59.5q-176 0 -289.5 -119t-113.5 -307zM379 532v633h242q260 0 260 -207q0 -134 -119 -186l117 -240h-170l-88 213h-89v-213h-153zM532 852h78q53 0 81 23.5t28 80.5q0 54 -24 76.5t-87 22.5h-76v-203z" />
<glyph unicode="&#xaf;" d="M342 1204v164h543v-164h-543z" />
<glyph unicode="&#xb0;" d="M324 1079q0 120 81 195.5t211 75.5q131 0 210 -72t79 -199q0 -124 -79.5 -199t-209.5 -75q-132 0 -212 75t-80 199zM469 1079q0 -72 39 -114.5t108 -42.5q67 0 103.5 43t36.5 114q0 72 -35.5 112t-104.5 40q-71 0 -109 -39.5t-38 -112.5z" />
<glyph unicode="&#xb1;" d="M184 -12v166h858v-166h-858zM184 535v172h330v278h199v-278h329v-172h-329v-269h-199v269h-330z" />
<glyph unicode="&#xb4;" d="M408 1214l280 283l133 -160l-321 -227z" />
<glyph unicode="&#xb5;" d="M156 -451v1434h260v-586q0 -114 38.5 -157t112.5 -43q60 0 125 35.5t121 91.5v659h260v-983h-231l-13 139q-144 -159 -340 -159q-33 0 -76.5 6t-56.5 18q60 -91 60 -203v-252h-260z" />
<glyph unicode="&#xb6;" d="M106 780q0 105 42 202.5t120 176t203.5 125.5t278.5 47v-1782h-203v707q-212 63 -326.5 204.5t-114.5 319.5zM915 -451v1782h205v-1782h-205z" />
<glyph unicode="&#xb7;" d="M463 604q0 63 43 106.5t106 43.5q64 0 108 -43t44 -107t-44 -106.5t-108 -42.5q-63 0 -106 42.5t-43 106.5z" />
<glyph unicode="&#xb8;" d="M397 -430l47 133q53 -49 121 -49q84 0 84 63q0 81 -151 84l53 217h123l-33 -129q92 -15 141 -64.5t49 -119.5q0 -85 -72.5 -131.5t-172.5 -46.5q-109 0 -189 43z" />
<glyph unicode="&#xba;" d="M209 963q0 169 111 278t294 109q194 0 300 -103.5t106 -283.5q0 -167 -109 -278.5t-297 -111.5q-190 0 -297.5 103t-107.5 287zM438 965q0 -114 40.5 -171t131.5 -57q102 0 141.5 56t39.5 172q0 223 -181 223q-94 0 -133 -57.5t-39 -165.5z" />
<glyph unicode="&#xbb;" d="M158 6l213 479l-213 467h209l274 -473l-274 -473h-209zM588 6l211 479l-211 467h207l274 -473l-274 -473h-207z" />
<glyph unicode="&#xbf;" d="M207 -86q0 71 39 130.5t94.5 100t110.5 76.5t94 79.5t39 90.5q0 50 -45 107l252 63q38 -91 38 -172q0 -50 -25.5 -97.5t-63.5 -82.5t-82 -72t-82 -68t-63.5 -68.5t-25.5 -74.5q0 -55 45 -83.5t119 -28.5q156 0 267 108l104 -170q-169 -137 -410 -137q-112 0 -202 32.5 t-146 101.5t-57 165zM485 840q0 71 41 109t117 38q156 0 156 -147q0 -67 -42 -106.5t-114 -39.5q-69 0 -113.5 37.5t-44.5 108.5z" />
<glyph unicode="&#xc0;" d="M29 0l436 1331h293l442 -1331h-280l-93 305h-442l-86 -305h-270zM301 1546l84 197l379 -221l-57 -123zM442 512h324l-166 561z" />
<glyph unicode="&#xc1;" d="M29 0l436 1331h293l442 -1331h-280l-93 305h-442l-86 -305h-270zM436 1522l379 221l84 -197l-405 -147zM442 512h324l-166 561z" />
<glyph unicode="&#xc2;" d="M29 0l436 1331h293l442 -1331h-280l-93 305h-442l-86 -305h-270zM297 1542l256 207h117l254 -201l-90 -127l-230 150l-223 -150zM442 512h324l-166 561z" />
<glyph unicode="&#xc3;" d="M29 0l436 1331h293l442 -1331h-280l-93 305h-442l-86 -305h-270zM256 1540q45 75 102 114.5t117 39.5q49 0 136 -29t128 -29q75 0 129 64l80 -90q-40 -69 -101.5 -111.5t-123.5 -42.5q-41 0 -126.5 32t-129.5 32q-75 0 -131 -60zM442 512h324l-166 561z" />
<glyph unicode="&#xc4;" d="M29 0l436 1331h293l442 -1331h-280l-93 305h-442l-86 -305h-270zM266 1591q0 54 38 92.5t93 38.5t93 -38.5t38 -92.5q0 -56 -38 -94.5t-93 -38.5t-93 38.5t-38 94.5zM442 512h324l-166 561zM674 1591q0 54 38.5 92.5t92.5 38.5q55 0 94 -38.5t39 -92.5q0 -55 -39 -94 t-94 -39q-54 0 -92.5 39t-38.5 94z" />
<glyph unicode="&#xc5;" d="M29 0l436 1331h293l442 -1331h-280l-93 305h-442l-86 -305h-270zM391 1614q0 96 66.5 151.5t160.5 55.5q95 0 157.5 -53t62.5 -154q0 -88 -61 -148.5t-163 -60.5q-103 0 -163 57t-60 152zM442 512h324l-166 561zM528 1614q0 -92 86 -92q45 0 64.5 22.5t19.5 69.5 q0 46 -20 68t-64 22q-46 0 -66 -22t-20 -68z" />
<glyph unicode="&#xc6;" d="M10 0l463 1331h739v-219h-376v-324h315v-217h-315v-350h376v-221h-610v260h-244l-77 -260h-271zM418 461h184v610z" />
<glyph unicode="&#xc7;" d="M106 664q0 325 171.5 505.5t465.5 180.5q208 0 371 -99l-88 -225q-131 104 -295 104q-170 0 -257 -115.5t-87 -344.5q0 -236 84.5 -354.5t261.5 -118.5q186 0 332 98l61 -211q-176 -93 -364 -102l-23 -93q93 -15 142 -64.5t49 -119.5q0 -85 -72.5 -131.5t-173.5 -46.5 q-108 0 -188 43l47 133q53 -49 121 -49q84 0 84 63q0 38 -38 60.5t-114 23.5l43 183q-258 19 -395.5 190t-137.5 490z" />
<glyph unicode="&#xc8;" d="M150 0v1331h942v-219h-678v-324h614v-217h-614v-350h676v-221h-940zM317 1546l84 197l379 -221l-57 -123z" />
<glyph unicode="&#xc9;" d="M150 0v1331h942v-219h-678v-324h614v-217h-614v-350h676v-221h-940zM440 1522l379 221l84 -197l-405 -147z" />
<glyph unicode="&#xca;" d="M150 0v1331h942v-219h-678v-324h614v-217h-614v-350h676v-221h-940zM322 1542l256 207h116l254 -201l-90 -127l-229 150l-223 -150z" />
<glyph unicode="&#xcb;" d="M150 0v1331h942v-219h-678v-324h614v-217h-614v-350h676v-221h-940zM295 1591q0 54 38 92.5t93 38.5t93 -38.5t38 -92.5q0 -56 -38 -94.5t-93 -38.5t-93 38.5t-38 94.5zM702 1591q0 54 39 92.5t93 38.5q55 0 94 -38.5t39 -92.5q0 -55 -38.5 -94t-94.5 -39q-54 0 -93 39 t-39 94z" />
<glyph unicode="&#xcc;" d="M127 0v221h354v889h-354v221h979v-221h-361v-889h361v-221h-979zM299 1546l84 197l379 -221l-57 -123z" />
<glyph unicode="&#xcd;" d="M127 0v221h354v889h-354v221h979v-221h-361v-889h361v-221h-979zM434 1522l379 221l84 -197l-405 -147z" />
<glyph unicode="&#xce;" d="M127 0v221h354v889h-354v221h979v-221h-361v-889h361v-221h-979zM291 1542l256 207h117l254 -201l-91 -127l-229 150l-223 -150z" />
<glyph unicode="&#xcf;" d="M127 0v221h354v889h-354v221h979v-221h-361v-889h361v-221h-979zM274 1591q0 54 38.5 92.5t93.5 38.5t93 -38.5t38 -92.5q0 -56 -38 -94.5t-93 -38.5t-93.5 38.5t-38.5 94.5zM682 1591q0 54 38.5 92.5t92.5 38.5q55 0 94 -38.5t39 -92.5q0 -55 -39 -94t-94 -39 q-54 0 -92.5 39t-38.5 94z" />
<glyph unicode="&#xd0;" d="M4 573v203h96v555h439q178 0 304.5 -46.5t198.5 -135.5t104 -204.5t32 -268.5q0 -76 -7 -142t-25.5 -136.5t-49 -127t-80.5 -108.5t-115.5 -86.5t-158 -55t-205.5 -20.5h-437v573h-96zM365 221h188q65 0 116.5 12t87.5 31.5t62 52.5t41 67.5t23.5 83t11 93t2.5 103.5 q0 86 -7.5 148.5t-30.5 122.5t-62.5 96.5t-106 58.5t-158.5 22h-167v-336h194v-203h-194v-352z" />
<glyph unicode="&#xd1;" d="M88 0v1331h289l518 -905v905h246v-1331h-269l-536 946l2 -946h-250zM289 1540q45 75 102 114.5t117 39.5q50 0 137 -29t127 -29q75 0 129 64l80 -90q-40 -69 -101.5 -111.5t-123.5 -42.5q-40 0 -126 32t-130 32q-75 0 -131 -60z" />
<glyph unicode="&#xd2;" d="M53 655q0 156 32.5 280.5t98.5 218.5t174.5 145t253.5 51q290 0 427 -162.5t137 -521.5q0 -150 -32 -272t-98.5 -216t-177.5 -146t-260 -52q-555 0 -555 675zM311 1546l84 197l379 -221l-57 -123zM334 655q0 -96 6 -162.5t23.5 -125.5t47.5 -94t79 -54.5t118 -19.5 q86 0 142 27.5t88 88.5t44.5 144t12.5 207q0 105 -7 177t-25 130t-50.5 90.5t-81.5 49.5t-119 17q-163 0 -220.5 -105.5t-57.5 -369.5z" />
<glyph unicode="&#xd3;" d="M53 655q0 156 32.5 280.5t98.5 218.5t174.5 145t253.5 51q290 0 427 -162.5t137 -521.5q0 -150 -32 -272t-98.5 -216t-177.5 -146t-260 -52q-555 0 -555 675zM334 655q0 -96 6 -162.5t23.5 -125.5t47.5 -94t79 -54.5t118 -19.5q86 0 142 27.5t88 88.5t44.5 144t12.5 207 q0 105 -7 177t-25 130t-50.5 90.5t-81.5 49.5t-119 17q-163 0 -220.5 -105.5t-57.5 -369.5zM449 1522l378 221l84 -197l-405 -147z" />
<glyph unicode="&#xd4;" d="M53 655q0 156 32.5 280.5t98.5 218.5t174.5 145t253.5 51q290 0 427 -162.5t137 -521.5q0 -150 -32 -272t-98.5 -216t-177.5 -146t-260 -52q-555 0 -555 675zM319 1542l256 207h117l254 -201l-90 -127l-229 150l-224 -150zM334 655q0 -96 6 -162.5t23.5 -125.5t47.5 -94 t79 -54.5t118 -19.5q86 0 142 27.5t88 88.5t44.5 144t12.5 207q0 105 -7 177t-25 130t-50.5 90.5t-81.5 49.5t-119 17q-163 0 -220.5 -105.5t-57.5 -369.5z" />
<glyph unicode="&#xd5;" d="M53 655q0 156 32.5 280.5t98.5 218.5t174.5 145t253.5 51q290 0 427 -162.5t137 -521.5q0 -150 -32 -272t-98.5 -216t-177.5 -146t-260 -52q-555 0 -555 675zM270 1540q45 75 102 114.5t117 39.5q49 0 137 -29t128 -29q75 0 129 64l80 -90q-40 -69 -102 -111.5 t-124 -42.5q-41 0 -127 32t-129 32q-75 0 -131 -60zM334 655q0 -96 6 -162.5t23.5 -125.5t47.5 -94t79 -54.5t118 -19.5q86 0 142 27.5t88 88.5t44.5 144t12.5 207q0 105 -7 177t-25 130t-50.5 90.5t-81.5 49.5t-119 17q-163 0 -220.5 -105.5t-57.5 -369.5z" />
<glyph unicode="&#xd6;" d="M53 655q0 156 32.5 280.5t98.5 218.5t174.5 145t253.5 51q290 0 427 -162.5t137 -521.5q0 -150 -32 -272t-98.5 -216t-177.5 -146t-260 -52q-555 0 -555 675zM268 1591q0 54 38 92.5t93 38.5t93 -38.5t38 -92.5q0 -56 -38 -94.5t-93 -38.5t-93 38.5t-38 94.5zM334 655 q0 -96 6 -162.5t23.5 -125.5t47.5 -94t79 -54.5t118 -19.5q86 0 142 27.5t88 88.5t44.5 144t12.5 207q0 105 -7 177t-25 130t-50.5 90.5t-81.5 49.5t-119 17q-163 0 -220.5 -105.5t-57.5 -369.5zM676 1591q0 54 38.5 92.5t92.5 38.5q55 0 94 -38.5t39 -92.5q0 -55 -39 -94 t-94 -39q-54 0 -92.5 39t-38.5 94z" />
<glyph unicode="&#xd7;" d="M254 352l229 217l-227 215l137 129l223 -215l228 217l129 -118l-232 -217l234 -222l-137 -129l-230 222l-227 -220z" />
<glyph unicode="&#xd8;" d="M47 -14l131 180q-125 167 -125 489q0 156 32.5 280.5t98.5 218.5t174.5 145t253.5 51q220 0 353 -95l63 88h160l-129 -182q117 -166 117 -495q0 -150 -32 -272t-98.5 -216t-177.5 -146t-260 -52q-199 0 -329 88l-60 -82h-172zM334 655q0 -160 18 -247l467 647 q-63 75 -207 75q-163 0 -220.5 -105.5t-57.5 -369.5zM418 264q62 -65 190 -65q86 0 142 27.5t88 88.5t44.5 144t12.5 207q0 155 -16 243z" />
<glyph unicode="&#xd9;" d="M102 467v864h265v-819q0 -179 59 -247t190 -68q140 0 196 71.5t56 247.5v815h256v-858q0 -130 -39.5 -227t-111 -154t-163 -84.5t-204.5 -27.5q-504 0 -504 487zM338 1546l84 197l379 -221l-58 -123z" />
<glyph unicode="&#xda;" d="M102 467v864h265v-819q0 -179 59 -247t190 -68q140 0 196 71.5t56 247.5v815h256v-858q0 -130 -39.5 -227t-111 -154t-163 -84.5t-204.5 -27.5q-504 0 -504 487zM446 1522l379 221l84 -197l-405 -147z" />
<glyph unicode="&#xdb;" d="M102 467v864h265v-819q0 -179 59 -247t190 -68q140 0 196 71.5t56 247.5v815h256v-858q0 -130 -39.5 -227t-111 -154t-163 -84.5t-204.5 -27.5q-504 0 -504 487zM301 1542l256 207h117l254 -201l-90 -127l-230 150l-223 -150z" />
<glyph unicode="&#xdc;" d="M102 467v864h265v-819q0 -179 59 -247t190 -68q140 0 196 71.5t56 247.5v815h256v-858q0 -130 -39.5 -227t-111 -154t-163 -84.5t-204.5 -27.5q-504 0 -504 487zM268 1591q0 54 38 92.5t93 38.5t93 -38.5t38 -92.5q0 -56 -38 -94.5t-93 -38.5t-93 38.5t-38 94.5z M676 1591q0 54 38.5 92.5t92.5 38.5q55 0 94 -38.5t39 -92.5q0 -55 -39 -94t-94 -39q-54 0 -92.5 39t-38.5 94z" />
<glyph unicode="&#xdd;" d="M53 1331h285l299 -596l274 596h265l-418 -807v-524h-266v518zM436 1522l379 221l84 -197l-405 -147z" />
<glyph unicode="&#xde;" d="M137 0v1331h264v-160h199q130 0 226 -32.5t153 -92.5t84 -139.5t27 -179.5q0 -213 -131 -337t-369 -124h-189v-266h-264zM401 494h181q112 0 169.5 53t57.5 176q0 114 -52 171.5t-184 57.5h-172v-458z" />
<glyph unicode="&#xdf;" d="M27 776v180l116 17v51q0 104 38 183.5t103.5 125t144.5 68t169 22.5q110 0 192.5 -24t130 -67t70.5 -96t23 -116q0 -50 -26.5 -94.5t-64 -77t-75 -63t-64 -65t-26.5 -70.5q0 -33 24.5 -58.5t63.5 -44.5t86.5 -38.5t95 -45.5t86.5 -59.5t63.5 -88t24.5 -124.5 q0 -67 -21.5 -120.5t-58.5 -89t-88 -58.5t-108 -33t-121 -10q-194 0 -324 81l62 222q37 -44 107 -75.5t143 -31.5q68 0 109.5 26t41.5 79q0 33 -24.5 58.5t-63 43t-85.5 34.5t-94 41t-85.5 55.5t-63 84.5t-24.5 121q0 49 17.5 92.5t43.5 73.5t56.5 59.5t56.5 52t43.5 50 t17.5 55.5q0 52 -41 84.5t-114 32.5q-99 0 -146 -57t-47 -185v-977h-248v776h-116z" />
<glyph unicode="&#xe0;" d="M145 268q0 62 20.5 111t58.5 82.5t85 57t106 36t116 18t120 5.5q21 0 99 -5l2 76q0 91 -38 127.5t-124 36.5q-66 0 -114 -24t-48 -76q0 -18 6 -33l-223 -33q-14 41 -14 82q0 123 116 202t299 79q91 0 161 -17.5t124.5 -56.5t83.5 -107.5t29 -164.5l-2 -390q0 -94 69 -94 q18 0 39 6l12 -184q-76 -22 -147 -22q-91 0 -145 41.5t-72 115.5q-117 -157 -303 -157q-140 0 -228 75t-88 213zM307 1337l133 160l281 -283l-92 -104zM412 287q0 -56 36.5 -83.5t94.5 -27.5q120 0 207 109v133q-99 6 -107 6q-231 0 -231 -137z" />
<glyph unicode="&#xe1;" d="M145 268q0 62 20.5 111t58.5 82.5t85 57t106 36t116 18t120 5.5q21 0 99 -5l2 76q0 91 -38 127.5t-124 36.5q-66 0 -114 -24t-48 -76q0 -18 6 -33l-223 -33q-14 41 -14 82q0 123 116 202t299 79q91 0 161 -17.5t124.5 -56.5t83.5 -107.5t29 -164.5l-2 -390q0 -94 69 -94 q18 0 39 6l12 -184q-76 -22 -147 -22q-91 0 -145 41.5t-72 115.5q-117 -157 -303 -157q-140 0 -228 75t-88 213zM412 287q0 -56 36.5 -83.5t94.5 -27.5q120 0 207 109v133q-99 6 -107 6q-231 0 -231 -137zM465 1214l280 283l134 -160l-322 -227z" />
<glyph unicode="&#xe2;" d="M145 268q0 62 20.5 111t58.5 82.5t85 57t106 36t116 18t120 5.5q21 0 99 -5l2 76q0 91 -38 127.5t-124 36.5q-66 0 -114 -24t-48 -76q0 -18 6 -33l-223 -33q-14 41 -14 82q0 123 116 202t299 79q91 0 161 -17.5t124.5 -56.5t83.5 -107.5t29 -164.5l-2 -390q0 -94 69 -94 q18 0 39 6l12 -184q-76 -22 -147 -22q-91 0 -145 41.5t-72 115.5q-117 -157 -303 -157q-140 0 -228 75t-88 213zM270 1206l273 256h116l259 -252l-121 -112l-201 180l-213 -180zM412 287q0 -56 36.5 -83.5t94.5 -27.5q120 0 207 109v133q-99 6 -107 6q-231 0 -231 -137z" />
<glyph unicode="&#xe3;" d="M145 268q0 62 20.5 111t58.5 82.5t85 57t106 36t116 18t120 5.5q21 0 99 -5l2 76q0 91 -38 127.5t-124 36.5q-66 0 -114 -24t-48 -76q0 -18 6 -33l-223 -33q-14 41 -14 82q0 123 116 202t299 79q91 0 161 -17.5t124.5 -56.5t83.5 -107.5t29 -164.5l-2 -390q0 -94 69 -94 q18 0 39 6l12 -184q-76 -22 -147 -22q-91 0 -145 41.5t-72 115.5q-117 -157 -303 -157q-140 0 -228 75t-88 213zM254 1257q47 75 104 114.5t117 39.5q49 0 130 -27.5t122 -27.5q78 0 129 61l82 -90q-40 -68 -102.5 -110.5t-124.5 -42.5q-41 0 -120.5 31.5t-123.5 31.5 q-76 0 -131 -59zM412 287q0 -56 36.5 -83.5t94.5 -27.5q120 0 207 109v133q-99 6 -107 6q-231 0 -231 -137z" />
<glyph unicode="&#xe4;" d="M145 268q0 62 20.5 111t58.5 82.5t85 57t106 36t116 18t120 5.5q21 0 99 -5l2 76q0 91 -38 127.5t-124 36.5q-66 0 -114 -24t-48 -76q0 -18 6 -33l-223 -33q-14 41 -14 82q0 123 116 202t299 79q91 0 161 -17.5t124.5 -56.5t83.5 -107.5t29 -164.5l-2 -390q0 -94 69 -94 q18 0 39 6l12 -184q-76 -22 -147 -22q-91 0 -145 41.5t-72 115.5q-117 -157 -303 -157q-140 0 -228 75t-88 213zM272 1274q0 55 38.5 93t92.5 38q56 0 95 -38t39 -93t-39 -93t-95 -38q-54 0 -92.5 38t-38.5 93zM412 287q0 -56 36.5 -83.5t94.5 -27.5q120 0 207 109v133 q-99 6 -107 6q-231 0 -231 -137zM651 1274q0 55 38.5 93t92.5 38q56 0 94.5 -38t38.5 -93t-38.5 -93t-94.5 -38q-54 0 -92.5 38t-38.5 93z" />
<glyph unicode="&#xe5;" d="M145 268q0 62 20.5 111t58.5 82.5t85 57t106 36t116 18t120 5.5q21 0 99 -5l2 76q0 91 -38 127.5t-124 36.5q-66 0 -114 -24t-48 -76q0 -18 6 -33l-223 -33q-14 41 -14 82q0 123 116 202t299 79q91 0 161 -17.5t124.5 -56.5t83.5 -107.5t29 -164.5l-2 -390q0 -94 69 -94 q18 0 39 6l12 -184q-76 -22 -147 -22q-91 0 -145 41.5t-72 115.5q-117 -157 -303 -157q-140 0 -228 75t-88 213zM375 1319q0 98 66.5 152.5t160.5 54.5q95 0 157 -53t62 -154q0 -88 -60.5 -148.5t-162.5 -60.5q-103 0 -163 57.5t-60 151.5zM412 287q0 -56 36.5 -83.5 t94.5 -27.5q120 0 207 109v133q-99 6 -107 6q-231 0 -231 -137zM512 1319q0 -92 86 -92q84 0 84 92q0 46 -20 68t-64 22q-46 0 -66 -21.5t-20 -68.5z" />
<glyph unicode="&#xe6;" d="M12 268q0 69 25.5 123.5t66 88t96.5 55t112 30t118 8.5q39 0 57 -2q0 15 9 60l2 35q0 82 -29 117.5t-92 35.5q-51 0 -86 -25t-35 -79q0 -17 6 -35l-184 -33q-15 47 -15 88q0 121 92.5 198t239.5 77q174 0 242 -105q92 105 231 105q177 0 255 -126t81 -415v-35h-493 q6 -126 59 -188t143 -62q61 0 121.5 28.5t106.5 74.5l55 -205q-145 -102 -322 -102q-214 0 -319 192q-51 -95 -126.5 -143.5t-160.5 -48.5q-116 0 -186 76t-70 212zM231 285q0 -55 30 -87t73 -32q55 0 100 36.5t74 88.5q-18 66 -23 127q-40 4 -67 4q-187 0 -187 -137z M709 598h278v29q2 96 -30 151.5t-91 55.5q-71 0 -108.5 -58t-48.5 -178z" />
<glyph unicode="&#xe7;" d="M180 489q0 127 41 227t113.5 163.5t169.5 97t213 33.5q101 0 200.5 -25.5t169.5 -66.5l-83 -228q-54 49 -130 79t-145 30q-124 0 -199 -72.5t-75 -234.5q0 -84 22 -145t62 -94t88 -48t108 -15q71 0 149 29t130 72l67 -205q-135 -87 -333 -102l-23 -95q92 -15 141 -64.5 t49 -119.5q0 -85 -72.5 -131.5t-172.5 -46.5q-109 0 -189 43l47 133q53 -49 121 -49q84 0 84 63q0 81 -151 84l43 181q-93 7 -170.5 38t-140.5 89.5t-98.5 155t-35.5 224.5z" />
<glyph unicode="&#xe8;" d="M145 500q0 118 39.5 216t106 161.5t153 98t181.5 34.5q101 0 182.5 -28t144.5 -87t97 -159.5t34 -235.5q0 -50 -2 -66h-669q18 -133 100.5 -191.5t204.5 -58.5q71 0 153 31t138 76l67 -203q-194 -108 -420 -108q-82 0 -155.5 18t-139 58t-113 99.5t-75 147.5t-27.5 197z M375 1337l133 160l280 -283l-92 -104zM412 598h409q4 110 -49.5 168.5t-140.5 58.5q-99 0 -152.5 -54t-66.5 -173z" />
<glyph unicode="&#xe9;" d="M145 500q0 118 39.5 216t106 161.5t153 98t181.5 34.5q101 0 182.5 -28t144.5 -87t97 -159.5t34 -235.5q0 -50 -2 -66h-669q18 -133 100.5 -191.5t204.5 -58.5q71 0 153 31t138 76l67 -203q-194 -108 -420 -108q-82 0 -155.5 18t-139 58t-113 99.5t-75 147.5t-27.5 197z M412 598h409q4 110 -49.5 168.5t-140.5 58.5q-99 0 -152.5 -54t-66.5 -173zM481 1214l281 283l133 -160l-322 -227z" />
<glyph unicode="&#xea;" d="M145 500q0 118 39.5 216t106 161.5t153 98t181.5 34.5q101 0 182.5 -28t144.5 -87t97 -159.5t34 -235.5q0 -50 -2 -66h-669q18 -133 100.5 -191.5t204.5 -58.5q71 0 153 31t138 76l67 -203q-194 -108 -420 -108q-82 0 -155.5 18t-139 58t-113 99.5t-75 147.5t-27.5 197z M322 1206l272 256h117l258 -252l-121 -112l-201 180l-213 -180zM412 598h409q4 110 -49.5 168.5t-140.5 58.5q-99 0 -152.5 -54t-66.5 -173z" />
<glyph unicode="&#xeb;" d="M145 500q0 118 39.5 216t106 161.5t153 98t181.5 34.5q101 0 182.5 -28t144.5 -87t97 -159.5t34 -235.5q0 -50 -2 -66h-669q18 -133 100.5 -191.5t204.5 -58.5q71 0 153 31t138 76l67 -203q-194 -108 -420 -108q-82 0 -155.5 18t-139 58t-113 99.5t-75 147.5t-27.5 197z M330 1274q0 55 38.5 93t92.5 38q56 0 94.5 -38t38.5 -93t-38.5 -93t-94.5 -38q-54 0 -92.5 38t-38.5 93zM412 598h409q4 110 -49.5 168.5t-140.5 58.5q-99 0 -152.5 -54t-66.5 -173zM709 1274q0 55 38.5 93t92.5 38q56 0 94.5 -38t38.5 -93t-38.5 -93t-94.5 -38 q-54 0 -92.5 38t-38.5 93z" />
<glyph unicode="&#xec;" d="M154 0v207h325v569h-325v207h585v-776h336v-207h-921zM319 1337l134 160l280 -283l-92 -104z" />
<glyph unicode="&#xed;" d="M154 0v207h325v569h-325v207h585v-776h336v-207h-921zM434 1214l281 283l133 -160l-322 -227z" />
<glyph unicode="&#xee;" d="M154 0v207h325v569h-325v207h585v-776h336v-207h-921zM285 1206l272 256h117l258 -252l-121 -112l-201 180l-213 -180z" />
<glyph unicode="&#xef;" d="M154 0v207h325v569h-325v207h585v-776h336v-207h-921zM293 1274q0 55 38.5 93t92.5 38q56 0 94.5 -38t38.5 -93t-38.5 -93t-94.5 -38q-54 0 -92.5 38t-38.5 93zM672 1274q0 55 38.5 93t92.5 38q56 0 94.5 -38t38.5 -93t-38.5 -93t-94.5 -38q-54 0 -92.5 38t-38.5 93z" />
<glyph unicode="&#xf0;" d="M106 496q0 212 127.5 346.5t337.5 134.5q79 0 152 -31q-70 99 -172 178l-92 -108l-115 74l92 112q-74 41 -92 49l127 166q18 -8 100 -53l80 96l121 -80l-78 -90q197 -135 306.5 -317.5t119.5 -437.5q0 -6 1 -19.5t1 -19.5q0 -143 -58 -259t-174.5 -186.5t-273.5 -70.5 q-238 0 -374 136.5t-136 379.5zM381 498q0 -314 229 -314q133 0 185.5 76t52.5 234q0 130 -33 249q-91 48 -194 48q-131 0 -185.5 -74t-54.5 -219z" />
<glyph unicode="&#xf1;" d="M152 0v983h239l4 -133q74 82 166.5 121t188.5 39q67 0 124.5 -18t106.5 -56t77.5 -108t28.5 -164v-664h-260v578q0 112 -44 154t-128 42q-60 0 -126.5 -30t-116.5 -78v-666h-260zM272 1257q46 75 104 114.5t118 39.5q50 0 130 -27.5t121 -27.5q78 0 129 61l82 -90 q-40 -68 -102.5 -110.5t-124.5 -42.5q-41 0 -121 31.5t-123 31.5q-76 0 -131 -59z" />
<glyph unicode="&#xf2;" d="M98 498q0 224 143 368t373 144q244 0 380 -137.5t136 -374.5q0 -146 -60 -262.5t-178 -186t-276 -69.5q-239 0 -378.5 136.5t-139.5 381.5zM311 1337l133 160l281 -283l-92 -104zM373 498q0 -314 237 -314q135 0 191.5 77t56.5 237q0 307 -248 307q-237 0 -237 -307z" />
<glyph unicode="&#xf3;" d="M98 498q0 224 143 368t373 144q244 0 380 -137.5t136 -374.5q0 -146 -60 -262.5t-178 -186t-276 -69.5q-239 0 -378.5 136.5t-139.5 381.5zM373 498q0 -314 237 -314q135 0 191.5 77t56.5 237q0 307 -248 307q-237 0 -237 -307zM451 1214l280 283l133 -160l-321 -227z " />
<glyph unicode="&#xf4;" d="M98 498q0 224 143 368t373 144q244 0 380 -137.5t136 -374.5q0 -146 -60 -262.5t-178 -186t-276 -69.5q-239 0 -378.5 136.5t-139.5 381.5zM289 1206l272 256h117l258 -252l-121 -112l-201 180l-213 -180zM373 498q0 -314 237 -314q135 0 191.5 77t56.5 237 q0 307 -248 307q-237 0 -237 -307z" />
<glyph unicode="&#xf5;" d="M98 498q0 224 143 368t373 144q244 0 380 -137.5t136 -374.5q0 -146 -60 -262.5t-178 -186t-276 -69.5q-239 0 -378.5 136.5t-139.5 381.5zM270 1257q46 75 104 114.5t118 39.5q50 0 130 -27.5t121 -27.5q78 0 129 61l82 -90q-40 -68 -102.5 -110.5t-124.5 -42.5 q-41 0 -121 31.5t-123 31.5q-76 0 -131 -59zM373 498q0 -314 237 -314q135 0 191.5 77t56.5 237q0 307 -248 307q-237 0 -237 -307z" />
<glyph unicode="&#xf6;" d="M98 498q0 224 143 368t373 144q244 0 380 -137.5t136 -374.5q0 -146 -60 -262.5t-178 -186t-276 -69.5q-239 0 -378.5 136.5t-139.5 381.5zM291 1274q0 55 38.5 93t92.5 38q56 0 94.5 -38t38.5 -93t-38.5 -93t-94.5 -38q-54 0 -92.5 38t-38.5 93zM373 498 q0 -314 237 -314q135 0 191.5 77t56.5 237q0 307 -248 307q-237 0 -237 -307zM670 1274q0 55 38.5 93t92.5 38q56 0 94.5 -38t38.5 -93t-38.5 -93t-94.5 -38q-54 0 -92.5 38t-38.5 93z" />
<glyph unicode="&#xf7;" d="M213 496v172h801v-172h-801zM483 270q0 56 38.5 94.5t94.5 38.5q54 0 94 -39t40 -94t-40 -94t-94 -39q-56 0 -94.5 38.5t-38.5 94.5zM483 887q0 55 38.5 94t94.5 39q54 0 94 -39t40 -94t-40 -94t-94 -39q-56 0 -94.5 39t-38.5 94z" />
<glyph unicode="&#xf8;" d="M98 498q0 224 143 368t373 144q160 0 279 -64l47 58h178l-114 -142q126 -135 126 -364q0 -146 -60 -262.5t-178 -186t-276 -69.5q-164 0 -278 63l-47 -57h-176l112 139q-129 138 -129 373zM373 498q0 -95 22 -166l355 436q-56 37 -140 37q-237 0 -237 -307zM479 217 q50 -33 131 -33q135 0 191.5 77t56.5 237q0 95 -22 157z" />
<glyph unicode="&#xf9;" d="M143 326v657h260v-586q0 -113 41.5 -156.5t116.5 -43.5q60 0 128.5 36t123.5 91v659h260v-983h-231l-13 139q-144 -159 -346 -159q-340 0 -340 346zM342 1337l133 160l281 -283l-92 -104z" />
<glyph unicode="&#xfa;" d="M143 326v657h260v-586q0 -113 41.5 -156.5t116.5 -43.5q60 0 128.5 36t123.5 91v659h260v-983h-231l-13 139q-144 -159 -346 -159q-340 0 -340 346zM461 1214l280 283l133 -160l-321 -227z" />
<glyph unicode="&#xfb;" d="M143 326v657h260v-586q0 -113 41.5 -156.5t116.5 -43.5q60 0 128.5 36t123.5 91v659h260v-983h-231l-13 139q-144 -159 -346 -159q-340 0 -340 346zM291 1206l272 256h117l258 -252l-121 -112l-201 180l-213 -180z" />
<glyph unicode="&#xfc;" d="M143 326v657h260v-586q0 -113 41.5 -156.5t116.5 -43.5q60 0 128.5 36t123.5 91v659h260v-983h-231l-13 139q-144 -159 -346 -159q-340 0 -340 346zM309 1274q0 55 38.5 93t92.5 38q56 0 94.5 -38t38.5 -93t-38.5 -93t-94.5 -38q-54 0 -92.5 38t-38.5 93zM688 1274 q0 55 38.5 93t92.5 38q56 0 94.5 -38t38.5 -93t-38.5 -93t-94.5 -38q-54 0 -92.5 38t-38.5 93z" />
<glyph unicode="&#xfd;" d="M111 983h280l236 -727l229 727h262l-518 -1434h-258l139 392zM473 1214l281 283l133 -160l-322 -227z" />
<glyph unicode="&#xfe;" d="M133 -451v1854h260v-549q55 71 137 113.5t162 42.5q194 0 299 -132t105 -364q0 -247 -145.5 -390.5t-379.5 -143.5q-83 0 -178 18v-449h-260zM393 231q64 -43 164 -43q123 0 193.5 77.5t70.5 221.5q0 293 -211 293q-57 0 -114.5 -31t-102.5 -83v-435z" />
<glyph unicode="&#xff;" d="M111 983h280l236 -727l229 727h262l-518 -1434h-258l139 392zM313 1274q0 55 38.5 93t92.5 38q56 0 95 -38t39 -93t-39 -93t-95 -38q-54 0 -92.5 38t-38.5 93zM692 1274q0 55 38.5 93t92.5 38q56 0 94.5 -38t38.5 -93t-38.5 -93t-94.5 -38q-54 0 -92.5 38t-38.5 93z" />
<glyph unicode="&#x152;" d="M35 655q0 126 13 226t46 190t86.5 150t137.5 94.5t196 34.5q63 0 131 -19h549v-219h-332v-324h268v-217h-268v-350h330v-221h-553q-75 -20 -127 -20q-139 0 -233 43.5t-147 133.5t-75 209t-22 289zM317 655q0 -94 5 -162t17.5 -127t34.5 -95t56.5 -56t81.5 -20 q62 0 100 14v903q-46 21 -98 21q-107 0 -152 -112t-45 -366z" />
<glyph unicode="&#x153;" d="M14 496q0 238 93 376t262 138q188 0 276 -154q89 154 246 154q77 0 133.5 -24.5t100.5 -81.5t66.5 -158t22.5 -246v-66h-471q12 -129 63 -196.5t134 -67.5q96 0 197 90l71 -172q-120 -108 -286 -108q-186 0 -281 157q-103 -157 -270 -157q-175 0 -266 131t-91 385z M217 498q0 -163 34.5 -245.5t121.5 -82.5q92 0 129 83t37 245q0 69 -7 122t-24.5 100.5t-51.5 73t-83 25.5q-87 0 -121.5 -84.5t-34.5 -236.5zM741 598h279q4 115 -29 178.5t-96 63.5q-72 0 -108.5 -58.5t-45.5 -183.5z" />
<glyph unicode="&#x178;" d="M53 1331h285l299 -596l274 596h265l-418 -807v-524h-266v518zM299 1591q0 54 38 92.5t93 38.5t93 -38.5t38 -92.5q0 -56 -38 -94.5t-93 -38.5t-93 38.5t-38 94.5zM707 1591q0 54 38.5 92.5t92.5 38.5q55 0 94 -38.5t39 -92.5q0 -55 -38.5 -94t-94.5 -39q-54 0 -92.5 39 t-38.5 94z" />
<glyph unicode="&#x2c6;" d="M291 1206l272 256h117l258 -252l-121 -112l-201 180l-213 -180z" />
<glyph unicode="&#x2dc;" d="M272 1257q46 75 104 114.5t118 39.5q50 0 130 -27.5t121 -27.5q78 0 129 61l82 -90q-40 -68 -102.5 -110.5t-124.5 -42.5q-41 0 -121 31.5t-123 31.5q-76 0 -131 -59z" />
<glyph unicode="&#x2000;" horiz-adv-x="910" />
<glyph unicode="&#x2001;" horiz-adv-x="1821" />
<glyph unicode="&#x2002;" horiz-adv-x="910" />
<glyph unicode="&#x2003;" horiz-adv-x="1821" />
<glyph unicode="&#x2004;" horiz-adv-x="607" />
<glyph unicode="&#x2005;" horiz-adv-x="455" />
<glyph unicode="&#x2006;" horiz-adv-x="303" />
<glyph unicode="&#x2007;" horiz-adv-x="303" />
<glyph unicode="&#x2008;" horiz-adv-x="227" />
<glyph unicode="&#x2009;" horiz-adv-x="364" />
<glyph unicode="&#x200a;" horiz-adv-x="101" />
<glyph unicode="&#x2010;" d="M334 412v215h561v-215h-561z" />
<glyph unicode="&#x2011;" d="M334 412v215h561v-215h-561z" />
<glyph unicode="&#x2012;" d="M334 412v215h561v-215h-561z" />
<glyph unicode="&#x2013;" d="M164 436v178h901v-178h-901z" />
<glyph unicode="&#x2014;" d="M0 436v178h1229v-178h-1229z" />
<glyph unicode="&#x2018;" d="M434 821q2 136 60.5 318t134.5 284l164 -51q-63 -108 -92 -257.5t-31 -293.5h-236z" />
<glyph unicode="&#x2019;" d="M434 868q63 107 92 256t31 295h236q-2 -137 -60.5 -319t-134.5 -283z" />
<glyph unicode="&#x201a;" d="M434 -315q64 109 93.5 255.5t31.5 288.5h234q-3 -135 -61.5 -314t-133.5 -282z" />
<glyph unicode="&#x201c;" d="M246 821q2 136 60 318t134 284l164 -51q-63 -108 -92 -257.5t-31 -293.5h-235zM625 821q2 136 60 318t134 284l164 -51q-63 -108 -92 -257.5t-31 -293.5h-235z" />
<glyph unicode="&#x201d;" d="M246 868q63 107 92 256t31 295h235q-2 -138 -60 -319.5t-134 -282.5zM625 868q63 107 92 256t31 295h235q-2 -137 -60.5 -319t-134.5 -283z" />
<glyph unicode="&#x201e;" d="M246 -315q63 109 92 255t31 289h233q-3 -135 -61 -314.5t-133 -281.5zM627 -315q63 109 92 255t31 289h233q-2 -135 -60.5 -314t-134.5 -282z" />
<glyph unicode="&#x2022;" d="M426 532q0 57 33 103.5t88 66.5q27 11 63 11q59 0 107.5 -33t70.5 -90q13 -37 13 -66q0 -58 -33.5 -105t-89.5 -67q-25 -10 -64 -10q-58 0 -106.5 33t-69.5 90q-12 35 -12 67z" />
<glyph unicode="&#x2026;" d="M66 121q0 67 38 103t105 36q65 0 105 -34.5t40 -104.5q0 -71 -37.5 -107.5t-107.5 -36.5q-143 0 -143 144zM469 121q0 67 38 103t105 36q66 0 106 -34.5t40 -104.5q0 -71 -38 -107.5t-108 -36.5q-143 0 -143 144zM872 121q0 67 38.5 103t105.5 36q65 0 105 -34.5 t40 -104.5q0 -71 -37.5 -107.5t-107.5 -36.5q-144 0 -144 144z" />
<glyph unicode="&#x202f;" horiz-adv-x="364" />
<glyph unicode="&#x2039;" d="M373 479l272 473h209l-213 -467l213 -479h-209z" />
<glyph unicode="&#x203a;" d="M373 6l213 479l-213 467h207l274 -473l-274 -473h-207z" />
<glyph unicode="&#x205f;" horiz-adv-x="455" />
<glyph unicode="&#x20ac;" d="M47 406l21 178h137q-2 25 -2 75q0 45 2 68h-137l20 178h143q54 213 204 329t370 116q187 0 350 -86l-80 -215q-134 86 -268 86q-228 0 -295 -230h455l-23 -178h-459q-2 -20 -2 -61q0 -57 2 -82h441l-21 -178h-385q78 -211 307 -211q153 0 289 81l64 -206 q-96 -53 -185 -71.5t-211 -18.5q-454 0 -555 426h-182z" />
<glyph unicode="&#x2122;" d="M29 1198v135h405v-135h-131v-610h-143v610h-131zM467 588v745h172l113 -315l86 -268l84 274l110 309h164v-745h-137v454l-53 -184l-97 -270h-147l-100 262l-72 211l2 -197v-276h-125z" />
<glyph unicode="&#x25fc;" horiz-adv-x="983" d="M0 0v983h983v-983h-983z" />
</font>
</defs>
</svg>
