<?xml version="1.0" standalone="no"?>
<!DOCTYPE svg PUBLIC "-//W3C//DTD SVG 1.1//EN" "http://www.w3.org/Graphics/SVG/1.1/DTD/svg11.dtd" >
<svg xmlns="http://www.w3.org/2000/svg">
<metadata></metadata>
<defs>
<font id="typoninesans_monospacelight" horiz-adv-x="1228" >
<font-face units-per-em="2048" ascent="1597" descent="-451" />
<missing-glyph horiz-adv-x="500" />
<glyph horiz-adv-x="0" />
<glyph horiz-adv-x="682" />
<glyph unicode=" " />
<glyph unicode="!" d="M537 53q0 34 20 52t55 18q33 0 55.5 -17.5t22.5 -52.5q0 -36 -22.5 -54.5t-55.5 -18.5q-75 0 -75 73zM557 862v469h105v-469l-13 -491h-76z" />
<glyph unicode="&#x22;" d="M385 1331h117l-25 -563h-63zM725 1331h119l-27 -563h-61z" />
<glyph unicode="#" d="M102 334l11 72h211l59 348h-227l10 71h229l56 322h79l-55 -322h354l56 322h80l-56 -322h217l-10 -71h-219l-59 -348h235l-10 -72h-238l-55 -334h-80l55 334h-354l-55 -334h-80l55 334h-209zM403 406h355l59 348h-354z" />
<glyph unicode="$" d="M223 113l37 96q48 -36 134.5 -64.5t176.5 -31.5v520q-43 17 -69.5 29t-64.5 31.5t-61.5 36.5t-50.5 42.5t-42 52.5t-25 62.5t-10 75.5q0 117 91 194.5t232 91.5v127h82v-123q198 -6 299 -57l-37 -96q-86 62 -262 69v-471q49 -21 74 -32t69 -33.5t68 -40t54.5 -46 t46.5 -57t27.5 -67t11.5 -82.5q0 -120 -100.5 -205t-250.5 -100v-119h-82v115q-113 1 -203.5 26t-144.5 56zM354 969q0 -83 56 -136.5t161 -99.5v432q-101 -12 -159 -64.5t-58 -131.5zM653 117q103 13 171.5 67.5t68.5 143.5q0 52 -18.5 94.5t-54.5 74.5t-74 54.5t-93 46.5 v-481z" />
<glyph unicode="%" d="M47 1040q0 84 30.5 152t102 113t176.5 45q160 0 236 -84.5t76 -225.5q0 -44 -9.5 -85.5t-32.5 -83t-57.5 -72t-89 -49.5t-123.5 -19q-162 0 -235.5 77.5t-73.5 231.5zM125 152l895 1060l59 -51l-891 -1057zM145 1040q0 -53 8.5 -91.5t30.5 -71.5t65 -49.5t107 -16.5 q62 0 105 17t65.5 49.5t31.5 71.5t9 91q0 33 -5 62.5t-19.5 61t-37.5 54.5t-61 37.5t-88 14.5q-211 0 -211 -230zM561 287q0 131 77.5 220t231.5 89q160 0 236 -84t76 -225q0 -44 -9.5 -86t-32.5 -83t-57.5 -72t-89 -50t-123.5 -19q-162 0 -235.5 78t-73.5 232zM659 287 q0 -53 8.5 -91.5t30.5 -71.5t65 -50t107 -17q62 0 105 17t65.5 50t31.5 72t9 91q0 33 -5 62.5t-19.5 61t-37.5 54t-61 37t-88 14.5q-211 0 -211 -229z" />
<glyph unicode="&#x26;" d="M51 311q0 139 83 247.5t241 148.5q-41 201 -41 319q0 151 73.5 237.5t186.5 86.5q43 0 83.5 -14t78 -44t60 -87.5t22.5 -135.5q0 -72 -20.5 -134t-54 -106t-80 -79.5t-94.5 -57.5t-102 -37q68 -249 207 -413q70 95 100 195t42 233h350v-82h-266q-25 -121 -65 -210 t-114 -188q55 -59 120.5 -91.5t129.5 -32.5q108 0 168 96l49 -88q-84 -94 -225 -94q-159 0 -305 139q-136 -139 -307 -139q-150 0 -235 93.5t-85 237.5zM154 334q0 -140 63.5 -207.5t165.5 -67.5q137 0 244 113q-74 85 -136.5 208t-99.5 255q-131 -46 -184 -117t-53 -184z M432 1057q0 -161 37 -330q55 18 97.5 42t81.5 63t60 99t21 138q0 203 -143 203q-154 0 -154 -215z" />
<glyph unicode="'" d="M555 1331h117l-31 -563h-55z" />
<glyph unicode="(" d="M354 512q0 574 477 926l43 -58q-79 -68 -137 -128t-115 -140.5t-92 -165t-57 -195.5t-22 -239t22 -239t57 -195.5t92 -165t115 -140.5t137 -128l-43 -58q-477 352 -477 926z" />
<glyph unicode=")" d="M354 -356q79 68 137 128t115 140.5t92.5 165t57.5 195.5t22 239t-22 239t-57.5 195.5t-92.5 165t-115 140.5t-137 128l43 58q477 -352 477 -926t-477 -926z" />
<glyph unicode="*" d="M307 879l252 100q7 -18 25 -29l-215 -164zM307 1100l62 94l206 -152q-20 -11 -20 -41zM559 692l31 256q6 -4 24 -4l15 2l33 -254h-103zM559 1286h103l-29 -233q-8 4 -17 4q-14 0 -22 -2zM637 948q16 7 29 29l254 -100l-62 -91zM651 1042l207 152l62 -92l-250 -98 q-4 26 -19 38z" />
<glyph unicode="+" d="M199 571v86h368v336h92v-336h371v-86h-371v-346h-92v346h-368z" />
<glyph unicode="," d="M512 -266q104 212 111 383h92q-15 -212 -129 -404z" />
<glyph unicode="-" d="M362 481v99h504v-99h-504z" />
<glyph unicode="." d="M537 53q0 34 20 52t55 18q34 0 56 -17.5t22 -52.5q0 -36 -22 -54.5t-56 -18.5q-75 0 -75 73z" />
<glyph unicode="/" d="M254 -131l629 1534h92l-629 -1534h-92z" />
<glyph unicode="0" d="M109 641q0 113 13.5 210.5t49 191.5t91.5 160t146 106.5t207 40.5q132 0 229.5 -45.5t156.5 -131.5t87.5 -202.5t28.5 -265.5q0 -69 -6 -134.5t-21.5 -139.5t-40 -137t-65 -122t-92.5 -100.5t-126 -66.5t-163 -25q-246 0 -370.5 173.5t-124.5 487.5zM215 688 q0 -168 27 -298t104 -214l455 1034q-84 43 -197 43q-76 0 -138 -23t-103.5 -65.5t-71 -95.5t-46 -118.5t-23.5 -129t-7 -133.5zM414 121q84 -49 204 -49q80 0 143.5 26.5t105.5 74.5t71.5 106.5t45 130t22 136t6.5 134.5q0 346 -142 479z" />
<glyph unicode="1" d="M178 0v94h400v1127l-338 -91v93l440 125v-1254h371v-94h-873z" />
<glyph unicode="2" d="M172 0v84q82 63 173.5 144.5t188.5 184t174.5 202.5t127 201.5t49.5 178.5q0 123 -79 190.5t-192 67.5q-79 0 -159 -39t-138 -100l-61 66q68 76 169.5 123t207.5 47q96 0 175 -36.5t130 -116t51 -191.5q0 -98 -66 -226.5t-170.5 -254t-218.5 -236.5t-223 -195h746v-94 h-885z" />
<glyph unicode="3" d="M197 94l63 86q57 -47 145 -77.5t173 -30.5q88 0 166 31t129 94.5t51 146.5q0 76 -39 134t-109.5 94.5t-159 57.5t-198.5 29v78q83 7 159 29.5t140 58.5t102.5 92t38.5 123q0 98 -74.5 155.5t-189.5 57.5q-159 0 -285 -90l-45 82q6 4 17 11t47 25.5t74.5 32t95 25 t112.5 11.5q153 0 254 -82.5t101 -206.5q0 -136 -91 -225t-245 -123q191 -28 296 -122.5t105 -240.5q0 -71 -26 -134.5t-79 -117.5t-148 -86t-220 -32q-112 0 -220.5 40.5t-139.5 73.5z" />
<glyph unicode="4" d="M121 367v86l661 878h113v-872h211v-92h-211v-363h-102v363h-672zM229 461h564v751z" />
<glyph unicode="5" d="M211 98l57 86q58 -52 141.5 -82t170.5 -30q89 0 162 32t120 102.5t47 168.5q0 69 -21 123.5t-61.5 92t-94 64t-125.5 41t-148.5 21t-169.5 6.5v608h690v-96h-588v-418q320 -6 473.5 -114t153.5 -322q0 -63 -16 -120t-51.5 -109t-89 -89.5t-133.5 -60t-179 -22.5 q-95 0 -188 35t-150 83z" />
<glyph unicode="6" d="M166 614q0 340 191 538t530 198q45 0 110 -7v-98q-55 8 -123 8q-125 0 -232.5 -38t-189 -111t-129.5 -187t-51 -258q182 127 404 127q78 0 146 -22t122 -65.5t85.5 -114t31.5 -160.5q0 -200 -116.5 -322t-319.5 -122q-99 0 -176.5 30.5t-130.5 85.5t-87 135t-49.5 174.5 t-15.5 208.5zM272 559q8 -487 369 -487q79 0 140.5 27t97.5 73t54.5 103t18.5 122q0 153 -79 224t-250 71q-94 0 -186 -36.5t-165 -96.5z" />
<glyph unicode="7" d="M176 1235v96h875v-71l-598 -1256h-105l588 1231h-760z" />
<glyph unicode="8" d="M166 301q0 61 20.5 114.5t51 92.5t80.5 76.5t94 62.5t106 55q-140 83 -166 101q-101 70 -128 154q-13 41 -13 90q0 135 120.5 219t289.5 84q175 0 281 -80.5t106 -216.5q0 -174 -324 -340q12 -7 59.5 -32.5t66.5 -36t61 -37t62 -44t50 -46.5t44 -55t25 -60t11 -70 q0 -103 -66.5 -185t-169 -124.5t-217.5 -42.5q-79 0 -157 21.5t-142.5 60.5t-104.5 101.5t-40 137.5zM272 315q0 -118 100.5 -181.5t254.5 -63.5q144 0 235.5 70.5t91.5 181.5q0 43 -24 85t-50 70t-84 65t-83.5 50.5t-89.5 46.5q-18 10 -27 14q-67 -31 -116.5 -60 t-101 -70.5t-79 -94t-27.5 -113.5zM311 1055q0 -85 50 -132t233 -157q13 -8 20 -12q148 89 215.5 155.5t67.5 139.5q0 57 -24.5 99.5t-66 66t-89 34.5t-101.5 11q-138 0 -221.5 -55.5t-83.5 -149.5z" />
<glyph unicode="9" d="M166 905q0 200 117 322.5t319 122.5q123 0 213 -46.5t143 -133t78 -199t25 -256.5q0 -339 -191 -537t-530 -198q-56 0 -111 6v98q55 -8 123 -8q125 0 232.5 38t189 111t129.5 187t51 258q-182 -127 -403 -127q-78 0 -146 22t-122 65.5t-85.5 114t-31.5 160.5zM274 932 q0 -153 79.5 -224t250.5 -71q94 0 185.5 36.5t164.5 96.5q-8 487 -368 487q-79 0 -140.5 -27t-98 -73t-55 -103t-18.5 -122z" />
<glyph unicode=":" d="M537 53q0 34 20 52t55 18q34 0 56 -17.5t22 -52.5q0 -36 -22 -54.5t-56 -18.5q-75 0 -75 73zM537 813q0 34 20 52t55 18q34 0 56 -17.5t22 -52.5q0 -36 -22 -55t-56 -19q-75 0 -75 74z" />
<glyph unicode=";" d="M492 -266q102 210 110 383h92q-15 -212 -129 -404zM582 813q0 34 20 52t55 18q34 0 56 -17.5t22 -52.5q0 -36 -22 -55t-56 -19q-75 0 -75 74z" />
<glyph unicode="&#x3c;" d="M260 553v72l655 475l52 -70l-609 -438l609 -457l-52 -72z" />
<glyph unicode="=" d="M174 367v86h879v-86h-879zM174 797v86h879v-86h-879z" />
<glyph unicode="&#x3e;" d="M260 135l608 457l-608 438l51 70l656 -475v-72l-656 -490z" />
<glyph unicode="?" d="M246 1219q63 56 159 93.5t201 37.5q170 0 273.5 -77t103.5 -200q0 -63 -24.5 -117t-63 -93t-85.5 -74.5t-94 -67.5t-85.5 -64t-63 -73t-24.5 -86q0 -52 39 -123l-111 -29q-35 67 -35 154q0 52 24 98.5t63 82.5t85.5 70l93 68t85.5 69.5t63 81.5t24 97q0 90 -78.5 138 t-199.5 48q-184 0 -293 -118zM473 53q0 34 20.5 52t55.5 18q34 0 56 -17.5t22 -52.5q0 -36 -22 -54.5t-56 -18.5q-76 0 -76 73z" />
<glyph unicode="@" d="M35 416q0 368 163.5 574t458.5 206q537 0 537 -643q0 -104 -10 -190.5t-33.5 -164t-67.5 -121.5t-106 -44q-65 0 -106.5 29.5t-53.5 80.5q-120 -110 -268 -110q-104 0 -168 60.5t-64 154.5q0 66 29.5 113t81.5 72t110 35.5t128 10.5q67 0 139 -10l2 143q3 183 -178 183 q-27 0 -53 -4.5t-55.5 -16t-47.5 -36t-18 -58.5q0 -25 8 -49l-82 -8q-8 40 -8 59q0 84 79.5 135t186.5 51q46 0 87 -11t79 -36.5t60 -74t22 -115.5l-2 -432q0 -50 29 -74.5t61 -24.5q74 0 101.5 102.5t27.5 344.5q0 96 -14 178.5t-47 156.5t-84 125.5t-129 82t-177 30.5 q-248 0 -388 -181t-140 -529q0 -153 31 -274.5t93.5 -210.5t164 -137t235.5 -48q256 0 486 156l39 -64q-234 -168 -545 -168q-273 0 -433.5 192.5t-160.5 559.5zM403 262q0 -76 46 -117t126 -41q59 0 124 34t106 79v186q-63 13 -148 13q-50 0 -92 -7t-80.5 -23.5t-60 -48 t-21.5 -75.5z" />
<glyph unicode="A" d="M78 0l483 1331h103l485 -1331h-111l-137 383h-586l-135 -383h-102zM348 475h520l-260 735z" />
<glyph unicode="B" d="M188 0v1331h424q201 0 294 -83t93 -251q0 -95 -50.5 -171t-145.5 -113v-4q82 -16 141 -50t91 -81.5t46.5 -98.5t14.5 -110q0 -369 -461 -369h-447zM293 98h344q184 0 266 63t82 206q0 276 -367 276h-325v-545zM293 735h303q126 0 209.5 72t83.5 188q0 122 -68 180 t-215 58h-313v-498z" />
<glyph unicode="C" d="M117 653q0 331 172.5 514t458.5 183q97 0 194 -20.5t143 -47.5l-36 -111q-45 37 -132 59.5t-167 22.5q-260 0 -391.5 -155.5t-131.5 -440.5q0 -581 514 -581q98 0 198.5 21t137.5 46l29 -94q-132 -69 -369 -69q-137 0 -247 36.5t-195 114t-131.5 210t-46.5 312.5z" />
<glyph unicode="D" d="M150 0v1331h446q132 0 235 -38t167 -100t105 -149t57 -177t16 -193q0 -120 -15.5 -215.5t-56.5 -183.5t-107 -147t-171.5 -93.5t-245.5 -34.5h-430zM254 98h344q118 0 204 30.5t136 79.5t79 126t38.5 153.5t9.5 178.5q0 87 -12.5 164.5t-46 153t-84.5 129.5t-134 87 t-190 33h-344v-1135z" />
<glyph unicode="E" d="M190 0v1331h879v-98h-774v-500h700v-96h-700v-539h774v-98h-879z" />
<glyph unicode="F" d="M190 0v1331h902v-98h-797v-551h723v-96h-723v-586h-105z" />
<glyph unicode="G" d="M113 653q0 176 44.5 310.5t126 218.5t191.5 126t246 42q110 0 202 -23.5t144 -54.5l-37 -111q-54 41 -138.5 66.5t-168.5 25.5q-255 0 -377.5 -145.5t-122.5 -450.5q0 -160 33 -273.5t98.5 -180.5t153.5 -97t207 -30q145 0 278 74v509h105v-548q-60 -50 -166.5 -90.5 t-220.5 -40.5q-100 0 -184 18.5t-162 66t-132.5 122t-87 193.5t-32.5 273z" />
<glyph unicode="H" d="M150 0v1331h104v-592h721v592h104v-1331h-104v643h-721v-643h-104z" />
<glyph unicode="I" d="M182 0v98h379v1135h-379v98h881v-98h-397v-1135h397v-98h-881z" />
<glyph unicode="J" d="M180 1233v98h760v-780q0 -107 -28.5 -196t-69 -148.5t-107.5 -107.5t-121 -74t-135 -47.5t-123.5 -29t-109.5 -16.5l-19 93q11 2 38 6q58 9 93 15.5t102.5 25t111 40.5t98.5 62.5t87.5 90t55.5 124t23 164.5v680h-656z" />
<glyph unicode="K" d="M182 0v1331h105v-639l147 29l502 610h129l-551 -653l606 -678h-135l-563 623l-135 -21v-602h-105z" />
<glyph unicode="L" d="M215 0v1331h104v-1233h754v-98h-858z" />
<glyph unicode="M" d="M82 0v1331h108l433 -756l401 756h123v-1331h-100v1194l-375 -711h-103l-391 682v-1165h-96z" />
<glyph unicode="N" d="M141 0v1331h117l729 -1167v1167h100v-1331h-110l-735 1174v-1174h-101z" />
<glyph unicode="O" d="M59 666q0 320 143.5 502t418.5 182q546 0 546 -686q0 -200 -65.5 -354t-194 -242t-301.5 -88q-547 0 -547 686zM170 666q0 -143 20.5 -247t69.5 -183.5t135 -119.5t211 -40q96 0 172 29.5t128 81.5t86 126.5t49.5 161.5t15.5 189q0 110 -13.5 198t-44.5 162.5t-81 124 t-124.5 77t-172.5 27.5q-243 0 -347 -147t-104 -440z" />
<glyph unicode="P" d="M195 0v1331h430q237 0 342.5 -107t105.5 -317q0 -194 -116.5 -299.5t-301.5 -105.5h-356v-502h-104zM299 594h344q70 0 125.5 15.5t100.5 50t69.5 95t24.5 144.5q0 170 -80 252t-250 82h-334v-639z" />
<glyph unicode="Q" d="M59 666q0 320 143.5 502t418.5 182q546 0 546 -686q0 -227 -84.5 -393.5t-238.5 -239.5l346 -363l-96 -74l-342 404q-68 -18 -146 -18q-547 0 -547 686zM170 666q0 -143 20.5 -247t69.5 -183.5t135 -119.5t211 -40q96 0 172 29.5t128 81.5t86 126.5t49.5 161.5t15.5 189 q0 110 -13.5 198t-44.5 162.5t-81 124t-124.5 77t-172.5 27.5q-243 0 -347 -147t-104 -440z" />
<glyph unicode="R" d="M190 0v1331h390q241 0 345.5 -94t104.5 -299q0 -137 -70.5 -231t-189.5 -132l338 -575h-125l-321 553h-367v-553h-105zM295 649h303q322 0 322 281q0 166 -78.5 234.5t-253.5 68.5h-293v-584z" />
<glyph unicode="S" d="M182 92l37 111q163 -131 395 -131q147 0 237.5 61.5t90.5 185.5q0 86 -40.5 148.5t-105 99t-142.5 65.5t-155.5 58.5t-142 67t-105 102.5t-40.5 154q0 150 123.5 243t318.5 93q103 0 206.5 -26.5t154.5 -57.5l-37 -111q-133 98 -318 98q-162 0 -251 -57t-89 -172 q0 -57 25 -101t67.5 -73.5t97.5 -53.5t116 -45t122 -44t116 -55t97.5 -73t67.5 -103t25 -140q0 -115 -62 -197t-162 -120.5t-225 -38.5q-233 0 -422 112z" />
<glyph unicode="T" d="M78 1233v98h1073v-98h-483v-1233h-105v1233h-485z" />
<glyph unicode="U" d="M141 489v842h105v-839q0 -234 82 -327t286 -93q106 0 176 24.5t112.5 80t60.5 136t18 199.5v819h104v-819q0 -65 -4 -116t-16 -108.5t-32.5 -100.5t-56.5 -83.5t-85 -66.5t-119.5 -41.5t-159.5 -15.5q-88 0 -157.5 13.5t-118.5 36t-84.5 59.5t-56.5 77t-33.5 95.5 t-16.5 107.5t-4 120z" />
<glyph unicode="V" d="M78 1331h106l451 -1204l414 1204h100l-467 -1331h-102z" />
<glyph unicode="W" d="M29 1331h106l193 -1204l239 823h113l262 -819l158 1200h100l-199 -1331h-106l-274 850l-246 -850h-109z" />
<glyph unicode="X" d="M102 0l455 694l-414 637h115l358 -555l361 555h104l-411 -631l456 -700h-114l-400 618l-401 -618h-109z" />
<glyph unicode="Y" d="M119 1331h110l406 -721l371 721h102l-424 -817v-514h-104v518z" />
<glyph unicode="Z" d="M150 0v78l806 1155h-768v98h889v-86l-803 -1147h824v-98h-948z" />
<glyph unicode="[" d="M430 -387v1839h369v-86h-267v-1671h267v-82h-369z" />
<glyph unicode="\" d="M254 1403h92l629 -1534h-92z" />
<glyph unicode="]" d="M430 -305h268v1671h-268v86h369v-1839h-369v82z" />
<glyph unicode="^" d="M172 745l395 588h92l398 -588h-117l-332 500l-332 -500h-104z" />
<glyph unicode="_" d="M25 -96h1177v-92h-1177v92z" />
<glyph unicode="`" d="M449 1374l77 76l252 -268l-53 -49z" />
<glyph unicode="a" d="M207 246q0 66 28 117t73 82t108 50.5t126 27t134 7.5q84 0 166 -10l2 164q1 124 -59 173.5t-183 49.5q-231 0 -231 -147q0 -26 8 -53l-98 -11q-13 37 -13 66q0 106 98.5 169.5t245.5 63.5q330 0 330 -288l-2 -527q0 -61 21.5 -89t54.5 -28q16 0 33 7l12 -82 q-31 -8 -64 -8q-62 0 -101 34.5t-48 94.5q-142 -129 -340 -129q-130 0 -215.5 73.5t-85.5 192.5zM313 262q0 -95 58.5 -144.5t171.5 -49.5q82 0 165.5 39.5t133.5 95.5v227q-94 16 -189 16q-340 0 -340 -184z" />
<glyph unicode="b" d="M205 49v1354h100v-518q74 54 163.5 82t170.5 28q194 0 309 -135t115 -354q0 -237 -144.5 -381.5t-371.5 -144.5q-180 0 -342 69zM305 113q102 -45 236 -45q191 0 303 116t112 316q0 193 -95.5 300t-237.5 107q-72 0 -157.5 -29t-160.5 -83v-682z" />
<glyph unicode="c" d="M258 467q0 138 39.5 242.5t108 165t153 90.5t182.5 30q96 0 177 -22t133 -53l-29 -103q-149 90 -287 90q-176 0 -273 -112t-97 -326q0 -187 99.5 -294t278.5 -107q89 0 162.5 30.5t114.5 65.5l31 -92q-141 -92 -330 -92q-97 0 -180.5 31t-147 90t-99.5 153t-36 213z" />
<glyph unicode="d" d="M164 469q0 240 132.5 383t356.5 143q146 0 269 -47v455h100v-1403h-98v111q-74 -59 -172.5 -95t-184.5 -36q-192 0 -297.5 133.5t-105.5 355.5zM270 475q0 -195 87 -301t227 -106q74 0 170 36t168 97v641q-108 65 -269 65q-184 0 -283.5 -114.5t-99.5 -317.5z" />
<glyph unicode="e" d="M229 487q0 101 23.5 185t64.5 143t97 100t121 60.5t137 19.5q175 0 281 -113.5t106 -334.5v-60h-723q0 -199 99.5 -309t279.5 -110q81 0 169.5 32.5t125.5 63.5l30 -92q-55 -36 -152 -64t-196 -28q-214 0 -338.5 129t-124.5 378zM340 569h616q0 148 -78 243t-210 95 q-140 0 -225.5 -84.5t-102.5 -253.5z" />
<glyph unicode="f" d="M160 0v88h293v793h-207v71l207 9v79q0 194 100 288.5t258 94.5q65 0 133 -14.5t98 -28.5l-26 -104q-34 26 -92 42.5t-117 16.5q-125 0 -189.5 -71.5t-64.5 -210.5v-92h383v-80h-383v-793h426v-88h-819z" />
<glyph unicode="g" d="M164 471q0 240 132.5 382t356.5 142q210 0 369 -65v-924q0 -109 -25 -192t-66.5 -134.5t-102.5 -84.5t-126.5 -45.5t-144.5 -12.5q-89 0 -179.5 26t-162.5 72l51 99q154 -107 318 -107q60 0 108 10.5t92 37t73.5 68.5t47 109t17.5 156v125q-73 -58 -171.5 -93.5 t-183.5 -35.5q-186 0 -294.5 125.5t-108.5 341.5zM272 477q0 -191 87.5 -287t224.5 -96q75 0 170.5 35.5t167.5 95.5v639q-108 43 -269 43q-184 0 -282.5 -113.5t-98.5 -316.5z" />
<glyph unicode="h" d="M231 0v1403h101v-531q80 60 174.5 91.5t169.5 31.5q51 0 96 -7t95 -29t86 -57.5t59.5 -98t23.5 -144.5v-659h-100v618q0 156 -66 221.5t-196 65.5q-82 0 -174 -33t-168 -88v-784h-101z" />
<glyph unicode="i" d="M174 0v88h385v799h-385v88h488v-88h-3v-799h396v-88h-881zM541 1313q0 31 20 52t51 21t52.5 -21t21.5 -52t-21.5 -51.5t-52.5 -20.5t-51 20.5t-20 51.5z" />
<glyph unicode="j" d="M170 887v88h645v-940q0 -96 -23 -172.5t-59 -127t-91 -88t-107.5 -57.5t-121 -31.5t-119 -14.5t-112.5 -3l-4 90q58 0 97.5 1.5t100.5 10.5t103 25t90 48t77.5 76t49 112.5t19.5 154.5v828h-545zM696 1313q0 31 20.5 52t51.5 21t52.5 -21t21.5 -52t-21.5 -51.5 t-52.5 -20.5t-51.5 20.5t-20.5 51.5z" />
<glyph unicode="k" d="M246 0v1403h100v-879l137 21l381 430h115l-410 -457l473 -518h-133l-417 459l-146 -19v-440h-100z" />
<glyph unicode="l" d="M160 0v88h403v1227h-389v88h490v-1315h376v-88h-880z" />
<glyph unicode="m" d="M125 0v975h98v-109q62 60 119 94.5t121 34.5q147 0 184 -137q128 137 252 137q113 0 159 -65.5t46 -229.5v-700h-100v659q0 107 -12 160.5t-35.5 70.5t-69.5 17q-100 0 -225 -137q4 -46 4 -70v-700h-101v659q0 138 -24 193t-84 55q-52 0 -115 -36.5t-117 -98.5v-772h-100 z" />
<glyph unicode="n" d="M231 0v975h99v-103q80 59 175.5 91t170.5 32q51 0 96 -7t95 -29t86 -57.5t59.5 -98t23.5 -144.5v-659h-100v618q0 156 -66 222.5t-196 66.5q-81 0 -173 -34t-169 -89v-784h-101z" />
<glyph unicode="o" d="M147 489q0 234 128.5 370t336.5 136q218 0 344.5 -128t126.5 -378q0 -143 -55.5 -258t-163.5 -183t-252 -68q-213 0 -339 130t-126 379zM254 489q0 -201 89 -311t269 -110q181 0 273 113t92 308q0 196 -92 307t-273 111q-178 0 -268 -114t-90 -304z" />
<glyph unicode="p" d="M205 -451v1426h98v-111q75 60 167 95.5t177 35.5q194 0 305 -134.5t111 -354.5q0 -238 -141 -382t-367 -144q-122 0 -250 45v-476h-100zM305 125q99 -57 250 -57q187 0 294 115.5t107 316.5q0 194 -92 300.5t-233 106.5q-73 0 -163 -36t-163 -97v-649z" />
<glyph unicode="q" d="M164 469q0 238 139.5 382t364.5 144q185 0 354 -75v-1371h-100v560q-74 -59 -165 -94t-175 -35q-194 0 -306 134.5t-112 354.5zM272 475q0 -193 92 -299t234 -106q73 0 162 35t162 96v655q-108 51 -254 51q-186 0 -291 -115.5t-105 -316.5z" />
<glyph unicode="r" d="M98 0v88h359v799h-328v88h426v-184q70 86 171.5 141t201.5 55q15 0 47 -4l-8 -102q-24 8 -60 8q-88 0 -189.5 -58.5t-160.5 -128.5v-614h442v-88h-901z" />
<glyph unicode="s" d="M236 63l34 101q133 -96 328 -96q122 0 207.5 45t85.5 129q0 55 -27 95.5t-71.5 63.5t-101 42.5t-115 32t-115 34t-101 47.5t-71.5 72t-27 108q0 70 34 122.5t91.5 81t120 41.5t131.5 13q90 0 178.5 -18t140.5 -49l-28 -103q-22 24 -115 53t-180 29q-275 0 -275 -162 q0 -49 35 -84t90.5 -55.5t123 -38.5t134.5 -40.5t122.5 -54t90.5 -87t35 -131.5q0 -70 -34 -124.5t-92 -86t-128 -47.5t-149 -16q-105 0 -201 22.5t-151 60.5z" />
<glyph unicode="t" d="M158 881v75l233 7l15 268h83v-270h433v-80h-433v-584q0 -127 54 -177t162 -50q111 0 229 77l31 -92q-121 -75 -283 -75q-293 0 -293 315v586h-231z" />
<glyph unicode="u" d="M193 313v662h100v-621q0 -156 68 -222t198 -66q81 0 168.5 33t165.5 89v787h100v-975h-98v100q-81 -60 -172.5 -91.5t-165.5 -31.5q-51 0 -96 7t-96 29t-87.5 57.5t-60.5 98t-24 144.5z" />
<glyph unicode="v" d="M168 975h102l346 -893l347 893h98l-389 -975h-123z" />
<glyph unicode="w" d="M45 975h102l175 -891l247 768h99l252 -768l172 891h98l-215 -975h-123l-238 733l-237 -733h-123z" />
<glyph unicode="x" d="M201 0l362 514l-317 461h106l264 -387l271 387h98l-319 -455l360 -520h-108l-306 446l-311 -446h-100z" />
<glyph unicode="y" d="M168 975h100l357 -866l340 866h96l-574 -1426h-92l174 443z" />
<glyph unicode="z" d="M178 0v59l658 826h-625v90h762v-60l-664 -827h705v-88h-836z" />
<glyph unicode="{" d="M344 496v77q31 0 45 2q148 13 148 148v426q0 41 2 71.5t9.5 65.5t20.5 59.5t35 48.5t53 39t75.5 24t101.5 9h51v-71h-51q-49 0 -83.5 -5.5t-57 -20.5t-35 -30.5t-18.5 -48.5t-7.5 -60.5t-1.5 -78.5v-309q0 -139 -31 -211t-113 -94q82 -22 113 -96.5t31 -213.5v-309 q0 -51 1.5 -78.5t7.5 -60.5t18.5 -48.5t35 -30.5t57 -20.5t83.5 -5.5h51v-71h-51q-57 0 -101.5 9t-75.5 24t-53 39t-35 48.5t-20.5 59.5t-9.5 65.5t-2 71.5v426q0 132 -144 148q-14 2 -49 2z" />
<glyph unicode="|" d="M565 0v1403h97v-1403h-97z" />
<glyph unicode="}" d="M344 -326h51q49 0 83.5 5.5t57 20.5t35 30.5t18.5 48.5t7.5 60.5t1.5 78.5v309q0 140 30.5 214t112.5 96q-82 22 -112.5 94t-30.5 211v309q0 51 -1.5 78.5t-7.5 60.5t-18.5 48.5t-35 30.5t-57 20.5t-83.5 5.5h-51v71h51q57 0 101.5 -9t75.5 -24t53 -39t35 -48.5 t20.5 -59.5t9.5 -65.5t2 -71.5v-426q0 -76 43 -110.5t125 -39.5h25v-77h-29q-164 -10 -164 -150v-426q0 -41 -2 -71.5t-9.5 -65.5t-20.5 -59.5t-35 -48.5t-53 -39t-75.5 -24t-101.5 -9h-51v71z" />
<glyph unicode="~" d="M72 545q126 203 297 203q68 0 141 -30t125.5 -65.5t114 -65.5t108.5 -30q65 0 119.5 51t105.5 146l72 -54q-74 -127 -150 -180t-169 -53q-56 0 -120 30.5t-113.5 67t-117 67t-131.5 30.5q-108 0 -215 -166z" />
<glyph unicode="&#xa0;" />
<glyph unicode="&#xa1;" d="M537 844q0 36 22 55t55 19q35 0 55.5 -18.5t20.5 -55.5q0 -34 -20.5 -52t-55.5 -18q-33 0 -55 17.5t-22 52.5zM565 35l13 491h75l17 -491v-469h-105v469z" />
<glyph unicode="&#xa2;" d="M258 467q0 232 104.5 364t274.5 158v170h86v-164q137 0 246 -53l-29 -102q-106 62 -217 65v-837q64 0 122 22.5t93 52.5l31 -92q-96 -64 -246 -71v-125h-86v129q-180 19 -279.5 145t-99.5 338zM365 469q0 -161 69 -265t203 -130v825q-134 -25 -203 -135.5t-69 -294.5z " />
<glyph unicode="&#xa3;" d="M84 0v80q65 10 115.5 56.5t76 110.5t25.5 132v244h-186v79h186v177q0 125 34 218.5t95 147.5t136 79.5t165 25.5q79 0 158.5 -31.5t140.5 -91.5l-72 -80q-56 64 -112.5 88.5t-130.5 24.5q-157 0 -233 -87.5t-76 -289.5v-181h505v-79h-505v-154q0 -132 -35.5 -219 t-132.5 -152h565q118 0 178 31.5t98 91.5l64 -76q-33 -55 -106 -100t-165 -45h-788z" />
<glyph unicode="&#xa4;" d="M141 102l226 232q-70 90 -70 201q0 110 70 196l-226 232l49 55l230 -234q90 66 192 66q104 0 195 -68l231 236l49 -55l-231 -234q70 -79 70 -194t-70 -197l231 -236l-55 -41l-225 226q-85 -68 -195 -68q-109 0 -194 66l-221 -224zM389 535q0 -102 64.5 -171t158.5 -69 t159 70t65 170q0 106 -64 170.5t-160 64.5t-159.5 -64.5t-63.5 -170.5z" />
<glyph unicode="&#xa5;" d="M119 1331h110l406 -721l371 721h102l-383 -735h307v-80h-348v-227h348v-80h-348v-209h-104v209h-344v80h344v227h-344v80h299z" />
<glyph unicode="&#xa6;" d="M565 0v602h99v-602h-99zM565 844v559h99v-559h-99z" />
<glyph unicode="&#xa7;" d="M115 -410l8 125q39 -27 93 -46t106 -19q56 0 104 10.5t90.5 33.5t67 65.5t24.5 99.5q0 63 -38 170t-92 223l-108 232t-92 223.5t-38 171.5q0 92 43.5 172t112.5 134t154.5 92.5t168 56.5t155.5 18q134 0 240 -35l-8 -127q-145 92 -256 92q-94 0 -144.5 -55t-50.5 -148 q0 -68 57 -218t125.5 -296t125.5 -296.5t57 -219.5q0 -92 -51 -173t-130 -136t-175 -95t-186.5 -58.5t-164.5 -18.5q-103 0 -198 22zM334 911q0 -70 37.5 -177t91 -219.5l107 -225t91 -220.5t37.5 -180q0 -99 -49 -161q146 57 212.5 132t66.5 173q0 80 -56 226t-122.5 282 t-122.5 289t-56 245q0 93 62 166q-141 -57 -220 -148t-79 -182z" />
<glyph unicode="&#xa8;" d="M369 1288q0 31 20.5 52.5t50.5 21.5q31 0 52.5 -21.5t21.5 -52.5q0 -30 -21.5 -50.5t-52.5 -20.5t-51 20t-20 51zM713 1288q0 31 20.5 52.5t50.5 21.5q31 0 52.5 -21.5t21.5 -52.5q0 -30 -21.5 -50.5t-52.5 -20.5t-51 20t-20 51z" />
<glyph unicode="&#xa9;" d="M12 641q0 181 75.5 331t213.5 238t309 88q176 0 316 -88t216.5 -237.5t76.5 -331.5q0 -134 -45 -254t-124 -208.5t-193.5 -140.5t-246.5 -52q-171 0 -309 88.5t-213.5 238t-75.5 328.5zM94 641q0 -256 144 -421t372 -165q155 0 275.5 76.5t186 210t65.5 299.5 q0 159 -65 292.5t-187 213.5t-275 80q-228 0 -372 -165t-144 -421zM227 637q0 206 116.5 313t318.5 107q131 0 219 -41l-27 -78q-70 51 -190 51q-173 0 -262 -90t-89 -260q0 -174 89 -258t255 -84q66 0 127 13.5t90 29.5l21 -70q-93 -41 -240 -41q-97 0 -173 22t-134.5 69.5 t-89.5 127.5t-31 189z" />
<glyph unicode="&#xaa;" d="M256 745q0 55 22.5 97.5t58.5 68.5t87 42.5t102.5 23t110.5 6.5q61 0 113 -6q20 0 30 -2l2 125q0 87 -51.5 128.5t-138.5 41.5q-27 0 -55.5 -5.5t-58 -16.5t-49.5 -34t-21 -53q0 -19 6 -43l-88 -8q-11 25 -11 55q-1 83 84.5 134t200.5 51q50 0 95 -11t88 -35.5t68.5 -72 t25.5 -113.5l-3 -422q0 -88 56 -92q13 0 33 4l10 -65q-30 -6 -60 -6q-53 0 -86.5 27.5t-42.5 74.5q-124 -102 -280 -102q-111 0 -179.5 59t-68.5 149zM358 760q0 -146 177 -146q63 0 132 29.5t113 71.5v182q-75 14 -164 14q-258 -4 -258 -151z" />
<glyph unicode="&#xab;" d="M246 479l246 473h100l-238 -465l238 -481h-100zM635 479l246 473h100l-238 -465l238 -481h-100z" />
<glyph unicode="&#xac;" d="M66 571v86h1077v-530h-90v444h-987z" />
<glyph unicode="&#xad;" d="M362 481v99h504v-99h-504z" />
<glyph unicode="&#xae;" d="M121 846q0 137 66 253t178.5 183.5t244.5 67.5q135 0 249 -67.5t180.5 -183.5t66.5 -253q0 -207 -145.5 -354.5t-350.5 -147.5q-132 0 -244.5 67.5t-178.5 183t-66 251.5zM193 846q0 -193 120 -316.5t297 -123.5q181 0 302.5 124.5t121.5 315.5q0 184 -122.5 312 t-301.5 128q-177 0 -297 -123.5t-120 -316.5zM428 514v684h184q124 0 178 -52.5t54 -160.5q0 -82 -40.5 -134.5t-109.5 -70.5l150 -266h-78l-143 258h-127v-258h-68zM496 829h118q76 0 117 34t41 118q0 87 -36.5 121.5t-125.5 34.5h-114v-308z" />
<glyph unicode="&#xaf;" d="M375 1237v88h479v-88h-479z" />
<glyph unicode="&#xb0;" d="M328 1079q0 120 80 195.5t208 75.5q130 0 206.5 -74t76.5 -197q0 -125 -76.5 -199.5t-206.5 -74.5q-133 0 -210.5 74.5t-77.5 199.5zM412 1079q0 -89 56 -147t148 -58q95 0 146 57t51 148q0 86 -54 142.5t-143 56.5q-96 0 -150 -56t-54 -143z" />
<glyph unicode="&#xb1;" d="M199 20v86h831v-86h-831zM199 571v86h368v336h92v-336h371v-86h-371v-331h-92v331h-368z" />
<glyph unicode="&#xb4;" d="M449 1182l251 268l78 -76l-276 -241z" />
<glyph unicode="&#xb5;" d="M233 -451v1426h101v-621q0 -158 59 -222t187 -64q146 0 313 120v787h100v-975h-98v100q-165 -123 -317 -123q-170 0 -261 91q17 -85 17 -242v-277h-101z" />
<glyph unicode="&#xb6;" d="M199 852q0 95 33.5 179t99.5 152t177 108t253 40v-1782h-103v820q-214 49 -337 172.5t-123 310.5zM928 -451v1782h102v-1782h-102z" />
<glyph unicode="&#xb7;" d="M537 600q0 33 20.5 51.5t54.5 18.5t56 -18t22 -52q0 -38 -21.5 -56t-56.5 -18q-75 0 -75 74z" />
<glyph unicode="&#xb8;" d="M416 -412l41 90q20 -23 60.5 -40t82.5 -17q57 0 87 24t30 60q0 48 -50 81.5t-143 37.5l64 205h84l-43 -150q90 -13 137 -62t47 -110q0 -68 -60.5 -119t-162.5 -51q-99 0 -174 51z" />
<glyph unicode="&#xba;" d="M229 944q0 183 102.5 294.5t280.5 111.5q186 0 286.5 -105t100.5 -301q0 -110 -41.5 -200.5t-131 -148.5t-214.5 -58q-183 0 -283 105t-100 302zM332 944q0 -159 63 -242.5t217 -83.5t218.5 86t64.5 240q0 326 -283 326q-280 0 -280 -326z" />
<glyph unicode="&#xbb;" d="M246 6l237 481l-237 465h100l246 -473l-246 -473h-100zM635 6l237 481l-237 465h100l246 -473l-246 -473h-100z" />
<glyph unicode="&#xbf;" d="M246 -174q0 63 24.5 117t63 93t85.5 74.5t94 67.5t85.5 64t63 73t24.5 86q0 52 -39 123l111 29q35 -67 35 -154q0 -52 -24 -98.5t-63 -82.5t-85.5 -70t-93.5 -68t-86 -69.5t-63 -81.5t-24 -97q0 -90 79 -138t200 -48q184 0 293 118l57 -83q-63 -57 -159.5 -94.5 t-200.5 -37.5q-170 0 -273.5 77t-103.5 200zM602 846q0 36 22 55t56 19q35 0 55.5 -18.5t20.5 -55.5q0 -34 -20.5 -52t-55.5 -18q-34 0 -56 17.5t-22 52.5z" />
<glyph unicode="&#xc0;" d="M78 0l483 1331h103l485 -1331h-111l-137 383h-586l-135 -383h-102zM342 1618l61 94l308 -215l-41 -57zM348 475h520l-260 735z" />
<glyph unicode="&#xc1;" d="M78 0l483 1331h103l485 -1331h-111l-137 383h-586l-135 -383h-102zM348 475h520l-260 735zM512 1497l307 215l62 -94l-328 -178z" />
<glyph unicode="&#xc2;" d="M78 0l483 1331h103l485 -1331h-111l-137 383h-586l-135 -383h-102zM346 1520l242 200h69l240 -198l-59 -68l-220 180l-215 -180zM348 475h520l-260 735z" />
<glyph unicode="&#xc3;" d="M78 0l483 1331h103l485 -1331h-111l-137 383h-586l-135 -383h-102zM299 1550q97 111 184 111q60 0 140.5 -31t117.5 -31q84 0 138 66l39 -45q-83 -107 -179 -107q-45 0 -129 31t-123 31q-86 0 -145 -72zM348 475h520l-260 735z" />
<glyph unicode="&#xc4;" d="M78 0l483 1331h103l485 -1331h-111l-137 383h-586l-135 -383h-102zM348 475h520l-260 735zM365 1583q0 31 20.5 52.5t50.5 21.5q31 0 52.5 -21.5t21.5 -52.5t-21.5 -51.5t-52.5 -20.5t-51 20.5t-20 51.5zM709 1583q0 31 20.5 52.5t50.5 21.5q31 0 52.5 -21.5t21.5 -52.5 t-21.5 -51.5t-52.5 -20.5t-51 20.5t-20 51.5z" />
<glyph unicode="&#xc5;" d="M78 0l483 1331h103l485 -1331h-111l-137 383h-586l-135 -383h-102zM348 475h520l-260 735zM410 1602q0 85 58.5 138.5t147.5 53.5q91 0 146 -51.5t55 -140.5q0 -83 -57.5 -139t-147.5 -56q-88 0 -145 54t-57 141zM487 1602q0 -63 33 -97.5t92 -34.5q123 0 123 132 q0 131 -123 131q-62 0 -93.5 -34.5t-31.5 -96.5z" />
<glyph unicode="&#xc6;" d="M10 0l586 1331h604v-98h-467v-500h393v-96h-393v-539h467v-98h-571v383h-350l-166 -383h-103zM319 475h310v711z" />
<glyph unicode="&#xc7;" d="M117 653q0 331 172.5 514t458.5 183q97 0 194 -20.5t143 -47.5l-36 -111q-45 37 -132 59.5t-167 22.5q-260 0 -391.5 -155.5t-131.5 -440.5q0 -581 514 -581q98 0 198.5 21t137.5 46l29 -94q-125 -66 -350 -69l-29 -101q90 -13 137 -62t47 -110q0 -68 -60.5 -119 t-162.5 -51q-99 0 -174 51l41 90q20 -23 60.5 -40t82.5 -17q57 0 87 24t30 60q0 48 -49.5 81.5t-142.5 37.5l49 158q-124 8 -223 49t-174.5 119.5t-116.5 206t-41 296.5z" />
<glyph unicode="&#xc8;" d="M190 0v1331h879v-98h-774v-500h700v-96h-700v-539h774v-98h-879zM391 1618l62 94l307 -215l-41 -57z" />
<glyph unicode="&#xc9;" d="M190 0v1331h879v-98h-774v-500h700v-96h-700v-539h774v-98h-879zM504 1497l307 215l61 -94l-327 -178z" />
<glyph unicode="&#xca;" d="M190 0v1331h879v-98h-774v-500h700v-96h-700v-539h774v-98h-879zM375 1520l241 200h70l240 -198l-60 -68l-219 180l-215 -180z" />
<glyph unicode="&#xcb;" d="M190 0v1331h879v-98h-774v-500h700v-96h-700v-539h774v-98h-879zM406 1583q0 31 20.5 52.5t50.5 21.5q31 0 52.5 -21.5t21.5 -52.5t-21.5 -51.5t-52.5 -20.5t-51 20.5t-20 51.5zM750 1583q0 31 20.5 52.5t50.5 21.5q31 0 52.5 -21.5t21.5 -52.5t-21.5 -51.5t-52.5 -20.5 t-51 20.5t-20 51.5z" />
<glyph unicode="&#xcc;" d="M182 0v98h379v1135h-379v98h881v-98h-397v-1135h397v-98h-881zM344 1618l62 94l307 -215l-41 -57z" />
<glyph unicode="&#xcd;" d="M182 0v98h379v1135h-379v98h881v-98h-397v-1135h397v-98h-881zM481 1497l307 215l62 -94l-328 -178z" />
<glyph unicode="&#xce;" d="M182 0v98h379v1135h-379v98h881v-98h-397v-1135h397v-98h-881zM338 1520l242 200h69l240 -198l-60 -68l-219 180l-215 -180z" />
<glyph unicode="&#xcf;" d="M182 0v98h379v1135h-379v98h881v-98h-397v-1135h397v-98h-881zM369 1583q0 31 20.5 52.5t50.5 21.5q31 0 52.5 -21.5t21.5 -52.5t-21.5 -51.5t-52.5 -20.5t-51 20.5t-20 51.5zM713 1583q0 31 20.5 52.5t50.5 21.5q31 0 52.5 -21.5t21.5 -52.5t-21.5 -51.5t-52.5 -20.5 t-51 20.5t-20 51.5z" />
<glyph unicode="&#xd0;" d="M-4 637v86h154v608h446q132 0 235 -38t167 -100t105 -149t57 -177t16 -193q0 -120 -15.5 -215.5t-56.5 -183.5t-107 -147t-171.5 -93.5t-245.5 -34.5h-430v637h-154zM254 98h344q118 0 204 30.5t136 79.5t79 126t38.5 153.5t9.5 178.5q0 87 -12.5 164.5t-46 153 t-84.5 129.5t-134 87t-190 33h-344v-510h283v-86h-283v-539z" />
<glyph unicode="&#xd1;" d="M141 0v1331h117l729 -1167v1167h100v-1331h-110l-735 1174v-1174h-101zM342 1550q97 111 184 111q60 0 140.5 -31t117.5 -31q84 0 138 66l39 -45q-83 -107 -179 -107q-45 0 -129 31t-123 31q-86 0 -145 -72z" />
<glyph unicode="&#xd2;" d="M59 666q0 320 143.5 502t418.5 182q546 0 546 -686q0 -200 -65.5 -354t-194 -242t-301.5 -88q-547 0 -547 686zM170 666q0 -143 20.5 -247t69.5 -183.5t135 -119.5t211 -40q96 0 172 29.5t128 81.5t86 126.5t49.5 161.5t15.5 189q0 110 -13.5 198t-44.5 162.5t-81 124 t-124.5 77t-172.5 27.5q-243 0 -347 -147t-104 -440zM348 1618l62 94l307 -215l-41 -57z" />
<glyph unicode="&#xd3;" d="M59 666q0 320 143.5 502t418.5 182q546 0 546 -686q0 -200 -65.5 -354t-194 -242t-301.5 -88q-547 0 -547 686zM170 666q0 -143 20.5 -247t69.5 -183.5t135 -119.5t211 -40q96 0 172 29.5t128 81.5t86 126.5t49.5 161.5t15.5 189q0 110 -13.5 198t-44.5 162.5t-81 124 t-124.5 77t-172.5 27.5q-243 0 -347 -147t-104 -440zM481 1497l307 215l62 -94l-328 -178z" />
<glyph unicode="&#xd4;" d="M59 666q0 320 143.5 502t418.5 182q546 0 546 -686q0 -200 -65.5 -354t-194 -242t-301.5 -88q-547 0 -547 686zM170 666q0 -143 20.5 -247t69.5 -183.5t135 -119.5t211 -40q96 0 172 29.5t128 81.5t86 126.5t49.5 161.5t15.5 189q0 110 -13.5 198t-44.5 162.5t-81 124 t-124.5 77t-172.5 27.5q-243 0 -347 -147t-104 -440zM354 1520l242 200h70l239 -198l-59 -68l-219 180l-215 -180z" />
<glyph unicode="&#xd5;" d="M59 666q0 320 143.5 502t418.5 182q546 0 546 -686q0 -200 -65.5 -354t-194 -242t-301.5 -88q-547 0 -547 686zM170 666q0 -143 20.5 -247t69.5 -183.5t135 -119.5t211 -40q96 0 172 29.5t128 81.5t86 126.5t49.5 161.5t15.5 189q0 110 -13.5 198t-44.5 162.5t-81 124 t-124.5 77t-172.5 27.5q-243 0 -347 -147t-104 -440zM313 1550q97 111 185 111q60 0 140.5 -31t117.5 -31q83 0 137 66l39 -45q-83 -107 -178 -107q-45 0 -129 31t-123 31q-87 0 -146 -72z" />
<glyph unicode="&#xd6;" d="M59 666q0 320 143.5 502t418.5 182q546 0 546 -686q0 -200 -65.5 -354t-194 -242t-301.5 -88q-547 0 -547 686zM170 666q0 -143 20.5 -247t69.5 -183.5t135 -119.5t211 -40q96 0 172 29.5t128 81.5t86 126.5t49.5 161.5t15.5 189q0 110 -13.5 198t-44.5 162.5t-81 124 t-124.5 77t-172.5 27.5q-243 0 -347 -147t-104 -440zM367 1583q0 31 20.5 52.5t50.5 21.5q31 0 52.5 -21.5t21.5 -52.5t-21.5 -51.5t-52.5 -20.5t-51 20.5t-20 51.5zM711 1583q0 31 20.5 52.5t50.5 21.5q31 0 52.5 -21.5t21.5 -52.5t-21.5 -51.5t-52.5 -20.5t-51 20.5 t-20 51.5z" />
<glyph unicode="&#xd7;" d="M287 346l264 244l-262 241l63 58l262 -240l263 244l63 -59l-264 -238l266 -250l-63 -57l-269 246l-260 -244z" />
<glyph unicode="&#xd8;" d="M29 0l145 180q-115 171 -115 486q0 320 143.5 502t418.5 182q247 0 383 -142l100 123h94l-147 -180q116 -173 116 -487q0 -200 -65.5 -354t-194 -242t-301.5 -88q-251 0 -387 145l-100 -125h-90zM170 666q0 -266 72 -402l696 860q-110 129 -317 129q-243 0 -347 -147 t-104 -440zM283 203q105 -127 323 -127q96 0 172 29.5t128 81.5t86 126.5t49.5 161.5t15.5 189q0 257 -78 399z" />
<glyph unicode="&#xd9;" d="M141 489v842h105v-839q0 -234 82 -327t286 -93q106 0 176 24.5t112.5 80t60.5 136t18 199.5v819h104v-819q0 -65 -4 -116t-16 -108.5t-32.5 -100.5t-56.5 -83.5t-85 -66.5t-119.5 -41.5t-159.5 -15.5q-88 0 -157.5 13.5t-118.5 36t-84.5 59.5t-56.5 77t-33.5 95.5 t-16.5 107.5t-4 120zM375 1618l61 94l307 -215l-41 -57z" />
<glyph unicode="&#xda;" d="M141 489v842h105v-839q0 -234 82 -327t286 -93q106 0 176 24.5t112.5 80t60.5 136t18 199.5v819h104v-819q0 -65 -4 -116t-16 -108.5t-32.5 -100.5t-56.5 -83.5t-85 -66.5t-119.5 -41.5t-159.5 -15.5q-88 0 -157.5 13.5t-118.5 36t-84.5 59.5t-56.5 77t-33.5 95.5 t-16.5 107.5t-4 120zM485 1497l308 215l61 -94l-328 -178z" />
<glyph unicode="&#xdb;" d="M141 489v842h105v-839q0 -234 82 -327t286 -93q106 0 176 24.5t112.5 80t60.5 136t18 199.5v819h104v-819q0 -65 -4 -116t-16 -108.5t-32.5 -100.5t-56.5 -83.5t-85 -66.5t-119.5 -41.5t-159.5 -15.5q-88 0 -157.5 13.5t-118.5 36t-84.5 59.5t-56.5 77t-33.5 95.5 t-16.5 107.5t-4 120zM342 1520l242 200h69l240 -198l-59 -68l-220 180l-215 -180z" />
<glyph unicode="&#xdc;" d="M141 489v842h105v-839q0 -234 82 -327t286 -93q106 0 176 24.5t112.5 80t60.5 136t18 199.5v819h104v-819q0 -65 -4 -116t-16 -108.5t-32.5 -100.5t-56.5 -83.5t-85 -66.5t-119.5 -41.5t-159.5 -15.5q-88 0 -157.5 13.5t-118.5 36t-84.5 59.5t-56.5 77t-33.5 95.5 t-16.5 107.5t-4 120zM373 1583q0 31 20.5 52.5t50.5 21.5q31 0 52.5 -21.5t21.5 -52.5t-21.5 -51.5t-52.5 -20.5t-51 20.5t-20 51.5zM717 1583q0 31 20.5 52.5t50.5 21.5q31 0 52.5 -21.5t21.5 -52.5t-21.5 -51.5t-52.5 -20.5t-51 20.5t-20 51.5z" />
<glyph unicode="&#xdd;" d="M119 1331h110l406 -721l371 721h102l-424 -817v-514h-104v518zM498 1497l307 215l61 -94l-327 -178z" />
<glyph unicode="&#xde;" d="M215 0v1331h104v-198h244q238 0 343.5 -102.5t105.5 -311.5q0 -195 -117.5 -305.5t-300.5 -110.5h-275v-303h-104zM319 395h263q144 0 231.5 76t87.5 240q0 169 -79 246t-251 77h-252v-639z" />
<glyph unicode="&#xdf;" d="M61 881v71l166 9v36q0 107 31.5 190t87 133.5t125.5 76.5t152 26q163 0 254.5 -75.5t91.5 -206.5q0 -48 -29.5 -92.5t-71.5 -80t-83.5 -72t-71 -82.5t-29.5 -97q0 -36 21 -65t54.5 -48t77 -39t89 -36.5t89 -42t77 -54.5t54.5 -74.5t21 -101.5q0 -76 -30 -131.5t-81.5 -86 t-110 -44.5t-124.5 -14q-74 0 -150 23t-136 60l34 101q36 -34 107 -65t145 -31q246 0 246 176q0 52 -26.5 91.5t-68.5 64.5t-93 46t-102.5 43t-93.5 49t-68.5 70.5t-26.5 100.5q0 64 29 118.5t70 91.5t82 70.5t70 71.5t29 78q0 90 -61 143t-189 53q-136 0 -213 -81t-77 -244 v-1010h-101v881h-166z" />
<glyph unicode="&#xe0;" d="M207 246q0 66 28 117t73 82t108 50.5t126 27t134 7.5q84 0 166 -10l2 164q1 124 -59 173.5t-183 49.5q-231 0 -231 -147q0 -26 8 -53l-98 -11q-13 37 -13 66q0 106 98.5 169.5t245.5 63.5q330 0 330 -288l-2 -527q0 -61 21.5 -89t54.5 -28q16 0 33 7l12 -82 q-31 -8 -64 -8q-62 0 -101 34.5t-48 94.5q-142 -129 -340 -129q-130 0 -215.5 73.5t-85.5 192.5zM313 262q0 -95 58.5 -144.5t171.5 -49.5q82 0 165.5 39.5t133.5 95.5v227q-94 16 -189 16q-340 0 -340 -184zM338 1374l78 76l252 -268l-54 -49z" />
<glyph unicode="&#xe1;" d="M207 246q0 66 28 117t73 82t108 50.5t126 27t134 7.5q84 0 166 -10l2 164q1 124 -59 173.5t-183 49.5q-231 0 -231 -147q0 -26 8 -53l-98 -11q-13 37 -13 66q0 106 98.5 169.5t245.5 63.5q330 0 330 -288l-2 -527q0 -61 21.5 -89t54.5 -28q16 0 33 7l12 -82 q-31 -8 -64 -8q-62 0 -101 34.5t-48 94.5q-142 -129 -340 -129q-130 0 -215.5 73.5t-85.5 192.5zM313 262q0 -95 58.5 -144.5t171.5 -49.5q82 0 165.5 39.5t133.5 95.5v227q-94 16 -189 16q-340 0 -340 -184zM502 1182l252 268l77 -76l-276 -241z" />
<glyph unicode="&#xe2;" d="M207 246q0 66 28 117t73 82t108 50.5t126 27t134 7.5q84 0 166 -10l2 164q1 124 -59 173.5t-183 49.5q-231 0 -231 -147q0 -26 8 -53l-98 -11q-13 37 -13 66q0 106 98.5 169.5t245.5 63.5q330 0 330 -288l-2 -527q0 -61 21.5 -89t54.5 -28q16 0 33 7l12 -82 q-31 -8 -64 -8q-62 0 -101 34.5t-48 94.5q-142 -129 -340 -129q-130 0 -215.5 73.5t-85.5 192.5zM303 1169l244 238h69l248 -231l-65 -66l-219 211l-213 -213zM313 262q0 -95 58.5 -144.5t171.5 -49.5q82 0 165.5 39.5t133.5 95.5v227q-94 16 -189 16q-340 0 -340 -184z" />
<glyph unicode="&#xe3;" d="M207 246q0 66 28 117t73 82t108 50.5t126 27t134 7.5q84 0 166 -10l2 164q1 124 -59 173.5t-183 49.5q-231 0 -231 -147q0 -26 8 -53l-98 -11q-13 37 -13 66q0 106 98.5 169.5t245.5 63.5q330 0 330 -288l-2 -527q0 -61 21.5 -89t54.5 -28q16 0 33 7l12 -82 q-31 -8 -64 -8q-62 0 -101 34.5t-48 94.5q-142 -129 -340 -129q-130 0 -215.5 73.5t-85.5 192.5zM287 1243q97 111 184 111q60 0 120 -31t97 -31q83 0 137 66l39 -45q-83 -107 -178 -107q-45 0 -108.5 31t-102.5 31q-86 0 -145 -72zM313 262q0 -95 58.5 -144.5t171.5 -49.5 q82 0 165.5 39.5t133.5 95.5v227q-94 16 -189 16q-340 0 -340 -184z" />
<glyph unicode="&#xe4;" d="M207 246q0 66 28 117t73 82t108 50.5t126 27t134 7.5q84 0 166 -10l2 164q1 124 -59 173.5t-183 49.5q-231 0 -231 -147q0 -26 8 -53l-98 -11q-13 37 -13 66q0 106 98.5 169.5t245.5 63.5q330 0 330 -288l-2 -527q0 -61 21.5 -89t54.5 -28q16 0 33 7l12 -82 q-31 -8 -64 -8q-62 0 -101 34.5t-48 94.5q-142 -129 -340 -129q-130 0 -215.5 73.5t-85.5 192.5zM313 262q0 -95 58.5 -144.5t171.5 -49.5q82 0 165.5 39.5t133.5 95.5v227q-94 16 -189 16q-340 0 -340 -184zM332 1288q0 31 20.5 52.5t50.5 21.5q31 0 52.5 -21.5t21.5 -52.5 q0 -30 -21.5 -50.5t-52.5 -20.5t-51 20t-20 51zM676 1288q0 31 20.5 52.5t51.5 21.5t52 -21.5t21 -52.5t-21 -51t-52 -20t-51.5 20t-20.5 51z" />
<glyph unicode="&#xe5;" d="M207 246q0 66 28 117t73 82t108 50.5t126 27t134 7.5q84 0 166 -10l2 164q1 124 -59 173.5t-183 49.5q-231 0 -231 -147q0 -26 8 -53l-98 -11q-13 37 -13 66q0 106 98.5 169.5t245.5 63.5q330 0 330 -288l-2 -527q0 -61 21.5 -89t54.5 -28q16 0 33 7l12 -82 q-31 -8 -64 -8q-62 0 -101 34.5t-48 94.5q-142 -129 -340 -129q-130 0 -215.5 73.5t-85.5 192.5zM313 262q0 -95 58.5 -144.5t171.5 -49.5q82 0 165.5 39.5t133.5 95.5v227q-94 16 -189 16q-340 0 -340 -184zM369 1305q0 85 58.5 138.5t147.5 53.5q91 0 146 -51.5t55 -140.5 q0 -83 -57.5 -139t-147.5 -56q-89 0 -145.5 54t-56.5 141zM446 1305q0 -63 33 -97t92 -34q123 0 123 131t-123 131q-62 0 -93.5 -34.5t-31.5 -96.5z" />
<glyph unicode="&#xe6;" d="M20 242q0 78 34 134t93 86t123.5 43t139.5 13q60 0 112 -6q0 57 13 117v55q0 127 -40.5 174t-136.5 47q-170 0 -170 -139q0 -17 11 -59l-99 -11q-12 38 -12 72q0 104 78 165.5t203 61.5q90 0 156.5 -40t86.5 -128q94 168 281 168q295 0 295 -448v-60h-559q0 -195 80 -307 t206 -112q136 0 224 75l30 -92q-107 -71 -251 -71q-98 0 -180 41.5t-132 128.5q-52 -84 -132.5 -127t-168.5 -43q-133 0 -209 69t-76 193zM127 258q0 -94 48 -143t136 -49q81 0 147.5 43.5t106.5 115.5q-37 92 -43 207q-52 10 -112 10q-53 0 -99.5 -9t-89.5 -28.5t-68.5 -57 t-25.5 -89.5zM631 569h454v21q1 86 -17.5 155.5t-64.5 115.5t-114 46q-121 0 -182.5 -84.5t-75.5 -253.5z" />
<glyph unicode="&#xe7;" d="M258 467q0 138 39.5 242.5t108 165t153 90.5t182.5 30q96 0 177 -22t133 -53l-29 -103q-149 90 -287 90q-176 0 -273 -112t-97 -326q0 -187 99.5 -294t278.5 -107q89 0 162.5 30.5t114.5 65.5l31 -92q-121 -80 -287 -90l-31 -107q90 -13 137.5 -62.5t47.5 -109.5 q0 -68 -61 -119t-163 -51q-99 0 -174 51l41 90q20 -23 61 -40t83 -17q57 0 86.5 24t29.5 60q0 48 -49.5 81.5t-142.5 37.5l49 162q-186 13 -303 138.5t-117 346.5z" />
<glyph unicode="&#xe8;" d="M229 487q0 101 23.5 185t64.5 143t97 100t121 60.5t137 19.5q175 0 281 -113.5t106 -334.5v-60h-723q0 -199 99.5 -309t279.5 -110q81 0 169.5 32.5t125.5 63.5l30 -92q-55 -36 -152 -64t-196 -28q-214 0 -338.5 129t-124.5 378zM340 569h616q0 148 -78 243t-210 95 q-140 0 -225.5 -84.5t-102.5 -253.5zM440 1374l78 76l252 -268l-53 -49z" />
<glyph unicode="&#xe9;" d="M229 487q0 101 23.5 185t64.5 143t97 100t121 60.5t137 19.5q175 0 281 -113.5t106 -334.5v-60h-723q0 -199 99.5 -309t279.5 -110q81 0 169.5 32.5t125.5 63.5l30 -92q-55 -36 -152 -64t-196 -28q-214 0 -338.5 129t-124.5 378zM340 569h616q0 148 -78 243t-210 95 q-140 0 -225.5 -84.5t-102.5 -253.5zM553 1182l252 268l78 -76l-277 -241z" />
<glyph unicode="&#xea;" d="M229 487q0 101 23.5 185t64.5 143t97 100t121 60.5t137 19.5q175 0 281 -113.5t106 -334.5v-60h-723q0 -199 99.5 -309t279.5 -110q81 0 169.5 32.5t125.5 63.5l30 -92q-55 -36 -152 -64t-196 -28q-214 0 -338.5 129t-124.5 378zM340 569h616q0 148 -78 243t-210 95 q-140 0 -225.5 -84.5t-102.5 -253.5zM387 1169l244 238h69l248 -231l-65 -66l-219 211l-213 -213z" />
<glyph unicode="&#xeb;" d="M229 487q0 101 23.5 185t64.5 143t97 100t121 60.5t137 19.5q175 0 281 -113.5t106 -334.5v-60h-723q0 -199 99.5 -309t279.5 -110q81 0 169.5 32.5t125.5 63.5l30 -92q-55 -36 -152 -64t-196 -28q-214 0 -338.5 129t-124.5 378zM340 569h616q0 148 -78 243t-210 95 q-140 0 -225.5 -84.5t-102.5 -253.5zM426 1288q0 31 20.5 52.5t51.5 21.5t52 -21.5t21 -52.5t-21 -51t-52 -20t-51.5 20t-20.5 51zM770 1288q0 31 20.5 52.5t51.5 21.5t52 -21.5t21 -52.5t-21 -51t-52 -20t-51.5 20t-20.5 51z" />
<glyph unicode="&#xec;" d="M174 0v88h385v799h-385v88h488v-88h-3v-799h396v-88h-881zM385 1374l78 76l252 -268l-53 -49z" />
<glyph unicode="&#xed;" d="M174 0v88h385v799h-385v88h488v-88h-3v-799h396v-88h-881zM502 1182l252 268l77 -76l-276 -241z" />
<glyph unicode="&#xee;" d="M174 0v88h385v799h-385v88h488v-88h-3v-799h396v-88h-881zM330 1169l243 238h70l248 -231l-66 -66l-219 211l-213 -213z" />
<glyph unicode="&#xef;" d="M174 0v88h385v799h-385v88h488v-88h-3v-799h396v-88h-881zM369 1288q0 31 20.5 52.5t50.5 21.5q31 0 52.5 -21.5t21.5 -52.5q0 -30 -21.5 -50.5t-52.5 -20.5t-51 20t-20 51zM713 1288q0 31 20.5 52.5t50.5 21.5q31 0 52.5 -21.5t21.5 -52.5q0 -30 -21.5 -50.5 t-52.5 -20.5t-51 20t-20 51z" />
<glyph unicode="&#xf0;" d="M178 487q0 228 116.5 368t317.5 140q67 0 134 -19t114 -56q-96 176 -235 294l-131 -139l-60 58l123 133q-62 45 -137 86l45 61q83 -39 151 -84l121 131l60 -59l-113 -121q180 -138 273.5 -336.5t93.5 -443.5v-13q0 -102 -27.5 -192t-80.5 -161t-138.5 -112.5 t-192.5 -41.5q-207 0 -320.5 130.5t-113.5 376.5zM285 487q0 -419 327 -419q88 0 153 30.5t103 86.5t56 126.5t20 159.5q0 194 -47 330q-44 46 -125 76t-160 30q-72 0 -128.5 -22t-93 -60t-61 -92t-34.5 -114.5t-10 -131.5z" />
<glyph unicode="&#xf1;" d="M231 0v975h99v-103q80 59 175.5 91t170.5 32q51 0 96 -7t95 -29t86 -57.5t59.5 -98t23.5 -144.5v-659h-100v618q0 156 -66 222.5t-196 66.5q-81 0 -173 -34t-169 -89v-784h-101zM324 1243q97 111 184 111q60 0 120 -31t97 -31q83 0 137 66l39 -45q-83 -107 -178 -107 q-45 0 -108.5 31t-102.5 31q-86 0 -145 -72z" />
<glyph unicode="&#xf2;" d="M147 489q0 234 128.5 370t336.5 136q218 0 344.5 -128t126.5 -378q0 -143 -55.5 -258t-163.5 -183t-252 -68q-213 0 -339 130t-126 379zM254 489q0 -201 89 -311t269 -110q181 0 273 113t92 308q0 196 -92 307t-273 111q-178 0 -268 -114t-90 -304zM346 1374l78 76 l252 -268l-53 -49z" />
<glyph unicode="&#xf3;" d="M147 489q0 234 128.5 370t336.5 136q218 0 344.5 -128t126.5 -378q0 -143 -55.5 -258t-163.5 -183t-252 -68q-213 0 -339 130t-126 379zM254 489q0 -201 89 -311t269 -110q181 0 273 113t92 308q0 196 -92 307t-273 111q-178 0 -268 -114t-90 -304zM487 1182l252 268 l78 -76l-276 -241z" />
<glyph unicode="&#xf4;" d="M147 489q0 234 128.5 370t336.5 136q218 0 344.5 -128t126.5 -378q0 -143 -55.5 -258t-163.5 -183t-252 -68q-213 0 -339 130t-126 379zM254 489q0 -201 89 -311t269 -110q181 0 273 113t92 308q0 196 -92 307t-273 111q-178 0 -268 -114t-90 -304zM332 1169l243 238h70 l248 -231l-66 -66l-219 211l-213 -213z" />
<glyph unicode="&#xf5;" d="M147 489q0 234 128.5 370t336.5 136q218 0 344.5 -128t126.5 -378q0 -143 -55.5 -258t-163.5 -183t-252 -68q-213 0 -339 130t-126 379zM254 489q0 -201 89 -311t269 -110q181 0 273 113t92 308q0 196 -92 307t-273 111q-178 0 -268 -114t-90 -304zM319 1243 q97 111 185 111q60 0 120 -31t97 -31q83 0 137 66l39 -45q-83 -107 -178 -107q-45 0 -108.5 31t-102.5 31q-87 0 -146 -72z" />
<glyph unicode="&#xf6;" d="M147 489q0 234 128.5 370t336.5 136q218 0 344.5 -128t126.5 -378q0 -143 -55.5 -258t-163.5 -183t-252 -68q-213 0 -339 130t-126 379zM254 489q0 -201 89 -311t269 -110q181 0 273 113t92 308q0 196 -92 307t-273 111q-178 0 -268 -114t-90 -304zM358 1288 q0 31 20.5 52.5t51.5 21.5t52.5 -21.5t21.5 -52.5q0 -30 -21.5 -50.5t-52.5 -20.5t-51.5 20t-20.5 51zM702 1288q0 31 20.5 52.5t51.5 21.5t52.5 -21.5t21.5 -52.5q0 -30 -21.5 -50.5t-52.5 -20.5t-51.5 20t-20.5 51z" />
<glyph unicode="&#xf7;" d="M256 571v86h715v-86h-715zM539 367q0 31 20 52t51 21t52.5 -21t21.5 -52t-21.5 -51.5t-52.5 -20.5t-51 20.5t-20 51.5zM539 858q0 31 20.5 52.5t50.5 21.5q31 0 52.5 -21.5t21.5 -52.5t-21.5 -51.5t-52.5 -20.5t-51 20.5t-20 51.5z" />
<glyph unicode="&#xf8;" d="M147 489q0 234 128.5 370t336.5 136q175 0 291 -82l47 62h86l-82 -107q129 -132 129 -379q0 -143 -55.5 -258t-163.5 -183t-252 -68q-171 0 -286 81l-47 -61h-84l81 106q-129 132 -129 383zM254 489q0 -196 84 -305l506 652q-86 71 -232 71q-178 0 -268 -114t-90 -304z M385 137q84 -69 227 -69q181 0 273 113t92 308q0 187 -86 299z" />
<glyph unicode="&#xf9;" d="M193 313v662h100v-621q0 -156 68 -222t198 -66q81 0 168.5 33t165.5 89v787h100v-975h-98v100q-81 -60 -172.5 -91.5t-165.5 -31.5q-51 0 -96 7t-96 29t-87.5 57.5t-60.5 98t-24 144.5zM385 1374l78 76l252 -268l-53 -49z" />
<glyph unicode="&#xfa;" d="M193 313v662h100v-621q0 -156 68 -222t198 -66q81 0 168.5 33t165.5 89v787h100v-975h-98v100q-81 -60 -172.5 -91.5t-165.5 -31.5q-51 0 -96 7t-96 29t-87.5 57.5t-60.5 98t-24 144.5zM528 1182l252 268l78 -76l-276 -241z" />
<glyph unicode="&#xfb;" d="M193 313v662h100v-621q0 -156 68 -222t198 -66q81 0 168.5 33t165.5 89v787h100v-975h-98v100q-81 -60 -172.5 -91.5t-165.5 -31.5q-51 0 -96 7t-96 29t-87.5 57.5t-60.5 98t-24 144.5zM330 1169l243 238h70l248 -231l-66 -66l-219 211l-213 -213z" />
<glyph unicode="&#xfc;" d="M193 313v662h100v-621q0 -156 68 -222t198 -66q81 0 168.5 33t165.5 89v787h100v-975h-98v100q-81 -60 -172.5 -91.5t-165.5 -31.5q-51 0 -96 7t-96 29t-87.5 57.5t-60.5 98t-24 144.5zM379 1288q0 31 20.5 52.5t51.5 21.5t52 -21.5t21 -52.5t-21 -51t-52 -20t-51.5 20 t-20.5 51zM723 1288q0 31 20.5 52.5t51.5 21.5t52 -21.5t21 -52.5t-21 -51t-52 -20t-51.5 20t-20.5 51z" />
<glyph unicode="&#xfd;" d="M168 975h100l357 -866l340 866h96l-574 -1426h-92l174 443zM528 1182l252 268l78 -76l-276 -241z" />
<glyph unicode="&#xfe;" d="M205 -451v1854h100v-539q165 131 313 131q192 0 298 -133.5t106 -355.5q0 -239 -135.5 -382.5t-360.5 -143.5q-105 0 -221 43v-474h-100zM305 125q99 -57 221 -57q186 0 286.5 114.5t100.5 317.5q0 195 -85.5 300t-225.5 105q-141 0 -297 -131v-649z" />
<glyph unicode="&#xff;" d="M168 975h100l357 -866l340 866h96l-574 -1426h-92l174 443zM375 1288q0 31 20.5 52.5t50.5 21.5q31 0 52.5 -21.5t21.5 -52.5q0 -30 -21.5 -50.5t-52.5 -20.5t-51 20t-20 51zM719 1288q0 31 20.5 52.5t51.5 21.5t52 -21.5t21 -52.5t-21 -51t-52 -20t-51.5 20t-20.5 51z " />
<glyph unicode="&#x152;" d="M43 664q0 151 30.5 275.5t90.5 216.5t154 143t214 51q84 0 162 -19h492v-98h-406v-500h332v-96h-332v-539h406v-98h-490q-95 -20 -178 -20q-106 0 -187.5 32t-135.5 89.5t-88.5 143.5t-49 188.5t-14.5 230.5zM154 664q0 -592 364 -592q82 0 158 18v1147q-69 16 -144 16 q-189 0 -283.5 -156.5t-94.5 -432.5z" />
<glyph unicode="&#x153;" d="M12 487q0 152 35.5 264.5t110.5 178t182 65.5q236 0 297 -235q64 235 272 235q142 0 225 -110.5t83 -337.5v-60h-531q0 -203 71 -311t214 -108q64 0 118.5 30t88.5 66l24 -92q-113 -92 -250 -92q-116 0 -198 60t-121 179q-90 -239 -293 -239q-328 0 -328 507zM111 487 q0 -96 11 -169t36.5 -131t71 -88.5t110.5 -30.5q244 0 244 419q0 420 -244 420q-229 0 -229 -420zM688 569h434q3 155 -53.5 246.5t-163.5 91.5q-105 0 -155.5 -83.5t-61.5 -254.5z" />
<glyph unicode="&#x178;" d="M119 1331h110l406 -721l371 721h102l-424 -817v-514h-104v518zM393 1583q0 31 20.5 52.5t51.5 21.5t52.5 -21.5t21.5 -52.5t-21.5 -51.5t-52.5 -20.5t-51.5 20.5t-20.5 51.5zM737 1583q0 31 20.5 52.5t51.5 21.5t52.5 -21.5t21.5 -52.5t-21.5 -51.5t-52.5 -20.5 t-51.5 20.5t-20.5 51.5z" />
<glyph unicode="&#x2c6;" d="M334 1169l244 238h69l248 -231l-66 -66l-219 211l-213 -213z" />
<glyph unicode="&#x2dc;" d="M326 1243q97 111 184 111q60 0 120 -31t97 -31q83 0 137 66l39 -45q-83 -107 -178 -107q-45 0 -108.5 31t-102.5 31q-86 0 -145 -72z" />
<glyph unicode="&#x2000;" horiz-adv-x="897" />
<glyph unicode="&#x2001;" horiz-adv-x="1794" />
<glyph unicode="&#x2002;" horiz-adv-x="897" />
<glyph unicode="&#x2003;" horiz-adv-x="1794" />
<glyph unicode="&#x2004;" horiz-adv-x="598" />
<glyph unicode="&#x2005;" horiz-adv-x="448" />
<glyph unicode="&#x2006;" horiz-adv-x="299" />
<glyph unicode="&#x2007;" horiz-adv-x="299" />
<glyph unicode="&#x2008;" horiz-adv-x="224" />
<glyph unicode="&#x2009;" horiz-adv-x="358" />
<glyph unicode="&#x200a;" horiz-adv-x="99" />
<glyph unicode="&#x2010;" d="M362 481v99h504v-99h-504z" />
<glyph unicode="&#x2011;" d="M362 481v99h504v-99h-504z" />
<glyph unicode="&#x2012;" d="M362 481v99h504v-99h-504z" />
<glyph unicode="&#x2013;" d="M164 496v82h901v-82h-901z" />
<glyph unicode="&#x2014;" d="M0 496v82h1227v-82h-1227z" />
<glyph unicode="&#x2018;" d="M508 967q9 121 43.5 270.5t85.5 235.5l82 -21q-44 -89 -75 -232t-36 -253h-100z" />
<glyph unicode="&#x2019;" d="M508 971q43 89 74 232t36 253h101q-9 -121 -43.5 -270.5t-85.5 -235.5z" />
<glyph unicode="&#x201a;" d="M512 -348q44 91 75 224.5t36 240.5h92q-9 -117 -43.5 -258t-85.5 -228z" />
<glyph unicode="&#x201c;" d="M358 967q9 121 43.5 270.5t85.5 235.5l82 -21q-43 -89 -74 -232t-36 -253h-101zM657 967q9 121 43.5 270.5t85.5 235.5l82 -21q-43 -89 -74 -232t-36 -253h-101z" />
<glyph unicode="&#x201d;" d="M358 971q44 89 75 232t36 253h100q-9 -121 -43.5 -270.5t-85.5 -235.5zM657 971q44 89 75 232t36 253h100q-9 -121 -43.5 -270.5t-85.5 -235.5z" />
<glyph unicode="&#x201e;" d="M358 -348q44 91 75 224.5t36 240.5h92q-9 -117 -43.5 -258t-85.5 -228zM666 -348q44 90 74.5 224t35.5 241h92q-9 -117 -43.5 -258t-85.5 -228z" />
<glyph unicode="&#x2022;" d="M387 467q0 90 65 152.5t162 62.5q95 0 161.5 -63t66.5 -152q0 -90 -66 -151.5t-162 -61.5q-98 0 -162.5 61t-64.5 152z" />
<glyph unicode="&#x2026;" d="M53 53q0 34 20.5 52t55.5 18q34 0 56 -17.5t22 -52.5q0 -36 -22 -54.5t-56 -18.5q-76 0 -76 73zM537 53q0 34 20 52t55 18q34 0 56 -17.5t22 -52.5q0 -36 -22 -54.5t-56 -18.5q-75 0 -75 73zM1020 53q0 34 20.5 52t55.5 18q33 0 55.5 -17.5t22.5 -52.5q0 -36 -22.5 -54.5 t-55.5 -18.5q-76 0 -76 73z" />
<glyph unicode="&#x202f;" horiz-adv-x="358" />
<glyph unicode="&#x2039;" d="M440 479l246 473h100l-237 -465l237 -481h-100z" />
<glyph unicode="&#x203a;" d="M440 6l238 481l-238 465h101l245 -473l-245 -473h-101z" />
<glyph unicode="&#x205f;" horiz-adv-x="448" />
<glyph unicode="&#x20ac;" d="M94 471l21 80h133q-2 33 -2 102q0 43 4 125h-135l20 80h125q39 241 175.5 366.5t367.5 125.5q94 0 177.5 -20t131.5 -48l-37 -111q-47 38 -120 60t-150 22q-206 0 -307 -99t-129 -296h604l-21 -80h-592q-4 -39 -4 -121q0 -73 2 -106h553l-20 -80h-524 q25 -206 124.5 -302.5t305.5 -96.5q95 0 181 22t126 49l29 -94q-132 -69 -340 -69q-238 0 -372 115.5t-165 375.5h-162z" />
<glyph unicode="&#x2122;" d="M14 1272v61h439v-61h-187v-580h-69v580h-183zM494 692v643h81l203 -420l72 -149l65 143l195 426h84v-643h-66v551l-57 -139l-194 -412h-58l-192 391l-70 144l2 -135v-400h-65z" />
<glyph unicode="&#x25fc;" horiz-adv-x="972" d="M0 0v973h973v-973h-973z" />
</font>
</defs>
</svg>
