<?xml version="1.0" standalone="no"?>
<!DOCTYPE svg PUBLIC "-//W3C//DTD SVG 1.1//EN" "http://www.w3.org/Graphics/SVG/1.1/DTD/svg11.dtd" >
<svg xmlns="http://www.w3.org/2000/svg">
<metadata></metadata>
<defs>
<font id="tyninesansmono_regregular" horiz-adv-x="1228" >
<font-face units-per-em="2048" ascent="1597" descent="-451" />
<missing-glyph horiz-adv-x="500" />
<glyph horiz-adv-x="0" />
<glyph horiz-adv-x="682" />
<glyph unicode=" " />
<glyph unicode="!" d="M506 80q0 46 29 72t77 26q47 0 78 -25t31 -73q0 -49 -30 -74.5t-79 -25.5q-106 0 -106 100zM532 870v461h156v-463l-16 -458h-121z" />
<glyph unicode="&#x22;" d="M346 1331h174l-33 -606h-106zM707 1331h176l-35 -606h-105z" />
<glyph unicode="#" d="M80 317l18 103h199l55 309h-215l19 102h213l55 308h129l-55 -308h315l55 308h129l-55 -308h207l-19 -102h-204l-56 -309h222l-19 -103h-221l-55 -317h-129l55 317h-317l-56 -317h-127l56 317h-199zM424 420h317l56 309h-318z" />
<glyph unicode="$" d="M205 123l51 133q57 -42 141.5 -71.5t167.5 -32.5v466q-46 20 -71.5 31t-67 32t-64.5 38t-52 43.5t-44 53t-26 62.5t-11 76q0 124 93.5 207.5t242.5 98.5v120h99v-116q182 -6 307 -70l-47 -135q-44 33 -114 55t-146 27v-416q49 -21 75 -32.5t70.5 -35t69 -41.5t56 -47.5 t47.5 -59.5t28 -70t12 -85q0 -126 -101 -212t-257 -105v-113h-99v109q-218 3 -360 90zM383 967q0 -67 47.5 -113t134.5 -86v367q-85 -12 -133.5 -55.5t-48.5 -112.5zM664 158q90 14 147 61.5t57 120.5q0 82 -53 135.5t-151 99.5v-417z" />
<glyph unicode="%" d="M41 1028q0 139 77.5 230.5t225.5 91.5q153 0 228 -85t75 -237q0 -62 -17.5 -117.5t-52.5 -102.5t-95.5 -75t-139.5 -28q-301 0 -301 323zM158 168l817 1042l78 -57l-815 -1036zM164 1028q0 -102 38.5 -155.5t141.5 -53.5q100 0 139 53.5t39 155.5q0 41 -8 75.5t-27 66 t-55.5 49.5t-87.5 18q-180 0 -180 -209zM584 299q0 141 76.5 232.5t224.5 91.5q153 0 228 -85.5t75 -238.5q0 -61 -17.5 -116.5t-52.5 -102.5t-95.5 -75t-139.5 -28q-299 0 -299 322zM705 299q0 -101 38.5 -155t139.5 -54q100 0 140 54.5t40 154.5q0 41 -8.5 76t-27.5 66.5 t-56 50t-88 18.5q-178 0 -178 -211z" />
<glyph unicode="&#x26;" d="M45 315q0 145 84 250t227 144q-41 175 -41 305q0 155 77 245.5t200 90.5q47 0 90.5 -14.5t84 -45.5t65 -89t24.5 -136q0 -83 -28.5 -154.5t-78 -122.5t-108.5 -86t-127 -57q71 -235 182 -358q57 84 82 174.5t35 208.5h361v-121h-259q-21 -101 -55.5 -177t-95.5 -159 q102 -102 213 -102q110 0 168 94l63 -117q-88 -108 -241 -108q-159 0 -301 129q-129 -129 -301 -129q-146 0 -233 93.5t-87 241.5zM193 346q0 -119 54 -179.5t144 -60.5q113 0 201 91q-137 161 -211 413q-102 -41 -145 -104.5t-43 -159.5zM453 1044q0 -146 34 -294 q49 17 86 39t69 56.5t48.5 86.5t16.5 119q0 182 -125 182q-57 0 -93 -44t-36 -145z" />
<glyph unicode="'" d="M526 1331h174l-36 -606h-101z" />
<glyph unicode="(" d="M332 522q0 295 125.5 529.5t355.5 406.5l84 -90q-75 -64 -133 -125.5t-112.5 -140t-90 -162t-57 -189t-21.5 -223.5q0 -149 30.5 -275t90.5 -228t128.5 -180t164.5 -162l-76 -86q-235 168 -362 402t-127 523z" />
<glyph unicode=")" d="M332 -317q96 84 164 162t127.5 180t89.5 228t30 275q0 146 -30.5 271.5t-89.5 227t-128 181t-163 160.5l84 90q229 -172 355 -407.5t126 -528.5q0 -290 -127 -523t-362 -402z" />
<glyph unicode="*" d="M291 895l254 92q3 -22 26 -41l-198 -176zM291 1094l82 127l196 -166q-26 -12 -26 -49zM537 1298h147l-47 -235q-9 6 -25 6q-10 0 -26 -4zM539 690l41 252q8 -6 30 -6q17 0 25 4l49 -250h-145zM645 946q22 13 29 39l262 -92l-82 -121zM651 1055l203 164l82 -123l-258 -88 q-7 33 -27 47z" />
<glyph unicode="+" d="M193 543v119h354v327h133v-327h354v-119h-354v-336h-133v336h-354z" />
<glyph unicode="," d="M483 -254q109 208 115 414h145q-9 -223 -153 -445z" />
<glyph unicode="-" d="M352 455v143h525v-143h-525z" />
<glyph unicode="." d="M506 80q0 46 29 72t77 26q49 0 79 -24.5t30 -73.5q0 -50 -29 -75t-80 -25q-106 0 -106 100z" />
<glyph unicode="/" d="M229 -106l637 1509h133l-634 -1509h-136z" />
<glyph unicode="0" d="M104 639q0 120 14.5 220.5t51 193t94 157t147.5 102.5t207 38q504 0 504 -650q0 -75 -6 -143t-21.5 -142t-40.5 -135.5t-65.5 -118t-93.5 -96t-127 -62.5t-164 -23q-250 0 -375 168.5t-125 490.5zM270 684q0 -155 20.5 -269.5t78.5 -189.5l395 953q-69 32 -158 32 q-79 0 -139 -30.5t-97 -79.5t-60 -119t-31.5 -141.5t-8.5 -155.5zM457 152q65 -35 161 -35q338 0 338 561q0 142 -21 250.5t-81 179.5z" />
<glyph unicode="1" d="M170 0v141h375v1016l-340 -67v133l502 125v-1207h393v-141h-930z" />
<glyph unicode="2" d="M164 0v115q99 71 210.5 174.5t216.5 223.5t174 245.5t69 218.5q0 110 -67 171.5t-171 61.5q-74 0 -150.5 -39.5t-132.5 -101.5l-86 107q61 67 168 120.5t234 53.5q162 0 267 -94t105 -261q0 -97 -59.5 -218.5t-155 -236.5t-201.5 -217.5t-212 -181.5h692v-141h-901z" />
<glyph unicode="3" d="M180 102l88 131q61 -50 144.5 -82t171.5 -32q121 0 209 62.5t88 170.5q0 91 -66 154.5t-169.5 93.5t-242.5 37v111q108 8 199.5 40.5t153 94t61.5 139.5q0 88 -64.5 137t-166.5 49q-153 0 -273 -96l-71 115q6 5 17.5 13.5t49.5 29.5t79 37t103.5 29.5t126.5 13.5 q159 0 263 -86.5t104 -214.5q0 -126 -85.5 -212.5t-229.5 -121.5q179 -30 278 -123t99 -238q0 -70 -26.5 -134t-80.5 -119t-150.5 -88t-222.5 -33q-123 0 -233.5 41.5t-153.5 80.5z" />
<glyph unicode="4" d="M113 336v110l632 885h168v-860h201v-135h-201v-334h-159v334h-641zM274 473h480v664z" />
<glyph unicode="5" d="M193 106l81 132q61 -58 141 -89.5t163 -31.5q121 0 205.5 68.5t84.5 193.5q0 173 -147 244t-440 71v637h718v-143h-563v-363q304 -4 452 -116.5t148 -319.5q0 -80 -28 -151.5t-84 -130t-151 -93t-218 -34.5q-101 0 -198 35t-164 91z" />
<glyph unicode="6" d="M158 614q0 344 189 539t519 195q68 0 142 -9v-147q-74 12 -144 12q-87 0 -163.5 -19t-143 -59t-115.5 -99t-79 -143t-35 -186q163 107 346 107q174 0 284.5 -96.5t110.5 -276.5q0 -206 -117.5 -329t-326.5 -123q-467 0 -467 634zM324 559q2 -97 16.5 -171t48 -138 t97 -98.5t155.5 -34.5q67 0 119 24t82.5 65.5t45.5 92t15 107.5q0 136 -68 199t-214 63q-84 0 -162 -31.5t-135 -77.5z" />
<glyph unicode="7" d="M168 1188v143h891v-98l-576 -1231h-161l557 1186h-711z" />
<glyph unicode="8" d="M156 311q0 69 27 128.5t77.5 106.5t103 81t123.5 69q-134 80 -176 114q-99 81 -110 188q-2 18 -2 36q0 92 59 165.5t155 112t208 38.5q181 0 291 -85t110 -223q0 -170 -303 -329q44 -23 70.5 -38t68 -40.5t67.5 -46.5t57.5 -51t49 -58.5t29.5 -64.5t12 -74 q0 -104 -64.5 -187.5t-170 -128t-228.5 -44.5q-117 0 -218.5 36.5t-168.5 113.5t-67 181zM322 326q0 -105 85.5 -162.5t219.5 -57.5q125 0 202.5 62t77.5 162q0 45 -23.5 85.5t-77.5 81t-84.5 59.5t-102.5 58q-15 9 -23 13q-57 -29 -99.5 -56t-85.5 -64.5t-66 -83.5t-23 -97 zM360 1044q0 -24 4.5 -43.5t10.5 -35.5t24 -34.5t32 -31.5t48.5 -36t59 -38.5t77.5 -48.5q122 77 180 137t58 123q0 93 -68.5 139t-169.5 46q-117 0 -186.5 -49t-69.5 -128z" />
<glyph unicode="9" d="M158 897q0 206 118 329.5t328 123.5q465 0 465 -635q0 -344 -189.5 -538.5t-519.5 -194.5q-76 0 -141 8v147q73 -12 143 -12q87 0 164 19t143.5 59t116 99t80 143t35.5 186q-163 -107 -348 -107q-173 0 -284 96.5t-111 276.5zM326 924q0 -136 67.5 -199t212.5 -63 q84 0 162 31t135 77q-1 76 -10 137.5t-30.5 120t-56 98t-90 63t-128.5 23.5q-68 0 -120 -24t-82 -65.5t-45 -91.5t-15 -107z" />
<glyph unicode=":" d="M506 80q0 46 29 72t77 26q49 0 79 -24.5t30 -73.5q0 -50 -29 -75t-80 -25q-106 0 -106 100zM506 803q0 46 29 72t77 26q49 0 79 -24.5t30 -73.5q0 -50 -29 -76.5t-80 -26.5q-106 0 -106 103z" />
<glyph unicode=";" d="M463 -254q108 200 117 414h145q-6 -112 -47.5 -228.5t-106.5 -216.5zM549 803q0 46 29 72t77 26q49 0 79 -24.5t30 -73.5q0 -50 -29 -76.5t-80 -26.5q-106 0 -106 103z" />
<glyph unicode="&#x3c;" d="M244 535v106l661 471l78 -108l-582 -414l580 -432l-78 -111z" />
<glyph unicode="=" d="M176 346v121h875v-121h-875zM176 754v120h875v-120h-875z" />
<glyph unicode="&#x3e;" d="M244 1004l78 108l661 -471v-106l-659 -488l-78 111l579 432z" />
<glyph unicode="?" d="M231 1217q70 61 168.5 97t210.5 36q171 0 279 -77.5t108 -207.5q0 -59 -23 -110t-59.5 -88t-80.5 -70.5t-88.5 -63.5t-81 -60t-59.5 -67.5t-23 -79.5q0 -52 41 -116l-164 -41q-37 75 -37 159q0 49 22 93.5t57.5 79t78 67.5t85.5 65.5t78.5 65.5t57.5 73.5t22 84.5 q0 75 -66 116t-167 41q-171 0 -285 -114zM457 80q0 47 28 72.5t78 25.5q47 0 78 -25t31 -73q0 -50 -29 -75t-80 -25q-106 0 -106 100z" />
<glyph unicode="@" d="M31 416q0 366 165.5 572t458.5 206q124 0 220 -36.5t156 -96.5t98.5 -145.5t53.5 -175.5t15 -195q0 -101 -11 -187t-36.5 -164t-74 -122.5t-115.5 -44.5q-68 0 -112.5 31.5t-62.5 88.5q-105 -120 -249 -120q-106 0 -170 62.5t-64 166.5q0 57 21 101t54.5 70.5t81.5 43 t96 23t103 6.5q45 0 115 -8l2 114q1 91 -39 128.5t-114 37.5q-34 0 -65 -7t-59 -31.5t-28 -63.5q0 -19 6 -43l-112 -17q-11 42 -11 66q0 92 82 149.5t199 57.5q53 0 97.5 -12.5t83.5 -41t61 -81.5t22 -127l-4 -416q0 -46 25 -69t55 -23q70 0 95.5 103.5t25.5 318.5 q0 123 -23.5 222t-74 178.5t-138.5 123t-209 43.5q-247 0 -382.5 -175.5t-135.5 -516.5q0 -309 130.5 -480.5t379.5 -171.5q241 0 457 150l45 -80q-227 -162 -520 -162q-131 0 -239 46t-187.5 137t-123.5 235.5t-44 331.5zM432 270q0 -66 38 -100.5t103 -34.5q56 0 110 32 t91 75v157q-45 11 -121 11q-221 0 -221 -140z" />
<glyph unicode="A" d="M59 0l465 1331h176l467 -1331h-174l-119 352h-534l-115 -352h-166zM385 489h444l-223 668z" />
<glyph unicode="B" d="M172 0v1331h442q211 0 305.5 -84.5t94.5 -245.5q0 -93 -49 -170t-152 -116v-4q84 -14 144.5 -47.5t93 -80.5t47 -97.5t14.5 -108.5q0 -182 -113.5 -279.5t-341.5 -97.5h-485zM338 145h301q159 0 229 55t70 181q0 242 -322 242h-278v-478zM338 758h244q117 0 188.5 60.5 t71.5 164.5q0 105 -60.5 155t-187.5 50h-256v-430z" />
<glyph unicode="C" d="M113 657q0 329 172 511t460 182q100 0 196.5 -22t154.5 -58l-56 -154q-55 44 -136 67t-163 23q-225 0 -338.5 -140t-113.5 -404q0 -541 450 -541q96 0 190 24t144 56l41 -140q-153 -81 -387 -81q-140 0 -251 39t-193 119.5t-126 211.5t-44 307z" />
<glyph unicode="D" d="M131 0v1331h442q137 0 243 -35.5t173 -95t110.5 -145t61 -178t17.5 -201.5q0 -116 -15.5 -209.5t-57 -183t-109 -150t-177.5 -97t-256 -36.5h-432zM297 145h285q77 0 139 14t105.5 38.5t75 62.5t50.5 80t30.5 98t15 108.5t3.5 119.5q0 87 -11 158.5t-40 141t-75.5 117 t-123.5 76.5t-178 29h-276v-1043z" />
<glyph unicode="E" d="M174 0v1331h903v-143h-737v-434h668v-142h-668v-467h737v-145h-903z" />
<glyph unicode="F" d="M178 0v1331h912v-143h-746v-490h680v-141h-680v-557h-166z" />
<glyph unicode="G" d="M102 657q0 174 46 308t130 217.5t197 125.5t252 42q207 0 356 -82l-57 -160q-128 98 -301 98q-228 0 -337 -131t-109 -413q0 -148 29.5 -253.5t88.5 -168t138.5 -91t187.5 -28.5q114 0 221 49v489h164v-550q-79 -54 -186.5 -91.5t-221.5 -37.5q-133 0 -238 35.5 t-187.5 112.5t-127.5 211t-45 318z" />
<glyph unicode="H" d="M131 0v1331h166v-573h635v573h166v-1331h-166v610h-635v-610h-166z" />
<glyph unicode="I" d="M162 0v145h368v1041h-368v145h917v-145h-383v-1041h383v-145h-917z" />
<glyph unicode="J" d="M193 1186v145h780v-788q0 -83 -17 -155t-45 -126.5t-69.5 -100.5t-86 -78.5t-100 -59t-105 -43t-108 -29t-102 -18.5t-92.5 -11l-27 144q174 24 259 51q326 106 327 440v629h-614z" />
<glyph unicode="K" d="M162 0v1331h166v-610l135 29l428 581h194l-495 -647l547 -684h-207l-484 602l-118 -20v-582h-166z" />
<glyph unicode="L" d="M205 0v1331h166v-1186h714v-145h-880z" />
<glyph unicode="M" d="M76 0v1331h157l390 -700l366 700h162v-1331h-143v1090l-320 -615h-135l-336 604v-1079h-141z" />
<glyph unicode="N" d="M121 0v1331h182l649 -1067v1067h156v-1331h-170l-659 1087v-1087h-158z" />
<glyph unicode="O" d="M57 662q0 320 141 504t418 184q287 0 421 -172.5t134 -513.5q0 -201 -62 -353t-190.5 -241.5t-310.5 -89.5q-551 0 -551 682zM233 662q0 -106 10 -186t35.5 -149t67.5 -112.5t107.5 -67.5t154.5 -24q85 0 151 25.5t110 71.5t72.5 114t41 149t12.5 181q0 136 -18 232.5 t-60.5 168t-117 106.5t-183.5 35t-183.5 -33.5t-118 -104t-62.5 -168.5t-19 -238z" />
<glyph unicode="P" d="M178 0v1331h457q244 0 354.5 -111.5t110.5 -320.5q0 -201 -123 -313.5t-328 -112.5h-307v-473h-164zM342 612h297q285 0 285 277q0 150 -69 224.5t-224 74.5h-289v-576z" />
<glyph unicode="Q" d="M57 662q0 320 141 504t418 184q287 0 421 -172.5t134 -513.5q0 -220 -76 -383t-223 -240l342 -358l-141 -99l-336 410q-72 -14 -129 -14q-551 0 -551 682zM233 662q0 -106 10 -186t35.5 -149t67.5 -112.5t107.5 -67.5t154.5 -24q85 0 151 25.5t110 71.5t72.5 114t41 149 t12.5 181q0 136 -18 232.5t-60.5 168t-117 106.5t-183.5 35t-183.5 -33.5t-118 -104t-62.5 -168.5t-19 -238z" />
<glyph unicode="R" d="M166 0v1331h430q246 0 355.5 -101t109.5 -306q0 -137 -65.5 -233.5t-182.5 -139.5l315 -551h-196l-287 518h-313v-518h-166zM332 659h268q287 0 287 259q0 146 -69.5 208t-227.5 62h-258v-529z" />
<glyph unicode="S" d="M160 94l57 162q162 -137 389 -137q130 0 210.5 53t80.5 158q0 59 -24.5 105.5t-65.5 77.5t-94 56.5t-112 46.5t-117.5 43.5t-111.5 52t-94 67t-65.5 94.5t-24.5 128q0 154 130.5 251.5t330.5 97.5q108 0 210 -25.5t169 -64.5l-51 -162q-134 108 -322 108 q-138 0 -215.5 -47.5t-77.5 -144.5q0 -50 24.5 -89t65.5 -65.5t94.5 -49t112.5 -44t117.5 -44.5t112 -56t94.5 -74.5t65.5 -103t24.5 -138.5q0 -122 -67.5 -207.5t-174 -124t-241.5 -38.5q-124 0 -236 32.5t-194 81.5z" />
<glyph unicode="T" d="M72 1188v143h1085v-143h-459v-1188h-166v1188h-460z" />
<glyph unicode="U" d="M127 481v850h164v-831q0 -214 74 -297.5t251 -83.5q180 0 251 90.5t71 304.5v817h162v-833q0 -120 -24.5 -211t-80 -162t-152.5 -108t-233 -37t-230 32.5t-149.5 98t-79.5 155.5t-24 215z" />
<glyph unicode="V" d="M61 1331h172l400 -1155l368 1155h164l-446 -1331h-182z" />
<glyph unicode="W" d="M27 1331h168l145 -1141l211 785h145l234 -782l114 1138h158l-178 -1331h-168l-235 782l-209 -782h-170z" />
<glyph unicode="X" d="M82 0l440 692l-401 639h184l313 -512l316 512h166l-400 -631l447 -700h-186l-353 571l-356 -571h-170z" />
<glyph unicode="Y" d="M94 1331h176l365 -674l334 674h164l-420 -813v-518h-166v514z" />
<glyph unicode="Z" d="M137 0v115l758 1073h-719v143h911v-127l-753 -1061h772v-143h-969z" />
<glyph unicode="[" d="M412 -375v1850h405v-119h-258v-1618h258v-113h-405z" />
<glyph unicode="\" d="M229 1403h133l637 -1509h-135z" />
<glyph unicode="]" d="M412 -262h260v1618h-260v119h405v-1850h-405v113z" />
<glyph unicode="^" d="M156 729l399 604h117l399 -604h-147l-316 477l-309 -477h-143z" />
<glyph unicode="_" d="M61 -94h1104v-115h-1104v115z" />
<glyph unicode="`" d="M432 1360l100 108l263 -274l-68 -70z" />
<glyph unicode="a" d="M184 254q0 69 29 122.5t75.5 85.5t111.5 52t129 27.5t137 7.5q55 0 141 -8l2 131q0 111 -51.5 154.5t-159.5 43.5q-38 0 -71.5 -5.5t-65 -19t-50 -40t-18.5 -64.5q0 -21 6 -45l-145 -18q-12 38 -12 72q0 112 104.5 181.5t265.5 69.5q78 0 139 -15t111 -49q50 -35 78 -97 q27 -60 27 -144v-6l-2 -473q0 -57 21 -82.5t52 -25.5q20 0 35 6l14 -121q-52 -14 -96 -14q-73 0 -118.5 37t-57.5 102q-130 -139 -326 -139q-134 0 -219.5 74t-85.5 200zM350 272q0 -80 51 -121.5t142 -41.5q76 0 147 36.5t117 87.5v193q-86 12 -158 12q-60 0 -109.5 -7.5 t-94 -25t-70 -51.5t-25.5 -82z" />
<glyph unicode="b" d="M182 59v1344h162v-520q69 56 156 87t168 31q194 0 305.5 -133.5t111.5 -357.5q0 -241 -146 -385.5t-378 -144.5q-201 0 -379 79zM344 156q90 -43 209 -43q166 0 264 101.5t98 281.5q0 177 -80.5 270.5t-207.5 93.5q-66 0 -142 -29.5t-141 -82.5v-592z" />
<glyph unicode="c" d="M229 475q0 108 26 196t72 149t110 102t137.5 60t156.5 19q98 0 186.5 -24t147.5 -59l-49 -148q-137 96 -283 96q-156 0 -245 -97t-89 -292q0 -177 91.5 -269.5t250.5 -92.5q82 0 157 29t120 67l45 -133q-66 -43 -160.5 -70.5t-193.5 -27.5q-100 0 -185 29.5t-152 87.5 t-105 155t-38 223z" />
<glyph unicode="d" d="M147 471q0 243 137 386.5t365 143.5q122 0 240 -32v434h162v-1403h-152l-2 121q-68 -62 -163.5 -101.5t-182.5 -39.5q-193 0 -298.5 132.5t-105.5 358.5zM317 485q0 -178 75 -271t200 -93q68 0 151 35t146 92v561q-94 57 -234 57q-161 0 -249.5 -100.5t-88.5 -280.5z" />
<glyph unicode="e" d="M197 492q0 123 37 221.5t100.5 160.5t145 94.5t173.5 32.5q190 0 303 -117t113 -356q0 -55 -2 -61h-705q7 -175 101.5 -264.5t253.5 -89.5q77 0 163.5 31.5t129.5 68.5l43 -135q-68 -42 -166 -70t-209 -28q-104 0 -190.5 31t-152 92.5t-102 160.5t-36.5 228zM367 580h538 v7q1 129 -67 209q-70 82 -185 81q-257 0 -286 -297z" />
<glyph unicode="f" d="M156 0v133h280v709h-207v112l207 11v71q0 193 104 290t281 97q68 0 139.5 -14.5t108.5 -34.5l-33 -145q-36 27 -95.5 44t-117.5 17q-109 0 -168 -62.5t-59 -183.5v-79h369v-123h-369v-709h405v-133h-845z" />
<glyph unicode="g" d="M143 473q0 244 140.5 386t371.5 142q216 0 392 -75v-901q0 -488 -490 -488q-198 0 -362 96l63 152q156 -113 315 -113q72 0 125 15.5t97 53.5t67 110t23 176v114q-69 -59 -161 -96t-177 -37q-188 0 -296 124t-108 341zM315 487q0 -171 75.5 -253t197.5 -82 q69 0 152.5 33.5t144.5 90.5v549q-90 41 -234 41q-161 0 -248.5 -99.5t-87.5 -279.5z" />
<glyph unicode="h" d="M201 0v1403h161v-533q78 64 170 97.5t173 33.5q51 0 97 -8.5t93.5 -31.5t81.5 -60t56 -98t22 -141v-662h-160v602q0 140 -57.5 197t-169.5 57q-74 0 -157 -32.5t-149 -84.5v-739h-161z" />
<glyph unicode="i" d="M166 0v133h362v711h-362v133h526v-133h-2v-711h373v-133h-897zM512 1311q0 43 28.5 72.5t71.5 29.5t73 -29.5t30 -72.5t-30 -72t-73 -29t-71.5 29t-28.5 72z" />
<glyph unicode="j" d="M174 -317q56 0 96 1.5t100 10.5t102.5 24t89.5 45t76.5 71t49 105t19.5 144v760h-529v133h688v-920q0 -98 -25 -177.5t-65 -132t-99 -92t-117 -60.5t-131 -34t-128.5 -16.5t-120.5 -3.5zM688 1311q0 43 30 72.5t73 29.5q42 0 72 -30t30 -72t-30 -71.5t-72 -29.5 q-43 0 -73 29t-30 72z" />
<glyph unicode="k" d="M209 0v1403h160v-858l131 24l327 408h181l-379 -457l440 -520h-203l-362 438l-135 -22v-416h-160z" />
<glyph unicode="l" d="M156 0v133h376v1137h-360v133h522v-1270h359v-133h-897z" />
<glyph unicode="m" d="M106 0v977h136l2 -129q59 74 116 113.5t125 39.5q151 0 189 -153q113 153 246 153q115 0 160.5 -73.5t45.5 -241.5v-686h-145v651q0 93 -10.5 139.5t-30.5 62t-61 15.5q-43 0 -93.5 -34t-97.5 -95q2 -16 2 -53v-686h-147v651q0 123 -20.5 170t-73.5 47q-46 0 -100 -35.5 t-97 -93.5v-739h-146z" />
<glyph unicode="n" d="M201 0v977h151l2 -113q79 68 173.5 102.5t177.5 34.5q51 0 97 -8.5t93.5 -31.5t81.5 -60t56 -98t22 -141v-662h-160v602q0 140 -57.5 197t-169.5 57q-74 0 -157 -32.5t-149 -84.5v-739h-161z" />
<glyph unicode="o" d="M129 492q0 232 134 370.5t351 138.5q227 0 357.5 -131.5t130.5 -377.5q0 -143 -57.5 -258.5t-169.5 -184.5t-261 -69q-223 0 -354 132.5t-131 379.5zM299 494q0 -184 77 -282.5t234 -98.5q164 0 243 99t79 282q0 175 -79.5 274.5t-242.5 99.5q-157 0 -234 -101t-77 -273z " />
<glyph unicode="p" d="M182 -451v1428h152l2 -117q70 63 161 102t177 39q193 0 302 -133.5t109 -357.5q0 -242 -143 -386t-373 -144q-97 0 -225 32v-463h-162zM344 166q87 -53 221 -53q162 0 256 101.5t94 281.5q0 178 -78 271t-204 93q-67 0 -146 -34.5t-143 -92.5v-567z" />
<glyph unicode="q" d="M147 471q0 243 145.5 386.5t377.5 143.5q201 0 381 -83v-1369h-162v564q-69 -60 -157 -96.5t-171 -36.5q-194 0 -304 133.5t-110 357.5zM319 485q0 -177 78.5 -269.5t204.5 -92.5q67 0 145 33.5t142 91.5v571q-91 47 -223 47q-162 0 -254.5 -101t-92.5 -280z" />
<glyph unicode="r" d="M96 0v133h342v711h-317v133h467l4 -189q65 92 165 147.5t197 55.5q28 0 58 -6l-13 -164q-41 13 -79 13q-79 0 -174 -52t-148 -118v-531h432v-133h-934z" />
<glyph unicode="s" d="M219 61l45 148q57 -44 142.5 -71t179.5 -27q70 0 127 14t96 48t39 83q0 52 -33.5 89t-87 58.5t-118.5 38.5t-130 38t-118.5 49t-87 79t-33.5 121t34 124t92 85.5t126.5 47t144.5 15.5q100 0 196 -19.5t154 -53.5l-45 -148q-34 32 -122 61t-175 29q-47 0 -86.5 -6 t-76.5 -19.5t-58 -40.5t-21 -65q0 -41 33.5 -71t87.5 -48.5t119 -36t130.5 -41t119.5 -56t87.5 -88t33.5 -130.5q0 -78 -38 -136t-102 -90t-137 -47t-155 -15q-110 0 -207.5 21.5t-155.5 59.5z" />
<glyph unicode="t" d="M141 842v114l234 11l20 264h140v-266h421v-123h-421v-516q0 -118 50.5 -164.5t149.5 -46.5q114 0 234 78l35 -136q-136 -77 -306 -77q-69 0 -124.5 16t-102.5 51.5t-72.5 101t-25.5 156.5v537h-232z" />
<glyph unicode="u" d="M174 317v660h162v-606q0 -140 57.5 -198t167.5 -58q70 0 150.5 35t150.5 90v737h162v-977h-150l-4 115q-79 -69 -170 -103.5t-172 -34.5q-51 0 -97 8t-94.5 30.5t-83 59t-57 99t-22.5 143.5z" />
<glyph unicode="v" d="M145 977h170l303 -848l302 848h163l-372 -977h-201z" />
<glyph unicode="w" d="M37 977h160l141 -842l213 709h135l217 -709l139 842h154l-211 -977h-172l-201 664l-198 -664h-172z" />
<glyph unicode="x" d="M176 0l350 514l-307 463h172l227 -346l232 346h164l-312 -455l351 -522h-174l-269 410l-274 -410h-160z" />
<glyph unicode="y" d="M145 977h170l310 -811l299 811h159l-553 -1428h-155l162 424z" />
<glyph unicode="z" d="M168 0v98l610 746h-577v133h798v-98l-622 -746h661v-133h-870z" />
<glyph unicode="{" d="M330 494v110q37 0 47 2q137 10 137 123v430q0 57 6 100t25.5 87.5t53 72.5t92 46t138.5 18h70v-105h-63q-51 0 -85.5 -9t-55 -23.5t-31.5 -44t-14 -60t-3 -80.5v-315q0 -131 -31.5 -201.5t-119.5 -93.5q59 -13 93.5 -54.5t46 -98.5t11.5 -142v-319q0 -43 1.5 -69t8 -53.5 t18 -42.5t32 -28t51 -18t73.5 -5h68v-104h-72q-81 0 -138.5 16.5t-91 43t-52.5 70.5t-25 88t-6 106v428q0 61 -33 89.5t-100 33.5q-12 2 -51 2z" />
<glyph unicode="|" d="M547 -10v1413h135v-1413h-135z" />
<glyph unicode="}" d="M330 -279h67q64 0 101.5 11.5t55.5 41.5t23 64.5t5 98.5v319q0 63 6.5 109.5t22.5 86.5t46.5 64.5t75.5 34.5q-88 23 -119.5 93.5t-31.5 201.5v315q0 50 -3 80.5t-14 60t-31.5 44t-55 23.5t-85.5 9h-63v105h69q80 0 138.5 -18t92 -46t53.5 -72.5t26 -87.5t6 -100v-430 q0 -63 38.5 -92.5t112.5 -32.5h33v-110h-35q-75 -3 -112 -32t-37 -93v-428q0 -51 -4 -89t-15.5 -77t-34 -66t-56.5 -49t-85 -32.5t-119 -10.5h-71v104z" />
<glyph unicode="~" d="M68 541q74 118 151 164.5t162 46.5q66 0 138.5 -28t124.5 -61.5t110 -61.5t100 -28q61 0 109.5 46t103.5 143l92 -68q-79 -135 -156.5 -188t-168.5 -53q-48 0 -98 18.5t-93 45.5l-86 54t-92.5 45.5t-97.5 18.5q-56 0 -106.5 -40.5t-104.5 -119.5z" />
<glyph unicode="&#xa0;" />
<glyph unicode="&#xa1;" d="M506 842q0 49 29.5 74.5t78.5 25.5q107 0 107 -100q0 -46 -29.5 -72.5t-77.5 -26.5q-47 0 -77.5 25t-30.5 74zM539 53l16 459h121l18 -461v-461h-155v463z" />
<glyph unicode="&#xa2;" d="M233 475q0 225 109.5 359.5t290.5 160.5v166h108v-160q136 -5 252 -65l-49 -150q-104 71 -203 76v-747q114 6 205 82l45 -136q-102 -66 -250 -79v-132h-108v134q-185 15 -292.5 143.5t-107.5 347.5zM403 477q0 -145 59 -235.5t171 -116.5v731q-112 -25 -171 -122 t-59 -257z" />
<glyph unicode="&#xa3;" d="M80 0v109q92 11 148.5 94t56.5 180v221h-181v117h181v160q0 119 35 211t97 147t140 83t170 28q184 0 317 -119l-86 -121q-56 59 -111 83t-122 24q-135 0 -205.5 -77.5t-70.5 -254.5v-164h477v-117h-477v-135q0 -113 -33 -192t-119 -140h487q115 0 176 34t103 97l84 -106 q-32 -62 -110.5 -112t-192.5 -50h-764z" />
<glyph unicode="&#xa4;" d="M150 139l212 215q-61 86 -61 183q0 102 61 178q-3 3 -55 56.5t-101.5 103.5t-55.5 55l67 71l215 -217q88 58 178 58q95 0 183 -58l219 215l67 -69l-219 -215q62 -74 62 -178q0 -105 -62 -181l219 -217l-73 -59l-213 211q-78 -60 -181 -60q-92 0 -180 58l-211 -209z M430 537q0 -84 52 -139.5t130 -55.5q79 0 132 56.5t53 138.5q0 86 -51.5 138t-133.5 52q-81 0 -131.5 -51.5t-50.5 -138.5z" />
<glyph unicode="&#xa5;" d="M94 1331h176l365 -674l334 674h164l-375 -725h282v-117h-327v-184h327v-117h-327v-188h-166v188h-328v117h328v184h-328v117h277z" />
<glyph unicode="&#xa6;" d="M547 -10v606h135v-606h-135zM547 827v576h135v-576h-135z" />
<glyph unicode="&#xa7;" d="M121 -406l6 156q111 -72 215 -72q50 0 93 9.5t80.5 29.5t59 57t21.5 87q0 62 -37.5 169t-91 223.5t-106.5 233.5t-90.5 224.5t-37.5 169.5q0 89 42 167.5t109 132.5t151.5 93t169.5 57.5t163 18.5q121 0 240 -29l-6 -156q-59 37 -133.5 61.5t-134.5 24.5 q-83 0 -125.5 -48t-42.5 -132q0 -56 37 -163.5t90 -227t106 -239.5t90 -227.5t37 -164.5q0 -78 -35 -148t-93 -121t-131 -92t-151.5 -66.5t-151.5 -38.5t-134 -13q-121 0 -209 24zM356 911q0 -66 37 -171t90 -216.5t105.5 -224.5t89.5 -222.5t37 -182.5q0 -77 -37 -127 q119 51 173 115t54 153q-1 66 -37 172t-88 219t-103.5 228t-87.5 227t-36 186q0 80 47 137q-115 -50 -179.5 -132.5t-64.5 -160.5z" />
<glyph unicode="&#xa8;" d="M340 1282q0 40 27 68t67 28t68 -28t28 -68t-28 -67t-68 -27t-67 27t-27 67zM696 1282q0 40 28.5 68t68.5 28q38 0 66 -28t28 -68q0 -39 -27.5 -66.5t-66.5 -27.5q-40 0 -68.5 27.5t-28.5 66.5z" />
<glyph unicode="&#xa9;" d="M12 641q0 181 75.5 331t213.5 238t309 88q176 0 316 -88t216.5 -237.5t76.5 -331.5q0 -134 -44.5 -254t-123 -208.5t-193 -140.5t-248.5 -52q-171 0 -309 88.5t-213.5 238t-75.5 328.5zM100 641q0 -255 143.5 -417.5t366.5 -162.5q155 0 274 75t182.5 207t63.5 298 q0 159 -63.5 290.5t-183.5 210.5t-273 79q-227 0 -368.5 -163t-141.5 -417zM221 637q0 202 118 311t318 109q146 0 236 -49l-41 -109q-80 62 -197 62q-149 0 -227 -82.5t-78 -239.5q0 -159 78.5 -237t224.5 -78q64 0 125 15.5t96 37.5l29 -101q-107 -49 -258 -49 q-201 0 -312.5 100t-111.5 310z" />
<glyph unicode="&#xaa;" d="M246 764q0 66 33.5 113t91 72t121.5 35.5t139 10.5q30 0 84 -4q27 0 35 -2v103q0 149 -160 149q-33 0 -66 -7.5t-61.5 -30t-30.5 -56.5q0 -16 6 -37l-125 -16q-12 28 -12 61q-1 87 87 141t214 54q57 0 105.5 -12t91.5 -39t67.5 -76t24.5 -117l-2 -373q0 -79 49 -82 q18 0 33 6l10 -96q-52 -10 -82 -10q-58 0 -94 27.5t-47 74.5q-112 -102 -262 -102q-113 0 -181.5 58t-68.5 155zM395 782q0 -125 144 -125q57 0 114.5 27t96.5 66v155q-83 10 -132 10q-98 -2 -160.5 -33t-62.5 -100z" />
<glyph unicode="&#xab;" d="M213 479l256 473h141l-227 -465l227 -481h-141zM616 479l256 473h142l-228 -465l228 -481h-142z" />
<glyph unicode="&#xac;" d="M66 553v113h1083v-543h-127v430h-956z" />
<glyph unicode="&#xad;" d="M352 455v143h525v-143h-525z" />
<glyph unicode="&#xae;" d="M121 846q0 137 66 253t178.5 183.5t244.5 67.5q135 0 249 -67.5t180.5 -183.5t66.5 -253q0 -210 -145 -356t-351 -146q-132 0 -244.5 67.5t-178.5 183t-66 251.5zM199 846q0 -191 119 -312.5t292 -121.5q181 0 299.5 121.5t118.5 312.5q0 180 -120 307t-298 127 q-176 0 -293.5 -122t-117.5 -312zM410 522v664h206q128 0 185 -53.5t57 -157.5q0 -75 -37.5 -126.5t-101.5 -72.5l137 -254h-113l-120 240h-113v-240h-100zM510 838h102q140 0 140 133q0 75 -32 105t-112 30h-98v-268z" />
<glyph unicode="&#xaf;" d="M362 1225v116h504v-116h-504z" />
<glyph unicode="&#xb0;" d="M326 1079q0 120 80.5 195.5t209.5 75.5q131 0 208 -73.5t77 -197.5q0 -125 -77.5 -199.5t-207.5 -74.5q-133 0 -211.5 74.5t-78.5 199.5zM434 1079q0 -83 49 -134.5t133 -51.5q85 0 130 51.5t45 134.5q0 80 -47 130.5t-128 50.5q-86 0 -134 -50t-48 -131z" />
<glyph unicode="&#xb1;" d="M193 8v117h841v-117h-841zM193 557v119h354v313h133v-313h354v-119h-354v-307h-133v307h-354z" />
<glyph unicode="&#xb4;" d="M432 1194l264 274l99 -108l-295 -236z" />
<glyph unicode="&#xb5;" d="M203 -451v1430h162v-608q0 -142 51 -198t159 -56q132 0 287 123v739h162v-979h-150l-4 115q-160 -138 -325 -138q-144 0 -213 66q33 -95 33 -227v-267h-162z" />
<glyph unicode="&#xb6;" d="M164 825q0 78 22.5 151t70 138t116.5 113t168 76t217 28v-1782h-142v777q-213 55 -332.5 185t-119.5 314zM924 -451v1782h141v-1782h-141z" />
<glyph unicode="&#xb7;" d="M508 602q0 44 29.5 72t74.5 28t76 -27.5t31 -72.5q0 -48 -30.5 -75t-76.5 -27t-75 27t-29 75z" />
<glyph unicode="&#xb8;" d="M410 -418l43 107q20 -23 57 -39.5t78 -16.5q49 0 76.5 21.5t27.5 54.5q0 45 -45 74t-133 33l59 209h99l-39 -142q91 -14 138.5 -63t47.5 -113q0 -74 -65.5 -124t-165.5 -50q-102 0 -178 49z" />
<glyph unicode="&#xba;" d="M221 952q0 176 106.5 287t286.5 111q188 0 291 -105t103 -293q0 -169 -104 -285t-290 -116t-289.5 104.5t-103.5 296.5zM373 952q0 -142 54.5 -215t184.5 -73q135 0 189.5 74t54.5 214q0 287 -244 287q-131 0 -185 -76t-54 -211z" />
<glyph unicode="&#xbb;" d="M213 6l227 481l-227 465h141l256 -473l-256 -473h-141zM616 6l228 481l-228 465h142l256 -473l-256 -473h-142z" />
<glyph unicode="&#xbf;" d="M231 -141q0 59 23 110t59.5 88t81 70t89 63t81 60t59.5 67.5t23 79.5q0 53 -41 117l164 41q37 -75 37 -160q0 -49 -22 -93t-57.5 -79t-78.5 -68t-85.5 -65t-78 -65t-57.5 -73.5t-22 -84.5q0 -75 66 -116.5t167 -41.5q170 0 285 115l73 -117q-70 -61 -168.5 -97 t-210.5 -36q-171 0 -279 77.5t-108 207.5zM557 844q0 50 29 75t80 25q106 0 106 -100q0 -47 -28 -73t-78 -26q-47 0 -78 25t-31 74z" />
<glyph unicode="&#xc0;" d="M59 0l465 1331h176l467 -1331h-174l-119 352h-534l-115 -352h-166zM328 1591l69 133l336 -217l-47 -84zM385 489h444l-223 668z" />
<glyph unicode="&#xc1;" d="M59 0l465 1331h176l467 -1331h-174l-119 352h-534l-115 -352h-166zM385 489h444l-223 668zM481 1507l336 217l70 -133l-359 -168z" />
<glyph unicode="&#xc2;" d="M59 0l465 1331h176l467 -1331h-174l-119 352h-534l-115 -352h-166zM326 1528l247 203h89l243 -199l-71 -90l-222 168l-219 -168zM385 489h444l-223 668z" />
<glyph unicode="&#xc3;" d="M59 0l465 1331h176l467 -1331h-174l-119 352h-534l-115 -352h-166zM283 1546q94 127 198 127q55 0 138 -29.5t122 -29.5q80 0 133 63l56 -61q-87 -125 -197 -125q-43 0 -127.5 31.5t-126.5 31.5q-82 0 -139 -67zM385 489h444l-223 668z" />
<glyph unicode="&#xc4;" d="M59 0l465 1331h176l467 -1331h-174l-119 352h-534l-115 -352h-166zM328 1585q0 40 27 68t67 28t68 -28t28 -68t-28 -67t-68 -27t-67 27t-27 67zM385 489h444l-223 668zM696 1585q0 40 27.5 68t67.5 28t68 -28t28 -68t-28 -67t-68 -27t-67.5 27t-27.5 67z" />
<glyph unicode="&#xc5;" d="M59 0l465 1331h176l467 -1331h-174l-119 352h-534l-115 -352h-166zM385 489h444l-223 668zM401 1606q0 90 62 144t153 54q93 0 151 -52.5t58 -145.5q0 -85 -59 -143t-154 -58q-94 0 -152.5 56t-58.5 145zM504 1606q0 -57 27.5 -87t80.5 -30q109 0 109 117q0 116 -109 116 q-108 0 -108 -116z" />
<glyph unicode="&#xc6;" d="M10 0l539 1331h655v-143h-432v-434h365v-142h-365v-467h432v-145h-586v336h-313l-129 -336h-166zM356 469h262v680z" />
<glyph unicode="&#xc7;" d="M113 657q0 329 172 511t460 182q100 0 196.5 -22t154.5 -58l-56 -154q-55 44 -136 67t-163 23q-225 0 -338.5 -140t-113.5 -404q0 -541 450 -541q96 0 190 24t144 56l41 -140q-143 -75 -356 -81l-27 -97q91 -14 139 -63t48 -113q0 -74 -66 -124t-166 -50q-102 0 -178 49 l43 107q20 -23 57 -39.5t78 -16.5q50 0 77.5 21.5t27.5 54.5q0 45 -45.5 74t-133.5 33l47 166q-258 18 -402 183.5t-144 491.5z" />
<glyph unicode="&#xc8;" d="M174 0v1331h903v-143h-737v-434h668v-142h-668v-467h737v-145h-903zM362 1591l70 133l336 -217l-47 -84z" />
<glyph unicode="&#xc9;" d="M174 0v1331h903v-143h-737v-434h668v-142h-668v-467h737v-145h-903zM479 1507l336 217l70 -133l-359 -168z" />
<glyph unicode="&#xca;" d="M174 0v1331h903v-143h-737v-434h668v-142h-668v-467h737v-145h-903zM354 1528l248 203h88l244 -199l-72 -90l-221 168l-219 -168z" />
<glyph unicode="&#xcb;" d="M174 0v1331h903v-143h-737v-434h668v-142h-668v-467h737v-145h-903zM362 1585q0 40 27.5 68t67.5 28t68 -28t28 -68t-28 -67t-68 -27t-67.5 27t-27.5 67zM731 1585q0 40 27 68t67 28t68.5 -28t28.5 -68q0 -39 -28.5 -66.5t-68.5 -27.5t-67 27t-27 67z" />
<glyph unicode="&#xcc;" d="M162 0v145h368v1041h-368v145h917v-145h-383v-1041h383v-145h-917zM328 1591l69 133l336 -217l-47 -84z" />
<glyph unicode="&#xcd;" d="M162 0v145h368v1041h-368v145h917v-145h-383v-1041h383v-145h-917zM463 1507l336 217l69 -133l-358 -168z" />
<glyph unicode="&#xce;" d="M162 0v145h368v1041h-368v145h917v-145h-383v-1041h383v-145h-917zM319 1528l248 203h88l244 -199l-72 -90l-221 168l-219 -168z" />
<glyph unicode="&#xcf;" d="M162 0v145h368v1041h-368v145h917v-145h-383v-1041h383v-145h-917zM332 1585q0 40 27 68t67 28t68 -28t28 -68t-28 -67t-68 -27t-67 27t-27 67zM700 1585q0 40 27.5 68t67.5 28t68 -28t28 -68t-28 -67t-68 -27t-67.5 27t-27.5 67z" />
<glyph unicode="&#xd0;" d="M-2 612v131h133v588h442q137 0 243 -35.5t173 -95t110.5 -145t61 -178t17.5 -201.5q0 -116 -15.5 -209.5t-57 -183t-109 -150t-177.5 -97t-256 -36.5h-432v612h-133zM297 145h285q77 0 139 14t105.5 38.5t75 62.5t50.5 80t30.5 98t15 108.5t3.5 119.5q0 87 -11 158.5 t-40 141t-75.5 117t-123.5 76.5t-178 29h-276v-445h248v-131h-248v-467z" />
<glyph unicode="&#xd1;" d="M121 0v1331h182l649 -1067v1067h156v-1331h-170l-659 1087v-1087h-158zM322 1546q94 127 198 127q54 0 137 -29.5t123 -29.5q80 0 133 63l56 -61q-87 -125 -197 -125q-43 0 -127.5 31.5t-126.5 31.5q-82 0 -139 -67z" />
<glyph unicode="&#xd2;" d="M57 662q0 320 141 504t418 184q287 0 421 -172.5t134 -513.5q0 -201 -62 -353t-190.5 -241.5t-310.5 -89.5q-551 0 -551 682zM233 662q0 -106 10 -186t35.5 -149t67.5 -112.5t107.5 -67.5t154.5 -24q85 0 151 25.5t110 71.5t72.5 114t41 149t12.5 181q0 136 -18 232.5 t-60.5 168t-117 106.5t-183.5 35t-183.5 -33.5t-118 -104t-62.5 -168.5t-19 -238zM334 1591l69 133l336 -217l-47 -84z" />
<glyph unicode="&#xd3;" d="M57 662q0 320 141 504t418 184q287 0 421 -172.5t134 -513.5q0 -201 -62 -353t-190.5 -241.5t-310.5 -89.5q-551 0 -551 682zM233 662q0 -106 10 -186t35.5 -149t67.5 -112.5t107.5 -67.5t154.5 -24q85 0 151 25.5t110 71.5t72.5 114t41 149t12.5 181q0 136 -18 232.5 t-60.5 168t-117 106.5t-183.5 35t-183.5 -33.5t-118 -104t-62.5 -168.5t-19 -238zM467 1507l336 217l69 -133l-358 -168z" />
<glyph unicode="&#xd4;" d="M57 662q0 320 141 504t418 184q287 0 421 -172.5t134 -513.5q0 -201 -62 -353t-190.5 -241.5t-310.5 -89.5q-551 0 -551 682zM233 662q0 -106 10 -186t35.5 -149t67.5 -112.5t107.5 -67.5t154.5 -24q85 0 151 25.5t110 71.5t72.5 114t41 149t12.5 181q0 136 -18 232.5 t-60.5 168t-117 106.5t-183.5 35t-183.5 -33.5t-118 -104t-62.5 -168.5t-19 -238zM340 1528l248 203h88l244 -199l-72 -90l-221 168l-219 -168z" />
<glyph unicode="&#xd5;" d="M57 662q0 320 141 504t418 184q287 0 421 -172.5t134 -513.5q0 -201 -62 -353t-190.5 -241.5t-310.5 -89.5q-551 0 -551 682zM233 662q0 -106 10 -186t35.5 -149t67.5 -112.5t107.5 -67.5t154.5 -24q85 0 151 25.5t110 71.5t72.5 114t41 149t12.5 181q0 136 -18 232.5 t-60.5 168t-117 106.5t-183.5 35t-183.5 -33.5t-118 -104t-62.5 -168.5t-19 -238zM297 1546q94 127 199 127q54 0 137 -29.5t123 -29.5q80 0 133 63l55 -61q-87 -125 -196 -125q-43 0 -127.5 31.5t-126.5 31.5q-83 0 -140 -67z" />
<glyph unicode="&#xd6;" d="M57 662q0 320 141 504t418 184q287 0 421 -172.5t134 -513.5q0 -201 -62 -353t-190.5 -241.5t-310.5 -89.5q-551 0 -551 682zM233 662q0 -106 10 -186t35.5 -149t67.5 -112.5t107.5 -67.5t154.5 -24q85 0 151 25.5t110 71.5t72.5 114t41 149t12.5 181q0 136 -18 232.5 t-60.5 168t-117 106.5t-183.5 35t-183.5 -33.5t-118 -104t-62.5 -168.5t-19 -238zM330 1585q0 40 27 68t67 28t68 -28t28 -68t-28 -67t-68 -27t-67 27t-27 67zM698 1585q0 40 27.5 68t67.5 28t68 -28t28 -68t-28 -67t-68 -27t-67.5 27t-27.5 67z" />
<glyph unicode="&#xd7;" d="M274 348l250 234l-248 231l93 86l247 -231l248 233l88 -82l-252 -229l254 -240l-92 -84l-254 236l-246 -234z" />
<glyph unicode="&#xd8;" d="M35 -6l141 182q-119 170 -119 486q0 320 141 504t418 184q237 0 375 -123l84 108h119l-141 -182q118 -170 118 -489q0 -201 -62 -353t-190.5 -241.5t-310.5 -89.5q-233 0 -368 120l-82 -106h-123zM233 662q0 -227 50 -349l608 785q-89 108 -275 108q-109 0 -183.5 -33.5 t-118 -104t-62.5 -168.5t-19 -238zM336 225q86 -102 272 -102q85 0 151 25.5t110 71.5t72.5 114t41 149t12.5 181q0 227 -51 348z" />
<glyph unicode="&#xd9;" d="M127 481v850h164v-831q0 -214 74 -297.5t251 -83.5q180 0 251 90.5t71 304.5v817h162v-833q0 -120 -24.5 -211t-80 -162t-152.5 -108t-233 -37t-230 32.5t-149.5 98t-79.5 155.5t-24 215zM360 1591l70 133l336 -217l-47 -84z" />
<glyph unicode="&#xda;" d="M127 481v850h164v-831q0 -214 74 -297.5t251 -83.5q180 0 251 90.5t71 304.5v817h162v-833q0 -120 -24.5 -211t-80 -162t-152.5 -108t-233 -37t-230 32.5t-149.5 98t-79.5 155.5t-24 215zM469 1507l336 217l69 -133l-358 -168z" />
<glyph unicode="&#xdb;" d="M127 481v850h164v-831q0 -214 74 -297.5t251 -83.5q180 0 251 90.5t71 304.5v817h162v-833q0 -120 -24.5 -211t-80 -162t-152.5 -108t-233 -37t-230 32.5t-149.5 98t-79.5 155.5t-24 215zM326 1528l247 203h89l243 -199l-71 -90l-222 168l-219 -168z" />
<glyph unicode="&#xdc;" d="M127 481v850h164v-831q0 -214 74 -297.5t251 -83.5q180 0 251 90.5t71 304.5v817h162v-833q0 -120 -24.5 -211t-80 -162t-152.5 -108t-233 -37t-230 32.5t-149.5 98t-79.5 155.5t-24 215zM334 1585q0 40 27 68t67 28t68 -28t28 -68t-28 -67t-68 -27t-67 27t-27 67z M702 1585q0 40 27.5 68t67.5 28t68 -28t28 -68t-28 -67t-68 -27t-67.5 27t-27.5 67z" />
<glyph unicode="&#xdd;" d="M94 1331h176l365 -674l334 674h164l-420 -813v-518h-166v514zM473 1507l336 217l70 -133l-359 -168z" />
<glyph unicode="&#xde;" d="M184 0v1331h166v-184h228q244 0 354 -108t110 -316q0 -202 -123 -318t-327 -116h-242v-289h-166zM350 432h232q133 0 208.5 67.5t75.5 215.5q0 149 -68.5 219t-224.5 70h-223v-572z" />
<glyph unicode="&#xdf;" d="M49 842v112l146 11v43q0 105 34 187t93 130.5t132 73t158 24.5q183 0 278 -79t95 -211q0 -48 -28 -92.5t-68 -79.5t-80 -69t-68 -76t-28 -87q0 -37 26 -66.5t67 -50t90.5 -40t99.5 -45t91 -57.5t67 -84t26 -118q0 -78 -31 -136t-84 -90t-115.5 -47t-134.5 -15 q-81 0 -160.5 22t-140.5 59l45 148q37 -37 108 -68.5t144 -31.5q209 0 209 149q0 45 -25.5 79t-66.5 56t-90.5 42t-99.5 42.5t-91 51.5t-66.5 76t-25.5 108q0 52 19.5 98.5t49 77.5t63.5 62.5t63.5 55.5t49 55t19.5 62q0 76 -53.5 121t-159.5 45q-254 0 -254 -293v-997h-157 v842h-146z" />
<glyph unicode="&#xe0;" d="M184 254q0 69 29 122.5t75.5 85.5t111.5 52t129 27.5t137 7.5q55 0 141 -8l2 131q0 111 -51.5 154.5t-159.5 43.5q-38 0 -71.5 -5.5t-65 -19t-50 -40t-18.5 -64.5q0 -21 6 -45l-145 -18q-12 38 -12 72q0 112 104.5 181.5t265.5 69.5q78 0 139 -15t111.5 -49t78 -96.5 t26.5 -150.5l-2 -473q0 -57 21 -82.5t52 -25.5q20 0 35 6l14 -121q-52 -14 -96 -14q-73 0 -118.5 37t-57.5 102q-130 -139 -326 -139q-134 0 -219.5 74t-85.5 200zM326 1360l100 108l262 -274l-67 -70zM350 272q0 -80 51 -121.5t142 -41.5q76 0 147 36.5t117 87.5v193 q-86 12 -158 12q-60 0 -109.5 -7.5t-94 -25t-70 -51.5t-25.5 -82z" />
<glyph unicode="&#xe1;" d="M184 254q0 69 29 122.5t75.5 85.5t111.5 52t129 27.5t137 7.5q55 0 141 -8l2 131q0 111 -51.5 154.5t-159.5 43.5q-38 0 -71.5 -5.5t-65 -19t-50 -40t-18.5 -64.5q0 -21 6 -45l-145 -18q-12 38 -12 72q0 112 104.5 181.5t265.5 69.5q78 0 139 -15t111.5 -49t78 -96.5 t26.5 -150.5l-2 -473q0 -57 21 -82.5t52 -25.5q20 0 35 6l14 -121q-52 -14 -96 -14q-73 0 -118.5 37t-57.5 102q-130 -139 -326 -139q-134 0 -219.5 74t-85.5 200zM350 272q0 -80 51 -121.5t142 -41.5q76 0 147 36.5t117 87.5v193q-86 12 -158 12q-60 0 -109.5 -7.5t-94 -25 t-70 -51.5t-25.5 -82zM485 1194l265 274l98 -108l-295 -236z" />
<glyph unicode="&#xe2;" d="M184 254q0 69 29 122.5t75.5 85.5t111.5 52t129 27.5t137 7.5q55 0 141 -8l2 131q0 111 -51.5 154.5t-159.5 43.5q-38 0 -71.5 -5.5t-65 -19t-50 -40t-18.5 -64.5q0 -21 6 -45l-145 -18q-12 38 -12 72q0 112 104.5 181.5t265.5 69.5q78 0 139 -15t111.5 -49t78 -96.5 t26.5 -150.5l-2 -473q0 -57 21 -82.5t52 -25.5q20 0 35 6l14 -121q-52 -14 -96 -14q-73 0 -118.5 37t-57.5 102q-130 -139 -326 -139q-134 0 -219.5 74t-85.5 200zM291 1184l254 243h88l252 -239l-86 -82l-213 199l-213 -201zM350 272q0 -80 51 -121.5t142 -41.5 q76 0 147 36.5t117 87.5v193q-86 12 -158 12q-60 0 -109.5 -7.5t-94 -25t-70 -51.5t-25.5 -82z" />
<glyph unicode="&#xe3;" d="M184 254q0 69 29 122.5t75.5 85.5t111.5 52t129 27.5t137 7.5q55 0 141 -8l2 131q0 111 -51.5 154.5t-159.5 43.5q-38 0 -71.5 -5.5t-65 -19t-50 -40t-18.5 -64.5q0 -21 6 -45l-145 -18q-12 38 -12 72q0 112 104.5 181.5t265.5 69.5q78 0 139 -15t111.5 -49t78 -96.5 t26.5 -150.5l-2 -473q0 -57 21 -82.5t52 -25.5q20 0 35 6l14 -121q-52 -14 -96 -14q-73 0 -118.5 37t-57.5 102q-130 -139 -326 -139q-134 0 -219.5 74t-85.5 200zM274 1249q98 127 199 127q56 0 124.5 -29.5t107.5 -29.5q81 0 133 63l55 -61q-85 -125 -197 -125 q-44 0 -113 30.5t-110 30.5q-87 0 -141 -67zM350 272q0 -80 51 -121.5t142 -41.5q76 0 147 36.5t117 87.5v193q-86 12 -158 12q-60 0 -109.5 -7.5t-94 -25t-70 -51.5t-25.5 -82z" />
<glyph unicode="&#xe4;" d="M184 254q0 69 29 122.5t75.5 85.5t111.5 52t129 27.5t137 7.5q55 0 141 -8l2 131q0 111 -51.5 154.5t-159.5 43.5q-38 0 -71.5 -5.5t-65 -19t-50 -40t-18.5 -64.5q0 -21 6 -45l-145 -18q-12 38 -12 72q0 112 104.5 181.5t265.5 69.5q78 0 139 -15t111.5 -49t78 -96.5 t26.5 -150.5l-2 -473q0 -57 21 -82.5t52 -25.5q20 0 35 6l14 -121q-52 -14 -96 -14q-73 0 -118.5 37t-57.5 102q-130 -139 -326 -139q-134 0 -219.5 74t-85.5 200zM309 1282q0 40 27 68t67 28t68.5 -28t28.5 -68q0 -39 -28.5 -66.5t-68.5 -27.5t-67 27t-27 67zM350 272 q0 -80 51 -121.5t142 -41.5q76 0 147 36.5t117 87.5v193q-86 12 -158 12q-60 0 -109.5 -7.5t-94 -25t-70 -51.5t-25.5 -82zM666 1282q0 40 28 68t68 28q38 0 66 -28t28 -68q0 -39 -27.5 -66.5t-66.5 -27.5q-40 0 -68 27t-28 67z" />
<glyph unicode="&#xe5;" d="M184 254q0 69 29 122.5t75.5 85.5t111.5 52t129 27.5t137 7.5q55 0 141 -8l2 131q0 111 -51.5 154.5t-159.5 43.5q-38 0 -71.5 -5.5t-65 -19t-50 -40t-18.5 -64.5q0 -21 6 -45l-145 -18q-12 38 -12 72q0 112 104.5 181.5t265.5 69.5q78 0 139 -15t111.5 -49t78 -96.5 t26.5 -150.5l-2 -473q0 -57 21 -82.5t52 -25.5q20 0 35 6l14 -121q-52 -14 -96 -14q-73 0 -118.5 37t-57.5 102q-130 -139 -326 -139q-134 0 -219.5 74t-85.5 200zM350 272q0 -80 51 -121.5t142 -41.5q76 0 147 36.5t117 87.5v193q-86 12 -158 12q-60 0 -109.5 -7.5t-94 -25 t-70 -51.5t-25.5 -82zM371 1311q0 89 62 142.5t153 53.5q93 0 151 -51.5t58 -144.5q0 -85 -59 -143t-154 -58q-94 0 -152.5 55.5t-58.5 145.5zM473 1311q0 -117 109 -117q108 0 108 117q0 114 -108 114q-109 0 -109 -114z" />
<glyph unicode="&#xe6;" d="M18 252q0 65 24 116t62.5 82.5t92 52t107.5 28.5t114 8q61 0 92 -4q0 48 10 96v47q0 110 -35.5 152t-119.5 42q-39 0 -70.5 -9t-56.5 -38t-25 -77q0 -22 10 -52l-131 -18q-14 38 -14 78q0 110 84 177.5t217 67.5q86 0 152 -34.5t92 -108.5q94 143 260 143 q162 0 235.5 -120.5t75.5 -364.5v-49h-535q3 -169 73 -261.5t181 -92.5q132 0 228 84l39 -134q-124 -83 -279 -83q-215 0 -313 178q-52 -88 -131 -133t-166 -45q-126 0 -199.5 71.5t-73.5 200.5zM166 268q0 -80 41 -122t112 -42q72 0 131 41t93 105q-30 92 -35 176 q-36 8 -94 8q-49 0 -90.5 -8t-78.5 -25.5t-58 -51.5t-21 -81zM659 580h390v24q2 120 -40.5 197.5t-127.5 77.5q-102 0 -155 -74t-67 -225z" />
<glyph unicode="&#xe7;" d="M229 475q0 108 26 196t72 149t110 102t137.5 60t156.5 19q98 0 186.5 -24t147.5 -59l-49 -148q-137 96 -283 96q-156 0 -245 -97t-89 -292q0 -177 91.5 -269.5t250.5 -92.5q82 0 157 29t120 67l45 -133q-127 -84 -307 -96l-27 -101q91 -14 138.5 -63t47.5 -113 q0 -74 -65.5 -124t-165.5 -50q-102 0 -178 49l43 107q20 -23 57 -39.5t78 -16.5q49 0 76.5 21.5t27.5 54.5q0 45 -45 74t-133 33l47 168q-91 7 -167.5 39.5t-135.5 91.5t-92 151.5t-33 210.5z" />
<glyph unicode="&#xe8;" d="M197 492q0 123 37 221.5t100.5 160.5t145 94.5t173.5 32.5q190 0 303 -117t113 -356q0 -55 -2 -61h-705q7 -175 101.5 -264.5t253.5 -89.5q77 0 163.5 31.5t129.5 68.5l43 -135q-68 -42 -166 -70t-209 -28q-104 0 -190.5 31t-152 92.5t-102 160.5t-36.5 228zM367 580h538 q2 134 -67.5 215.5t-184.5 81.5q-257 0 -286 -297zM416 1360l100 108l262 -274l-67 -70z" />
<glyph unicode="&#xe9;" d="M197 492q0 123 37 221.5t100.5 160.5t145 94.5t173.5 32.5q190 0 303 -117t113 -356q0 -55 -2 -61h-705q7 -175 101.5 -264.5t253.5 -89.5q77 0 163.5 31.5t129.5 68.5l43 -135q-68 -42 -166 -70t-209 -28q-104 0 -190.5 31t-152 92.5t-102 160.5t-36.5 228zM367 580h538 q2 134 -67.5 215.5t-184.5 81.5q-257 0 -286 -297zM524 1194l264 274l99 -108l-295 -236z" />
<glyph unicode="&#xea;" d="M197 492q0 123 37 221.5t100.5 160.5t145 94.5t173.5 32.5q190 0 303 -117t113 -356q0 -55 -2 -61h-705q7 -175 101.5 -264.5t253.5 -89.5q77 0 163.5 31.5t129.5 68.5l43 -135q-68 -42 -166 -70t-209 -28q-104 0 -190.5 31t-152 92.5t-102 160.5t-36.5 228zM360 1184 l254 243h88l252 -239l-86 -82l-213 199l-213 -201zM367 580h538q2 134 -67.5 215.5t-184.5 81.5q-257 0 -286 -297z" />
<glyph unicode="&#xeb;" d="M197 492q0 123 37 221.5t100.5 160.5t145 94.5t173.5 32.5q190 0 303 -117t113 -356q0 -55 -2 -61h-705q7 -175 101.5 -264.5t253.5 -89.5q77 0 163.5 31.5t129.5 68.5l43 -135q-68 -42 -166 -70t-209 -28q-104 0 -190.5 31t-152 92.5t-102 160.5t-36.5 228zM367 580h538 q2 134 -67.5 215.5t-184.5 81.5q-257 0 -286 -297zM389 1282q0 40 27 68t67 28t68.5 -28t28.5 -68q0 -39 -28.5 -66.5t-68.5 -27.5t-67 27t-27 67zM745 1282q0 40 28.5 68t68.5 28q38 0 66 -28t28 -68q0 -39 -27.5 -66.5t-66.5 -27.5q-40 0 -68.5 27.5t-28.5 66.5z" />
<glyph unicode="&#xec;" d="M166 0v133h362v711h-362v133h526v-133h-2v-711h373v-133h-897zM360 1360l101 108l262 -274l-68 -70z" />
<glyph unicode="&#xed;" d="M166 0v133h362v711h-362v133h526v-133h-2v-711h373v-133h-897zM475 1194l264 274l99 -108l-295 -236z" />
<glyph unicode="&#xee;" d="M166 0v133h362v711h-362v133h526v-133h-2v-711h373v-133h-897zM313 1184l254 243h88l252 -239l-86 -82l-213 199l-213 -201z" />
<glyph unicode="&#xef;" d="M166 0v133h362v711h-362v133h526v-133h-2v-711h373v-133h-897zM340 1282q0 40 27 68t67 28t68 -28t28 -68t-28 -67t-68 -27t-67 27t-27 67zM696 1282q0 40 28.5 68t68.5 28q38 0 66 -28t28 -68q0 -39 -27.5 -66.5t-66.5 -27.5q-40 0 -68.5 27.5t-28.5 66.5z" />
<glyph unicode="&#xf0;" d="M152 492q0 221 120.5 358t323.5 137q128 0 211 -57q-87 144 -211 250l-115 -127l-82 63l111 125q-59 40 -119 72l76 102q76 -37 133 -72l105 117l81 -67l-98 -109q380 -281 389 -772v-20q0 -139 -51 -253.5t-158 -186.5t-254 -72q-219 0 -340.5 133t-121.5 379zM322 492 q0 -379 288 -379q157 0 226 96t71 270q0 174 -41 299q-44 38 -113.5 61t-136.5 23q-294 0 -294 -370z" />
<glyph unicode="&#xf1;" d="M201 0v977h151l2 -113q79 68 173.5 102.5t177.5 34.5q51 0 97 -8.5t93.5 -31.5t81.5 -60t56 -98t22 -141v-662h-160v602q0 140 -57.5 197t-169.5 57q-74 0 -157 -32.5t-149 -84.5v-739h-161zM305 1249q98 127 199 127q56 0 124 -29.5t107 -29.5q81 0 133 63l56 -61 q-85 -125 -197 -125q-43 0 -113 30.5t-110 30.5q-88 0 -142 -67z" />
<glyph unicode="&#xf2;" d="M129 492q0 232 134 370.5t351 138.5q227 0 357.5 -131.5t130.5 -377.5q0 -143 -57.5 -258.5t-169.5 -184.5t-261 -69q-223 0 -354 132.5t-131 379.5zM299 494q0 -184 77 -282.5t234 -98.5q164 0 243 99t79 282q0 175 -79.5 274.5t-242.5 99.5q-157 0 -234 -101t-77 -273z M334 1360l100 108l262 -274l-67 -70z" />
<glyph unicode="&#xf3;" d="M129 492q0 232 134 370.5t351 138.5q227 0 357.5 -131.5t130.5 -377.5q0 -143 -57.5 -258.5t-169.5 -184.5t-261 -69q-223 0 -354 132.5t-131 379.5zM299 494q0 -184 77 -282.5t234 -98.5q164 0 243 99t79 282q0 175 -79.5 274.5t-242.5 99.5q-157 0 -234 -101t-77 -273z M471 1194l264 274l99 -108l-295 -236z" />
<glyph unicode="&#xf4;" d="M129 492q0 232 134 370.5t351 138.5q227 0 357.5 -131.5t130.5 -377.5q0 -143 -57.5 -258.5t-169.5 -184.5t-261 -69q-223 0 -354 132.5t-131 379.5zM299 494q0 -184 77 -282.5t234 -98.5q164 0 243 99t79 282q0 175 -79.5 274.5t-242.5 99.5q-157 0 -234 -101t-77 -273z M315 1184l254 243h88l252 -239l-86 -82l-213 199l-213 -201z" />
<glyph unicode="&#xf5;" d="M129 492q0 232 134 370.5t351 138.5q227 0 357.5 -131.5t130.5 -377.5q0 -143 -57.5 -258.5t-169.5 -184.5t-261 -69q-223 0 -354 132.5t-131 379.5zM299 494q0 -184 77 -282.5t234 -98.5q164 0 243 99t79 282q0 175 -79.5 274.5t-242.5 99.5q-157 0 -234 -101t-77 -273z M301 1249q98 127 199 127q56 0 124 -29.5t107 -29.5q81 0 133 63l56 -61q-85 -125 -197 -125q-43 0 -113 30.5t-110 30.5q-88 0 -142 -67z" />
<glyph unicode="&#xf6;" d="M129 492q0 232 134 370.5t351 138.5q227 0 357.5 -131.5t130.5 -377.5q0 -143 -57.5 -258.5t-169.5 -184.5t-261 -69q-223 0 -354 132.5t-131 379.5zM299 494q0 -184 77 -282.5t234 -98.5q164 0 243 99t79 282q0 175 -79.5 274.5t-242.5 99.5q-157 0 -234 -101t-77 -273z M334 1282q0 40 27 68t67 28t68 -28t28 -68t-28 -67t-68 -27t-67 27t-27 67zM690 1282q0 40 28 68t68 28q38 0 66.5 -28t28.5 -68q0 -39 -28 -66.5t-67 -27.5q-40 0 -68 27t-28 67z" />
<glyph unicode="&#xf7;" d="M240 543v119h747v-119h-747zM518 330q0 40 27 68t67 28t68.5 -28t28.5 -68q0 -39 -28.5 -66.5t-68.5 -27.5t-67 27t-27 67zM518 868q0 40 27.5 68.5t66.5 28.5q40 0 68.5 -28.5t28.5 -68.5q0 -39 -28.5 -66.5t-68.5 -27.5t-67 27t-27 67z" />
<glyph unicode="&#xf8;" d="M129 492q0 232 134 370.5t351 138.5q171 0 287 -73l45 57h121l-94 -119q129 -135 129 -374q0 -143 -57.5 -258.5t-169.5 -184.5t-261 -69q-168 0 -284 73l-47 -59h-119l94 119q-129 135 -129 379zM299 494q0 -164 57 -256l453 573q-75 57 -199 57q-157 0 -234 -101 t-77 -273zM420 168q73 -55 190 -55q164 0 243 99t79 282q0 153 -60 245z" />
<glyph unicode="&#xf9;" d="M174 317v660h162v-606q0 -140 57.5 -198t167.5 -58q70 0 150.5 35t150.5 90v737h162v-977h-150l-4 115q-79 -69 -170 -103.5t-172 -34.5q-51 0 -97 8t-94.5 30.5t-83 59t-57 99t-22.5 143.5zM369 1360l100 108l262 -274l-67 -70z" />
<glyph unicode="&#xfa;" d="M174 317v660h162v-606q0 -140 57.5 -198t167.5 -58q70 0 150.5 35t150.5 90v737h162v-977h-150l-4 115q-79 -69 -170 -103.5t-172 -34.5q-51 0 -97 8t-94.5 30.5t-83 59t-57 99t-22.5 143.5zM502 1194l264 274l98 -108l-295 -236z" />
<glyph unicode="&#xfb;" d="M174 317v660h162v-606q0 -140 57.5 -198t167.5 -58q70 0 150.5 35t150.5 90v737h162v-977h-150l-4 115q-79 -69 -170 -103.5t-172 -34.5q-51 0 -97 8t-94.5 30.5t-83 59t-57 99t-22.5 143.5zM315 1184l254 243h88l252 -239l-86 -82l-213 199l-213 -201z" />
<glyph unicode="&#xfc;" d="M174 317v660h162v-606q0 -140 57.5 -198t167.5 -58q70 0 150.5 35t150.5 90v737h162v-977h-150l-4 115q-79 -69 -170 -103.5t-172 -34.5q-51 0 -97 8t-94.5 30.5t-83 59t-57 99t-22.5 143.5zM352 1282q0 40 27 68t67 28t68.5 -28t28.5 -68q0 -39 -28.5 -66.5t-68.5 -27.5 t-67 27t-27 67zM709 1282q0 40 28 68t68 28q38 0 66 -28t28 -68q0 -39 -27.5 -66.5t-66.5 -27.5q-40 0 -68 27t-28 67z" />
<glyph unicode="&#xfd;" d="M145 977h170l310 -811l299 811h159l-553 -1428h-155l162 424zM506 1194l264 274l98 -108l-295 -236z" />
<glyph unicode="&#xfe;" d="M178 -451v1854h160v-543q151 141 309 141q193 0 298.5 -132.5t105.5 -358.5q0 -243 -139.5 -386.5t-368.5 -143.5q-100 0 -205 30v-461h-160zM338 166q87 -53 201 -53q161 0 250.5 100.5t89.5 282.5q0 179 -74 270.5t-199 91.5q-130 0 -268 -125v-567z" />
<glyph unicode="&#xff;" d="M145 977h170l310 -811l299 811h159l-553 -1428h-155l162 424zM350 1282q0 40 27 68t67 28t68.5 -28t28.5 -68q0 -39 -28.5 -66.5t-68.5 -27.5t-67 27t-27 67zM707 1282q0 40 28 68t68 28q38 0 66 -28t28 -68q0 -39 -27.5 -66.5t-66.5 -27.5q-40 0 -68 27t-28 67z" />
<glyph unicode="&#x152;" d="M41 659q0 154 27.5 277.5t84 217.5t151.5 145t222 51q76 0 150 -19h512v-143h-377v-434h309v-142h-309v-467h377v-145h-518q-85 -20 -154 -20q-135 0 -228.5 46t-147 137.5t-76.5 211.5t-23 284zM217 659q0 -264 69 -402t230 -138q78 0 135 16v1055q-58 18 -125 18 q-309 0 -309 -549z" />
<glyph unicode="&#x153;" d="M12 492q0 233 87.5 371t250.5 138q217 0 291 -204q36 102 103 153t157 51q316 0 316 -473q0 -52 -3 -61h-505q5 -175 67.5 -268t181.5 -93q58 0 111.5 28.5t91.5 66.5l43 -123q-113 -98 -264 -98q-105 0 -183.5 52t-121.5 156q-92 -208 -283 -208q-340 0 -340 512z M152 492q0 -186 44.5 -286t155.5 -100q215 0 215 386q0 382 -215 382q-57 0 -97.5 -29t-62 -83.5t-31 -120t-9.5 -149.5zM709 580h374q3 140 -44 220.5t-138 80.5q-93 0 -138 -74t-54 -227z" />
<glyph unicode="&#x178;" d="M94 1331h176l365 -674l334 674h164l-420 -813v-518h-166v514zM356 1585q0 40 27.5 68t67.5 28t68 -28t28 -68t-28 -67t-68 -27t-67.5 27t-27.5 67zM725 1585q0 40 27 68t67 28t68 -28t28 -68t-28 -67t-68 -27t-67 27t-27 67z" />
<glyph unicode="&#x2c6;" d="M317 1184l254 243h88l252 -239l-86 -82l-213 199l-213 -201z" />
<glyph unicode="&#x2dc;" d="M305 1249q98 127 199 127q56 0 124 -29.5t107 -29.5q81 0 133 63l56 -61q-85 -125 -197 -125q-43 0 -113 30.5t-110 30.5q-88 0 -142 -67z" />
<glyph unicode="&#x2000;" horiz-adv-x="902" />
<glyph unicode="&#x2001;" horiz-adv-x="1804" />
<glyph unicode="&#x2002;" horiz-adv-x="902" />
<glyph unicode="&#x2003;" horiz-adv-x="1804" />
<glyph unicode="&#x2004;" horiz-adv-x="601" />
<glyph unicode="&#x2005;" horiz-adv-x="451" />
<glyph unicode="&#x2006;" horiz-adv-x="300" />
<glyph unicode="&#x2007;" horiz-adv-x="300" />
<glyph unicode="&#x2008;" horiz-adv-x="225" />
<glyph unicode="&#x2009;" horiz-adv-x="360" />
<glyph unicode="&#x200a;" horiz-adv-x="100" />
<glyph unicode="&#x2010;" d="M352 455v143h525v-143h-525z" />
<glyph unicode="&#x2011;" d="M352 455v143h525v-143h-525z" />
<glyph unicode="&#x2012;" d="M352 455v143h525v-143h-525z" />
<glyph unicode="&#x2013;" d="M164 473v119h901v-119h-901z" />
<glyph unicode="&#x2014;" d="M0 473v119h1227v-119h-1227z" />
<glyph unicode="&#x2018;" d="M479 911q6 125 50 288t104 255l115 -33q-51 -95 -81.5 -239.5t-35.5 -270.5h-152z" />
<glyph unicode="&#x2019;" d="M479 932q51 95 81.5 239.5t35.5 270.5h152q-6 -125 -50 -288t-104 -255z" />
<glyph unicode="&#x201a;" d="M483 -336q51 97 81.5 236.5t33.5 259.5h145q-5 -121 -48.5 -277.5t-104.5 -249.5z" />
<glyph unicode="&#x201c;" d="M315 911q6 125 50 288t104 255l113 -33q-51 -96 -81.5 -242t-33.5 -268h-152zM645 911q5 123 49.5 287t104.5 256l112 -33q-50 -96 -80.5 -242t-33.5 -268h-152z" />
<glyph unicode="&#x201d;" d="M315 932q52 96 82 241t33 269h152q-5 -123 -49.5 -287t-104.5 -256zM645 932q51 96 81.5 242t33.5 268h151q-5 -123 -49 -287t-104 -256z" />
<glyph unicode="&#x201e;" d="M315 -336q52 96 82 235t33 261h148q-6 -123 -50.5 -279t-105.5 -248zM651 -336q51 97 81.5 236.5t33.5 259.5h145q-5 -121 -48.5 -277.5t-104.5 -249.5z" />
<glyph unicode="&#x2022;" d="M434 492q0 22 15 65q20 48 63.5 76.5t95.5 28.5q25 0 72 -15q53 -21 83 -64.5t30 -95.5q0 -30 -13 -63q-20 -49 -64.5 -77t-97.5 -28q-34 0 -71 15q-53 21 -83 63.5t-30 94.5z" />
<glyph unicode="&#x2026;" d="M57 78q0 48 28 73t75 25q46 0 74 -24t28 -74q0 -49 -27 -73.5t-75 -24.5q-103 0 -103 98zM512 78q0 48 26.5 73t73.5 25q46 0 74.5 -24t28.5 -74q0 -49 -27.5 -73.5t-75.5 -24.5q-100 0 -100 98zM965 78q0 48 26.5 73t73.5 25q46 0 75 -24t29 -74q0 -49 -28 -73.5 t-76 -24.5q-100 0 -100 98z" />
<glyph unicode="&#x202f;" horiz-adv-x="360" />
<glyph unicode="&#x2039;" d="M414 479l256 473h143l-229 -465l229 -481h-143z" />
<glyph unicode="&#x203a;" d="M414 6l229 481l-229 465h141l258 -473l-258 -473h-141z" />
<glyph unicode="&#x205f;" horiz-adv-x="451" />
<glyph unicode="&#x20ac;" d="M76 446l20 117h135q-2 29 -2 92q0 70 4 105h-137l21 117h131q45 230 186.5 351.5t370.5 121.5q91 0 177 -20.5t146 -53.5l-53 -152q-54 40 -126 62t-144 22q-169 0 -261 -82.5t-124 -248.5h551l-21 -117h-544q-3 -50 -3 -101q0 -49 3 -96h512l-21 -117h-477 q31 -167 124 -247t265 -80q87 0 169 22.5t130 53.5l43 -138q-146 -77 -360 -77q-234 0 -371 112.5t-176 353.5h-168z" />
<glyph unicode="&#x2122;" d="M20 1243v90h424v-90h-163v-590h-99v590h-162zM483 653v682h117l168 -381l78 -194l72 192l163 383h113v-682h-92v514l-55 -157l-158 -357h-92l-158 342l-70 168l2 -157v-353h-88z" />
<glyph unicode="&#x25fc;" horiz-adv-x="972" d="M0 0v973h973v-973h-973z" />
</font>
</defs>
</svg>
